<?xml version="1.0" encoding="UTF-8"?>
<svg width="162px" height="140px" viewBox="0 0 162 140" version="1.1" xmlns="http://www.w3.org/2000/svg" xmlns:xlink="http://www.w3.org/1999/xlink">
    <title>C3F12D7F-1692-449C-9471-0BB8A15FB4C0</title>
    <defs>
        <linearGradient x1="124.31875%" y1="-1.15196308%" x2="-15.7072917%" y2="111.924897%" id="linearGradient-1">
            <stop stop-color="#1162D7" offset="0%"></stop>
            <stop stop-color="#78F3E3" offset="66.1989796%"></stop>
            <stop stop-color="#52E5BB" offset="100%"></stop>
        </linearGradient>
        <linearGradient x1="100%" y1="0%" x2="0%" y2="100%" id="linearGradient-2">
            <stop stop-color="#FF8960" offset="0%"></stop>
            <stop stop-color="#FF62A5" offset="100%"></stop>
        </linearGradient>
        <linearGradient x1="100%" y1="35.7777778%" x2="0%" y2="64.2222222%" id="linearGradient-3">
            <stop stop-color="#FF8960" offset="0%"></stop>
            <stop stop-color="#FF62A5" offset="100%"></stop>
        </linearGradient>
        <linearGradient x1="51.2465374%" y1="0%" x2="48.7534626%" y2="100%" id="linearGradient-4">
            <stop stop-color="#FF8960" offset="0%"></stop>
            <stop stop-color="#FF62A5" offset="100%"></stop>
        </linearGradient>
        <linearGradient x1="51.3888889%" y1="0%" x2="48.6111111%" y2="100%" id="linearGradient-5">
            <stop stop-color="#FF8960" offset="0%"></stop>
            <stop stop-color="#FF62A5" offset="100%"></stop>
        </linearGradient>
        <linearGradient x1="64.0138408%" y1="0%" x2="35.9861592%" y2="100%" id="linearGradient-6">
            <stop stop-color="#FF8960" offset="0%"></stop>
            <stop stop-color="#FF62A5" offset="100%"></stop>
        </linearGradient>
        <linearGradient x1="62.5%" y1="0%" x2="37.5%" y2="100%" id="linearGradient-7">
            <stop stop-color="#FF8960" offset="0%"></stop>
            <stop stop-color="#FF62A5" offset="100%"></stop>
        </linearGradient>
    </defs>
    <g id="Page-1" stroke="none" stroke-width="1" fill="none" fill-rule="evenodd">
        <g id="Mobile_Success" transform="translate(-108.000000, -116.000000)">
            <g id="Artwork" transform="translate(108.266667, 117.000000)">
                <path d="M101.733333,94.1934153 L101.27201,96 L55.7333333,84.5688335 L56.1940551,82.7622488 C59.8377266,83.6765751 62.664008,80.1964093 63.121121,78.4083139 L65.7489191,68.1121526 C67.8299861,60.6192097 74.7107392,55.4344486 82.5490237,55.4535344 C83.220258,52.9682129 85.7969317,51.4938394 88.3026325,52.160051 C90.8089348,52.8262627 92.2963563,55.38077 91.6239191,57.8660914 C98.4980561,61.6707148 102.021435,69.5131654 100.275384,77.1247978 L97.7305875,87.095905 C97.1904725,89.2090545 99.912099,93.7359539 101.733333,94.1934153" id="Fill-1" fill="#F1F2F7"></path>
                <path d="M70.7333333,90 C71.1579333,94.8522723 75.1615543,98.416464 79.6762138,97.9607396 C82.1350387,97.7127903 84.359662,96.2878669 85.7333333,94.0808049 L70.7333333,90 Z" id="Fill-3" fill="#FFDA3E"></path>
                <path d="M143.733333,75.5 C143.733333,110.017415 115.750614,138 81.2330322,138 C46.715451,138 18.7333333,110.017415 18.7333333,75.5 C18.7333333,40.982585 46.715451,13 81.2330322,13 C115.750614,13 143.733333,40.982585 143.733333,75.5 Z" id="Stroke-5" stroke="#E9EAEC" stroke-dasharray="5.017,5.017"></path>
                <path d="M127.733333,76.5 C127.733333,102.181031 106.91423,123 81.2330317,123 C55.5512303,123 34.7333333,102.181031 34.7333333,76.5 C34.7333333,50.8189685 55.5512303,30 81.2330317,30 C106.91423,30 127.733333,50.8189685 127.733333,76.5 Z" id="Stroke-7" stroke="#E9EAEC" stroke-dasharray="5.045,5.045"></path>
                <path d="M126.392391,33.2694144 C127.285424,33.2694144 128.00773,33.9911029 128.00773,34.8847072 C128.00773,35.7783115 127.285424,36.5 126.392391,36.5 C125.498762,36.5 124.776456,35.7783115 124.776456,34.8847072 C124.776456,33.9911029 125.498762,33.2694144 126.392391,33.2694144 M131.238407,33.2694144 C132.132037,33.2694144 132.853746,33.9911029 132.853746,34.8847072 C132.853746,35.7783115 132.132037,36.5 131.238407,36.5 C130.344778,36.5 129.623069,35.7783115 129.623069,34.8847072 C129.623069,33.9911029 130.344778,33.2694144 131.238407,33.2694144 M136.084423,33.2694144 C136.978053,33.2694144 137.699762,33.9911029 137.699762,34.8847072 C137.699762,35.7783115 136.978053,36.5 136.084423,36.5 C135.190794,36.5 134.469085,35.7783115 134.469085,34.8847072 C134.469085,33.9911029 135.190794,33.2694144 136.084423,33.2694144 M124.584836,43.7694144 L132.29381,43.7694144 C133.020891,43.7694144 133.020891,43.7747868 133.368911,44.0320637 C133.717528,44.2893405 137.695584,47 137.695584,47 L137.695584,43.7694144 L137.881831,43.7694144 C140.011738,43.7694144 141.733333,42.1642695 141.733333,40.1651507 L141.733333,29.619784 C141.733333,27.6206652 140.007559,26 137.881831,26 L124.584836,26 C122.459704,26 120.733333,27.6206652 120.733333,29.619784 L120.733333,40.1651507 C120.733333,42.1642695 122.459704,43.7694144 124.584836,43.7694144" id="Fill-9" fill="url(#linearGradient-1)"></path>
                <path d="M29.0371633,51.9230535 C29.0371633,52.5188888 28.5563564,52.9996957 27.9599125,52.9996957 C27.3646858,52.9996957 26.8838789,52.5188888 26.8838789,51.9230535 C26.8838789,51.3272182 27.3646858,50.8458027 27.9599125,50.8458027 C28.5563564,50.8458027 29.0371633,51.3272182 29.0371633,51.9230535 M25.8066281,51.9230535 C25.8066281,52.5188888 25.3252127,52.9996957 24.7299859,52.9996957 C24.1341506,52.9996957 23.6527352,52.5188888 23.6527352,51.9230535 C23.6527352,51.3272182 24.1341506,50.8458027 24.7299859,50.8458027 C25.3252127,50.8458027 25.8066281,51.3272182 25.8066281,51.9230535 M22.576093,51.9230535 C22.576093,52.5188888 22.0946775,52.9996957 21.4988422,52.9996957 C20.9036155,52.9996957 20.4222,52.5188888 20.4222,51.9230535 C20.4222,51.3272182 20.9036155,50.8458027 21.4988422,50.8458027 C22.0946775,50.8458027 22.576093,51.3272182 22.576093,51.9230535 M31.7333333,55.44329 L31.7333333,48.4131635 C31.7333333,47.0802939 30.5818314,46 29.1655813,46 L20.3010854,46 C18.8842267,46 17.7333333,47.0802939 17.7333333,48.4131635 L17.7333333,55.44329 C17.7333333,56.775551 18.8811836,57.8454984 20.3010854,57.8454984 L20.4258517,57.8454984 L20.4258517,60 C20.4258517,60 23.0775928,58.1924097 23.3094756,58.0207799 C23.541967,57.8491501 23.541967,57.8454984 24.0264255,57.8454984 L29.1655813,57.8454984 C30.5818314,57.8454984 31.7333333,56.775551 31.7333333,55.44329" id="Fill-11" fill="url(#linearGradient-2)"></path>
                <path d="M70.7333333,90 C71.1579333,94.8522723 75.1615543,98.416464 79.6762138,97.9607396 C82.1350387,97.7127903 84.359662,96.2878669 85.7333333,94.0808049 L70.7333333,90 Z" id="Fill-13" fill="url(#linearGradient-3)"></path>
                <path d="M106.830702,61.0222215 C107.778708,62.308291 108.490654,63.8229546 108.974605,65.4285709 C109.467698,67.0347934 109.708598,68.7410638 109.733333,70.4485469 C109.733333,71.3028948 109.679023,72.15603 109.581158,73.001889 C109.452104,73.8435036 109.303155,74.6790546 109.068707,75.4885326 C108.615406,77.1080948 107.930346,78.6439807 106.996858,79.9512725 C106.956529,80.0076631 106.884474,80.016152 106.834466,79.971282 C106.79575,79.9355074 106.782844,79.8772977 106.797901,79.8263643 C107.284003,78.2662243 107.686758,76.7273067 107.957232,75.1659541 C108.007241,74.7718262 108.076069,74.3837619 108.134144,73.9938785 C108.173935,73.600357 108.226632,73.2098672 108.256744,72.8169521 C108.279329,72.4234306 108.324498,72.0323345 108.339016,71.638813 C108.344393,71.2446852 108.361063,70.8511637 108.35945,70.4576422 C108.367516,68.8817371 108.211576,67.3082575 107.940025,65.7462985 C107.660947,64.1831269 107.240985,62.6436029 106.7366,61.0834629 C106.726383,61.0513263 106.740902,61.0155517 106.769401,61.004031 C106.791986,60.9943294 106.816183,61.0028183 106.830702,61.0222215" id="Fill-15" fill="url(#linearGradient-4)"></path>
                <path d="M113.789479,62.0124251 C114.717538,63.213877 115.416582,64.6389546 115.903513,66.1516444 C116.391535,67.6661722 116.673442,69.2750517 116.723608,70.893734 C116.778135,72.5118036 116.602556,74.1384506 116.217592,75.6879008 C115.833173,77.2367383 115.233915,78.7169564 114.388737,79.9925418 C114.383285,80.0005065 114.372924,80.0023445 114.366381,79.9968305 C114.360928,79.9919291 114.358747,79.9839644 114.360383,79.977225 C114.71045,78.4418662 115.003808,76.9481693 115.181568,75.4465076 C115.359328,73.9454586 115.417672,72.4450222 115.368052,70.9500999 C115.313525,69.4557903 115.152668,67.9663821 114.86967,66.4880019 C114.587763,65.0077838 114.189166,63.5471712 113.734952,62.0479602 C113.729499,62.0289673 113.738223,62.0087491 113.755127,62.0020097 C113.767668,61.9971083 113.7813,62.001397 113.789479,62.0124251" id="Fill-17" fill="url(#linearGradient-5)"></path>
                <path d="M57.9965165,69.978568 C57.6609287,68.3390934 57.6571999,66.6264553 57.9231843,64.9522281 C58.1804683,63.2737329 58.7335668,61.6373069 59.50169,60.1087971 C60.288457,58.5894329 61.2939775,57.1755461 62.5083082,55.9659078 C63.7139385,54.7520016 65.1122211,53.7234432 66.6546821,53.0052204 C66.6826477,52.9924168 66.7149636,53.004001 66.7280142,53.0308277 C66.738579,53.0527768 66.7329859,53.078384 66.7149636,53.0942361 C65.4602381,54.2118103 64.3049459,55.3769407 63.2838889,56.6384033 C62.2702895,57.9023046 61.3735242,59.2454666 60.6489031,60.6752054 C59.9043954,62.0957988 59.3363819,63.6011401 58.904468,65.1540377 C58.4793901,66.7105935 58.2171344,68.3171444 58.049962,69.9761292 C58.0480976,69.9901522 58.0350469,70.0011268 58.0201319,70 C58.0083242,69.998688 57.9990023,69.9895425 57.9965165,69.978568" id="Fill-19" fill="url(#linearGradient-6)"></path>
                <path d="M52.9887406,66.9794891 C52.6687885,65.46338 52.6631534,63.8836244 52.8954473,62.336893 C53.1352548,60.7901616 53.6142437,59.2704499 54.3211436,57.8552146 C55.02053,56.4375776 55.9234084,55.1112074 57.0097426,53.9493575 C58.0910679,52.7857063 59.3408219,51.7685622 60.7333333,51 C59.5962826,52.0855941 58.551899,53.2180225 57.6408809,54.4357132 C56.7329935,55.6546049 55.9434445,56.9401453 55.3035404,58.2923344 C54.6698976,59.6463248 54.1614807,61.0525535 53.7989518,62.5038151 C53.4264049,63.9544763 53.2028768,65.4429651 53.0419616,66.9770873 C53.0400832,66.9908974 53.0275606,67.0011049 53.0119073,67 C53.000637,66.9987031 52.990619,66.990297 52.9887406,66.9794891" id="Fill-21" fill="url(#linearGradient-7)"></path>
                <path d="M101.733333,94.1997591 C101.733333,94.1997591 99.0691258,93.1656162 97.6686023,91.6898822 C95.7183405,89.635266 95.8468507,87.3934342 97.1652705,83.066675 C98.7163176,77.9143845 98.6740758,72.4869168 98.0767412,69.9990303 C95.9961844,61.3300593 91.7333333,58 91.7333333,58 C98.5330716,61.7912633 102.018317,69.6061748 100.291163,77.1910787 L97.7739092,87.1271721 C97.3324528,88.5951796 99.9318102,93.7439042 101.733333,94.1997591 L101.277003,96 L101.733333,94.1997591 Z" id="Fill-23" fill="#D8DBEA"></path>
                <line x1="7.73333333" y1="84.059" x2="5.73333333" y2="84" id="Stroke-25" stroke="#D2D8DF" stroke-linecap="round"></line>
                <line x1="6.73333333" y1="83" x2="5.73333333" y2="84" id="Stroke-27" stroke="#D2D8DF" stroke-linecap="round"></line>
                <line x1="3.76233333" y1="81" x2="3.73333333" y2="83" id="Stroke-29" stroke="#D2D8DF" stroke-linecap="round"></line>
                <line x1="1.73333333" y1="82" x2="2.73333333" y2="83" id="Stroke-31" stroke="#D2D8DF" stroke-linecap="round"></line>
                <line x1="0.733333333" y1="83" x2="2.73333333" y2="83.059" id="Stroke-33" stroke="#D2D8DF" stroke-linecap="round"></line>
                <line x1="1.73333333" y1="86" x2="2.73333333" y2="85" id="Stroke-35" stroke="#D2D8DF" stroke-linecap="round"></line>
                <line x1="3.73333333" y1="88" x2="3.76233333" y2="86" id="Stroke-37" stroke="#D2D8DF" stroke-linecap="round"></line>
                <line x1="6.73333333" y1="87" x2="5.73333333" y2="86" id="Stroke-39" stroke="#D2D8DF" stroke-linecap="round"></line>
                <line x1="159.580333" y1="68" x2="158.733333" y2="68.917" id="Stroke-41" stroke="#D2D8DF" stroke-linecap="round"></line>
                <line x1="155.733333" y1="69" x2="156.372333" y2="69.589" id="Stroke-43" stroke="#D2D8DF" stroke-linecap="round"></line>
                <line x1="155.733333" y1="70.917" x2="156.580333" y2="70" id="Stroke-45" stroke="#D2D8DF" stroke-linecap="round"></line>
                <line x1="159.371333" y1="70.589" x2="158.733333" y2="70" id="Stroke-47" stroke="#D2D8DF" stroke-linecap="round"></line>
                <line x1="111.733333" y1="3.055" x2="109.733333" y2="3" id="Stroke-49" stroke="#D2D8DF" stroke-linecap="round"></line>
                <line x1="108.764333" y1="0" x2="108.733333" y2="2" id="Stroke-51" stroke="#D2D8DF" stroke-linecap="round"></line>
                <line x1="105.733333" y1="3" x2="107.733333" y2="3.054" id="Stroke-53" stroke="#D2D8DF" stroke-linecap="round"></line>
                <line x1="108.733333" y1="6" x2="108.764333" y2="4" id="Stroke-55" stroke="#D2D8DF" stroke-linecap="round"></line>
                <path d="M20.7333333,116.82404 C19.8225573,117.094687 18.305627,118.423987 17.7865958,120 C17.6994727,118.535683 16.763363,116.69516 15.7333333,116.430037 C16.9901302,115.988778 18.3513511,114.366737 18.7134371,113 C18.6479404,114.432404 19.9572582,116.512274 20.7333333,116.82404" id="Fill-57" fill="#EBECEF"></path>
                <path d="M40.7333333,8.94346163 C39.9717794,9.06359072 38.6221478,9.90031078 38.0541639,11 C38.1218129,9.9307913 37.5397633,8.51733206 36.7333333,8.23882381 C37.7895959,8.02366722 39.0421076,6.96103275 39.463407,6 C39.2751954,7.03394693 40.1358785,8.65240258 40.7333333,8.94346163" id="Fill-59" fill="#EBECEF"></path>
                <path d="M132.20088,15.9996385 C131.372088,15.9816331 130.715166,15.2957878 130.733717,14.4675356 C130.751722,13.6392833 131.437562,12.982356 132.265263,13.0003615 C133.094055,13.0183669 133.750977,13.7042122 133.732972,14.5324644 C133.714421,15.3607167 133.029126,16.017644 132.20088,15.9996385" id="Fill-61" fill="#D1D9E0"></path>
                <path d="M132.200734,125.999632 C131.37289,125.982085 130.71613,125.295871 130.733677,124.468027 C130.751224,123.639557 131.437438,122.982797 132.265908,123.000344 C133.094379,123.018517 133.751139,123.704105 133.732965,124.532575 C133.714791,125.360419 133.029204,126.017806 132.200734,125.999632" id="Fill-63" fill="#EBECEF"></path>
                <path d="M11.7114144,38.9997533 C11.1594002,38.9876063 10.721433,38.5307438 10.73358,37.9780549 C10.7450522,37.4260408 11.2025896,36.9887485 11.7546038,37.0002207 C12.306618,37.0123677 12.7445852,37.4692302 12.733113,38.0212443 C12.720966,38.5739332 12.2634286,39.0119003 11.7114144,38.9997533 Z" id="Stroke-65" stroke="#D2D8DF" stroke-linecap="round"></path>
            </g>
        </g>
    </g>
</svg>