<?xml version="1.0" encoding="UTF-8"?>
<svg width="22px" height="22px" viewBox="0 0 22 22" version="1.1" xmlns="http://www.w3.org/2000/svg" xmlns:xlink="http://www.w3.org/1999/xlink">
    <!-- Generator: sketchtool 64 (101010) - https://sketch.com -->
    <title></title>
    <desc>Created with sketchtool.</desc>
    <g id="Web" stroke="none" stroke-width="1" fill="none" fill-rule="evenodd">
        <g id="5.-Document-capture" transform="translate(-683.000000, -144.000000)" fill-rule="nonzero">
            <g id="paint" transform="translate(694.000000, 155.000000) scale(-1, -1) translate(-694.000000, -155.000000) translate(683.000000, 144.000000)">
                <path d="M16.1228203,14.5123086 L7.48657422,5.8760625 C7.28642578,5.67591406 7.00038281,5.63745703 6.84771484,5.79016797 L5.81779688,6.82008594 L5.47722656,7.16065625 C5.36439063,7.27349219 5.35278906,7.46483203 5.44779297,7.64414063 L6.9595625,10.4966641 C7.56787109,11.6444883 7.37666016,13.0283828 6.48686328,13.9181797 L6.48686328,13.9181797 C5.07744531,15.3275977 3.58135938,16.2467422 1.73958984,17.0329844 C1.44778906,17.1575078 1.17781641,17.3443359 0.949265625,17.5938125 C0.119410156,18.4995508 0.154128906,19.9412383 1.02733984,20.8660977 C1.97849609,21.873543 3.53976563,21.9183164 4.47910547,20.9789766 C4.70941797,20.7486641 4.88043359,20.4810117 4.99266797,20.1941953 C5.63805859,18.5442383 6.38111719,17.2117773 7.627125,15.9658125 L8.05719922,15.5357383 C8.94012109,14.6528164 10.3104375,14.4570078 11.4544805,15.0503633 L14.3574492,16.5559023 C14.5355547,16.6482852 14.7244023,16.6356094 14.8361211,16.5239336 L16.2088437,15.1512109 C16.3614258,14.9985 16.3229687,14.712457 16.1228203,14.5123086 Z M2.69164844,20.0977305 C2.20726172,20.0977305 1.81457031,19.7050391 1.81457031,19.2206523 C1.81457031,18.7362656 2.20726172,18.3435742 2.69164844,18.3435742 C3.17603516,18.3435742 3.56872656,18.7362656 3.56872656,19.2206523 C3.56872656,19.7050391 3.17603516,20.0977305 2.69164844,20.0977305 Z" id="Shape" fill="#FFFFFF"></path>
                <path d="M16.0299648,14.4195391 L7.57934375,5.96891797 L12.9599766,0.588328125 C13.2828437,0.265460937 13.8062031,0.265460937 14.1290703,0.588328125 L21.4105977,7.86985547 C21.7334648,8.19272266 21.7334648,8.71608203 21.4105977,9.03894922 L16.0299648,14.4195391 Z" id="Path" fill="#FFC200"></path>
                <path d="M21.4105547,7.86985547 L20.5070937,6.96639453 C20.8299609,7.28926172 20.8299609,7.81262109 20.5070937,8.13548828 L15.1265039,13.5160352 L16.0299648,14.4194961 L21.4105547,9.03890625 C21.7334219,8.71608203 21.7334219,8.19267969 21.4105547,7.86985547 Z" id="Path" fill="#BC8F00"></path>
                <path d="M16.1228203,14.5123086 L7.48657422,5.8760625 C7.28642578,5.67591406 7.00038281,5.63745703 6.84771484,5.79016797 L6.09086328,6.54701953 L15.4519063,15.9080625 L16.2087578,15.1512109 C16.3614258,14.9985 16.3229258,14.712457 16.1228203,14.5123086 Z" id="Path" fill="#52ABE2"></path>
                <g id="Group" transform="translate(10.226562, 0.902344)" fill="#BC8F00">
                    <path d="M7.01761328,2.80113281 L2.90408594,6.91470312 C2.76886328,7.04992578 2.76886328,7.26915234 2.90408594,7.40428906 C2.97171875,7.47187891 3.06036328,7.50569531 3.14892187,7.50569531 C3.23748047,7.50569531 3.326125,7.47192187 3.39375781,7.40428906 L7.50728516,3.29076172 L7.01761328,2.80113281 Z" id="Path"></path>
                    <path d="M5.63101172,1.41448828 L1.51748437,5.52805859 C1.38226172,5.66328125 1.38226172,5.88250781 1.51748437,6.01764453 C1.58511719,6.08523437 1.67376172,6.11905078 1.76232031,6.11905078 C1.85092187,6.11905078 1.93952344,6.08527734 2.00715625,6.01764453 L6.12068359,1.90411719 L5.63101172,1.41448828 Z" id="Path"></path>
                    <path d="M9.79085938,5.57437891 L5.67733203,9.68794922 C5.54210938,9.82317187 5.54210938,10.0423984 5.67733203,10.1775352 C5.74496484,10.245125 5.83360937,10.2789414 5.92216797,10.2789414 C6.01072656,10.2789414 6.09937109,10.245168 6.16700391,10.1775352 L10.2805312,6.06400781 L9.79085938,5.57437891 Z" id="Path"></path>
                    <path d="M8.40425781,4.18773437 L4.29073047,8.30130469 C4.15550781,8.43652734 4.15550781,8.65575391 4.29073047,8.79089062 C4.35836328,8.85848047 4.44700781,8.89229687 4.53556641,8.89229687 C4.62416797,8.89229687 4.71276953,8.85852344 4.78040234,8.79089062 L8.89392969,4.67736328 L8.40425781,4.18773437 Z" id="Path"></path>
                    <path d="M4.24436719,0.0278007812 L0.130839844,4.14137109 C-0.0043828125,4.27659375 -0.0043828125,4.49582031 0.130839844,4.63095703 C0.198472656,4.69854687 0.287117188,4.73236328 0.375675781,4.73236328 C0.464234375,4.73236328 0.552878906,4.69858984 0.620511719,4.63095703 L4.73403906,0.517429688 L4.24436719,0.0278007812 Z" id="Path"></path>
                </g>
                <path d="M16.1228203,14.5123086 L7.48657422,5.8760625 L7.48657422,5.8760625 L15.2193164,13.6088047 C15.4194648,13.8089531 15.4579219,14.0949961 15.3052109,14.2476641 L14.2264375,15.3264375 C14.1147187,15.4381562 13.9258711,15.4507461 13.7477656,15.3584062 C13.7477656,15.3584062 12.3798125,14.4681367 11.0006875,13.8561328 C9.82274219,13.333332 8.03644531,13.7493555 7.15352344,14.6322344 L6.72344922,15.0623086 C5.47748438,16.3082734 4.73438281,17.6407344 4.08899219,19.2906914 C3.97675781,19.5775508 3.80574219,19.8452031 3.57542969,20.0754727 C2.8043125,20.8465898 1.61429297,20.9539687 0.686511719,20.410543 C0.780570313,20.5718906 0.893964844,20.7250312 1.027125,20.8660547 C1.97828125,21.8735 3.53955078,21.9182734 4.47889063,20.9789336 C4.70920313,20.7486211 4.88021875,20.4809687 4.99245313,20.1941523 C5.63784375,18.5441953 6.38090234,17.2117344 7.62691016,15.9657695 L8.05698438,15.5356953 C8.93990625,14.6527734 10.3102227,14.4569648 11.4542656,15.0503203 L14.3572344,16.5558594 C14.5353398,16.6482422 14.7241875,16.6355664 14.8359063,16.5239336 L16.2086289,15.1512109 C16.3614258,14.9985 16.3229258,14.712457 16.1228203,14.5123086 Z" id="Path" fill="#52ABE2"></path>
                <path d="M15.3052539,14.247707 L14.5484023,15.0045586 L15.4518633,15.9080195 L16.2087148,15.151168 C16.3614258,14.998457 16.3229258,14.712457 16.1228203,14.5123086 L15.2193594,13.6088477 C15.4195078,13.8089961 15.4579648,14.0949961 15.3052539,14.247707 Z" id="Path" fill="#52ABE2"></path>
                <g id="Group" fill="#154E84">
                    <path d="M16.5031367,14.4359961 L21.6553906,9.28374219 C22.1126211,8.82642578 22.1126211,8.08237891 21.6553906,7.6250625 L20.2824961,6.25216797 C20.1472305,6.11694531 19.9280469,6.11694531 19.7928672,6.25216797 C19.6576445,6.38739063 19.6576445,6.60661719 19.7928672,6.74175391 L21.1657617,8.11464844 C21.3531484,8.30199219 21.3531484,8.60676953 21.1657617,8.79411328 L16.0300078,13.9299102 L8.06901562,5.96891797 L13.2047266,0.833164062 C13.2955195,0.742414063 13.4161328,0.692398437 13.5444805,0.692398437 C13.6728281,0.692398437 13.7934844,0.742371094 13.8841914,0.833121094 L18.8755703,5.82445703 C19.0108359,5.95967969 19.2300195,5.95967969 19.3651992,5.82445703 C19.5004219,5.68923438 19.5004219,5.47000781 19.3651992,5.33487109 L14.3738633,0.343535156 C14.1523594,0.121988281 13.8578086,0 13.5444805,0 C13.2312383,0 12.9366875,0.121988281 12.7150977,0.343535156 L7.56275781,5.49600391 C7.55033984,5.48805469 7.53783594,5.48053516 7.52511719,5.4731875 C7.51600781,5.46794531 7.50698437,5.46274609 7.49774609,5.45780469 C7.48120312,5.44895312 7.46444531,5.44078906 7.44755859,5.43292578 C7.43892187,5.42892969 7.43041406,5.42471875 7.42169141,5.42102344 C7.40153906,5.41238672 7.38108594,5.40482422 7.36046094,5.39769141 C7.35491797,5.39575781 7.34946094,5.3934375 7.343875,5.39163281 C7.31766406,5.38316797 7.29119531,5.37603516 7.26455469,5.37010547 C7.25780859,5.36864453 7.25097656,5.36774219 7.24423047,5.36645312 C7.22798828,5.36327344 7.21178906,5.35983594 7.19541797,5.3576875 C7.19210937,5.35721484 7.18880078,5.35725781 7.18549219,5.35691406 C7.17157031,5.35519531 7.15760547,5.35450781 7.14368359,5.3535625 C7.12928906,5.35257422 7.1149375,5.35141406 7.10067187,5.35119922 C7.09689062,5.35115625 7.09306641,5.35055469 7.08928516,5.35055469 C7.07295703,5.35055469 7.05684375,5.35175781 7.04073047,5.35283203 C7.03570312,5.35317578 7.03063281,5.35308984 7.02564844,5.35351953 C6.99939453,5.35575391 6.97344141,5.35923437 6.94800391,5.36421875 C6.94740234,5.36430469 6.94688672,5.36447656 6.94628516,5.36464844 C6.92222266,5.36941797 6.89867578,5.3755625 6.87555859,5.38265234 C6.86937109,5.38454297 6.86339844,5.38686328 6.85733984,5.38892578 C6.83998047,5.39476953 6.82292187,5.40121484 6.80620703,5.40843359 C6.79885937,5.41161328 6.79172656,5.41500781 6.78446484,5.41840234 C6.76933984,5.42562109 6.75451562,5.43335547 6.73994922,5.44173437 C6.7326875,5.44590234 6.72546875,5.44994141 6.71837891,5.45436719 C6.7038125,5.46347656 6.68971875,5.47335937 6.67592578,5.48354297 C6.66991016,5.48796875 6.66372266,5.49209375 6.65787891,5.49673437 C6.63871484,5.51198828 6.62019531,5.52801563 6.60279297,5.54541797 L5.84594141,6.30226953 L5.23230469,6.91590625 C5.01243359,7.13577734 4.97603906,7.49362109 5.14176953,7.80630469 L6.65353906,10.6588281 C7.19283984,11.6764141 7.02745312,12.887875 6.24189844,13.6733867 C5.57828906,14.3369961 4.88232422,14.9021211 4.11434375,15.4009453 C3.95398437,15.5051016 3.90848047,15.7195156 4.01259375,15.879875 C4.11675,16.0402344 4.33120703,16.0857383 4.49152344,15.981625 C5.30053906,15.4561172 6.03328516,14.8612148 6.73148437,14.1629727 C7.73338672,13.1610703 7.94788672,11.6225312 7.26528516,10.334543 L5.75351562,7.48201953 C5.73138672,7.44029687 5.72910937,7.40974609 5.73001172,7.39732812 L6.09069141,7.03664844 L14.9621484,15.9081484 L14.5993203,16.2709766 C14.5874609,16.2718359 14.5575117,16.2697734 14.5166914,16.2485898 L11.6136797,14.7430508 C10.3321367,14.0784531 8.80446875,14.298625 7.81214844,15.2909453 L7.38207422,15.7210195 C6.21736328,16.8856875 5.40624219,18.185793 4.67001562,20.068082 C4.57191797,20.3189336 4.42522266,20.5430586 4.23409766,20.7341836 C3.85661719,21.1116641 3.34937109,21.3150352 2.80375391,21.3073867 C2.22595312,21.2990938 1.684375,21.0579531 1.27887891,20.6284375 C0.527398437,19.8325273 0.494699219,18.6022461 1.20437109,17.8276914 C1.39386328,17.6208398 1.61966406,17.4605664 1.87537109,17.3514258 C2.40564844,17.1250664 2.88328906,16.8986211 3.33557812,16.6592422 C3.50457422,16.5697813 3.56907031,16.3602656 3.47965234,16.1913125 C3.39023437,16.0223164 3.18067578,15.9578203 3.01172266,16.0472383 C2.57653516,16.2775508 2.11595312,16.495832 1.60355078,16.7145859 C1.25649219,16.8627852 0.95046875,17.0799063 0.693902344,17.3599336 C-0.259703125,18.4006797 -0.223867188,20.0452227 0.7755,21.1037148 C1.31054687,21.6704297 2.02739453,21.9886563 2.79391406,21.9996563 C2.80749219,21.9999141 2.82089844,21.9999141 2.83447656,21.9999141 C3.55269922,21.9999141 4.22232422,21.7251719 4.72376953,21.2236836 C4.98291406,20.9645391 5.18177344,20.6605352 5.31497656,20.3202227 C6.01425,18.5325078 6.77892187,17.3034727 7.87178906,16.2105625 L8.30186328,15.7804883 C9.0798125,15.002625 10.2825937,14.8325977 11.2949375,15.3576328 L14.1979492,16.8631719 C14.5132969,17.026668 14.8598398,16.9897148 15.0808281,16.7686836 L16.4535078,15.3959609 C16.6963242,15.1531445 16.7106328,14.770293 16.5136641,14.4523242 C16.5129336,14.4511211 16.5120742,14.4499609 16.5113437,14.4487578 C16.5087227,14.4445039 16.5059297,14.44025 16.5031367,14.4359961 Z M15.4518633,15.4184336 L6.58044922,6.5470625 L7.08438672,6.043125 C7.085375,6.04299609 7.08662109,6.04299609 7.08786719,6.04299609 C7.08868359,6.04299609 7.08962891,6.04299609 7.09048828,6.04299609 C7.09345312,6.04299609 7.09667578,6.04333984 7.09994141,6.04364062 C7.10239062,6.04389844 7.10483984,6.04419922 7.10754687,6.04467187 C7.10900781,6.04488672 7.11059766,6.04527344 7.11214453,6.04553125 C7.11665625,6.04643359 7.12142578,6.04755078 7.12658203,6.04909766 C7.12701172,6.04922656 7.12744141,6.04935547 7.12787109,6.04952734 C7.13367187,6.05128906 7.13981641,6.05339453 7.14626172,6.05597266 C7.14682031,6.0561875 7.14742187,6.05644531 7.14798047,6.05666016 C7.15399609,6.05910937 7.16026953,6.06211719 7.16667187,6.06538281 C7.16800391,6.06607031 7.16937891,6.06675781 7.17075391,6.06748828 C7.17642578,6.07053906 7.18226953,6.0740625 7.18815625,6.07780078 C7.19021875,6.07913281 7.19232422,6.08037891 7.19442969,6.08179687 C7.20001562,6.08553516 7.20564453,6.08983203 7.21135937,6.09425781 C7.21363672,6.0960625 7.21587109,6.09760937 7.21814844,6.09945703 C7.22596875,6.10590234 7.23383203,6.11294922 7.24173828,6.1208125 L7.33455078,6.213625 L15.7851289,14.6642031 C15.7852148,14.6642891 15.7852578,14.664332 15.7853437,14.664418 L15.8779414,14.7570156 C15.8834414,14.7625156 15.8880391,14.7680156 15.8928516,14.7734297 C15.8953008,14.7762656 15.8982227,14.7790586 15.900457,14.7818516 C15.9057852,14.7883398 15.9102969,14.7947852 15.9147227,14.8011875 C15.9158828,14.8028633 15.9173437,14.804582 15.9184609,14.8062578 C15.9215547,14.8109844 15.9240039,14.8154531 15.926625,14.8200078 C15.9284727,14.8232305 15.93075,14.826582 15.9323398,14.8296758 C15.9341016,14.8329844 15.9353047,14.8360352 15.9368086,14.8392148 C15.9387422,14.8433828 15.9409766,14.8476367 15.9425664,14.8515898 C15.9448437,14.8571758 15.9465195,14.862332 15.9481523,14.8674883 C15.948582,14.8687773 15.9492266,14.8702383 15.9495703,14.8715703 C15.9505586,14.874793 15.9510312,14.8775859 15.9518047,14.8806367 C15.9552852,14.8950312 15.9564883,14.9068906 15.9558867,14.9142812 L15.4518633,15.4184336 Z" id="Shape"></path>
                    <path d="M1.46837109,19.2206523 C1.46837109,19.8951758 2.017125,20.4439297 2.69164844,20.4439297 C3.36617188,20.4439297 3.91492578,19.8951758 3.91492578,19.2206523 C3.91492578,18.5461289 3.36617188,17.997375 2.69164844,17.997375 C2.017125,17.997375 1.46837109,18.5461289 1.46837109,19.2206523 Z M3.22252734,19.2206523 C3.22252734,19.5133555 2.98439453,19.7515312 2.69164844,19.7515312 C2.39890234,19.7515312 2.16076953,19.5133984 2.16076953,19.2206523 C2.16076953,18.9279062 2.39890234,18.6897734 2.69164844,18.6897734 C2.98435156,18.6897734 3.22252734,18.9279492 3.22252734,19.2206523 Z" id="Shape"></path>
                </g>
            </g>
        </g>
    </g>
</svg>