<?xml version="1.0" encoding="UTF-8"?>
<svg width="60px" height="60px" viewBox="0 0 60 60" version="1.1" xmlns="http://www.w3.org/2000/svg" xmlns:xlink="http://www.w3.org/1999/xlink">
    <title>365A7124-1075-4D73-A325-C7E199F61C00</title>
    <g id="Page-2" stroke="none" stroke-width="1" fill="none" fill-rule="evenodd">
        <g id="L4.-Global-search---Copy" transform="translate(-1296.000000, -90.000000)">
            <g id="Group-63" transform="translate(1052.000000, 55.000000)">
                <g id="iconspace_Credit-Cards" transform="translate(244.000000, 35.000000)">
                    <circle id="Shape" fill="#E6F0FC" cx="30" cy="30" r="30"></circle>
                    <path d="M13.125,15.9375 L46.875,15.9375 C48.4283009,15.9375 49.6875,17.1966991 49.6875,18.75 L49.6875,41.25 C49.6875,42.8033009 48.4283009,44.0625 46.875,44.0625 L13.125,44.0625 C11.5716991,44.0625 10.3125,42.8033009 10.3125,41.25 L10.3125,18.75 C10.3125,17.1966991 11.5716991,15.9375 13.125,15.9375 Z" id="Shape" fill="#154E84" fill-rule="nonzero"></path>
                    <path d="M13.125,17.8125 C12.607233,17.8125 12.1875,18.232233 12.1875,18.75 L12.1875,41.25 C12.1875,41.767767 12.607233,42.1875 13.125,42.1875 L46.875,42.1875 C47.392767,42.1875 47.8125,41.767767 47.8125,41.25 L47.8125,18.75 C47.8125,18.232233 47.392767,17.8125 46.875,17.8125 L13.125,17.8125 Z" id="Shape" fill="#FFFFFF" fill-rule="nonzero"></path>
                    <rect id="Shape" fill="#FFC200" x="15" y="20.625" width="9.375" height="7.5" rx="1"></rect>
                    <path d="M15.9375,35.625 L27.1875,35.625 C27.705267,35.625 28.125,36.044733 28.125,36.5625 C28.125,37.080267 27.705267,37.5 27.1875,37.5 L15.9375,37.5 C15.419733,37.5 15,37.080267 15,36.5625 C15,36.044733 15.419733,35.625 15.9375,35.625 Z" id="Shape" fill="#52ABE2"></path>
                    <path d="M15.9375,31.875 L21.5625,31.875 C22.080267,31.875 22.5,32.294733 22.5,32.8125 C22.5,33.330267 22.080267,33.75 21.5625,33.75 L15.9375,33.75 C15.419733,33.75 15,33.330267 15,32.8125 C15,32.294733 15.419733,31.875 15.9375,31.875 Z" id="Shape" fill="#52ABE2"></path>
                    <circle id="Shape" fill="#FFC200" cx="40.3125" cy="34.6875" r="3.75"></circle>
                    <circle id="Shape" fill="#52ABE2" cx="35.625" cy="34.6875" r="3.75"></circle>
                </g>
            </g>
        </g>
    </g>
</svg>