<?xml version="1.0" encoding="UTF-8"?>
<svg width="20px" height="20px" viewBox="0 0 20 20" version="1.1" xmlns="http://www.w3.org/2000/svg" xmlns:xlink="http://www.w3.org/1999/xlink">
    <!-- Generator: Sketch 64 (93537) - https://sketch.com -->
    <title></title>
    <desc>Created with Sketch.</desc>
    <g id="Web" stroke="none" stroke-width="1" fill="none" fill-rule="evenodd">
        <g id="1.12-History" transform="translate(-1195.000000, -584.000000)">
            <g id="Dropbox" transform="translate(1185.000000, 574.000000)">
                <circle id="Oval-1-Copy-11" cx="20" cy="20" r="20"></circle>
                <path d="M20.007619,23.4285714 L23.3065079,26.1509382 C23.3920635,26.2227902 23.4969524,26.2592723 23.6031746,26.2592723 C23.6922857,26.2592723 23.7802857,26.235025 23.857619,26.1845284 L23.857619,26.1845284 L26.3009524,24.5931073 L26.3009524,25.5327443 L20.007619,29.476817 L13.7142857,25.5334116 L13.7142857,24.5942196 L16.1573968,26.1856407 C16.2349524,26.2361373 16.3229524,26.2603845 16.4120635,26.2603845 C16.5169524,26.2603845 16.6233968,26.2227902 16.7087302,26.1522729 L16.7087302,26.1522729 L20.007619,23.4285714 Z M24.0533333,10.8571429 L30,14.5436163 L26.0637143,17.8241429 L29.5513333,20.6106099 L23.6737778,24.4338913 L20.2807143,21.6311429 L16.6121587,24.6620649 L10.7354921,20.839006 L14.3597143,17.9424594 L10.2857143,14.5436163 L16.232381,10.8571429 L20.1427143,13.9981429 L24.0533333,10.8571429 Z M20.1427143,14.2041429 L14.3612698,17.941792 L20.2487143,21.6051429 L20,21.399202 L25.7457143,17.8261429 L20.1427143,14.2041429 Z" id="Combined-Shape" fill="#FFFFFF"></path>
            </g>
        </g>
    </g>
</svg>