<?xml version="1.0" encoding="UTF-8"?>
<svg width="20px" height="20px" viewBox="0 0 20 20" version="1.1" xmlns="http://www.w3.org/2000/svg" xmlns:xlink="http://www.w3.org/1999/xlink">
    <!-- Generator: Sketch 64 (93537) - https://sketch.com -->
    <title></title>
    <desc>Created with Sketch.</desc>
    <g id="Web" stroke="none" stroke-width="1" fill="none" fill-rule="evenodd">
        <g id="1.12-History" transform="translate(-886.000000, -681.000000)" fill="#FFFFFF" fill-rule="nonzero">
            <g id="Group-98-Copy-3" transform="translate(886.000000, 681.000000)">
                <path d="M10.3574,19.9882 C11.8868,19.771 13.2276,18.1747 14.0713,15.8173 C12.8516,15.5442 11.6071,15.3976 10.3574,15.3801 L10.3574,19.9882 Z" id="Path"></path>
                <path d="M12.8009,19.6133 C12.8913,19.5871 12.9814,19.5608 13.0707,19.5318 C13.1461,19.5076 13.2205,19.4814 13.2948,19.4554 C13.3828,19.425 13.4704,19.3938 13.5577,19.3606 C13.632,19.3323 13.7057,19.3023 13.7795,19.2723 C13.8647,19.2365 13.9497,19.2009 14.0338,19.1651 C14.1073,19.1328 14.1802,19.099 14.2532,19.065 C14.3357,19.026 14.4179,18.9864 14.4994,18.9452 C14.571,18.9087 14.6424,18.8716 14.7139,18.8334 C14.794,18.7904 14.8736,18.7466 14.9527,18.7016 C15.0242,18.6611 15.0932,18.6204 15.1628,18.5785 C15.2403,18.5309 15.3174,18.4832 15.3941,18.4356 C15.4627,18.392 15.5311,18.3476 15.5986,18.3019 C15.674,18.2511 15.7484,18.1982 15.8224,18.1454 C15.8889,18.0977 15.955,18.0502 16.0199,18.0024 C16.0915,17.9473 16.1648,17.8902 16.2365,17.8329 C16.3002,17.7822 16.3638,17.7317 16.4264,17.6795 C16.4978,17.6202 16.5662,17.5588 16.6355,17.4973 C16.6962,17.4434 16.7573,17.39 16.8167,17.3347 C16.8849,17.271 16.9514,17.205 17.0179,17.1395 C17.0755,17.0826 17.1338,17.0266 17.1902,16.9683 C17.2006,16.9575 17.2106,16.9458 17.2214,16.9346 C16.4418,16.532 15.6206,16.2159 14.7722,15.9922 C14.331,17.3992 13.5458,18.6744 12.4878,19.7016 C12.5168,19.6941 12.5457,19.688 12.5747,19.6805 C12.6512,19.6591 12.7262,19.6355 12.8009,19.6133 Z" id="Path"></path>
                <path d="M20,10.3657 L15.7143,10.3657 C15.698,12.0391 15.4553,13.7026 14.9926,15.3108 C15.9361,15.5629 16.8466,15.9252 17.7053,16.3903 C19.1152,14.6911 19.9222,12.5725 20,10.3657 Z" id="Path"></path>
                <path d="M10.3574,9.6508 L14.9994,9.6508 C14.9813,8.0366 14.7444,6.4323 14.2957,4.88159 C13.0031,5.17637 11.683,5.3338 10.3574,5.35125 L10.3574,9.6508 Z" id="Path"></path>
                <path d="M10.3574,0.02832 L10.3574,4.63642 C11.6071,4.6188 12.8516,4.47237 14.0713,4.19923 C13.2276,1.84186 11.8868,0.24561 10.3574,0.02832 Z" id="Path"></path>
                <path d="M10.3574,14.6653 C11.683,14.6829 13.0031,14.8403 14.2957,15.1351 C14.7444,13.5844 14.9813,11.98 14.9994,10.3657 L10.3574,10.3657 L10.3574,14.6653 Z" id="Path"></path>
                <path d="M17.7053,3.62622 C16.8466,4.09134 15.9361,4.45367 14.9926,4.70569 C15.4553,6.314 15.698,7.9774 15.7143,9.6508 L20,9.6508 C19.922,7.4442 19.115,5.32562 17.7053,3.62622 Z" id="Path"></path>
                <path d="M17.2224,3.08399 C17.2119,3.07334 17.202,3.06182 17.1917,3.05083 C17.1351,2.99254 17.0765,2.93634 17.0189,2.87962 C16.9526,2.81417 16.8864,2.74802 16.818,2.68449 C16.7588,2.62934 16.6976,2.57716 16.6368,2.52218 C16.5676,2.46074 16.4983,2.39879 16.4271,2.33945 C16.3653,2.28726 16.3019,2.23735 16.2391,2.18726 C16.1675,2.12931 16.0942,2.07172 16.0206,2.01639 C15.956,1.9677 15.8906,1.92058 15.8248,1.87345 C15.7501,1.8197 15.675,1.76612 15.5989,1.71498 C15.5321,1.66995 15.4642,1.62597 15.3963,1.58286 C15.319,1.53312 15.2418,1.48443 15.1631,1.4373 C15.0942,1.39594 15.0245,1.3551 14.9547,1.31548 C14.8748,1.26976 14.7947,1.22542 14.7139,1.18214 C14.6423,1.14636 14.5709,1.10744 14.4994,1.07166 C14.4172,1.03013 14.3343,0.99016 14.2493,0.95089 C14.1777,0.91686 14.1051,0.8837 14.0315,0.85141 C13.9468,0.81388 13.8613,0.78003 13.7759,0.74425 C13.7023,0.71423 13.629,0.68456 13.5546,0.65628 C13.4679,0.62312 13.3799,0.59206 13.292,0.56169 C13.2176,0.53551 13.1433,0.5095 13.0679,0.48507 C12.9785,0.4561 12.8892,0.42974 12.7974,0.40322 C12.723,0.3814 12.6483,0.35923 12.5731,0.33934 C12.5443,0.33148 12.515,0.32538 12.486,0.31787 C13.544,1.34515 14.329,2.62009 14.7704,4.02732 C15.6197,3.80358 16.4421,3.48733 17.2224,3.08399 Z" id="Path"></path>
                <path d="M0,9.6508 L4.28575,9.6508 C4.30198,7.9774 4.54475,6.314 5.00725,4.70569 C4.06392,4.45384 3.1534,4.09152 2.29471,3.62622 C0.88486,5.32544 0.07784,7.4442 0,9.6508 Z" id="Path"></path>
                <path d="M9.6426,19.9882 L9.6426,15.3801 C8.393,15.3978 7.1484,15.5442 5.9288,15.8173 C6.7723,18.1747 8.1132,19.771 9.6426,19.9882 Z" id="Path"></path>
                <path d="M9.6426,10.3657 L5.00061,10.3657 C5.01876,11.98 5.25542,13.5844 5.70431,15.1351 C6.9969,14.8401 8.3168,14.6827 9.6426,14.6653 L9.6426,10.3657 Z" id="Path"></path>
                <path d="M9.6426,0.02832 C8.1132,0.24561 6.7723,1.84186 5.9288,4.19923 C7.1484,4.47254 8.393,4.61897 9.6426,4.63642 L9.6426,0.02832 Z" id="Path"></path>
                <path d="M9.6426,5.35125 C8.317,5.3338 6.9969,5.17637 5.70431,4.88159 C5.25542,6.4323 5.01876,8.0366 5.00061,9.6508 L9.6426,9.6508 L9.6426,5.35125 Z" id="Path"></path>
                <path d="M7.5112,0.31738 C7.4823,0.32489 7.4533,0.331 7.4243,0.3385 C7.3486,0.35875 7.2739,0.38126 7.1985,0.40308 C7.1088,0.42926 7.0197,0.45561 6.9297,0.48423 C6.8538,0.50884 6.7791,0.53502 6.7044,0.56103 C6.6169,0.59192 6.5293,0.62263 6.4428,0.65545 C6.3681,0.68407 6.2944,0.71374 6.2204,0.74411 C6.1354,0.77989 6.0502,0.81566 5.96629,0.85127 C5.89264,0.88356 5.81986,0.91742 5.74691,0.95145 C5.66435,0.99037 5.58215,1.02999 5.50065,1.07118 C5.42909,1.10765 5.35753,1.145 5.28615,1.18305 C5.20604,1.22598 5.12663,1.26996 5.04774,1.31499 C4.97618,1.35496 4.90585,1.39598 4.83691,1.43786 C4.75925,1.48464 4.68245,1.53298 4.60601,1.5808 C4.53724,1.62478 4.469,1.66911 4.40146,1.71484 C4.32606,1.76563 4.25171,1.81851 4.17771,1.87139 C4.11122,1.91904 4.04507,1.96651 3.97997,2.01451 C3.90684,2.06948 3.83703,2.12673 3.76338,2.1838 C3.69985,2.23459 3.6358,2.28503 3.57367,2.33756 C3.50211,2.39655 3.43422,2.45764 3.36528,2.51872 C3.30419,2.57318 3.24259,2.62606 3.1829,2.68243 C3.115,2.74579 3.04886,2.81158 2.98254,2.87686 C2.92494,2.93375 2.8663,2.98995 2.80975,3.04842 C2.79946,3.05924 2.78951,3.07111 2.77869,3.0821 C3.55813,3.48492 4.37947,3.80099 5.22786,4.02474 C5.66907,2.61838 6.4537,1.34414 7.5112,0.31738 Z" id="Path"></path>
                <path d="M2.98099,17.1368 C3.04749,17.2022 3.11363,17.2683 3.18187,17.3321 C3.24121,17.387 3.3023,17.4392 3.36321,17.4942 C3.4325,17.5558 3.50179,17.6176 3.573,17.6769 C3.63478,17.7288 3.69778,17.7788 3.76096,17.8291 C3.83252,17.8871 3.9039,17.9446 3.97965,18.0003 C4.04405,18.0487 4.1095,18.0954 4.17495,18.1434 C4.24965,18.197 4.32504,18.2506 4.40114,18.3021 C4.46798,18.3471 4.53587,18.3911 4.60377,18.4344 C4.68108,18.4839 4.75823,18.5326 4.83694,18.5798 C4.90588,18.6213 4.97551,18.662 5.04533,18.7018 C5.12526,18.7475 5.20537,18.7918 5.28618,18.8349 C5.35756,18.8707 5.42912,18.9096 5.50067,18.9454 C5.58288,18.9869 5.66578,19.0269 5.75077,19.0663 C5.82233,19.1 5.89494,19.1332 5.96859,19.1657 C6.0532,19.2032 6.1386,19.237 6.2241,19.2728 C6.2978,19.3028 6.3711,19.3325 6.4454,19.3608 C6.5321,19.3941 6.6201,19.4252 6.7081,19.4555 C6.7824,19.4816 6.8568,19.5077 6.9322,19.532 C7.0215,19.561 7.1109,19.5875 7.2027,19.6138 C7.277,19.6357 7.3517,19.6578 7.4268,19.6779 C7.4558,19.6858 7.4851,19.6919 7.514,19.6994 C6.456,18.6719 5.67101,17.397 5.22963,15.9897 C4.38124,16.2137 3.55991,16.5297 2.78046,16.9327 C2.79093,16.9434 2.80088,16.9549 2.81135,16.9659 C2.86493,17.0238 2.9227,17.08 2.98099,17.1368 Z" id="Path"></path>
                <path d="M2.29471,16.3903 C3.1534,15.9252 4.06392,15.5629 5.00725,15.3108 C4.54475,13.7026 4.30198,12.0391 4.28575,10.3657 L0,10.3657 C0.07801,12.5723 0.88486,14.6909 2.29471,16.3903 Z" id="Path"></path>
            </g>
        </g>
    </g>
</svg>