<?xml version="1.0" encoding="UTF-8"?>
<svg width="60px" height="60px" viewBox="0 0 60 60" version="1.1" xmlns="http://www.w3.org/2000/svg" xmlns:xlink="http://www.w3.org/1999/xlink">
    <title>Group 37</title>
    <g id="Page-2" stroke="none" stroke-width="1" fill="none" fill-rule="evenodd">
        <g id="L4.-Global-search---Copy" transform="translate(-1200.000000, -467.000000)" fill-rule="nonzero">
            <g id="Group-37" transform="translate(1200.000000, 467.000000)">
                <circle id="Oval" fill="#E6F0FC" cx="30" cy="30" r="30"></circle>
                <g id="Group" transform="translate(11.739130, 5.942029)">
                    <path d="M33.0586957,47.1423188 L3.46304348,47.1423188 C2.05275362,47.1423188 0.909565217,45.9991304 0.909565217,44.5888406 L0.909565217,3.44521739 C0.909565217,2.03492754 2.05289855,0.89173913 3.46304348,0.89173913 L33.0586957,0.89173913 C34.4689855,0.89173913 35.6121739,2.03492754 35.6121739,3.44521739 L35.6121739,44.5888406 C35.6121739,45.9991304 34.4689855,47.1423188 33.0586957,47.1423188 Z" id="Path" fill="#FFFFFF"></path>
                    <path d="M33.0262319,1.01449275 L30.8695652,1.01449275 L30.8695652,47.2463768 L33.0262319,47.2463768 C34.4365217,47.2463768 35.5072464,45.9991304 35.5072464,44.5888406 L35.5072464,3.44521739 C35.5072464,2.03492754 34.4365217,1.01449275 33.0262319,1.01449275 Z" id="Path" fill="#D3E6F8"></path>
                    <path d="M33.0586957,48.0118841 L3.46304348,48.0118841 C1.57550725,48.0118841 0.0398550725,46.4762319 0.0398550725,44.5888406 L0.0398550725,3.44521739 C0.0398550725,1.55782609 1.57550725,0.022173913 3.46304348,0.022173913 L33.0586957,0.022173913 C34.9462319,0.022173913 36.4818841,1.55782609 36.4818841,3.44521739 L36.4818841,44.5888406 C36.4818841,46.4762319 34.9462319,48.0118841 33.0586957,48.0118841 Z M3.46304348,1.76130435 C2.53449275,1.76130435 1.77898551,2.51666667 1.77898551,3.44521739 L1.77898551,44.5888406 C1.77898551,45.5173913 2.53434783,46.2727536 3.46304348,46.2727536 L33.0586957,46.2727536 C33.9872464,46.2727536 34.7427536,45.5173913 34.7427536,44.5888406 L34.7427536,3.44521739 C34.7427536,2.51666667 33.9873913,1.76130435 33.0586957,1.76130435 L3.46304348,1.76130435 Z" id="Shape" fill="#154E84"></path>
                    <path d="M26.3768116,8.84057971 L10,8.84057971 C9.51971014,8.84057971 9.13043478,8.45130435 9.13043478,7.97101449 C9.13043478,7.49072464 9.51971014,7.10144928 10,7.10144928 L26.3768116,7.10144928 C26.8571014,7.10144928 27.2463768,7.49072464 27.2463768,7.97101449 C27.2463768,8.45130435 26.8571014,8.84057971 26.3768116,8.84057971 Z" id="Path" fill="#154E84"></path>
                    <path d="M29.8550725,15.5072464 L6.52173913,15.5072464 C6.04144928,15.5072464 5.65217391,15.117971 5.65217391,14.6376812 C5.65217391,14.1573913 6.04144928,13.7681159 6.52173913,13.7681159 L29.8550725,13.7681159 C30.3353623,13.7681159 30.7246377,14.1573913 30.7246377,14.6376812 C30.7246377,15.117971 30.3353623,15.5072464 29.8550725,15.5072464 Z" id="Path" fill="#154E84"></path>
                    <path d="M29.8550725,22.3188406 L6.52173913,22.3188406 C6.04144928,22.3188406 5.65217391,21.9295652 5.65217391,21.4492754 C5.65217391,20.9689855 6.04144928,20.5797101 6.52173913,20.5797101 L29.8550725,20.5797101 C30.3353623,20.5797101 30.7246377,20.9689855 30.7246377,21.4492754 C30.7246377,21.9295652 30.3353623,22.3188406 29.8550725,22.3188406 Z" id="Path" fill="#154E84"></path>
                </g>
                <g id="Group" transform="translate(19.710145, 30.000000)">
                    <circle id="Oval" fill="#D3E6F8" cx="10.3461658" cy="10.3623188" r="9.88740462"></circle>
                    <path d="M16.8026524,2.87752451 C17.9943952,4.51073263 18.6993377,6.52178442 18.6993377,8.69840473 C18.6993377,14.159042 14.2726465,18.5858094 8.81193308,18.5858094 C6.34349158,18.5858094 4.08801098,17.6791065 2.3555227,16.1832753 C4.15368979,18.6474499 7.06207268,20.2497997 10.3461658,20.2497997 C15.8068031,20.2497997 20.2335704,15.8230323 20.2335704,10.362395 C20.2335704,7.37019928 18.902622,4.69062553 16.8026524,2.87752451 Z" id="Path" fill="#A4CFF2"></path>
                    <circle id="Oval" fill="#FFFFFF" cx="10.3461658" cy="10.3623188" r="7.48479433"></circle>
                    <path d="M14.7953341,4.34379263 C15.8684436,5.63915867 16.5136504,7.30177749 16.5136504,9.11533568 C16.5136504,13.2490628 13.1625831,16.60013 9.02885603,16.60013 C7.36235134,16.60013 5.82354699,16.0548892 4.57968777,15.1338619 C5.95261882,16.7911472 8.02592072,17.8471132 10.346242,17.8471132 C14.4799691,17.8471132 17.8310363,14.4960459 17.8310363,10.3623188 C17.8310363,7.89509644 16.6367791,5.70727568 14.7953341,4.34379263 Z" id="Path" fill="#52ABE2"></path>
                    <path d="M10.3461658,20.7068846 C4.64216645,20.7068846 0.00160006394,16.0663182 0.00160006394,10.3623188 C0.00160006394,4.65831948 4.64216645,0.0177530904 10.3461658,0.0177530904 C16.0501652,0.0177530904 20.6907316,4.65831948 20.6907316,10.3623188 C20.6907316,16.0663182 16.0502414,20.7068846 10.3461658,20.7068846 Z M10.3461658,0.932075341 C5.14633898,0.932075341 0.915922315,5.16241581 0.915922315,10.3623188 C0.915922315,15.5622219 5.14626279,19.7925623 10.3461658,19.7925623 C15.5459926,19.7925623 19.7764093,15.5621457 19.7764093,10.3623188 C19.7764093,5.16249201 15.5459926,0.932075341 10.3461658,0.932075341 Z" id="Shape" fill="#154E84"></path>
                    <path d="M10.3461658,18.3042743 C5.9669432,18.3042743 2.40421036,14.7415415 2.40421036,10.3623188 C2.40421036,5.98309623 5.9669432,2.42036338 10.3461658,2.42036338 C14.7253884,2.42036338 18.2881213,5.98309623 18.2881213,10.3623188 C18.2881213,14.7415415 14.7253884,18.3042743 10.3461658,18.3042743 Z M10.3461658,3.33468564 C6.47111573,3.33468564 3.31853261,6.48726876 3.31853261,10.3623188 C3.31853261,14.2373689 6.47111573,17.389952 10.3461658,17.389952 C14.2212159,17.389952 17.373799,14.2373689 17.373799,10.3623188 C17.373799,6.48726876 14.2212921,3.33468564 10.3461658,3.33468564 Z" id="Shape" fill="#154E84"></path>
                    <path d="M13.9528623,10.81948 L10.4479604,10.81948 C10.195455,10.81948 9.98135124,10.6148242 9.98135124,10.3623188 L9.98135124,4.80019182 C9.98135124,4.54768649 10.186007,4.34303069 10.4385124,4.34303069 C10.6910177,4.34303069 10.8956735,4.54768649 10.8956735,4.80019182 L10.8956735,9.90515772 L13.9528623,9.90515772 C14.2052915,9.90515772 14.4100234,10.1098135 14.4100234,10.3623188 C14.4100234,10.6148242 14.2053676,10.81948 13.9528623,10.81948 Z" id="Path" fill="#FFC200"></path>
                </g>
            </g>
        </g>
    </g>
</svg>