<?xml version="1.0" encoding="UTF-8"?>
<svg width="32px" height="32px" viewBox="0 0 32 32" version="1.1" xmlns="http://www.w3.org/2000/svg" xmlns:xlink="http://www.w3.org/1999/xlink">
    <title></title>
    <g id="Page-1" stroke="none" stroke-width="1" fill="none" fill-rule="evenodd">
        <g id="L21.--Failed" transform="translate(-561.000000, -404.000000)">
            <g id="Group-2" transform="translate(531.000000, 396.000000)">
                <g id="iconspace_Folder" transform="translate(30.000000, 8.000000)">
                    <circle id="Shape" cx="16" cy="16" r="16"></circle>
                    <path d="M7,8 L25,8 C25.8284271,8 26.5,8.67157288 26.5,9.5 L26.5,21.5 C26.5,22.3284271 25.8284271,23 25,23 L7,23 C6.17157288,23 5.5,22.3284271 5.5,21.5 L5.5,9.5 C5.5,8.67157288 6.17157288,8 7,8 Z" id="Shape" fill="#154E84" fill-rule="nonzero"></path>
                    <path d="M7,9 C6.72385763,9 6.5,9.22385763 6.5,9.5 L6.5,21.5 C6.5,21.7761424 6.72385763,22 7,22 L25,22 C25.2761424,22 25.5,21.7761424 25.5,21.5 L25.5,9.5 C25.5,9.22385763 25.2761424,9 25,9 L7,9 Z" id="Shape" fill="#52ABE2" fill-rule="nonzero"></path>
                    <path d="M8,7 L10.4036668,7 C10.9587052,7 11.4887827,7.23065233 11.8671014,7.63678352 L14.4068243,10.3632165 C14.7851431,10.7693477 15.3152206,11 15.8702589,11 L26,11 L26,11 L26,23 C26,24.1045695 25.1045695,25 24,25 L8,25 C6.8954305,25 6,24.1045695 6,23 L6,9 C6,7.8954305 6.8954305,7 8,7 Z" id="Shape" fill="#FFC200"></path>
                    <path d="M8,7 L10.4036668,7 C10.9587052,7 11.4887827,7.23065233 11.8671014,7.63678352 L14.4068243,10.3632165 C14.7851431,10.7693477 15.3152206,11 15.8702589,11 L26,11 L26,11 L26,21 C26,22.1045695 25.1045695,23 24,23 L8,23 C6.8954305,23 6,22.1045695 6,21 L6,9 C6,7.8954305 6.8954305,7 8,7 Z" id="Shape" fill="#FFFFFF"></path>
                    <path d="M7,6.5 L10.8387963,6.5 C11.2550751,6.5 11.6526332,6.67298925 11.9363723,6.97758764 L15.0692708,10.3408041 C15.1638505,10.4423369 15.2963699,10.5 15.4351295,10.5 L26,10.5 C26.2761424,10.5 26.5,10.7238576 26.5,11 L26.5,24 C26.5,24.8284271 25.8284271,25.5 25,25.5 L7,25.5 C6.17157288,25.5 5.5,24.8284271 5.5,24 L5.5,8 C5.5,7.17157288 6.17157288,6.5 7,6.5 Z M25.5,11.5 L15.4351295,11.5 C15.0188507,11.5 14.6212926,11.3270108 14.3375535,11.0224124 L11.204655,7.65919588 C11.1100753,7.55766308 10.9775559,7.5 10.8387963,7.5 L7,7.5 C6.72385763,7.5 6.5,7.72385763 6.5,8 L6.5,24 C6.5,24.2761424 6.72385763,24.5 7,24.5 L25,24.5 C25.2761424,24.5 25.5,24.2761424 25.5,24 L25.5,11.5 Z" id="Shape" fill="#154E84" fill-rule="nonzero"></path>
                </g>
            </g>
        </g>
    </g>
</svg>