<?xml version="1.0" encoding="UTF-8"?>
<svg width="18px" height="19px" viewBox="0 0 18 19" version="1.1" xmlns="http://www.w3.org/2000/svg" xmlns:xlink="http://www.w3.org/1999/xlink">
    <title></title>
    <defs>
        <path d="M9,0 C13.9705627,0 18,4.02943725 18,9 C18,13.9705627 13.9705627,18 9,18 C4.02943725,18 0,13.9705627 0,9 C0,4.02943725 4.02943725,0 9,0 Z M11.2928932,6.29289322 L8,9.58578644 L6.70710678,8.29289322 C6.31658249,7.90236893 5.68341751,7.90236893 5.29289322,8.29289322 C4.90236893,8.68341751 4.90236893,9.31658249 5.29289322,9.70710678 L7.29289322,11.7071068 C7.68341751,12.0976311 8.31658249,12.0976311 8.70710678,11.7071068 L12.7071068,7.70710678 C13.0976311,7.31658249 13.0976311,6.68341751 12.7071068,6.29289322 C12.3165825,5.90236893 11.6834175,5.90236893 11.2928932,6.29289322 Z" id="path-check-circle-2"></path>
    </defs>
    <g id="Page-1" stroke="none" stroke-width="1" fill="none" fill-rule="evenodd">
        <g id="L19.--Import-Flle" transform="translate(-870.000000, -674.000000)">
            <g id="Group-Copy-2" transform="translate(317.000000, 659.000000)">
                <g id="standard/action/check-circle" transform="translate(553.000000, 15.496867)">
                    <mask id="mask-check-circle-2" fill="white">
                        <use xlink:href="#path-check-circle-2"></use>
                    </mask>
                    <use id="Combined-Shape" fill="#42526E" xlink:href="#path-check-circle-2"></use>
                    <g id="↳-🎨Color" mask="url(#mask-check-circle-2)" fill="#36B37E">
                        <g transform="translate(-3.000000, -3.000000)" id="G300">
                            <rect x="0" y="0" width="24" height="24"></rect>
                        </g>
                    </g>
                </g>
            </g>
        </g>
    </g>
</svg>