<?xml version="1.0" encoding="UTF-8"?>
<svg width="30px" height="28px" viewBox="0 0 30 28" version="1.1" xmlns="http://www.w3.org/2000/svg" xmlns:xlink="http://www.w3.org/1999/xlink">
    <title>A2C3737B-5775-46F3-A0F3-5417F837DC2F</title>
    <g id="Page-1" stroke="none" stroke-width="1" fill="none" fill-rule="evenodd">
        <g id="L19.--Import-Flle" transform="translate(-786.000000, -234.000000)">
            <g id="Group-13-Copy" transform="translate(316.000000, 78.000000)">
                <g id="Title-Copy-2" transform="translate(0.000000, 0.000000)">
                    <g id="iconspace_Attachment" transform="translate(470.880824, 156.000000)">
                        <path d="M19.3970794,11.9406408 C19.3970794,11.4573916 19.8010035,11.0656408 20.2992692,11.0656408 C20.7975348,11.0656408 21.2014589,11.4573916 21.2014589,11.9406408 L21.2014589,16.625 C21.2014589,20.0077441 18.3739902,22.75 14.8861307,22.75 C11.3982713,22.75 8.57080253,20.0077441 8.57080253,16.625 L8.57080253,9.1875 C8.57080253,6.77125422 10.5904231,4.8125 13.0817512,4.8125 C15.5730794,4.8125 17.5926999,6.77125422 17.5926999,9.1875 L17.5926999,16.1875 C17.5926999,17.6372475 16.3809276,18.8125 14.8861307,18.8125 C13.3913338,18.8125 12.1795615,17.6372475 12.1795615,16.1875 L12.1795615,10.0625 C12.1795615,9.57925084 12.5834856,9.1875 13.0817512,9.1875 C13.5800169,9.1875 13.983941,9.57925084 13.983941,10.0625 L13.983941,16.1875 C13.983941,16.6707492 14.3878651,17.0625 14.8861307,17.0625 C15.3843963,17.0625 15.7883205,16.6707492 15.7883205,16.1875 L15.7883205,9.1875 C15.7883205,7.73775253 14.5765481,6.5625 13.0817512,6.5625 C11.5869543,6.5625 10.375182,7.73775253 10.375182,9.1875 L10.375182,16.625 C10.375182,19.0412458 12.3948025,21 14.8861307,21 C17.3774589,21 19.3970794,19.0412458 19.3970794,16.625 L19.3970794,11.9406408 Z" id="Shape" fill="#FFFFFF"></path>
                        <polygon id="Shape" fill="#FFC200" points="12.6306564 9.625 13.5328461 9.625 13.5328461 14.4375 12.6306564 14.4375"></polygon>
                        <polygon id="Shape" fill="#52ABE2" points="19.8481743 10.9375 20.750364 10.9375 20.750364 16.625 19.8481743 16.625"></polygon>
                        <path d="M18.9459845,11.9406408 L18.9459845,16.625 C18.9459845,18.7996212 17.1283261,20.5625 14.8861307,20.5625 C12.6439354,20.5625 10.8262769,18.7996212 10.8262769,16.625 L10.8262769,9.1875 C10.8262769,7.97937711 11.8360871,7 13.0817512,7 C14.3274153,7 15.3372256,7.97937711 15.3372256,9.1875 L15.3372256,16.1875 C15.3372256,16.4291246 15.1352635,16.625 14.8861307,16.625 C14.6369979,16.625 14.4350358,16.4291246 14.4350358,16.1875 L14.4350358,10.0625 C14.4350358,9.33762627 13.8291497,8.75 13.0817512,8.75 C12.3343528,8.75 11.7284666,9.33762627 11.7284666,10.0625 L11.7284666,16.1875 C11.7284666,17.878872 13.142201,19.25 14.8861307,19.25 C16.6300604,19.25 18.0437948,17.878872 18.0437948,16.1875 L18.0437948,9.1875 C18.0437948,6.52962964 15.8222122,4.375 13.0817512,4.375 C10.3412902,4.375 8.11970766,6.52962964 8.11970766,9.1875 L8.11970766,16.625 C8.11970766,20.2493687 11.1491385,23.1875 14.8861307,23.1875 C18.623123,23.1875 21.6525538,20.2493687 21.6525538,16.625 L21.6525538,11.9406408 C21.6525538,11.215767 21.0466676,10.6281408 20.2992692,10.6281408 C19.5518707,10.6281408 18.9459845,11.215767 18.9459845,11.9406408 Z M19.8481743,11.9406408 C19.8481743,11.6990162 20.0501363,11.5031408 20.2992692,11.5031408 C20.548402,11.5031408 20.750364,11.6990162 20.750364,11.9406408 L20.750364,16.625 C20.750364,19.7661195 18.1248573,22.3125 14.8861307,22.3125 C11.6474041,22.3125 9.0218974,19.7661195 9.0218974,16.625 L9.0218974,9.1875 C9.0218974,7.0128788 10.8395559,5.25 13.0817512,5.25 C15.3239466,5.25 17.1416051,7.0128788 17.1416051,9.1875 L17.1416051,16.1875 C17.1416051,17.3956229 16.1317948,18.375 14.8861307,18.375 C13.6404666,18.375 12.6306564,17.3956229 12.6306564,16.1875 L12.6306564,10.0625 C12.6306564,9.82087542 12.8326184,9.625 13.0817512,9.625 C13.330884,9.625 13.5328461,9.82087542 13.5328461,10.0625 L13.5328461,16.1875 C13.5328461,16.9123737 14.1387323,17.5 14.8861307,17.5 C15.6335292,17.5 16.2394153,16.9123737 16.2394153,16.1875 L16.2394153,9.1875 C16.2394153,7.49612795 14.825681,6.125 13.0817512,6.125 C11.3378215,6.125 9.92408714,7.49612795 9.92408714,9.1875 L9.92408714,16.625 C9.92408714,19.2828704 12.1456697,21.4375 14.8861307,21.4375 C17.6265917,21.4375 19.8481743,19.2828704 19.8481743,16.625 L19.8481743,11.9406408 Z" id="Shape" fill="#154E84" fill-rule="nonzero"></path>
                    </g>
                </g>
            </g>
        </g>
    </g>
</svg>