<?xml version="1.0" encoding="UTF-8"?>
<svg width="20px" height="12px" viewBox="0 0 20 12" version="1.1" xmlns="http://www.w3.org/2000/svg" xmlns:xlink="http://www.w3.org/1999/xlink">
    <!-- Generator: sketchtool 61.2 (101010) - https://sketch.com -->
    <title></title>
    <desc>Created with sketchtool.</desc>
    <g id="Page-3" stroke="none" stroke-width="1" fill="none" fill-rule="evenodd">
        <g id="1.0--Homepage-list-menu" transform="translate(-1347.000000, -756.000000)" fill-rule="nonzero">
            <g id="Group-5-Copy" transform="translate(1233.000000, 536.000000)">
                <g id="iconspace_Red-Eye" transform="translate(110.000000, 212.000000)">
                    <path d="M14,19.6875 C17.3736437,19.6875 20.4124128,17.8642385 23.1006399,14.2616447 C23.2164534,14.1064386 23.2164534,13.8935614 23.1006399,13.7383553 C20.4124128,10.1357615 17.3736437,8.3125 14,8.3125 C10.6263563,8.3125 7.58758716,10.1357615 4.89936014,13.7383553 C4.78354662,13.8935614 4.78354662,14.1064386 4.89936014,14.2616447 C7.58758716,17.8642385 10.6263563,19.6875 14,19.6875 Z" id="Shape" fill="#154E84"></path>
                    <path d="M14,9.1875 C16.9898247,9.1875 19.7186626,10.7781369 22.20099,14 C19.7186626,17.2218631 16.9898247,18.8125 14,18.8125 C11.0101753,18.8125 8.28133739,17.2218631 5.79901005,14 C8.28133739,10.7781369 11.0101753,9.1875 14,9.1875 Z" id="Shape" fill="#FFFFFF"></path>
                    <path d="M14,17.5 C15.9329966,17.5 17.5,15.9329966 17.5,14 C17.5,12.0670034 15.9329966,10.5 14,10.5 C12.0670034,10.5 10.5,12.0670034 10.5,14 C10.5,15.9329966 12.0670034,17.5 14,17.5 Z" id="Shape" fill="#154E84"></path>
                    <path d="M14,16.625 C12.5502525,16.625 11.375,15.4497475 11.375,14 C11.375,12.5502525 12.5502525,11.375 14,11.375 C15.4497475,11.375 16.625,12.5502525 16.625,14 C16.625,15.4497475 15.4497475,16.625 14,16.625 Z" id="Shape" fill="#52ABE2"></path>
                    <path d="M14,15.3125 C14.7248737,15.3125 15.3125,14.7248737 15.3125,14 C15.3125,13.2751263 14.7248737,12.6875 14,12.6875 C13.2751263,12.6875 12.6875,13.2751263 12.6875,14 C12.6875,14.7248737 13.2751263,15.3125 14,15.3125 Z" id="Shape" fill="#154E84"></path>
                    <path d="M14,14.4375 C13.7583754,14.4375 13.5625,14.2416246 13.5625,14 C13.5625,13.7583754 13.7583754,13.5625 14,13.5625 C14.2416246,13.5625 14.4375,13.7583754 14.4375,14 C14.4375,14.2416246 14.2416246,14.4375 14,14.4375 Z" id="Shape" fill="#FFC200"></path>
                </g>
            </g>
        </g>
    </g>
</svg>