<?xml version="1.0" encoding="UTF-8"?>
<svg width="20px" height="20px" viewBox="0 0 20 20" version="1.1" xmlns="http://www.w3.org/2000/svg" xmlns:xlink="http://www.w3.org/1999/xlink">
    <title></title>
    <g id="Page-1" stroke="none" stroke-width="1" fill="none" fill-rule="evenodd">
        <g id="L8.-invoice" transform="translate(-612.000000, -139.000000)">
            <g id="Group-49-Copy-4" transform="translate(612.000000, 139.000000)">
                <polygon id="Path" fill="#FE9923" fill-rule="nonzero" points="3.66668703 0.333404531 0.333404531 0.333404531 0.333404531 3.66668703 1.66671754 3.66668703 1.66671754 1.66671754 3.66668703 1.66671754"></polygon>
                <polygon id="Path" fill="#FE9923" fill-rule="nonzero" points="16.333313 0.333404531 19.6665955 0.333404531 19.6665955 3.66668703 18.3332825 3.66668703 18.3332825 1.66671754 16.333313 1.66671754"></polygon>
                <polygon id="Path" fill="#FE9923" fill-rule="nonzero" points="16.333313 19.6665955 19.6665955 19.6665955 19.6665955 16.333313 18.3332825 16.333313 18.3332825 18.3332825 16.333313 18.3332825"></polygon>
                <polygon id="Path" fill="#FE9923" fill-rule="nonzero" points="3.66668703 19.6665955 0.333404531 19.6665955 0.333404531 16.333313 1.66671754 16.333313 1.66671754 18.3332825 3.66668703 18.3332825"></polygon>
                <g id="Group" fill="#FE9923" fill-rule="nonzero">
                    <path d="M1.66671754,3.99993898 L0.333404531,3.99993898 C0.149383555,3.99993898 0,3.85070801 0,3.66668703 L0,0.333404531 C0,0.149383555 0.149383555,0 0.333404531,0 L3.66668703,0 C3.85070801,0 3.99993898,0.149383555 3.99993898,0.333404531 L3.99993898,1.66671754 C3.99993898,1.85073852 3.85070801,1.99996949 3.66668703,1.99996949 L1.99996949,1.99996949 L1.99996949,3.66668703 C1.99996949,3.85070801 1.85073852,3.99993898 1.66671754,3.99993898 Z M0.666656484,3.33328246 L1.33331297,3.33328246 L1.33331297,1.66671754 C1.33331297,1.48269652 1.48269652,1.33331297 1.66671754,1.33331297 L3.33328246,1.33331297 L3.33328246,0.666656484 L0.666656484,0.666656484 L0.666656484,3.33328246 Z" id="Shape"></path>
                    <path d="M19.6665955,3.99993898 L18.3332825,3.99993898 C18.1492615,3.99993898 18.0000305,3.85070801 18.0000305,3.66668703 L18.0000305,1.99996949 L16.333313,1.99996949 C16.149292,1.99996949 16.000061,1.85073852 16.000061,1.66671754 L16.000061,0.333404531 C16.000061,0.149383555 16.149292,0 16.333313,0 L19.6665955,0 C19.8506164,0 20,0.149383555 20,0.333404531 L20,3.66668703 C20,3.85070801 19.8506164,3.99993898 19.6665955,3.99993898 L19.6665955,3.99993898 Z M18.666687,3.33328246 L19.3333435,3.33328246 L19.3333435,0.666656484 L16.6667175,0.666656484 L16.6667175,1.33331297 L18.3332825,1.33331297 C18.5173035,1.33331297 18.666687,1.48269652 18.666687,1.66671754 L18.666687,3.33328246 Z" id="Shape"></path>
                    <path d="M19.6665955,20 L16.333313,20 C16.149292,20 16.000061,19.8506164 16.000061,19.6665955 L16.000061,18.3332825 C16.000061,18.1492615 16.149292,18.0000305 16.333313,18.0000305 L18.0000305,18.0000305 L18.0000305,16.333313 C18.0000305,16.149292 18.1492615,16.000061 18.3332825,16.000061 L19.6665955,16.000061 C19.8506164,16.000061 20,16.149292 20,16.333313 L20,19.6665955 C20,19.8506164 19.8506164,20 19.6665955,20 L19.6665955,20 Z M16.6667175,19.3333435 L19.3333435,19.3333435 L19.3333435,16.6667175 L18.666687,16.6667175 L18.666687,18.3332825 C18.666687,18.5173035 18.5173035,18.666687 18.3332825,18.666687 L16.6667175,18.666687 L16.6667175,19.3333435 Z" id="Shape"></path>
                    <path d="M3.66668703,20 L0.333404531,20 C0.149383555,20 0,19.8506164 0,19.6665955 L0,16.333313 C0,16.149292 0.149383555,16.000061 0.333404531,16.000061 L1.66671754,16.000061 C1.85073852,16.000061 1.99996949,16.149292 1.99996949,16.333313 L1.99996949,18.0000305 L3.66668703,18.0000305 C3.85070801,18.0000305 3.99993898,18.1492615 3.99993898,18.3332825 L3.99993898,19.6665955 C3.99993898,19.8506164 3.85070801,20 3.66668703,20 L3.66668703,20 Z M0.666656484,19.3333435 L3.33328246,19.3333435 L3.33328246,18.666687 L1.66671754,18.666687 C1.48269652,18.666687 1.33331297,18.5173035 1.33331297,18.3332825 L1.33331297,16.6667175 L0.666656484,16.6667175 L0.666656484,19.3333435 Z" id="Shape"></path>
                </g>
                <text id="AI" font-family="Roboto-Bold, Roboto" font-size="16" font-weight="bold" fill="#030D3C">
                    <tspan x="2" y="15">AI</tspan>
                </text>
            </g>
        </g>
    </g>
</svg>