<?xml version="1.0" encoding="UTF-8"?>
<svg width="20px" height="20px" viewBox="0 0 20 20" version="1.1" xmlns="http://www.w3.org/2000/svg" xmlns:xlink="http://www.w3.org/1999/xlink">
    <title></title>
    <g id="Page-1" stroke="none" stroke-width="1" fill="none" fill-rule="evenodd">
        <g id="L8.-invoice" transform="translate(-584.000000, -139.000000)" fill-rule="nonzero">
            <g id="Group" transform="translate(584.000000, 139.000000)">
                <path d="M1.66671754,3.99993898 L0.333404531,3.99993898 C0.149383555,3.99993898 -1.28985711e-12,3.85070801 -1.28985711e-12,3.66668703 L-1.28985711e-12,0.333404531 C-1.28985711e-12,0.149383555 0.149383555,7.43849426e-14 0.333404531,7.43849426e-14 L3.66668703,7.43849426e-14 C3.85070801,7.43849426e-14 3.99993898,0.149383555 3.99993898,0.333404531 L3.99993898,1.66671754 C3.99993898,1.85073852 3.85070801,1.99996949 3.66668703,1.99996949 L1.99996949,1.99996949 L1.99996949,3.66668703 C1.99996949,3.85070801 1.85073852,3.99993898 1.66671754,3.99993898 Z M0.666656484,3.33328246 L1.33331297,3.33328246 L1.33331297,1.66671754 C1.33331297,1.48269652 1.48269652,1.33331297 1.66671754,1.33331297 L3.33328246,1.33331297 L3.33328246,0.666656484 L0.666656484,0.666656484 L0.666656484,3.33328246 Z" id="Shape" fill="#FE9923"></path>
                <path d="M19.6665955,3.99993898 L18.3332825,3.99993898 C18.1492615,3.99993898 18.0000305,3.85070801 18.0000305,3.66668703 L18.0000305,1.99996949 L16.333313,1.99996949 C16.149292,1.99996949 16.000061,1.85073852 16.000061,1.66671754 L16.000061,0.333404531 C16.000061,0.149383555 16.149292,7.43849426e-14 16.333313,7.43849426e-14 L19.6665955,7.43849426e-14 C19.8506164,7.43849426e-14 20,0.149383555 20,0.333404531 L20,3.66668703 C20,3.85070801 19.8506164,3.99993898 19.6665955,3.99993898 L19.6665955,3.99993898 Z M18.666687,3.33328246 L19.3333435,3.33328246 L19.3333435,0.666656484 L16.6667175,0.666656484 L16.6667175,1.33331297 L18.3332825,1.33331297 C18.5173035,1.33331297 18.666687,1.48269652 18.666687,1.66671754 L18.666687,3.33328246 Z" id="Shape" fill="#FE9923"></path>
                <path d="M19.6665955,19.999878 L16.333313,19.999878 C16.149292,19.999878 16.000061,19.8504944 16.000061,19.6664734 L16.000061,18.3331604 C16.000061,18.1491395 16.149292,17.9999085 16.333313,17.9999085 L18.0000305,17.9999085 L18.0000305,16.3331909 C18.0000305,16.14917 18.1492615,15.999939 18.3332825,15.999939 L19.6665955,15.999939 C19.8506164,15.999939 20,16.14917 20,16.3331909 L20,19.6664734 C20,19.8504944 19.8506164,19.999878 19.6665955,19.999878 L19.6665955,19.999878 Z M16.6667175,19.3332215 L19.3333435,19.3332215 L19.3333435,16.6665955 L18.666687,16.6665955 L18.666687,18.3331604 C18.666687,18.5171814 18.5173035,18.666565 18.3332825,18.666565 L16.6667175,18.666565 L16.6667175,19.3332215 Z" id="Shape" fill="#FE9923"></path>
                <path d="M3.66668703,19.999878 L0.333404531,19.999878 C0.149383555,19.999878 -1.28985711e-12,19.8504944 -1.28985711e-12,19.6664734 L-1.28985711e-12,16.3331909 C-1.28985711e-12,16.14917 0.149383555,15.999939 0.333404531,15.999939 L1.66671754,15.999939 C1.85073852,15.999939 1.99996949,16.14917 1.99996949,16.3331909 L1.99996949,17.9999085 L3.66668703,17.9999085 C3.85070801,17.9999085 3.99993898,18.1491395 3.99993898,18.3331604 L3.99993898,19.6664734 C3.99993898,19.8504944 3.85070801,19.999878 3.66668703,19.999878 L3.66668703,19.999878 Z M0.666656484,19.3332215 L3.33328246,19.3332215 L3.33328246,18.666565 L1.66671754,18.666565 C1.48269652,18.666565 1.33331297,18.5171814 1.33331297,18.3331604 L1.33331297,16.6665955 L0.666656484,16.6665955 L0.666656484,19.3332215 Z" id="Shape" fill="#FE9923"></path>
                <g id="qr-code-copy" transform="translate(3.000000, 2.999939)" fill="#000000">
                    <path d="M0,13.9996866 L6.36352239,13.9996866 L6.36352239,7.63609453 L0,7.63609453 L0,13.9996866 Z M1.27260697,8.90891045 L5.09077612,8.90891045 L5.09077612,12.7171891 L1.27260697,12.7171891 L1.27260697,8.90891045 Z" id="Shape"></path>
                    <rect id="Rectangle" x="2.54538806" y="10.1815174" width="1.27267662" height="1.27285075"></rect>
                    <rect id="Rectangle" x="10.1814129" y="12.7270796" width="1.27299005" height="1.27271144"></rect>
                    <rect id="Rectangle" x="12.7268358" y="12.7270796" width="1.27295522" height="1.27271144"></rect>
                    <polygon id="Path" points="12.7269751 8.90891045 11.4543682 8.90891045 11.4543682 7.63609453 7.63609453 7.63609453 7.63609453 13.9996866 8.90891045 13.9996866 8.90891045 10.1815174 10.1814129 10.1815174 10.1814129 11.4543682 13.9996866 11.4543682 13.9996866 7.63609453 13.9996866 7.63609453 12.7269751 7.63609453"></polygon>
                    <path d="M0,6.36366169 L6.36352239,6.36366169 L6.36352239,0 L0,0 L0,6.36366169 Z M1.27260697,1.27260697 L5.09077612,1.27260697 L5.09077612,5.09077612 L1.27260697,5.09077612 L1.27260697,1.27260697 Z" id="Shape"></path>
                    <rect id="Rectangle" x="2.54538806" y="2.54538806" width="1.27267662" height="1.27278109"></rect>
                    <path d="M7.63609453,0 L7.63609453,6.36366169 L13.999791,6.36366169 L13.999791,0 L7.63609453,0 Z M12.7269751,5.09077612 L8.90891045,5.09077612 L8.90891045,1.27260697 L12.7269751,1.27260697 L12.7269751,5.09077612 L12.7269751,5.09077612 Z" id="Shape"></path>
                    <rect id="Rectangle" x="10.1814129" y="2.54538806" width="1.27299005" height="1.27278109"></rect>
                </g>
                <polygon id="Path" fill="#FE9923" points="3.66668703 0.333404531 0.333404531 0.333404531 0.333404531 3.66668703 1.66671754 3.66668703 1.66671754 1.66671754 3.66668703 1.66671754"></polygon>
                <polygon id="Path" fill="#FE9923" points="16.333313 0.333404531 19.6665955 0.333404531 19.6665955 3.66668703 18.3332825 3.66668703 18.3332825 1.66671754 16.333313 1.66671754"></polygon>
                <polygon id="Path" fill="#FE9923" points="16.333313 19.6665955 19.6665955 19.6665955 19.6665955 16.333313 18.3332825 16.333313 18.3332825 18.3332825 16.333313 18.3332825"></polygon>
                <polygon id="Path" fill="#FE9923" points="3.66668703 19.6665955 0.333404531 19.6665955 0.333404531 16.333313 1.66671754 16.333313 1.66671754 18.3332825 3.66668703 18.3332825"></polygon>
            </g>
        </g>
    </g>
</svg>