<?xml version="1.0" encoding="UTF-8"?>
<svg width="24px" height="21px" viewBox="0 0 24 21" version="1.1" xmlns="http://www.w3.org/2000/svg" xmlns:xlink="http://www.w3.org/1999/xlink">
    <!-- Generator: sketchtool 64 (101010) - https://sketch.com -->
    <title></title>
    <desc>Created with sketchtool.</desc>
    <g id="Web" stroke="none" stroke-width="1" fill="none" fill-rule="evenodd">
        <g id="5.-Document-capture" transform="translate(-648.000000, -145.000000)" fill-rule="nonzero">
            <g id="reload" transform="translate(660.000000, 155.502924) scale(-1, -1) translate(-660.000000, -155.502924) translate(648.000000, 145.000000)">
                <path d="M17.1597661,9.73319298 C16.7413801,6.04112281 13.4092164,3.38727485 9.7171462,3.80566082 C6.02507602,4.22404678 3.37127485,7.55621053 3.78961404,11.2482807 C4.17534503,14.6521637 7.05712281,17.2227368 10.482807,17.2186199 C12.2666199,17.227462 13.9781988,16.5147135 15.228538,15.2424795 L17.354386,17.338386 C15.5497076,19.1905965 13.0687719,20.2283509 10.482807,20.2129448 C5.10853801,20.2153918 0.749707602,15.8608187 0.747086538,10.4865029 C0.744467836,5.11218713 5.09904094,0.753356725 10.4733567,0.750735686 C15.5071813,0.748304094 19.712,4.58540351 20.1689357,9.59845614 C20.1689357,9.64336842 20.1839064,9.6882807 20.1839064,9.73319298 L23.208,9.73319298 L18.7167719,14.2244211 L14.2255439,9.73319298 L17.1597661,9.73319298 Z" id="Path" fill="#FFFFFF"></path>
                <path d="M10.482807,20.9612632 C4.69515789,20.9630877 0.0018245614,16.2727485 -5.3213559e-07,10.4850526 C-0.0018245614,4.69735673 4.6885614,0.00402339181 10.4762573,0.00219830515 C15.6868772,0.000561403509 20.1072281,3.82746199 20.8516023,8.98465497 L23.208,8.98465497 C23.6214269,8.98390643 23.9571462,9.31845614 23.9578961,9.73183626 C23.958269,9.9311345 23.8791111,10.122386 23.7379649,10.2631579 L19.2467368,14.754386 C18.954807,15.0470643 18.4808421,15.0476725 18.1881637,14.7557427 C18.1876959,14.7552749 18.1872749,14.7548538 18.186807,14.754386 L13.6955789,10.2631579 C13.4029006,9.97122807 13.4022924,9.49726316 13.6942222,9.2045848 C13.8349942,9.06348538 14.0261988,8.98432749 14.2255439,8.98465497 L16.2660585,8.98465497 C15.6167953,6.32519298 13.2202573,4.46404678 10.4828538,4.4934269 C7.17562573,4.4934269 4.49454971,7.17450292 4.49454971,10.481731 C4.49454971,13.7889591 7.17562573,16.4700351 10.4828538,16.4700351 C12.0662456,16.4771462 13.5854035,15.8444444 14.6956257,14.715462 C14.9879298,14.4232515 15.4617544,14.4232515 15.7540585,14.715462 L17.8799064,16.8113684 C18.1740351,17.1005848 18.1787135,17.5732865 17.890386,17.8683041 C15.9437661,19.8625965 13.269614,20.9791345 10.482807,20.9612632 Z M10.482807,1.49921808 C5.52191813,1.49921808 1.50035088,5.52084211 1.50035088,10.481731 C1.50035088,15.4426199 5.52191813,19.4643288 10.482807,19.4643288 C12.6091228,19.4762573 14.6676491,18.7166784 16.2764912,17.3263626 L15.209076,16.2784094 C13.8802339,17.3778246 12.2074386,17.9754854 10.482807,17.9671111 C6.34877193,17.9770292 2.9894269,14.633731 2.97950877,10.4996959 C2.96959064,6.36566082 6.31288889,3.00631579 10.446924,2.99639766 C14.265731,2.98722807 17.4791579,5.85422222 17.9038129,9.64935673 C17.9501287,10.0601637 17.6546433,10.4307368 17.2438363,10.4770526 C17.2144561,10.4803743 17.1848421,10.4819181 17.1552749,10.481731 L16.0279766,10.481731 L18.7167251,13.1659883 L21.4009825,10.481731 L20.1838596,10.481731 C19.7704327,10.481731 19.4353216,10.1466199 19.4353216,9.73319298 C19.0613801,5.07083041 15.1601871,1.48276023 10.482807,1.49921808 Z" id="Shape" fill="#154E84"></path>
            </g>
        </g>
    </g>
</svg>