<?xml version="1.0" encoding="UTF-8"?>
<svg width="28px" height="28px" viewBox="0 0 28 28" version="1.1" xmlns="http://www.w3.org/2000/svg" xmlns:xlink="http://www.w3.org/1999/xlink">
    <title></title>
    <g id="Page-1" stroke="none" stroke-width="1" fill="none" fill-rule="evenodd">
        <g id="L1.-Global-search--Copy" transform="translate(-16.000000, -79.000000)">
            <g id="Group-53" transform="translate(0.000000, 68.000000)">
                <g id="Group-84" transform="translate(16.000000, 11.000000)">
                    <circle id="Shape" cx="14" cy="14" r="14"></circle>
                    <polygon id="Shape" fill="#FFC200" points="5.25 7 18.8125 7 18.8125 8.75 5.25 8.75"></polygon>
                    <polygon id="Shape" fill="#FFFFFF" points="5.25 13.125 7.4375 13.125 7.4375 14.875 5.25 14.875"></polygon>
                    <polygon id="Shape" fill="#52ABE2" points="5.25 19.25 18.375 19.25 18.375 21 5.25 21"></polygon>
                    <path d="M4.8125,7 C4.8125,6.75837542 4.96640212,6.5625 5.15625,6.5625 L18.90625,6.5625 C19.0960979,6.5625 19.25,6.75837542 19.25,7 L19.25,8.75 C19.25,8.99162458 19.0960979,9.1875 18.90625,9.1875 L5.15625,9.1875 C4.96640212,9.1875 4.8125,8.99162458 4.8125,8.75 L4.8125,7 Z M5.6875,7.4375 L5.6875,8.3125 L18.375,8.3125 L18.375,7.4375 L5.6875,7.4375 Z" id="Shape" fill="#154E84" fill-rule="nonzero"></path>
                    <path d="M4.8125,13.125 C4.8125,12.8833754 4.8451459,12.6875 4.88541667,12.6875 L7.80208333,12.6875 C7.8423541,12.6875 7.875,12.8833754 7.875,13.125 L7.875,14.875 C7.875,15.1166246 7.8423541,15.3125 7.80208333,15.3125 L4.88541667,15.3125 C4.8451459,15.3125 4.8125,15.1166246 4.8125,14.875 L4.8125,13.125 Z M5.6875,13.5625 L5.6875,14.4375 L7,14.4375 L7,13.5625 L5.6875,13.5625 Z" id="Shape" fill="#154E84" fill-rule="nonzero"></path>
                    <path d="M4.8125,19.25 C4.8125,19.0083754 4.96640212,18.8125 5.15625,18.8125 L18.90625,18.8125 C19.0960979,18.8125 19.25,19.0083754 19.25,19.25 L19.25,21 C19.25,21.2416246 19.0960979,21.4375 18.90625,21.4375 L5.15625,21.4375 C4.96640212,21.4375 4.8125,21.2416246 4.8125,21 L4.8125,19.25 Z M5.6875,19.6875 L5.6875,20.5625 L18.375,20.5625 L18.375,19.6875 L5.6875,19.6875 Z" id="Shape" fill="#154E84" fill-rule="nonzero"></path>
                    <path d="M17.5208333,11.5208333 L17.5208333,18.6041667 L22.8333333,18.6041667 C23.0289342,18.6041667 23.1875,18.7627325 23.1875,18.9583333 L23.1875,21.0833333 C23.1875,21.2789342 23.0289342,21.4375 22.8333333,21.4375 L8.66666667,21.4375 C8.47106582,21.4375 8.3125,21.2789342 8.3125,21.0833333 L8.3125,18.9583333 C8.3125,18.7627325 8.47106582,18.6041667 8.66666667,18.6041667 L13.9791667,18.6041667 L13.9791667,11.5208333 L12.2083333,11.5208333 C11.9080575,11.5208333 11.7440231,11.170613 11.936255,10.9399347 L15.4779216,6.68993469 C15.6195157,6.52002177 15.8804843,6.52002177 16.0220784,6.68993469 L19.563745,10.9399347 C19.7559769,11.170613 19.5919425,11.5208333 19.2916667,11.5208333 L17.5208333,11.5208333 Z" id="Shape" fill="#154E84" fill-rule="nonzero" transform="translate(15.750000, 14.000000) scale(1, -1) rotate(-90.000000) translate(-15.750000, -14.000000) "></path>
                    <path d="M22.75,19.2129703 L17.3963816,19.2129703 C17.1992668,19.2129703 17.0394737,19.0544045 17.0394737,18.8588037 L17.0394737,11.067137 C17.0394737,10.8715361 17.1992668,10.7129703 17.3963816,10.7129703 L18.7758157,10.7129703 L15.96875,7.37036301 L13.1616843,10.7129703 L14.5411184,10.7129703 C14.7382332,10.7129703 14.8980263,10.8715361 14.8980263,11.067137 L14.8980263,18.8588037 C14.8980263,19.0544045 14.7382332,19.2129703 14.5411184,19.2129703 L9.1875,19.2129703 L9.1875,20.629637 L22.75,20.629637 L22.75,19.2129703 Z" id="Shape" fill="#FFFFFF" fill-rule="nonzero" transform="translate(15.968750, 14.000000) scale(1, -1) rotate(-90.000000) translate(-15.968750, -14.000000) "></path>
                </g>
            </g>
        </g>
    </g>
</svg>