<?xml version="1.0" encoding="UTF-8"?>
<svg width="20px" height="20px" viewBox="0 0 20 20" version="1.1" xmlns="http://www.w3.org/2000/svg" xmlns:xlink="http://www.w3.org/1999/xlink">
    <title></title>
    <g id="Page-1" stroke="none" stroke-width="1" fill="none" fill-rule="evenodd">
        <g id="20.-Profile" transform="translate(-1386.000000, -25.000000)" fill="#FFFFFF" fill-rule="nonzero">
            <g id="grid" transform="translate(1386.000000, 25.000000)">
                <path d="M8.45139706,0 L0.768308824,0 C0.343970588,0 0,0.343970588 0,0.768308824 L0,8.45139706 C0,8.87573529 0.343970588,9.21970588 0.768308824,9.21970588 L8.45139706,9.21970588 C8.87573529,9.21970588 9.21970588,8.87573529 9.21970588,8.45139706 L9.21970588,0.768308824 C9.21970588,0.343970588 8.87573529,0 8.45139706,0 Z" id="Path"></path>
                <path d="M19.2076471,0 L11.5245588,0 C11.1002206,0 10.75625,0.343970588 10.75625,0.768308824 L10.75625,8.45139706 C10.75625,8.87573529 11.1002206,9.21970588 11.5245588,9.21970588 L19.2076471,9.21970588 C19.6319853,9.21970588 19.9759559,8.87573529 19.9759559,8.45139706 L19.9759559,0.768308824 C19.9759559,0.343970588 19.6319853,0 19.2076471,0 Z" id="Path"></path>
                <path d="M8.45139706,10.7563235 L0.768308824,10.7563235 C0.343970588,10.7563235 0,11.1002941 0,11.5246324 L0,19.2077206 C0,19.6320588 0.343970588,19.9760294 0.768308824,19.9760294 L8.45139706,19.9760294 C8.87573529,19.9760294 9.21970588,19.6320588 9.21970588,19.2077206 L9.21970588,11.5246324 C9.21970588,11.1002941 8.87573529,10.7563235 8.45139706,10.7563235 Z" id="Path"></path>
                <path d="M19.2076471,10.7563235 L11.5245588,10.7563235 C11.1002206,10.7563235 10.75625,11.1002941 10.75625,11.5246324 L10.75625,19.2077206 C10.75625,19.6320588 11.1002206,19.9760294 11.5245588,19.9760294 L19.2076471,19.9760294 C19.6319853,19.9760294 19.9759559,19.6320588 19.9759559,19.2077206 L19.9759559,11.5246324 C19.9759559,11.1002941 19.6319853,10.7563235 19.2076471,10.7563235 Z" id="Path"></path>
            </g>
        </g>
    </g>
</svg>