<?xml version="1.0" encoding="UTF-8"?>
<svg width="16px" height="16px" viewBox="0 0 16 16" version="1.1" xmlns="http://www.w3.org/2000/svg" xmlns:xlink="http://www.w3.org/1999/xlink">
    <title></title>
    <defs>
        <path d="M8,1.33333333 C11.6822222,1.33333333 14.6666667,4.31777778 14.6666667,8 C14.6666667,11.6822222 11.6822222,14.6666667 8,14.6666667 C4.31777778,14.6666667 1.33333333,11.6822222 1.33333333,8 C1.33333333,4.31777778 4.31777778,1.33333333 8,1.33333333 Z M8,2.66666667 C5.05415744,2.66666667 2.66666667,5.05415744 2.66666667,8 C2.66666667,10.9458426 5.05415744,13.3333333 8,13.3333333 C10.9458426,13.3333333 13.3333333,10.9458426 13.3333333,8 C13.3333333,5.05415744 10.9458426,2.66666667 8,2.66666667 Z M8,6.66666667 C8.36818983,6.66666667 8.66666667,6.9728597 8.66666667,7.33528622 L8.66666667,10.6647138 C8.66666667,11.0004123 8.42211305,11.278328 8.09909369,11.3260838 L8,11.3333333 C7.63181017,11.3333333 7.33333333,11.0271403 7.33333333,10.6647138 L7.33333333,7.33528622 C7.33333333,6.99958769 7.57788695,6.72167198 7.90090631,6.67391622 L8,6.66666667 Z M8,4.66666667 C8.36818983,4.66666667 8.66666667,4.9651435 8.66666667,5.33333333 C8.66666667,5.70152317 8.36818983,6 8,6 C7.63181017,6 7.33333333,5.70152317 7.33333333,5.33333333 C7.33333333,4.9651435 7.63181017,4.66666667 8,4.66666667 Z" id="path-1"></path>
    </defs>
    <g id="Page-2" stroke="none" stroke-width="1" fill="none" fill-rule="evenodd">
        <g id="P2/12.-Import" transform="translate(-670.000000, -439.000000)">
            <g id="Group-53" transform="translate(530.000000, 423.000000)">
                <g id="standard/status/info" transform="translate(140.000000, 16.000000)">
                    <mask id="mask-2" fill="white">
                        <use xlink:href="#path-1"></use>
                    </mask>
                    <use id="Combined-Shape" fill="#42526E" fill-rule="nonzero" xlink:href="#path-1"></use>
                    <g id="↳-🎨Color" mask="url(#mask-2)" fill="#42526E">
                        <polygon id="N500" points="0 16 16 16 16 0 0 0"></polygon>
                    </g>
                </g>
            </g>
        </g>
    </g>
</svg>