<?xml version="1.0" encoding="UTF-8"?>
<svg width="48px" height="48px" viewBox="0 0 48 48" version="1.1" xmlns="http://www.w3.org/2000/svg" xmlns:xlink="http://www.w3.org/1999/xlink">
    <!-- Generator: sketchtool 63.1 (101010) - https://sketch.com -->
    <title></title>
    <desc>Created with sketchtool.</desc>
    <g id="Web" stroke="none" stroke-width="1" fill="none" fill-rule="evenodd">
        <g id="1.6-Data-capture---Show-personal-opt-1" transform="translate(-466.000000, -620.000000)">
            <g id="Group-3" transform="translate(296.000000, 132.000000)">
                <g id="iconspace_Refresh" transform="translate(170.000000, 488.000000)">
                    <circle id="Shape" fill="#E6F0FC" cx="24" cy="24" r="24"></circle>
                    <path d="M13.3951828,15.6451828 C15.8673696,12.5115283 19.698776,10.5 24,10.5 C31.4558441,10.5 37.5,16.5441559 37.5,24 L34.5,24 C34.5,18.2010101 29.7989899,13.5 24,13.5 C20.526497,13.5 17.4469293,15.1866379 15.5356054,17.7856054 L17.25,19.5 L11.25,19.5 L11.25,13.5 L13.3951828,15.6451828 Z" id="Shape" fill="#FFFFFF"></path>
                    <path d="M34.6048172,32.3548172 C32.1326304,35.4884717 28.301224,37.5 24,37.5 C16.5441559,37.5 10.5,31.4558441 10.5,24 L13.5,24 C13.5,29.7989899 18.2010101,34.5 24,34.5 C27.473503,34.5 30.5530707,32.8133621 32.4643946,30.2143946 L30.75,28.5 L36.75,28.5 L36.75,34.5 L34.6048172,32.3548172 L34.6048172,32.3548172 Z" id="Shape" fill="#52ABE2"></path>
                    <path d="M24,10.5 C31.4558441,10.5 37.5,16.5441559 37.5,24 L34.5,24 C34.5,18.2010101 29.7989899,13.5 24,13.5 L24,10.5 Z" id="Shape" fill="#FFC200"></path>
                    <path d="M24,37.5 L24,34.5 C27.473503,34.5 30.5530707,32.8133621 32.4643946,30.2143946 L30.75,28.5 L36.75,28.5 L36.75,34.5 L34.6048172,32.3548172 C32.1326304,35.4884717 28.301224,37.5 24,37.5 Z" id="Shape" fill="#FFFFFF"></path>
                    <path d="M13.3464068,14.5357466 C16.023677,11.5221346 19.8664936,9.75 24,9.75 C31.8700577,9.75 38.25,16.1299423 38.25,24 C38.25,24.4142136 37.9142136,24.75 37.5,24.75 L34.5,24.75 C34.0857864,24.75 33.75,24.4142136 33.75,24 C33.75,18.6152237 29.3847763,14.25 24,14.25 C21.076603,14.25 18.3703869,15.5447931 16.5364524,17.7257923 L17.7803301,18.9696699 C18.2528037,19.4421436 17.9181786,20.25 17.25,20.25 L11.25,20.25 C10.8357864,20.25 10.5,19.9142136 10.5,19.5 L10.5,13.5 C10.5,12.8318214 11.3078564,12.4971963 11.7803301,12.9696699 L13.3464068,14.5357466 Z M24,11.25 C20.0439643,11.25 16.3880823,13.0623916 13.9840048,16.1097133 C13.7058759,16.4622595 13.1823779,16.4930381 12.8648527,16.1755129 L12,15.3106602 L12,18.75 L15.4393398,18.75 L15.0052753,18.3159354 C14.7432476,18.0539078 14.7118607,17.6397915 14.9314024,17.3412645 C17.038039,14.4767161 20.3756702,12.75 24,12.75 C29.961182,12.75 34.839457,17.3864761 35.2253966,23.25 L36.7283073,23.25 C36.340094,16.5574654 30.7898595,11.25 24,11.25 Z" id="Shape" fill="#154E84" fill-rule="nonzero"></path>
                    <path d="M24,38.25 C16.1299423,38.25 9.75,31.8700577 9.75,24 C9.75,23.5857864 10.0857864,23.25 10.5,23.25 L13.5,23.25 C13.9142136,23.25 14.25,23.5857864 14.25,24 C14.25,29.3847763 18.6152237,33.75 24,33.75 C26.923397,33.75 29.6296131,32.4552069 31.4635476,30.2742077 L30.2196699,29.0303301 C29.7471963,28.5578564 30.0818214,27.75 30.75,27.75 L36.75,27.75 C37.1642136,27.75 37.5,28.0857864 37.5,28.5 L37.5,34.5 C37.5,35.1681786 36.6921436,35.5028037 36.2196699,35.0303301 L34.6535932,33.4642534 C31.976323,36.4778654 28.1335064,38.25 24,38.25 Z M24,36.75 C27.9560357,36.75 31.6119177,34.9376084 34.0159952,31.8902867 C34.2941241,31.5377405 34.8176221,31.5069619 35.1351473,31.8244871 L36,32.6893398 L36,29.25 L32.5606602,29.25 L32.9947247,29.6840646 C33.2567524,29.9460922 33.2881393,30.3602085 33.0685976,30.6587355 C30.961961,33.5232839 27.6243298,35.25 24,35.25 C18.038818,35.25 13.160543,30.6135239 12.7746034,24.75 L11.2716927,24.75 C11.659906,31.4425346 17.2101405,36.75 24,36.75 Z" id="Shape" fill="#154E84" fill-rule="nonzero"></path>
                </g>
            </g>
        </g>
    </g>
</svg>