<?xml version="1.0" encoding="UTF-8"?>
<svg width="60px" height="60px" viewBox="0 0 60 60" version="1.1" xmlns="http://www.w3.org/2000/svg" xmlns:xlink="http://www.w3.org/1999/xlink">
    <!-- Generator: sketchtool 64 (101010) - https://sketch.com -->
    <title></title>
    <desc>Created with sketchtool.</desc>
    <g id="Web" stroke="none" stroke-width="1" fill="none" fill-rule="evenodd">
        <g id="1.1--Homepage-list-menu" transform="translate(-1292.000000, -334.000000)">
            <g id="iconspace_Timer" transform="translate(1292.000000, 334.000000)">
                <circle id="Shape" fill="#E6F0FC" cx="30" cy="30" r="30"></circle>
                <path d="M30,49.6875 C38.8020382,49.6875 45.9375,42.5520382 45.9375,33.75 C45.9375,24.9479618 38.8020382,17.8125 30,17.8125 C21.1979618,17.8125 14.0625,24.9479618 14.0625,33.75 C14.0625,42.5520382 21.1979618,49.6875 30,49.6875 Z" id="Shape" fill="#154E84" fill-rule="nonzero"></path>
                <path d="M30,47.8125 C22.2334957,47.8125 15.9375,41.5165043 15.9375,33.75 C15.9375,25.9834957 22.2334957,19.6875 30,19.6875 C37.7665043,19.6875 44.0625,25.9834957 44.0625,33.75 C44.0625,41.5165043 37.7665043,47.8125 30,47.8125 Z" id="Shape" fill="#52ABE2" fill-rule="nonzero"></path>
                <path d="M27.1875,11.25 C27.1875,10.732233 27.607233,10.3125 28.125,10.3125 L31.875,10.3125 C32.392767,10.3125 32.8125,10.732233 32.8125,11.25 L32.8125,18.75 C32.8125,19.267767 32.392767,19.6875 31.875,19.6875 L28.125,19.6875 C27.607233,19.6875 27.1875,19.267767 27.1875,18.75 L27.1875,11.25 Z" id="Shape" fill="#154E84" fill-rule="nonzero"></path>
                <polygon id="Shape" fill="#FFFFFF" fill-rule="nonzero" points="29.0625 12.1875 29.0625 17.8125 30.9375 17.8125 30.9375 12.1875"></polygon>
                <path d="M32.8092384,10.3125 L27.1875,10.3125 C26.1519661,10.3125 25.3125,11.1519661 25.3125,12.1875 L25.3125,14.0625 C25.3125,15.0980339 26.1519661,15.9375 27.1875,15.9375 L32.8123642,15.938315 C33.8480339,15.938315 34.6875,15.0988489 34.6875,14.063315 L34.6842367,12.1858696 C34.6833538,11.1704047 33.87408,10.343569 32.8649379,10.3141273 C32.8465094,10.3130475 32.8279378,10.3125 32.8092384,10.3125 Z" id="Shape" fill="#154E84" fill-rule="nonzero"></path>
                <path d="M32.8092384,12.1883157 L32.8125011,14.0641304 L27.1876358,14.0625 L27.1875,12.1875 L32.7697706,12.1875 C32.782859,12.188042 32.7960168,12.1883157 32.8092384,12.1883157 Z" id="Shape" fill="#FFC200" fill-rule="nonzero"></path>
                <circle id="Shape" fill="#FFFFFF" cx="30" cy="33.75" r="12.1875"></circle>
                <path d="M30.9375,26.339035 C30.9375,25.8212681 30.517767,25.401535 30,25.401535 C29.482233,25.401535 29.0625,25.8212681 29.0625,26.339035 L29.0625,33.8356971 C29.0625,34.3532468 29.4818941,34.7728898 29.9994437,34.773197 L35.6244437,34.776535 C36.1422105,34.7768421 36.5621926,34.3573582 36.5625,33.8395914 C36.5628071,33.3218245 36.1433232,32.9018424 35.6255563,32.901535 L30.9375,32.8987533 L30.9375,26.339035 Z" id="Shape" fill="#154E84" fill-rule="nonzero"></path>
            </g>
        </g>
    </g>
</svg>