<?xml version="1.0" encoding="UTF-8"?>
<svg width="17px" height="16px" viewBox="0 0 17 16" version="1.1" xmlns="http://www.w3.org/2000/svg" xmlns:xlink="http://www.w3.org/1999/xlink">
    <title></title>
    <defs>
        <path d="M8.9283,0 C11.4870307,0 13.6868219,1.32366304 15.5478963,3.59632128 C16.1544546,4.33680896 16.5471226,5.18476698 16.74746,6.1098332 C17.0444114,7.48101798 16.9097995,8.90788127 16.5119867,10.2831492 C16.3641404,10.7942645 16.2136434,11.1851479 16.10211,11.4268155 C14.7989884,14.1958025 12.0259116,16 8.9283,16 C6.0482972,16 3.43927833,14.4412752 2.03573867,11.969825 C1.76300667,11.4895795 1.93122958,10.8791707 2.41147504,10.6064387 C2.89172051,10.3337067 3.50212934,10.5019296 3.77486133,10.982175 C4.82723933,12.8352754 6.77677427,14 8.9283,14 C11.2422075,14 13.3155596,12.6510519 14.2892875,10.582057 C14.3579907,10.4331504 14.4730448,10.1343223 14.5907496,9.72740816 C14.9043136,8.64339438 15.0091412,7.53224043 14.7927729,6.53315112 C14.6573249,5.907715 14.3990554,5.34998729 14.0006142,4.86356948 C12.4853724,3.01322607 10.8014954,2 8.9283,2 C6.6142635,2 4.53951206,3.35106779 3.56275894,5.42743388 C3.47456226,5.61558678 3.39631019,5.80695491 3.32863969,6.00033475 L4.954,6.0003 C5.50628475,6.0003 5.954,6.44801525 5.954,7.0003 C5.954,7.55258475 5.50628475,8.0003 4.954,8.0003 L1.099,8.0003 C0.488772061,8.0003 0,7.50469197 0,6.9003 L0,3.0003 C0,2.44801525 0.44771525,2.0003 1,2.0003 C1.55228475,2.0003 2,2.44801525 2,3.0003 L2.00040001,4.09327829 C3.38701132,1.5981165 6.01447858,0 8.9283,0 Z" id="path-refresh-4"></path>
    </defs>
    <g id="Page-1" stroke="none" stroke-width="1" fill="none" fill-rule="evenodd">
        <g id="L19.--Import-Flle" transform="translate(-1337.000000, -628.000000)">
            <g id="standard/action/cross-copy-5" transform="translate(1337.000000, 628.000000)">
                <mask id="mask-refresh-4" fill="white">
                    <use xlink:href="#path-refresh-4"></use>
                </mask>
                <use id="Combined-Shape" fill="#42526E" fill-rule="nonzero" xlink:href="#path-refresh-4"></use>
                <g id="↳-🎨Color" mask="url(#mask-refresh-4)" fill="#42526E">
                    <g transform="translate(-4.000000, -4.000000)" id="N500">
                        <polygon points="0 24 24 24 24 0 0 0"></polygon>
                    </g>
                </g>
            </g>
        </g>
    </g>
</svg>