<?xml version="1.0" encoding="UTF-8"?>
<svg width="18px" height="18px" viewBox="0 0 18 18" version="1.1" xmlns="http://www.w3.org/2000/svg" xmlns:xlink="http://www.w3.org/1999/xlink">
    <title>E7F5BFC2-F9C2-4E1F-A02E-2E3555C6BEBB</title>
    <defs>
        <path d="M9,0 C13.9705627,0 18,4.02943725 18,9 C18,13.9705627 13.9705627,18 9,18 C4.02943725,18 0,13.9705627 0,9 C0,4.02943725 4.02943725,0 9,0 Z M13.1553041,4.84471837 C12.6957097,4.38509388 11.9528357,4.38509388 11.4932413,4.84471837 L11.4932413,4.84471837 L9.00014693,7.33797551 L6.50587717,4.84471837 C6.04745813,4.38509388 5.30340876,4.38509388 4.84381428,4.84471837 C4.38539524,5.30316735 4.38539524,6.04726531 4.84381428,6.5068898 L4.84381428,6.5068898 L7.33690861,9.00014694 L4.84381428,11.4934041 C4.38539524,11.9530286 4.38539524,12.695951 4.84381428,13.1555755 C5.07419924,13.3848 5.37393476,13.5 5.67484572,13.5 C5.97575669,13.5 6.27666765,13.3848 6.50587717,13.1555755 L6.50587717,13.1555755 L9.00014693,10.6623184 L11.4932413,13.1555755 C11.7224508,13.3848 12.0233617,13.5 12.3242727,13.5 C12.6251837,13.5 12.9260946,13.3848 13.1553041,13.1555755 C13.6148986,12.695951 13.6148986,11.9530286 13.1553041,11.4934041 L13.1553041,11.4934041 L10.6622098,9.00014694 L13.1553041,6.5068898 C13.6148986,6.04726531 13.6148986,5.30316735 13.1553041,4.84471837 Z" id="path-1"></path>
    </defs>
    <g id="Page-1" stroke="none" stroke-width="1" fill="none" fill-rule="evenodd">
        <g id="L13.4-Data-capture---processing" transform="translate(-1391.000000, -976.000000)">
            <g id="Group-41" transform="translate(1142.000000, 973.000000)">
                <g id="standard/action/check-circle-copy-3" transform="translate(249.000000, 3.000000)">
                    <mask id="mask-2" fill="white">
                        <use xlink:href="#path-1"></use>
                    </mask>
                    <use id="Mask" fill="#A5ADBA" xlink:href="#path-1"></use>
                    <g id="↳-🎨Color" mask="url(#mask-2)" fill="#42526E">
                        <g transform="translate(-3.000000, -3.000000)" id="N500">
                            <polygon points="0 24 24 24 24 0 0 0"></polygon>
                        </g>
                    </g>
                </g>
            </g>
        </g>
    </g>
</svg>