<?xml version="1.0" encoding="UTF-8"?>
<svg width="20px" height="16px" viewBox="0 0 20 16" version="1.1" xmlns="http://www.w3.org/2000/svg" xmlns:xlink="http://www.w3.org/1999/xlink">
    <title></title>
    <defs>
        <path d="M10.0006003,14 C5.46365131,14 2.00140085,9.74 2.00140085,8 C2.00140085,5.999 5.45964871,2 10.0006003,2 C14.3774453,2 17.9987992,5.973 17.9987992,8 C17.9987992,9.74 14.5365487,14 10.0006003,14 M10.0006003,0 C4.48001194,0 0.0001,4.841 0.0001,8 C0.0001,11.086 4.57707503,16 10.0006003,16 C15.4241256,16 20.0001,11.086 20.0001,8 C20.0001,4.841 15.5211887,0 10.0006003,0 M9.9775,9.9844 C8.8745,9.9844 7.9775,9.0874 7.9775,7.9844 C7.9775,6.8814 8.8745,5.9844 9.9775,5.9844 C11.0805,5.9844 11.9775,6.8814 11.9775,7.9844 C11.9775,9.0874 11.0805,9.9844 9.9775,9.9844 M9.9775,3.9844 C7.7715,3.9844 5.9775,5.7784 5.9775,7.9844 C5.9775,10.1904 7.7715,11.9844 9.9775,11.9844 C12.1835,11.9844 13.9775,10.1904 13.9775,7.9844 C13.9775,5.7784 12.1835,3.9844 9.9775,3.9844" id="path-1"></path>
    </defs>
    <g id="Page-1" stroke="none" stroke-width="1" fill="none" fill-rule="evenodd">
        <g id="L19.--Import-Flle" transform="translate(-1295.000000, -628.000000)">
            <g id="standard/toggle/watch-copy-5" transform="translate(1295.000000, 628.000000)">
                <mask id="mask-watch-copy-5" fill="white">
                    <use xlink:href="#path-1"></use>
                </mask>
                <use id="Fill-1" fill="#42526E" xlink:href="#path-watch-copy-5"></use>
                <g id="↳-🎨Color" mask="url(#mask-watch-copy-5)" fill="#42526E">
                    <g transform="translate(-2.000000, -4.000000)" id="N500">
                        <polygon points="0 24 24 24 24 0 0 0"></polygon>
                    </g>
                </g>
            </g>
        </g>
    </g>
</svg>