<?xml version="1.0" encoding="UTF-8"?>
<svg width="16px" height="14px" viewBox="0 0 16 14" version="1.1" xmlns="http://www.w3.org/2000/svg" xmlns:xlink="http://www.w3.org/1999/xlink">
    <title></title>
    <g id="Page-2" stroke="none" stroke-width="1" fill="none" fill-rule="evenodd">
        <g id="P2/16.-History" transform="translate(-1181.000000, -96.000000)" fill-rule="nonzero">
            <g id="eraser" transform="translate(1181.000000, 96.000000)">
                <path d="M15.0472188,5.42565625 L10.2048438,0.58328125 C9.85190625,0.23034375 9.27965625,0.23034375 8.92671875,0.58328125 L4.7525625,4.75740625 L0.57840625,8.9315625 C0.22546875,9.2845 0.22546875,9.85675 0.57840625,10.209375 L4.0495,13.6807813 L8.07021875,13.6807813 L10.8730625,10.8779375 L15.0472187,6.70378125 C15.4001562,6.35084375 15.4001562,5.77859375 15.0472188,5.42565625 Z" id="Path" fill="#52ABE2"></path>
                <path d="M10.8730625,10.8779375 L8.07021875,13.6807813 L4.0495,13.6807813 L0.57840625,10.209375 C0.22546875,9.85675 0.22546875,9.2845 0.57840625,8.9315625 L4.7525625,4.75740625 L10.8730625,10.8779375 Z" id="Path" fill="#FFC200"></path>
                <path d="M15.6862813,13.3670313 L8.82765625,13.3670313 L11.094875,11.0998125 C11.0949063,11.0997813 11.0949063,11.0997813 11.0949375,11.09975 C11.0949688,11.0997188 11.0949688,11.0997188 11.095,11.0996875 L15.2690937,6.925625 C15.7437813,6.4509375 15.7437813,5.67853125 15.2690937,5.2038125 L10.4266875,0.3614375 C9.952,-0.11325 9.1795625,-0.11325 8.70484375,0.3614375 L4.53078125,4.53553125 C4.53075,4.5355625 4.53071875,4.5355625 4.53071875,4.53559375 C4.53071875,4.535625 4.5306875,4.53565625 4.53065625,4.5356875 L0.35659375,8.70971875 C0.12665625,8.9396875 0,9.24540625 0,9.57059375 C0,9.89584375 0.1266875,10.2015 0.35659375,10.4312188 L3.8276875,13.902625 C3.82775,13.9026875 3.8278125,13.9027188 3.827875,13.9027813 C3.835125,13.9100313 3.84275,13.9169063 3.8506875,13.9234063 C3.854375,13.9264375 3.85828125,13.9290938 3.86203125,13.9319063 C3.8664375,13.9351875 3.87071875,13.938625 3.8753125,13.9416563 C3.879875,13.9446875 3.88459375,13.947375 3.88928125,13.9501563 C3.893375,13.9525938 3.897375,13.9551875 3.90159375,13.9574375 C3.9064375,13.9600313 3.91140625,13.96225 3.91634375,13.9645625 C3.9206875,13.9665938 3.9249375,13.9687813 3.929375,13.970625 C3.93428125,13.9726563 3.93928125,13.9742813 3.94425,13.9760938 C3.9489375,13.97775 3.9535,13.9795313 3.9583125,13.9810313 C3.9635,13.9825938 3.96871875,13.98375 3.97396875,13.9850625 C3.97865625,13.9862188 3.98328125,13.9875313 3.9880625,13.9885 C3.99440625,13.98975 4.00078125,13.9905313 4.00715625,13.9914063 C4.01090625,13.9919063 4.01459375,13.9926563 4.018375,13.9930313 C4.02890625,13.9940625 4.03946875,13.994595 4.05003125,13.994595 L15.68625,13.994595 C15.8595,13.994595 15.9999688,13.854125 15.9999688,13.680875 C15.9999688,13.507625 15.8595313,13.3670313 15.6862813,13.3670313 Z M9.14853125,0.80515625 C9.3785625,0.5750625 9.75296875,0.5750625 9.98296875,0.80515625 L14.8253438,5.64753125 C15.0554063,5.87759375 15.0554063,6.2519375 14.8253438,6.48196875 L10.8730625,10.43425 L5.19628125,4.75740625 L9.14853125,0.80515625 Z M0.62746875,9.57059375 C0.62746875,9.413 0.68884375,9.264875 0.8003125,9.1534375 L4.752625,5.201125 L10.4294375,10.8779688 L7.9403125,13.3670938 L4.1794375,13.3670938 L0.8001875,9.9874375 C0.68878125,9.87615625 0.62746875,9.728125 0.62746875,9.57059375 Z" id="Shape" fill="#154E84"></path>
                <path d="M12.6885938,5.59415625 C12.749875,5.6554375 12.8301563,5.68603125 12.9104375,5.68603125 C12.9907188,5.68603125 13.071,5.655375 13.1322813,5.59415625 C13.2547813,5.47165625 13.2547813,5.273 13.1322813,5.1504375 L11.1765313,3.1946875 C11.0540312,3.0721875 10.855375,3.0721875 10.7328125,3.1946875 C10.6103125,3.3171875 10.6103125,3.51584375 10.7328125,3.638375 L12.6885938,5.59415625 Z" id="Path" fill="#154E84"></path>
                <path d="M10.2175,3.0035625 C10.62125,3.0035625 10.6219062,2.37609375 10.2175,2.37609375 C9.81378125,2.37609375 9.81309375,3.0035625 10.2175,3.0035625 Z" id="Path" fill="#154E84"></path>
            </g>
        </g>
    </g>
</svg>