<?xml version="1.0" encoding="UTF-8"?>
<svg width="28px" height="28px" viewBox="0 0 28 28" version="1.1" xmlns="http://www.w3.org/2000/svg" xmlns:xlink="http://www.w3.org/1999/xlink">
    <title></title>
    <g id="Web" stroke="none" stroke-width="1" fill="none" fill-rule="evenodd">
        <g id="1.--Homepage-list" transform="translate(-48.000000, -535.000000)">
            <g id="Group-45" transform="translate(12.000000, 440.000000)">
                <g id="iconspace_Paper" transform="translate(36.000000, 95.000000)">
                    <circle id="Shape" cx="14" cy="14" r="14"></circle>
                    <path d="M6.5625,5.25 L17.295086,5.25 C17.4249271,5.25 17.5480605,5.30767257 17.6311828,5.40741933 L21.7735968,10.3783162 C21.8391179,10.4569415 21.875,10.5560496 21.875,10.6583968 L21.875,21.4375 C21.875,22.1623737 21.2873737,22.75 20.5625,22.75 L7.4375,22.75 C6.71262627,22.75 6.125,22.1623737 6.125,21.4375 L6.125,5.6875 C6.125,5.44587542 6.32087542,5.25 6.5625,5.25 Z" id="Shape" fill="#52ABE2"></path>
                    <path d="M6.5625,4.8125 L17.295086,4.8125 C17.5547683,4.8125 17.801035,4.92784513 17.9672796,5.12733865 L22.1096936,10.0982355 C22.2407358,10.2554861 22.3125,10.4537024 22.3125,10.6583968 L22.3125,21.4375 C22.3125,22.4039983 21.5289983,23.1875 20.5625,23.1875 L7.4375,23.1875 C6.47100169,23.1875 5.6875,22.4039983 5.6875,21.4375 L5.6875,5.6875 C5.6875,5.20425084 6.07925084,4.8125 6.5625,4.8125 Z M6.5625,5.6875 L6.5625,21.4375 C6.5625,21.9207492 6.95425084,22.3125 7.4375,22.3125 L20.5625,22.3125 C21.0457492,22.3125 21.4375,21.9207492 21.4375,21.4375 L21.4375,10.6583968 L17.295086,5.6875 L6.5625,5.6875 Z" id="Shape" fill="#154E84" fill-rule="nonzero"></path>
                    <path d="M6.5625,5.25 L17.0625,5.25 C17.3041246,5.25 17.5,5.44587542 17.5,5.6875 L17.5,10.0625 C17.5,10.3041246 17.6958754,10.5 17.9375,10.5 L21.4375,10.5 C21.6791246,10.5 21.875,10.6958754 21.875,10.9375 L21.875,21.4375 C21.875,22.1623737 21.2873737,22.75 20.5625,22.75 L7.4375,22.75 C6.71262627,22.75 6.125,22.1623737 6.125,21.4375 L6.125,5.6875 C6.125,5.44587542 6.32087542,5.25 6.5625,5.25 Z" id="Shape" fill="#FFFFFF"></path>
                    <path d="M6.5625,4.8125 L17.0625,4.8125 C17.5457492,4.8125 17.9375,5.20425084 17.9375,5.6875 L17.9375,10.0625 L21.4375,10.0625 C21.9207492,10.0625 22.3125,10.4542508 22.3125,10.9375 L22.3125,21.4375 C22.3125,22.4039983 21.5289983,23.1875 20.5625,23.1875 L7.4375,23.1875 C6.47100169,23.1875 5.6875,22.4039983 5.6875,21.4375 L5.6875,5.6875 C5.6875,5.20425084 6.07925084,4.8125 6.5625,4.8125 Z M6.5625,5.6875 L6.5625,21.4375 C6.5625,21.9207492 6.95425084,22.3125 7.4375,22.3125 L20.5625,22.3125 C21.0457492,22.3125 21.4375,21.9207492 21.4375,21.4375 L21.4375,10.9375 L17.9375,10.9375 C17.4542508,10.9375 17.0625,10.5457492 17.0625,10.0625 L17.0625,5.6875 L6.5625,5.6875 Z" id="Shape" fill="#154E84" fill-rule="nonzero"></path>
                    <path d="M10.5,16.4791667 L17.5,16.4791667 C17.7416246,16.4791667 17.9375,16.2179994 17.9375,15.8958333 C17.9375,15.5736672 17.7416246,15.3125 17.5,15.3125 L10.5,15.3125 C10.2583754,15.3125 10.0625,15.5736672 10.0625,15.8958333 C10.0625,16.2179994 10.2583754,16.4791667 10.5,16.4791667 Z" id="Shape" fill="#52ABE2" fill-rule="nonzero"></path>
                    <path d="M10.5,19.1041667 L15.75,19.1041667 C15.9916246,19.1041667 16.1875,18.8429994 16.1875,18.5208333 C16.1875,18.1986672 15.9916246,17.9375 15.75,17.9375 L10.5,17.9375 C10.2583754,17.9375 10.0625,18.1986672 10.0625,18.5208333 C10.0625,18.8429994 10.2583754,19.1041667 10.5,19.1041667 Z" id="Shape" fill="#52ABE2" fill-rule="nonzero"></path>
                    <path d="M10.5,13.8541667 L13.125,13.8541667 C13.3666246,13.8541667 13.5625,13.5929994 13.5625,13.2708333 C13.5625,12.9486672 13.3666246,12.6875 13.125,12.6875 L10.5,12.6875 C10.2583754,12.6875 10.0625,12.9486672 10.0625,13.2708333 C10.0625,13.5929994 10.2583754,13.8541667 10.5,13.8541667 Z" id="Shape" fill="#FFC200" fill-rule="nonzero"></path>
                </g>
            </g>
        </g>
    </g>
</svg>