<?xml version="1.0" encoding="UTF-8"?>
<svg width="18px" height="19px" viewBox="0 0 18 19" version="1.1" xmlns="http://www.w3.org/2000/svg" xmlns:xlink="http://www.w3.org/1999/xlink">
    <title></title>
    <defs>
        <path d="M9,0.666666667 C13.6023729,0.666666667 17.3333333,4.39762708 17.3333333,9 C17.3333333,13.6023729 13.6023729,17.3333333 9,17.3333333 C4.39762709,17.3333333 0.666666667,13.6023729 0.666666667,9 C0.666666667,4.39762708 4.39762709,0.666666667 9,0.666666667 Z M9,11.5 L8.8955151,11.5064967 C8.48477318,11.5579487 8.16666667,11.9087179 8.16666667,12.3333333 L8.16666667,12.3333333 L8.1731634,12.4378182 C8.22461538,12.8485602 8.57538462,13.1666667 9,13.1666667 L9,13.1666667 L9.1044849,13.1601699 C9.51522682,13.1087179 9.83333333,12.7579487 9.83333333,12.3333333 L9.83333333,12.3333333 L9.8268366,12.2288484 C9.77538462,11.8181065 9.42461538,11.5 9,11.5 L9,11.5 Z M9,4.83333333 L8.8955151,4.83983007 C8.48477318,4.89128205 8.16666667,5.24205128 8.16666667,5.66666667 L8.16666667,5.66666667 L8.16666667,9.83333333 C8.16666667,10.2933333 8.54,10.6666667 9,10.6666667 L9,10.6666667 L9.1044849,10.6601699 C9.51522682,10.6087179 9.83333333,10.2579487 9.83333333,9.83333333 L9.83333333,9.83333333 L9.83333333,5.66666667 C9.83333333,5.20666667 9.46,4.83333333 9,4.83333333 L9,4.83333333 Z" id="path-failed-build-2"></path>
    </defs>
    <g id="Page-1" stroke="none" stroke-width="1" fill="none" fill-rule="evenodd">
        <g id="L19.--Import-Flle" transform="translate(-872.000000, -626.000000)">
            <g id="jira/failed-build" transform="translate(872.000000, 626.655327)">
                <mask id="mask-failed-build-2" fill="white">
                    <use xlink:href="#path-failed-build-2"></use>
                </mask>
                <use id="Combined-Shape" fill="#42526E" xlink:href="#path-failed-build-2"></use>
                <g id="↳-🎨Color" mask="url(#mask-failed-build-2)" fill="#DE350B">
                    <g transform="translate(-1.000000, -1.000000)" id="R400">
                        <rect x="0" y="0" width="20" height="20"></rect>
                    </g>
                </g>
            </g>
        </g>
    </g>
</svg>