<?xml version="1.0" encoding="UTF-8"?>
<svg width="28px" height="28px" viewBox="0 0 28 28" version="1.1" xmlns="http://www.w3.org/2000/svg" xmlns:xlink="http://www.w3.org/1999/xlink">
    <title></title>
    <g id="Page-1" stroke="none" stroke-width="1" fill="none" fill-rule="evenodd">
        <g id="L21.--Failed" transform="translate(-12.000000, -865.000000)">
            <g id="Group-53" transform="translate(0.000000, 68.000000)">
                <g id="Group-24" transform="translate(0.000000, 791.000000)">
                    <g id="iconspace_User-Man-Add" transform="translate(12.000000, 6.000000)">
                        <circle id="Shape" cx="14" cy="14" r="14"></circle>
                        <path d="M21,7.4375 L21,6.5625 L22.3125,6.5625 C22.8958333,6.5625 22.8958333,7.4375 22.3125,7.4375 L21,7.4375 Z M21,7.4375 L20.125,7.4375 L21,7.4375 Z M22.3125,7.4375 L18.8125,7.4375 L18.8125,6.5625 L20.125,6.5625 L20.125,5.25 C20.125,4.66666667 21,4.66666667 21,5.25 L21,6.5625 L22.3125,6.5625 L22.3125,7.4375 Z M21,6.5625 L20.125,6.5625 L20.125,7.4375 L18.8125,7.4375 C18.2291667,7.4375 18.2291667,6.5625 18.8125,6.5625 L21,6.5625 Z M20.125,7.4375 L21,7.4375 L21,8.75 C21,9.33333333 20.125,9.33333333 20.125,8.75 L20.125,7.4375 Z M21,6.5625 L20.125,6.5625 L21,6.5625 Z" id="Shape" fill="#52ABE2" fill-rule="nonzero"></path>
                        <path d="M14.363494,15.4489655 C14.6419343,15.5655036 14.8792848,15.6658484 15.0755456,15.75 C17.2856488,16.6976357 18.8125,18.7224207 18.8125,21.067255 L18.8125,22.75 L5.6875,22.75 L5.6875,21.067255 C5.6875,18.7277656 7.20739848,16.706868 9.40935174,15.756497 L10.0625,15.4489655" id="Shape" fill="#FFC200"></path>
                        <path d="M12.25,15.75 C8.57529907,15.75 7.4375,12.0869949 7.4375,9.1875 C7.4375,6.28800506 9.59212964,5.25 12.25,5.25 C14.9078704,5.25 17.0625,6.28800506 17.0625,9.1875 C17.0625,12.0869949 15.9247009,15.75 12.25,15.75 Z" id="Shape" fill="#FFFFFF"></path>
                        <path d="M7.4375,9.6147946 L7.4375,9.1875 C7.4375,7.0128788 9.2003788,5.25 11.375,5.25 L13.125,5.25 C15.2996212,5.25 17.0625,7.0128788 17.0625,9.1875 L17.0625,9.625 L12.4806002,9.625 C11.1627506,9.625 9.9583081,8.94727689 9.37051844,7.875 C9.37051844,8.83586202 8.51369261,9.6147946 7.4375,9.6147946 Z" id="Shape" fill="#52ABE2"></path>
                        <path d="M6.125,22.3125 L6.125,21.067255 C6.125,18.961966 7.48103426,17.0652758 9.58271986,16.1581806 L10.2488694,15.8447845 C10.4674742,15.7418556 10.561248,15.4812009 10.458319,15.2625961 C10.3553901,15.0439913 10.0947355,14.9502175 9.87613064,15.0531464 L9.22298238,15.3606779 C6.82520088,16.395316 5.25,18.5985553 5.25,21.067255 L5.25,22.75 C5.25,22.9916246 5.44587542,23.1875 5.6875,23.1875 L18.8125,23.1875 C19.0541246,23.1875 19.25,22.9916246 19.25,22.75 L19.25,21.067255 C19.25,18.5927541 17.667381,16.3852919 15.2479543,15.3479036 C15.0504161,15.2632043 14.8119352,15.1623816 14.5324069,15.0453881 C14.3095172,14.9521001 14.0532046,15.057163 13.9599166,15.2800527 C13.8666287,15.5029423 13.9716916,15.7592549 14.1945812,15.8525429 C14.4719334,15.9686255 14.7081535,16.0684925 14.903137,16.1520964 C17.0124951,17.0565352 18.375,18.9569787 18.375,21.067255 L18.375,22.3125 L6.125,22.3125 Z" id="Shape" fill="#154E84" fill-rule="nonzero"></path>
                        <path d="M12.25,16.1875 C15.7328117,16.1875 17.5,13.1506118 17.5,9.1875 C17.5,6.25897056 15.4745276,4.8125 12.25,4.8125 C9.02547235,4.8125 7,6.25897056 7,9.1875 C7,13.1506118 8.76718831,16.1875 12.25,16.1875 Z M12.25,15.3125 C9.37714123,15.3125 7.875,12.7310915 7.875,9.1875 C7.875,6.81774143 9.45766115,5.6875 12.25,5.6875 C15.0423388,5.6875 16.625,6.81774143 16.625,9.1875 C16.625,12.7310915 15.1228588,15.3125 12.25,15.3125 Z" id="Shape" fill="#154E84" fill-rule="nonzero"></path>
                        <path d="M12.4806002,10.0625 L17.0625,10.0625 C17.3041246,10.0625 17.5,9.86662458 17.5,9.625 L17.5,9.1875 C17.5,6.77125422 15.5412458,4.8125 13.125,4.8125 L11.375,4.8125 C8.95875422,4.8125 7,6.77125422 7,9.1875 L7,9.6147946 C7,9.85641917 7.19587542,10.0522946 7.4375,10.0522946 C8.36214841,10.0522946 9.16621492,9.56986905 9.55662132,8.85641566 C10.2897166,9.61422843 11.3495916,10.0625 12.4806002,10.0625 Z M11.375,5.6875 L13.125,5.6875 C15.0579966,5.6875 16.625,7.25450338 16.625,9.1875 L12.4806002,9.1875 C11.3189555,9.1875 10.2632965,8.59349525 9.75415903,7.66469987 C9.53652157,7.26767415 8.93301844,7.42223573 8.93301844,7.875 C8.93301844,8.45682435 8.49519677,8.95806196 7.87561284,9.12133715 C7.91088346,7.21887264 9.46410611,5.6875 11.375,5.6875 Z" id="Shape" fill="#154E84" fill-rule="nonzero"></path>
                    </g>
                </g>
            </g>
        </g>
    </g>
</svg>