<?xml version="1.0" encoding="UTF-8"?>
<svg width="28px" height="28px" viewBox="0 0 28 28" version="1.1" xmlns="http://www.w3.org/2000/svg" xmlns:xlink="http://www.w3.org/1999/xlink">
    <title></title>
    <g id="Web" stroke="none" stroke-width="1" fill="none" fill-rule="evenodd">
        <g id="3.--Homepage-grid" transform="translate(-746.000000, -192.000000)">
            <g id="iconspace_Grid" transform="translate(746.000000, 192.000000)">
                <circle id="Shape" cx="14" cy="14" r="14"></circle>
                <path d="M6.125,4.8125 L11.375,4.8125 C11.8582492,4.8125 12.25,5.20425084 12.25,5.6875 L12.25,10.9375 C12.25,11.4207492 11.8582492,11.8125 11.375,11.8125 L6.125,11.8125 C5.64175084,11.8125 5.25,11.4207492 5.25,10.9375 L5.25,5.6875 C5.25,5.20425084 5.64175084,4.8125 6.125,4.8125 Z" id="Shape" fill="#FFC200"></path>
                <path d="M16.625,4.8125 L21.875,4.8125 C22.3582492,4.8125 22.75,5.20425084 22.75,5.6875 L22.75,10.9375 C22.75,11.4207492 22.3582492,11.8125 21.875,11.8125 L16.625,11.8125 C16.1417508,11.8125 15.75,11.4207492 15.75,10.9375 L15.75,5.6875 C15.75,5.20425084 16.1417508,4.8125 16.625,4.8125 Z" id="Shape" fill="#FFFFFF"></path>
                <path d="M6.125,15.3125 L11.375,15.3125 C11.8582492,15.3125 12.25,15.7042508 12.25,16.1875 L12.25,21.4375 C12.25,21.9207492 11.8582492,22.3125 11.375,22.3125 L6.125,22.3125 C5.64175084,22.3125 5.25,21.9207492 5.25,21.4375 L5.25,16.1875 C5.25,15.7042508 5.64175084,15.3125 6.125,15.3125 Z" id="Shape" fill="#FFFFFF"></path>
                <path d="M16.625,15.3125 L21.875,15.3125 C22.3582492,15.3125 22.75,15.7042508 22.75,16.1875 L22.75,21.4375 C22.75,21.9207492 22.3582492,22.3125 21.875,22.3125 L16.625,22.3125 C16.1417508,22.3125 15.75,21.9207492 15.75,21.4375 L15.75,16.1875 C15.75,15.7042508 16.1417508,15.3125 16.625,15.3125 Z" id="Shape" fill="#52ABE2"></path>
                <path d="M6.125,4.375 L11.375,4.375 C12.0998737,4.375 12.6875,4.96262627 12.6875,5.6875 L12.6875,10.9375 C12.6875,11.6623737 12.0998737,12.25 11.375,12.25 L6.125,12.25 C5.40012627,12.25 4.8125,11.6623737 4.8125,10.9375 L4.8125,5.6875 C4.8125,4.96262627 5.40012627,4.375 6.125,4.375 Z M6.125,5.25 C5.88337542,5.25 5.6875,5.44587542 5.6875,5.6875 L5.6875,10.9375 C5.6875,11.1791246 5.88337542,11.375 6.125,11.375 L11.375,11.375 C11.6166246,11.375 11.8125,11.1791246 11.8125,10.9375 L11.8125,5.6875 C11.8125,5.44587542 11.6166246,5.25 11.375,5.25 L6.125,5.25 Z" id="Shape" fill="#154E84" fill-rule="nonzero"></path>
                <path d="M16.625,4.375 L21.875,4.375 C22.5998737,4.375 23.1875,4.96262627 23.1875,5.6875 L23.1875,10.9375 C23.1875,11.6623737 22.5998737,12.25 21.875,12.25 L16.625,12.25 C15.9001263,12.25 15.3125,11.6623737 15.3125,10.9375 L15.3125,5.6875 C15.3125,4.96262627 15.9001263,4.375 16.625,4.375 Z M16.625,5.25 C16.3833754,5.25 16.1875,5.44587542 16.1875,5.6875 L16.1875,10.9375 C16.1875,11.1791246 16.3833754,11.375 16.625,11.375 L21.875,11.375 C22.1166246,11.375 22.3125,11.1791246 22.3125,10.9375 L22.3125,5.6875 C22.3125,5.44587542 22.1166246,5.25 21.875,5.25 L16.625,5.25 Z" id="Shape" fill="#154E84" fill-rule="nonzero"></path>
                <path d="M6.125,14.875 L11.375,14.875 C12.0998737,14.875 12.6875,15.4626263 12.6875,16.1875 L12.6875,21.4375 C12.6875,22.1623737 12.0998737,22.75 11.375,22.75 L6.125,22.75 C5.40012627,22.75 4.8125,22.1623737 4.8125,21.4375 L4.8125,16.1875 C4.8125,15.4626263 5.40012627,14.875 6.125,14.875 Z M6.125,15.75 C5.88337542,15.75 5.6875,15.9458754 5.6875,16.1875 L5.6875,21.4375 C5.6875,21.6791246 5.88337542,21.875 6.125,21.875 L11.375,21.875 C11.6166246,21.875 11.8125,21.6791246 11.8125,21.4375 L11.8125,16.1875 C11.8125,15.9458754 11.6166246,15.75 11.375,15.75 L6.125,15.75 Z" id="Shape" fill="#154E84" fill-rule="nonzero"></path>
                <path d="M16.625,14.875 L21.875,14.875 C22.5998737,14.875 23.1875,15.4626263 23.1875,16.1875 L23.1875,21.4375 C23.1875,22.1623737 22.5998737,22.75 21.875,22.75 L16.625,22.75 C15.9001263,22.75 15.3125,22.1623737 15.3125,21.4375 L15.3125,16.1875 C15.3125,15.4626263 15.9001263,14.875 16.625,14.875 Z M16.625,15.75 C16.3833754,15.75 16.1875,15.9458754 16.1875,16.1875 L16.1875,21.4375 C16.1875,21.6791246 16.3833754,21.875 16.625,21.875 L21.875,21.875 C22.1166246,21.875 22.3125,21.6791246 22.3125,21.4375 L22.3125,16.1875 C22.3125,15.9458754 22.1166246,15.75 21.875,15.75 L16.625,15.75 Z" id="Shape" fill="#154E84" fill-rule="nonzero"></path>
            </g>
        </g>
    </g>
</svg>