<?xml version="1.0" encoding="UTF-8"?>
<svg width="15px" height="18px" viewBox="0 0 15 18" version="1.1" xmlns="http://www.w3.org/2000/svg" xmlns:xlink="http://www.w3.org/1999/xlink">
    <title></title>
    <g id="Page-1" stroke="none" stroke-width="1" fill="none" fill-rule="evenodd">
        <g id="L19.--Import-Flle" transform="translate(-343.000000, -714.000000)" fill-rule="nonzero">
            <g id="Group-4" transform="translate(303.000000, 611.000000)">
                <g id="iconspace_File-Add" transform="translate(40.000000, 103.000000)">
                    <path d="M1.28652751,0 L9.46168696,0 C9.84347932,0 10.2055694,0.16948898 10.4500342,0.462622041 L14.2824648,5.05866122 C14.4751744,5.28969796 14.5806452,5.58102857 14.5806452,5.88176327 L14.5806452,16.7142857 C14.5806452,17.4243918 14.0046729,18 13.2941176,18 L1.28652751,18 C0.576001648,18 0,17.4243918 0,16.7142857 L0,1.28571429 C0,0.575637551 0.576001648,0 1.28652751,0 Z" id="Path" fill="#154E84"></path>
                    <path d="M1.26666667,0.838709677 C1.03031703,0.838709677 0.838709677,1.0310265 0.838709677,1.26825127 L0.838709677,16.7317487 C0.838709677,16.9689539 1.03031703,17.1612903 1.26666667,17.1612903 L13.2494624,17.1612903 C13.4857924,17.1612903 13.6774194,16.9689539 13.6774194,16.7317487 L13.6774194,5.87470444 C13.6774194,5.77416716 13.6423024,5.67686985 13.5782312,5.59969964 L9.75371404,0.993266107 C9.67232885,0.895330623 9.55191398,0.838709677 9.42494525,0.838709677 L1.26666667,0.838709677 Z" id="Path" fill="#FFC200"></path>
                    <path d="M9.00573008,0 C9.71618255,0 10.2922489,0.575647347 10.2922489,1.28572408 L10.2922489,4.71429551 C10.2922489,4.95099429 10.4841731,5.14285714 10.7210886,5.14285714 L13.2941263,5.14285714 C14.0045788,5.14285714 14.5806452,5.71846531 14.5806452,6.42857143 L14.5806452,16.7142857 C14.5806452,17.4243918 14.0045788,18 13.2941263,18 L1.28651887,18 C0.575997776,18 0,17.4243918 0,16.7142857 L0,1.28571429 C0,0.575637551 0.575997776,0 1.28651887,0 L9.00573008,0 Z" id="Path" fill="#154E84"></path>
                    <path d="M0.838709677,1.26825127 L0.838709677,16.7317487 C0.838709677,16.9689539 1.03031557,17.1612903 1.26666341,17.1612903 L13.2494656,17.1612903 C13.4857939,17.1612903 13.6774194,16.9689539 13.6774194,16.7317487 L13.6774194,6.42275042 C13.6774194,6.18554528 13.4857939,5.99320883 13.2494656,5.99320883 L10.6817433,5.99320883 C9.97266061,5.99320883 9.39788207,5.41629765 9.39788207,4.70459386 L9.39788207,1.26826109 C9.39788207,1.03103631 9.20625662,0.838709677 8.96992834,0.838709677 L1.26666341,0.838709677 C1.03031557,0.838709677 0.838709677,1.0310265 0.838709677,1.26825127 Z" id="Path" fill="#FFFFFF"></path>
                    <path d="M3.6246245,10.3092427 L7.61939047,10.3092427 L7.61939047,11.8591118 C7.61939047,11.9435856 7.67571154,12 7.760144,12 C7.80231108,12 7.83042247,11.985921 7.85853386,11.9577631 L10.1513813,9.6470384 C10.2076041,9.59062403 10.2076041,9.50615016 10.1513813,9.44973579 L7.85853386,7.13901113 C7.80231108,7.08269521 7.71787862,7.08269521 7.66165584,7.13901113 C7.63354446,7.16726754 7.61939047,7.1954255 7.61939047,7.23766243 L7.61939047,8.80161051 L3.6246245,8.80161051 C3.54019204,8.80161051 3.48387097,8.85802488 3.48387097,8.94249875 L3.48387097,10.1824334 C3.48387097,10.2528283 3.54019204,10.3092427 3.6246245,10.3092427 Z" id="Path" fill="#FFC200"></path>
                    <polygon id="Path" fill="#52ABE2" points="4.314 10.3225806 4.314 8.90322581 3.62148387 8.90322581 3.62148387 10.3225806"></polygon>
                    <polygon id="Path" fill="#FFC200" points="5.02367742 10.3225806 5.02367742 8.90322581 4.33116129 8.90322581 4.33116129 10.3225806"></polygon>
                    <path d="M7.46261657,8.71533279 L3.63522418,8.71533279 C3.48102735,8.71533279 3.35483871,8.84146233 3.35483871,8.99581666 L3.35483871,10.2299653 C3.35483871,10.3843196 3.48102735,10.5105472 3.63522418,10.5105472 L7.47662555,10.5105472 L7.47662555,11.9129665 C7.47662555,12.0673208 7.6028044,12.1935484 7.75700122,12.1935484 C7.82714412,12.1935484 7.91119804,12.1654216 7.95332297,12.109364 L10.2384532,9.80923948 C10.3506231,9.69702634 10.3506231,9.52875561 10.2384532,9.41654247 L7.95332297,7.11641793 C7.84115311,7.00420478 7.67284934,7.00420478 7.56077744,7.11641793 C7.50464353,7.1725735 7.47662555,7.24264547 7.47662555,7.31281544 L7.47662555,8.71533279 L7.46261657,8.71533279 Z M3.63522418,10.2159509 L3.63522418,8.98180227 L7.6028044,8.98180227 C7.68695629,8.98180227 7.74299224,8.92564669 7.74299224,8.84156033 L7.74299224,7.28468865 L10.0282205,9.61293998 L7.74299224,11.9129665 L7.74299224,10.3702072 C7.74299224,10.2861209 7.68695629,10.2299653 7.6028044,10.2299653 L3.63522418,10.2299653 L3.63522418,10.2159509 Z" id="Shape" fill="#154E84"></path>
                </g>
            </g>
        </g>
    </g>
</svg>