<?xml version="1.0" encoding="UTF-8"?>
<svg width="16px" height="20px" viewBox="0 0 16 20" version="1.1" xmlns="http://www.w3.org/2000/svg" xmlns:xlink="http://www.w3.org/1999/xlink">
    <!-- Generator: sketchtool 63.1 (101010) - https://sketch.com -->
    <title></title>
    <desc>Created with sketchtool.</desc>
    <g id="Web" stroke="none" stroke-width="1" fill="none" fill-rule="evenodd">
        <g id="1.5-Data-capture-" transform="translate(-652.000000, -144.000000)" fill-rule="nonzero">
            <g id="Frame" transform="translate(652.000000, 144.000000)">
                <path d="M8,8.5 C10.2091,8.5 12,6.7091 12,4.5 C12,2.29086 10.2091,0.5 8,0.5 C5.7909,0.5 4,2.29086 4,4.5 C4,6.7091 5.7909,8.5 8,8.5 Z" id="Path" fill="#FFFFFF"></path>
                <path d="M4.05,3.85 C4.35,1.95 6,0.5 8.0001,0.5 C8.7001,0.5 9.35,0.65 9.9,1 C9.95,1.15 10.0001,1.35 10.0001,1.5 C10.0001,2.9 8.0001,4 5.5,4 C5,4 4.5,3.95 4.05,3.85 Z" id="Path" fill="#52ABE2"></path>
                <path d="M8,9 C5.5,9 3.5,7 3.5,4.5 C3.5,2 5.5,0 8,0 C10.5,0 12.5,2 12.5,4.5 C12.5,7 10.5,9 8,9 Z M8,1 C6.05,1 4.5,2.55 4.5,4.5 C4.5,6.45 6.05,8 8,8 C9.95,8 11.5,6.45 11.5,4.5 C11.5,2.55 9.95,1 8,1 Z" id="Shape" fill="#154E84"></path>
                <path d="M8,10.5 C11.85,10.5 15,13.65 15,17.5 L15,19.5 L1,19.5 L1,17.5 C1,13.65 4.15,10.5 8,10.5 Z" id="Path" fill="#FFC200"></path>
                <path d="M15,20 L1,20 C0.7,20 0.5,19.8 0.5,19.5 L0.5,17.5 C0.5,13.35 3.85,10 8,10 C12.15,10 15.5,13.35 15.5,17.5 L15.5,19.5 C15.5,19.8 15.3,20 15,20 Z M1.5,19 L14.5,19 L14.5,17.5 C14.5,13.9 11.6,11 8,11 C4.4,11 1.5,13.9 1.5,17.5 L1.5,19 Z" id="Shape" fill="#154E84"></path>
                <path d="M8,9 C10.5,9 12.5,7 12.5,4.5 C12.5,2 10.5,0 8,0 C5.5,0 3.5,2 3.5,4.5 C3.5,7 5.5,9 8,9 Z M8,8 C6.05,8 4.5,6.45 4.5,4.5 C4.5,2.55 6.05,1 8,1 C9.95,1 11.5,2.55 11.5,4.5 C11.5,6.45 9.95,8 8,8 Z" id="Shape" fill="#154E84"></path>
                <path d="M8,10 C12.15,10 15.5,13.35 15.5,17.5 L15.5,19.5 C15.5,19.8 15.3,20 15,20 L1,20 C0.7,20 0.5,19.8 0.5,19.5 L0.5,17.5 C0.5,13.35 3.85,10 8,10 Z M14.5,19 L14.5,17.5 C14.5,13.9 11.6,11 8,11 C4.4,11 1.5,13.9 1.5,17.5 L1.5,19 L14.5,19 Z" id="Shape" fill="#154E84"></path>
            </g>
        </g>
    </g>
</svg>