<?xml version="1.0" encoding="UTF-8"?>
<svg width="12px" height="12px" viewBox="0 0 12 12" version="1.1" xmlns="http://www.w3.org/2000/svg" xmlns:xlink="http://www.w3.org/1999/xlink">
    <title></title>
    <defs>
        <path d="M4.5856815,1.41458101 C5.36923519,0.630995951 6.63321196,0.633443197 7.4143185,1.41458101 L7.4143185,1.41458101 L10.5856815,4.58607097 C11.3692352,5.36965602 11.366788,6.63361097 10.5856815,7.41465944 L10.5856815,7.41465944 L7.4143185,10.5857867 C6.63076481,11.3692821 5.36678804,11.3668351 4.5856815,10.5857867 L4.5856815,10.5857867 L1.4143185,7.41465944 C0.630764812,6.63116401 0.63321196,5.36720878 1.4143185,4.58607097 L1.4143185,4.58607097 Z M6,8 L5.90152767,8.00723266 C5.58016529,8.05487603 5.33333333,8.33212121 5.33333333,8.66666667 L5.33333333,8.66666667 L5.34056599,8.76513899 C5.38820937,9.08650138 5.66545455,9.33333333 6,9.33333333 L6,9.33333333 L6.09847233,9.32610068 C6.41983471,9.2784573 6.66666667,9.00121212 6.66666667,8.66666667 L6.66666667,8.66666667 L6.65943401,8.56819434 C6.61179063,8.24683196 6.33454545,8 6,8 L6,8 Z M6,2.66666667 L5.90152767,2.67389932 C5.58016529,2.7215427 5.33333333,2.99878788 5.33333333,3.33333333 L5.33333333,3.33333333 L5.33333333,6.66666667 C5.33333333,7.03466667 5.632,7.33333333 6,7.33333333 L6,7.33333333 L6.09847233,7.32610068 C6.41983471,7.2784573 6.66666667,7.00121212 6.66666667,6.66666667 L6.66666667,6.66666667 L6.66666667,3.33333333 C6.66666667,2.96533333 6.368,2.66666667 6,2.66666667 L6,2.66666667 Z" id="path-1"></path>
    </defs>
    <g id="Page-1" stroke="none" stroke-width="1" fill="none" fill-rule="evenodd">
        <g id="P2/0.10-Sign-In--Error-" transform="translate(-836.000000, -534.000000)">
            <g id="_part-/--ðšƒ-Help-text-/-Error" transform="translate(834.000000, 532.000000)">
                <g id="icon" transform="translate(2.000000, 2.000000)">
                    <mask id="mask-2" fill="white">
                        <use xlink:href="#path-1"></use>
                    </mask>
                    <use id="Combined-Shape" fill="#42526E" xlink:href="#path-1"></use>
                    <g id="â†³-ðŸŽ¨Color" mask="url(#mask-2)" fill="#DE350B">
                        <g transform="translate(-2.000000, -2.000000)" id="R400">
                            <rect x="0" y="0" width="16" height="16"></rect>
                        </g>
                    </g>
                </g>
            </g>
        </g>
    </g>
</svg>