<?xml version="1.0" encoding="UTF-8"?>
<svg width="16px" height="16px" viewBox="0 0 16 16" version="1.1" xmlns="http://www.w3.org/2000/svg" xmlns:xlink="http://www.w3.org/1999/xlink">
    <title></title>
    <defs>
        <path d="M15,4 L13.136,15.1655563 C13.056,15.6472352 12.639,16 12.15,16 L3.845,16 C3.356,16 2.939,15.6462358 2.859,15.164557 L1,4 L15,4 Z M5,0.5 C5,0.223857625 5.22788048,0 5.49100518,0 L10.5089948,0 C10.7801695,0 11,0.231933594 11,0.5 L11,1 L15,1 C15.552,1 16,1.448 16,2 L16,2 L16,3 L0,3 L0,2 C0,1.448 0.448,1 1,1 L1,1 L5,1 L5,0.5 Z" id="path-trash-copy-5"></path>
    </defs>
    <g id="Page-1" stroke="none" stroke-width="1" fill="none" fill-rule="evenodd">
        <g id="L19.--Import-Flle" transform="translate(-1377.000000, -628.000000)">
            <g id="standard/action/trash-copy-5" transform="translate(1377.000000, 628.000000)">
                <mask id="mask-trash-copy-5" fill="white">
                    <use xlink:href="#path-trash-copy-5"></use>
                </mask>
                <use id="Fill-5" fill="#42526E" xlink:href="#path-trash-copy-5"></use>
                <g id="↳-🎨Color" mask="url(#mask-trash-copy-5)" fill="#BF2600">
                    <g transform="translate(-4.000000, -4.000000)" id="R500">
                        <rect x="0" y="0" width="24" height="24"></rect>
                    </g>
                </g>
            </g>
        </g>
    </g>
</svg>