<?xml version="1.0" encoding="UTF-8"?>
<svg width="28px" height="28px" viewBox="0 0 28 28" version="1.1" xmlns="http://www.w3.org/2000/svg" xmlns:xlink="http://www.w3.org/1999/xlink">
    <title></title>
    <g id="Web" stroke="none" stroke-width="1" fill="none" fill-rule="evenodd">
        <g id="3.--Homepage-grid" transform="translate(-710.000000, -192.000000)">
            <g id="iconspace_List" transform="translate(710.000000, 192.000000)">
                <circle id="Shape" cx="14" cy="14" r="14"></circle>
                <polygon id="Shape" fill="#FFC200" points="9.625 5.6875 22.75 5.6875 22.75 7.875 9.625 7.875"></polygon>
                <circle id="Shape" fill="#FFC200" cx="6.34375" cy="6.78125" r="1.09375"></circle>
                <circle id="Shape" fill="#52ABE2" cx="6.34375" cy="11.59375" r="1.09375"></circle>
                <circle id="Shape" fill="#FFC200" cx="6.34375" cy="16.40625" r="1.09375"></circle>
                <circle id="Shape" fill="#FFFFFF" cx="6.34375" cy="21.21875" r="1.09375"></circle>
                <polygon id="Shape" fill="#FFC200" points="9.625 15.3125 22.75 15.3125 22.75 17.5 9.625 17.5"></polygon>
                <polygon id="Shape" fill="#52ABE2" points="9.625 10.5 22.75 10.5 22.75 12.6875 9.625 12.6875"></polygon>
                <polygon id="Shape" fill="#FFFFFF" points="9.625 20.125 22.75 20.125 22.75 22.3125 9.625 22.3125"></polygon>
                <path d="M9.1875,5.6875 C9.1875,5.44587542 9.38337542,5.25 9.625,5.25 L22.75,5.25 C22.9916246,5.25 23.1875,5.44587542 23.1875,5.6875 L23.1875,7.875 C23.1875,8.11662458 22.9916246,8.3125 22.75,8.3125 L9.625,8.3125 C9.38337542,8.3125 9.1875,8.11662458 9.1875,7.875 L9.1875,5.6875 Z M10.0625,6.125 L10.0625,7.4375 L22.3125,7.4375 L22.3125,6.125 L10.0625,6.125 Z" id="Shape" fill="#154E84" fill-rule="nonzero"></path>
                <path d="M6.34375,8.3125 C7.18943602,8.3125 7.875,7.62693602 7.875,6.78125 C7.875,5.93556398 7.18943602,5.25 6.34375,5.25 C5.49806398,5.25 4.8125,5.93556398 4.8125,6.78125 C4.8125,7.62693602 5.49806398,8.3125 6.34375,8.3125 Z M6.34375,7.4375 C5.98131313,7.4375 5.6875,7.14368687 5.6875,6.78125 C5.6875,6.41881313 5.98131313,6.125 6.34375,6.125 C6.70618687,6.125 7,6.41881313 7,6.78125 C7,7.14368687 6.70618687,7.4375 6.34375,7.4375 Z" id="Shape" fill="#154E84" fill-rule="nonzero"></path>
                <path d="M6.34375,13.125 C7.18943602,13.125 7.875,12.439436 7.875,11.59375 C7.875,10.748064 7.18943602,10.0625 6.34375,10.0625 C5.49806398,10.0625 4.8125,10.748064 4.8125,11.59375 C4.8125,12.439436 5.49806398,13.125 6.34375,13.125 Z M6.34375,12.25 C5.98131313,12.25 5.6875,11.9561869 5.6875,11.59375 C5.6875,11.2313131 5.98131313,10.9375 6.34375,10.9375 C6.70618687,10.9375 7,11.2313131 7,11.59375 C7,11.9561869 6.70618687,12.25 6.34375,12.25 Z" id="Shape" fill="#154E84" fill-rule="nonzero"></path>
                <path d="M6.34375,17.9375 C7.18943602,17.9375 7.875,17.251936 7.875,16.40625 C7.875,15.560564 7.18943602,14.875 6.34375,14.875 C5.49806398,14.875 4.8125,15.560564 4.8125,16.40625 C4.8125,17.251936 5.49806398,17.9375 6.34375,17.9375 Z M6.34375,17.0625 C5.98131313,17.0625 5.6875,16.7686869 5.6875,16.40625 C5.6875,16.0438131 5.98131313,15.75 6.34375,15.75 C6.70618687,15.75 7,16.0438131 7,16.40625 C7,16.7686869 6.70618687,17.0625 6.34375,17.0625 Z" id="Shape" fill="#154E84" fill-rule="nonzero"></path>
                <path d="M6.34375,22.75 C7.18943602,22.75 7.875,22.064436 7.875,21.21875 C7.875,20.373064 7.18943602,19.6875 6.34375,19.6875 C5.49806398,19.6875 4.8125,20.373064 4.8125,21.21875 C4.8125,22.064436 5.49806398,22.75 6.34375,22.75 Z M6.34375,21.875 C5.98131313,21.875 5.6875,21.5811869 5.6875,21.21875 C5.6875,20.8563131 5.98131313,20.5625 6.34375,20.5625 C6.70618687,20.5625 7,20.8563131 7,21.21875 C7,21.5811869 6.70618687,21.875 6.34375,21.875 Z" id="Shape" fill="#154E84" fill-rule="nonzero"></path>
                <path d="M9.1875,15.3125 C9.1875,15.0708754 9.38337542,14.875 9.625,14.875 L22.75,14.875 C22.9916246,14.875 23.1875,15.0708754 23.1875,15.3125 L23.1875,17.5 C23.1875,17.7416246 22.9916246,17.9375 22.75,17.9375 L9.625,17.9375 C9.38337542,17.9375 9.1875,17.7416246 9.1875,17.5 L9.1875,15.3125 Z M10.0625,15.75 L10.0625,17.0625 L22.3125,17.0625 L22.3125,15.75 L10.0625,15.75 Z" id="Shape" fill="#154E84" fill-rule="nonzero"></path>
                <path d="M9.1875,10.5 C9.1875,10.2583754 9.38337542,10.0625 9.625,10.0625 L22.75,10.0625 C22.9916246,10.0625 23.1875,10.2583754 23.1875,10.5 L23.1875,12.6875 C23.1875,12.9291246 22.9916246,13.125 22.75,13.125 L9.625,13.125 C9.38337542,13.125 9.1875,12.9291246 9.1875,12.6875 L9.1875,10.5 Z M10.0625,10.9375 L10.0625,12.25 L22.3125,12.25 L22.3125,10.9375 L10.0625,10.9375 Z" id="Shape" fill="#154E84" fill-rule="nonzero"></path>
                <path d="M9.1875,20.125 C9.1875,19.8833754 9.38337542,19.6875 9.625,19.6875 L22.75,19.6875 C22.9916246,19.6875 23.1875,19.8833754 23.1875,20.125 L23.1875,22.3125 C23.1875,22.5541246 22.9916246,22.75 22.75,22.75 L9.625,22.75 C9.38337542,22.75 9.1875,22.5541246 9.1875,22.3125 L9.1875,20.125 Z M10.0625,20.5625 L10.0625,21.875 L22.3125,21.875 L22.3125,20.5625 L10.0625,20.5625 Z" id="Shape" fill="#154E84" fill-rule="nonzero"></path>
            </g>
        </g>
    </g>
</svg>