<?xml version="1.0" encoding="UTF-8"?>
<svg width="16px" height="16px" viewBox="0 0 16 16" version="1.1" xmlns="http://www.w3.org/2000/svg" xmlns:xlink="http://www.w3.org/1999/xlink">
    <!-- Generator: sketchtool 61.2 (101010) - https://sketch.com -->
    <title></title>
    <desc>Created with sketchtool.</desc>
    <g id="Page-3" stroke="none" stroke-width="1" fill="none" fill-rule="evenodd">
        <g id="0.-Registration-step-1" transform="translate(-1304.000000, -302.000000)">
            <g id="iconspace_Hide-Password" transform="translate(1300.000000, 298.000000)">
                <circle id="Shape" cx="12" cy="12" r="12"></circle>
                <path d="M4.5,12 C5.88268398,8.88572066 8.72196096,6.75 12,6.75 C15.278039,6.75 18.117316,8.88572066 19.5,12 C18.117316,15.1142793 15.278039,17.25 12,17.25 C8.72196096,17.25 5.88268398,15.1142793 4.5,12 L4.5,12 Z" id="Shape" fill="#FFFFFF"></path>
                <circle id="Shape" fill="#FFC200" cx="12" cy="12" r="2.25"></circle>
                <path d="M4.15726187,12.1521696 C4.11424604,12.0552831 4.11424604,11.9447169 4.15726187,11.8478304 C5.63263792,8.52477672 8.64211228,6.375 12,6.375 C15.3578877,6.375 18.3673621,8.52477672 19.8427381,11.8478304 C19.885754,11.9447169 19.885754,12.0552831 19.8427381,12.1521696 C18.3673621,15.4752233 15.3578877,17.625 12,17.625 C8.64211228,17.625 5.63263792,15.4752233 4.15726187,12.1521696 Z M4.91185886,12 C6.29434328,14.9756994 9.00310458,16.875 12,16.875 C14.9968954,16.875 17.7056567,14.9756994 19.0881411,12 C17.7056567,9.02430056 14.9968954,7.125 12,7.125 C9.00310458,7.125 6.29434328,9.02430056 4.91185886,12 Z" id="Shape" fill="#154E84" fill-rule="nonzero"></path>
                <path d="M12,14.625 C13.4497475,14.625 14.625,13.4497475 14.625,12 C14.625,10.5502525 13.4497475,9.375 12,9.375 C10.5502525,9.375 9.375,10.5502525 9.375,12 C9.375,13.4497475 10.5502525,14.625 12,14.625 Z M12,13.875 C10.9644661,13.875 10.125,13.0355339 10.125,12 C10.125,10.9644661 10.9644661,10.125 12,10.125 C13.0355339,10.125 13.875,10.9644661 13.875,12 C13.875,13.0355339 13.0355339,13.875 12,13.875 Z" id="Shape" fill="#154E84" fill-rule="nonzero"></path>
                <path d="M4.15726187,12.1521696 C4.11424604,12.0552831 4.11424604,11.9447169 4.15726187,11.8478304 C5.63263792,8.52477672 8.64211228,6.375 12,6.375 C15.3578877,6.375 18.3673621,8.52477672 19.8427381,11.8478304 C19.885754,11.9447169 19.885754,12.0552831 19.8427381,12.1521696 C18.3673621,15.4752233 15.3578877,17.625 12,17.625 C8.64211228,17.625 5.63263792,15.4752233 4.15726187,12.1521696 Z M12,16.875 C14.9968954,16.875 17.7056567,14.9756994 19.0881411,12 C17.7056567,9.02430056 14.9968954,7.125 12,7.125 C9.00310458,7.125 6.29434328,9.02430056 4.91185886,12 C6.29434328,14.9756994 9.00310458,16.875 12,16.875 Z" id="Shape" fill="#154E84" fill-rule="nonzero"></path>
                <path d="M12,14.625 C13.4497475,14.625 14.625,13.4497475 14.625,12 C14.625,10.5502525 13.4497475,9.375 12,9.375 C10.5502525,9.375 9.375,10.5502525 9.375,12 C9.375,13.4497475 10.5502525,14.625 12,14.625 Z M12,13.875 C10.9644661,13.875 10.125,13.0355339 10.125,12 C10.125,10.9644661 10.9644661,10.125 12,10.125 C13.0355339,10.125 13.875,10.9644661 13.875,12 C13.875,13.0355339 13.0355339,13.875 12,13.875 Z" id="Shape" fill="#154E84" fill-rule="nonzero"></path>
                <path d="M19.0850476,4.3410514 L4.39760867,19.1929191 C4.2519795,19.3401786 4.25330116,19.5776118 4.40056067,19.7232409 C4.54782019,19.8688701 4.78525337,19.8675485 4.93088254,19.7202889 L19.6183215,4.86842126 C19.7639507,4.72116175 19.762629,4.48372856 19.6153695,4.33809939 C19.46811,4.19247022 19.2306768,4.19379188 19.0850476,4.3410514 Z" id="Shape" fill="#52ABE2" fill-rule="nonzero"></path>
            </g>
        </g>
    </g>
</svg>