<?xml version="1.0" encoding="UTF-8"?>
<svg width="28px" height="28px" viewBox="0 0 28 28" version="1.1" xmlns="http://www.w3.org/2000/svg" xmlns:xlink="http://www.w3.org/1999/xlink">
    <title></title>
    <g id="Page-1" stroke="none" stroke-width="1" fill="none" fill-rule="evenodd">
        <g id="L5.Document" transform="translate(-1240.000000, -82.000000)" fill-rule="nonzero">
            <g id="Group-26" transform="translate(1215.000000, 76.000000)">
                <g id="Group-87" transform="translate(25.000000, 6.000000)">
                    <rect id="Rectangle" fill="#0091FF" x="0" y="0" width="28" height="28" rx="4"></rect>
                    <g id="Group-4" transform="translate(5.000000, 6.000000)">
                        <path d="M1.21153846,0 L15.75,0 C16.4365385,0 16.9615385,0.525 16.9615385,1.21153846 L16.9615385,3.63461538 C16.9615385,4.32115385 16.4365385,4.84615385 15.75,4.84615385 L1.21153846,4.84615385 C0.525,4.84615385 0,4.32115385 0,3.63461538 L0,1.21153846 C0,0.525 0.525,0 1.21153846,0 Z" id="Path" fill="#154E84"></path>
                        <path d="M1.21153846,0.807692308 C0.969230769,0.807692308 0.807692308,0.969230769 0.807692308,1.21153846 L0.807692308,3.63461538 C0.807692308,3.87692308 0.969230769,4.03846154 1.21153846,4.03846154 L15.75,4.03846154 C15.9923077,4.03846154 16.1538462,3.87692308 16.1538462,3.63461538 L16.1538462,1.21153846 C16.1538462,0.969230769 15.9923077,0.807692308 15.75,0.807692308 L1.21153846,0.807692308 Z" id="Path" fill="#FFFFFF"></path>
                        <path d="M2.82692308,3.23076923 C3.27301154,3.23076923 3.63461538,2.86916538 3.63461538,2.42307692 C3.63461538,1.97698846 3.27301154,1.61538462 2.82692308,1.61538462 C2.38083462,1.61538462 2.01923077,1.97698846 2.01923077,2.42307692 C2.01923077,2.86916538 2.38083462,3.23076923 2.82692308,3.23076923 Z" id="Path" fill="#FFC200"></path>
                        <path d="M5.25,3.23076923 C5.69608846,3.23076923 6.05769231,2.86916538 6.05769231,2.42307692 C6.05769231,1.97698846 5.69608846,1.61538462 5.25,1.61538462 C4.80391154,1.61538462 4.44230769,1.97698846 4.44230769,2.42307692 C4.44230769,2.86916538 4.80391154,3.23076923 5.25,3.23076923 Z" id="Path" fill="#FFC200"></path>
                        <path d="M2.01923077,4.44230769 C2.01923077,4.2 2.18076923,4.03846154 2.42307692,4.03846154 L14.5384615,4.03846154 C14.7807692,4.03846154 14.9423077,4.2 14.9423077,4.44230769 L14.9423077,15.75 C14.9423077,15.9923077 14.7807692,16.1538462 14.5384615,16.1538462 L2.42307692,16.1538462 C2.18076923,16.1538462 2.01923077,15.9923077 2.01923077,15.75 L2.01923077,4.44230769 Z" id="Path" fill="#154E84"></path>
                        <polygon id="Path" fill="#52ABE2" points="2.82692308 4.84615385 2.82692308 15.3461538 14.1346154 15.3461538 14.1346154 4.84615385"></polygon>
                        <path d="M7.67307692,2.82692308 L14.5384615,2.82692308 C14.7807692,2.82692308 14.9423077,2.66538462 14.9423077,2.42307692 C14.9423077,2.18076923 14.7807692,2.01923077 14.5384615,2.01923077 L7.67307692,2.01923077 C7.43076923,2.01923077 7.26923077,2.18076923 7.26923077,2.42307692 C7.26923077,2.66538462 7.43076923,2.82692308 7.67307692,2.82692308 Z" id="Path" fill="#52ABE2"></path>
                        <path d="M1.21153846,5.65384615 L15.75,5.65384615 C16.4365385,5.65384615 16.9615385,6.17884615 16.9615385,6.86538462 L16.9615385,9.28846154 C16.9615385,9.975 16.4365385,10.5 15.75,10.5 L1.21153846,10.5 C0.525,10.5 0,9.975 0,9.28846154 L0,6.86538462 C0,6.17884615 0.525,5.65384615 1.21153846,5.65384615 Z" id="Path" fill="#154E84"></path>
                        <path d="M1.21153846,6.46153846 C0.969230769,6.46153846 0.807692308,6.62307692 0.807692308,6.86538462 L0.807692308,9.28846154 C0.807692308,9.53076923 0.969230769,9.69230769 1.21153846,9.69230769 L15.75,9.69230769 C15.9923077,9.69230769 16.1538462,9.53076923 16.1538462,9.28846154 L16.1538462,6.86538462 C16.1538462,6.62307692 15.9923077,6.46153846 15.75,6.46153846 L1.21153846,6.46153846 Z" id="Path" fill="#FFFFFF"></path>
                        <path d="M2.82692308,8.88461538 C3.27301154,8.88461538 3.63461538,8.52301154 3.63461538,8.07692308 C3.63461538,7.63083462 3.27301154,7.26923077 2.82692308,7.26923077 C2.38083462,7.26923077 2.01923077,7.63083462 2.01923077,8.07692308 C2.01923077,8.52301154 2.38083462,8.88461538 2.82692308,8.88461538 Z" id="Path" fill="#FFC200"></path>
                        <path d="M5.25,8.88461538 C5.69608846,8.88461538 6.05769231,8.52301154 6.05769231,8.07692308 C6.05769231,7.63083462 5.69608846,7.26923077 5.25,7.26923077 C4.80391154,7.26923077 4.44230769,7.63083462 4.44230769,8.07692308 C4.44230769,8.52301154 4.80391154,8.88461538 5.25,8.88461538 Z" id="Path" fill="#FFC200"></path>
                        <path d="M7.67307692,8.48076923 L14.5384615,8.48076923 C14.7807692,8.48076923 14.9423077,8.31923077 14.9423077,8.07692308 C14.9423077,7.83461538 14.7807692,7.67307692 14.5384615,7.67307692 L7.67307692,7.67307692 C7.43076923,7.67307692 7.26923077,7.83461538 7.26923077,8.07692308 C7.26923077,8.31923077 7.43076923,8.48076923 7.67307692,8.48076923 Z" id="Path" fill="#52ABE2"></path>
                        <path d="M1.21153846,11.3076923 L15.75,11.3076923 C16.4365385,11.3076923 16.9615385,11.8326923 16.9615385,12.5192308 L16.9615385,14.9423077 C16.9615385,15.6288462 16.4365385,16.1538462 15.75,16.1538462 L1.21153846,16.1538462 C0.525,16.1538462 0,15.6288462 0,14.9423077 L0,12.5192308 C0,11.8326923 0.525,11.3076923 1.21153846,11.3076923 Z" id="Path" fill="#154E84"></path>
                        <path d="M1.21153846,12.1153846 C0.969230769,12.1153846 0.807692308,12.2769231 0.807692308,12.5192308 L0.807692308,14.9423077 C0.807692308,15.1846154 0.969230769,15.3461538 1.21153846,15.3461538 L15.75,15.3461538 C15.9923077,15.3461538 16.1538462,15.1846154 16.1538462,14.9423077 L16.1538462,12.5192308 C16.1538462,12.2769231 15.9923077,12.1153846 15.75,12.1153846 L1.21153846,12.1153846 Z" id="Path" fill="#FFFFFF"></path>
                        <path d="M2.82692308,14.5384615 C3.27301154,14.5384615 3.63461538,14.1768577 3.63461538,13.7307692 C3.63461538,13.2846808 3.27301154,12.9230769 2.82692308,12.9230769 C2.38083462,12.9230769 2.01923077,13.2846808 2.01923077,13.7307692 C2.01923077,14.1768577 2.38083462,14.5384615 2.82692308,14.5384615 Z" id="Path" fill="#FFC200"></path>
                        <path d="M5.25,14.5384615 C5.69608846,14.5384615 6.05769231,14.1768577 6.05769231,13.7307692 C6.05769231,13.2846808 5.69608846,12.9230769 5.25,12.9230769 C4.80391154,12.9230769 4.44230769,13.2846808 4.44230769,13.7307692 C4.44230769,14.1768577 4.80391154,14.5384615 5.25,14.5384615 Z" id="Path" fill="#FFC200"></path>
                        <path d="M7.67307692,14.1346154 L14.5384615,14.1346154 C14.7807692,14.1346154 14.9423077,13.9730769 14.9423077,13.7307692 C14.9423077,13.4884615 14.7807692,13.3269231 14.5384615,13.3269231 L7.67307692,13.3269231 C7.43076923,13.3269231 7.26923077,13.4884615 7.26923077,13.7307692 C7.26923077,13.9730769 7.43076923,14.1346154 7.67307692,14.1346154 Z" id="Path" fill="#52ABE2"></path>
                    </g>
                </g>
            </g>
        </g>
    </g>
</svg>