<?xml version="1.0" encoding="UTF-8"?>
<svg width="28px" height="28px" viewBox="0 0 28 28" version="1.1" xmlns="http://www.w3.org/2000/svg" xmlns:xlink="http://www.w3.org/1999/xlink">
    <title></title>
    <g id="Page-1" stroke="none" stroke-width="1" fill="none" fill-rule="evenodd">
        <g id="L5.2-Collsape" transform="translate(-21.000000, -79.000000)">
            <g id="Group-78" transform="translate(0.000000, 68.000000)">
                <g id="iconspace_Hamburger-2" transform="translate(21.000000, 11.000000)">
                    <circle id="Shape" cx="14" cy="14" r="14"></circle>
                    <polygon id="Shape" fill="#FFC200" points="5.25 7 22.75 7 22.75 8.75 5.25 8.75"></polygon>
                    <polygon id="Shape" fill="#FFFFFF" points="5.25 13.125 22.75 13.125 22.75 14.875 5.25 14.875"></polygon>
                    <polygon id="Shape" fill="#52ABE2" points="5.25 19.25 22.75 19.25 22.75 21 5.25 21"></polygon>
                    <path d="M4.8125,7 C4.8125,6.75837542 5.00837542,6.5625 5.25,6.5625 L22.75,6.5625 C22.9916246,6.5625 23.1875,6.75837542 23.1875,7 L23.1875,8.75 C23.1875,8.99162458 22.9916246,9.1875 22.75,9.1875 L5.25,9.1875 C5.00837542,9.1875 4.8125,8.99162458 4.8125,8.75 L4.8125,7 Z M5.6875,7.4375 L5.6875,8.3125 L22.3125,8.3125 L22.3125,7.4375 L5.6875,7.4375 Z" id="Shape" fill="#154E84" fill-rule="nonzero"></path>
                    <path d="M4.8125,13.125 C4.8125,12.8833754 5.00837542,12.6875 5.25,12.6875 L22.75,12.6875 C22.9916246,12.6875 23.1875,12.8833754 23.1875,13.125 L23.1875,14.875 C23.1875,15.1166246 22.9916246,15.3125 22.75,15.3125 L5.25,15.3125 C5.00837542,15.3125 4.8125,15.1166246 4.8125,14.875 L4.8125,13.125 Z M5.6875,13.5625 L5.6875,14.4375 L22.3125,14.4375 L22.3125,13.5625 L5.6875,13.5625 Z" id="Shape" fill="#154E84" fill-rule="nonzero"></path>
                    <path d="M4.8125,19.25 C4.8125,19.0083754 5.00837542,18.8125 5.25,18.8125 L22.75,18.8125 C22.9916246,18.8125 23.1875,19.0083754 23.1875,19.25 L23.1875,21 C23.1875,21.2416246 22.9916246,21.4375 22.75,21.4375 L5.25,21.4375 C5.00837542,21.4375 4.8125,21.2416246 4.8125,21 L4.8125,19.25 Z M5.6875,19.6875 L5.6875,20.5625 L22.3125,20.5625 L22.3125,19.6875 L5.6875,19.6875 Z" id="Shape" fill="#154E84" fill-rule="nonzero"></path>
                </g>
            </g>
        </g>
    </g>
</svg>