<?xml version="1.0" encoding="UTF-8"?>
<svg width="100px" height="75px" viewBox="0 0 100 75" version="1.1" xmlns="http://www.w3.org/2000/svg" xmlns:xlink="http://www.w3.org/1999/xlink">
    <title>FA8EAA26-4CBA-4A2E-A98E-AD1A062BA281</title>
    <g id="Page-1" stroke="none" stroke-width="1" fill="none" fill-rule="evenodd">
        <g id="2.7-Import" transform="translate(-801.000000, -496.000000)" fill="#ECEFF3" fill-rule="nonzero">
            <g id="Group" transform="translate(757.000000, 496.000000)">
                <g id="folder" transform="translate(44.000000, 0.000000)">
                    <g id="Icons" transform="translate(0.000000, 0.050583)">
                        <path d="M46.2432846,74.1261035 L42.0095437,74.1261035 C41.2222606,74.1261035 40.5840417,73.4878845 40.5840417,72.7006015 C40.5840417,71.9133185 41.2222606,71.2750995 42.0095437,71.2750995 L46.2432846,71.2750995 C47.0305676,71.2750995 47.6687866,71.9133185 47.6687866,72.7006015 C47.6687866,73.4878845 47.0305676,74.1261035 46.2432846,74.1261035 Z" id="Path"></path>
                        <path d="M98.3596373,74.1261035 L56.2217985,74.1261035 C55.4345155,74.1261035 54.7962965,73.4878845 54.7962965,72.7006015 C54.7962965,71.9133185 55.4345155,71.2750995 56.2217985,71.2750995 L96.9341354,71.2750995 L96.9341354,16.5643331 L38.2177084,16.5643331 C37.7612151,16.5651848 37.3319259,16.3473603 37.0630518,15.9784518 L27.5121884,2.85100398 L2.85100398,2.85100398 L2.85100398,71.2750995 L17.904305,71.2750995 C18.691588,71.2750995 19.329807,71.9133185 19.329807,72.7006015 C19.329807,73.4878845 18.691588,74.1261035 17.904305,74.1261035 L1.42550199,74.1261035 C0.63821898,74.1261035 5.06440042e-15,73.4878845 5.06440042e-15,72.7006015 L5.06440042e-15,1.42550199 C5.06440042e-15,0.63821898 0.63821898,0 1.42550199,0 L28.2391944,0 C28.6956974,0 29.1244583,0.219153373 29.3924255,0.588732322 L38.9432889,13.7133291 L98.3596373,13.7133291 C99.1469204,13.7133291 99.7851393,14.3515481 99.7851393,15.1388311 L99.7851393,72.7006015 C99.7851393,73.4878845 99.1469204,74.1261035 98.3596373,74.1261035 Z" id="Path"></path>
                        <path d="M32.0310297,74.1261035 L27.8828189,74.1261035 C27.0955359,74.1261035 26.4573169,73.4878845 26.4573169,72.7006015 C26.4573169,71.9133185 27.0955359,71.2750995 27.8828189,71.2750995 L32.0310297,71.2750995 C32.8183127,71.2750995 33.4565317,71.9133185 33.4565317,72.7006015 C33.4565317,73.4878845 32.8183127,74.1261035 32.0310297,74.1261035 Z" id="Path"></path>
                        <path d="M91.9448784,16.5643331 C91.1575954,16.5643331 90.5193764,15.9261141 90.5193764,15.1388311 L90.5193764,6.85666457 L31.1472185,6.85666457 C30.3599355,6.85666457 29.7217165,6.21844559 29.7217165,5.43116258 C29.7217165,4.64387957 30.3599355,4.00566059 31.1472185,4.00566059 L91.9448784,4.00566059 C92.7321614,4.00566059 93.3703804,4.64387957 93.3703804,5.43116258 L93.3703804,15.1388311 C93.3703804,15.9261141 92.7321614,16.5643331 91.9448784,16.5643331 Z" id="Path"></path>
                        <path d="M49.8925697,51.3180717 C49.1052867,51.3180717 48.4670677,50.6798527 48.4670677,49.8925697 L48.4670677,29.9355418 C48.4670677,29.1482588 49.1052867,28.5100398 49.8925697,28.5100398 C50.6798527,28.5100398 51.3180717,29.1482588 51.3180717,29.9355418 L51.3180717,49.8925697 C51.3180717,50.6798527 50.6798527,51.3180717 49.8925697,51.3180717 Z" id="Path"></path>
                        <path d="M49.8925697,51.3180717 C49.5145339,51.3179909 49.152011,51.1677516 48.8847398,50.9003996 L44.0736705,46.0893304 C43.5334449,45.5299935 43.5411709,44.6408995 44.0910352,44.0910352 C44.6408995,43.5411709 45.5299935,43.5334449 46.0893304,44.0736705 L49.8925697,47.8769099 L53.695809,44.0736705 C54.2551459,43.5334449 55.1442398,43.5411709 55.6941041,44.0910352 C56.2439684,44.6408995 56.2516944,45.5299935 55.7114688,46.0893304 L50.9003996,50.9003996 C50.6331283,51.1677516 50.2706054,51.3179909 49.8925697,51.3180717 L49.8925697,51.3180717 Z" id="Path"></path>
                        <path d="M63.702833,56.8418919 L36.0823064,56.8418919 C35.2950234,56.8418919 34.6568044,56.2036729 34.6568044,55.4163899 L34.6568044,49.447813 C34.6568044,48.66053 35.2950234,48.0223111 36.0823064,48.0223111 C36.8695894,48.0223111 37.5078084,48.66053 37.5078084,49.447813 L37.5078084,53.9908879 L62.277331,53.9908879 L62.277331,49.447813 C62.277331,48.66053 62.9155499,48.0223111 63.702833,48.0223111 C64.490116,48.0223111 65.1283349,48.66053 65.1283349,49.447813 L65.1283349,55.4163899 C65.1283349,56.2036729 64.490116,56.8418919 63.702833,56.8418919 Z" id="Path"></path>
                    </g>
                </g>
            </g>
        </g>
    </g>
</svg>