<?xml version="1.0" encoding="UTF-8"?>
<svg width="60px" height="60px" viewBox="0 0 60 60" version="1.1" xmlns="http://www.w3.org/2000/svg" xmlns:xlink="http://www.w3.org/1999/xlink">
    <title>Approved</title>
    <g id="Page-2" stroke="none" stroke-width="1" fill="none" fill-rule="evenodd">
        <g id="L4.-Global-search---Copy" transform="translate(-1112.000000, -467.000000)" fill-rule="nonzero">
            <g id="Approved" transform="translate(1112.000000, 467.000000)">
                <circle id="Oval" fill="#E6F0FC" cx="30" cy="30" r="30"></circle>
                <g id="Group" transform="translate(11.739130, 5.942029)">
                    <path d="M33.0586957,47.1423188 L3.46304348,47.1423188 C2.05275362,47.1423188 0.909565217,45.9991304 0.909565217,44.5888406 L0.909565217,3.44521739 C0.909565217,2.03492754 2.05289855,0.89173913 3.46304348,0.89173913 L33.0586957,0.89173913 C34.4689855,0.89173913 35.6121739,2.03492754 35.6121739,3.44521739 L35.6121739,44.5888406 C35.6121739,45.9991304 34.4689855,47.1423188 33.0586957,47.1423188 Z" id="Path" fill="#FFFFFF"></path>
                    <path d="M33.0262319,1.01449275 L30.8695652,1.01449275 L30.8695652,47.2463768 L33.0262319,47.2463768 C34.4365217,47.2463768 35.5072464,45.9991304 35.5072464,44.5888406 L35.5072464,3.44521739 C35.5072464,2.03492754 34.4365217,1.01449275 33.0262319,1.01449275 Z" id="Path" fill="#D3E6F8"></path>
                    <path d="M33.0586957,48.0118841 L3.46304348,48.0118841 C1.57550725,48.0118841 0.0398550725,46.4762319 0.0398550725,44.5888406 L0.0398550725,3.44521739 C0.0398550725,1.55782609 1.57550725,0.022173913 3.46304348,0.022173913 L33.0586957,0.022173913 C34.9462319,0.022173913 36.4818841,1.55782609 36.4818841,3.44521739 L36.4818841,44.5888406 C36.4818841,46.4762319 34.9462319,48.0118841 33.0586957,48.0118841 Z M3.46304348,1.76130435 C2.53449275,1.76130435 1.77898551,2.51666667 1.77898551,3.44521739 L1.77898551,44.5888406 C1.77898551,45.5173913 2.53434783,46.2727536 3.46304348,46.2727536 L33.0586957,46.2727536 C33.9872464,46.2727536 34.7427536,45.5173913 34.7427536,44.5888406 L34.7427536,3.44521739 C34.7427536,2.51666667 33.9873913,1.76130435 33.0586957,1.76130435 L3.46304348,1.76130435 Z" id="Shape" fill="#154E84"></path>
                    <path d="M26.3768116,8.84057971 L10,8.84057971 C9.51971014,8.84057971 9.13043478,8.45130435 9.13043478,7.97101449 C9.13043478,7.49072464 9.51971014,7.10144928 10,7.10144928 L26.3768116,7.10144928 C26.8571014,7.10144928 27.2463768,7.49072464 27.2463768,7.97101449 C27.2463768,8.45130435 26.8571014,8.84057971 26.3768116,8.84057971 Z" id="Path" fill="#154E84"></path>
                    <path d="M29.8550725,15.5072464 L6.52173913,15.5072464 C6.04144928,15.5072464 5.65217391,15.117971 5.65217391,14.6376812 C5.65217391,14.1573913 6.04144928,13.7681159 6.52173913,13.7681159 L29.8550725,13.7681159 C30.3353623,13.7681159 30.7246377,14.1573913 30.7246377,14.6376812 C30.7246377,15.117971 30.3353623,15.5072464 29.8550725,15.5072464 Z" id="Path" fill="#154E84"></path>
                    <path d="M29.8550725,22.3188406 L6.52173913,22.3188406 C6.04144928,22.3188406 5.65217391,21.9295652 5.65217391,21.4492754 C5.65217391,20.9689855 6.04144928,20.5797101 6.52173913,20.5797101 L29.8550725,20.5797101 C30.3353623,20.5797101 30.7246377,20.9689855 30.7246377,21.4492754 C30.7246377,21.9295652 30.3353623,22.3188406 29.8550725,22.3188406 Z" id="Path" fill="#154E84"></path>
                </g>
                <circle id="Oval" fill="#FFFFFF" cx="30.0324638" cy="40.317971" r="9.49275362"></circle>
                <path d="M30.0324638,30.8252174 C29.4634783,30.8252174 28.9072464,30.8781159 28.3657971,30.974058 C32.8133333,31.7623188 36.1918841,35.6442029 36.1918841,40.317971 C36.1918841,44.9917391 32.8131884,48.8737681 28.3657971,49.6618841 C28.9072464,49.7578261 29.4634783,49.8107246 30.0324638,49.8107246 C35.2752174,49.8107246 39.5252174,45.5607246 39.5252174,40.317971 C39.5252174,35.0753623 35.2750725,30.8252174 30.0324638,30.8252174 Z" id="Path" fill="#52ABE2"></path>
                <polygon id="Path" fill="#FFC200" points="28.4257971 46.3531884 22.7075362 40.6349275 24.6766667 38.665942 28.4257971 42.4150725 35.1078261 35.7331884 37.0768116 37.7021739"></polygon>
                <path d="M30.0324638,50.6802899 C24.3186957,50.6802899 19.67,46.0317391 19.67,40.317971 C19.67,34.6042029 24.3185507,29.9556522 30.0324638,29.9556522 C35.7463768,29.9556522 40.3947826,34.6042029 40.3947826,40.317971 C40.3947826,46.0317391 35.7462319,50.6802899 30.0324638,50.6802899 Z M30.0324638,31.6947826 C25.2775362,31.6947826 21.4091304,35.5630435 21.4091304,40.317971 C21.4091304,45.0728986 25.2775362,48.9411594 30.0324638,48.9411594 C34.7873913,48.9411594 38.6556522,45.0728986 38.6556522,40.317971 C38.6556522,35.5630435 34.7873913,31.6947826 30.0324638,31.6947826 Z" id="Shape" fill="#154E84"></path>
                <path d="M28.4257971,47.2227536 C28.1952174,47.2227536 27.974058,47.1311594 27.8108696,46.967971 L22.0926087,41.2497101 C21.9295652,41.0866667 21.837971,40.8655072 21.837971,40.6349275 C21.837971,40.4042029 21.9295652,40.1831884 22.0926087,40.02 L24.0615942,38.0510145 C24.4011594,37.7115942 24.9517391,37.7115942 25.2913043,38.0510145 L28.4256522,41.1853623 L34.4927536,35.1184058 C34.8323188,34.7786957 35.3828986,34.7788406 35.7224638,35.1182609 L37.6915942,37.0872464 C37.8546377,37.2504348 37.9462319,37.4714493 37.9462319,37.7021739 C37.9462319,37.9327536 37.8546377,38.153913 37.6915942,38.3169565 L29.0405797,46.967971 C28.8776812,47.1311594 28.6565217,47.2227536 28.4257971,47.2227536 Z M23.9372464,40.6349275 L28.4257971,45.1234783 L35.8469565,37.7021739 L35.1076812,36.9628986 L29.0405797,43.0298551 C28.7010145,43.3695652 28.1504348,43.3694203 27.8108696,43.03 L24.6765217,39.8956522 L23.9372464,40.6349275 Z" id="Shape" fill="#154E84"></path>
            </g>
        </g>
    </g>
</svg>