<?xml version="1.0" encoding="UTF-8"?>
<svg width="20px" height="15px" viewBox="0 0 20 15" version="1.1" xmlns="http://www.w3.org/2000/svg" xmlns:xlink="http://www.w3.org/1999/xlink">
    <!-- Generator: Sketch 64 (93537) - https://sketch.com -->
    <title></title>
    <desc>Created with Sketch.</desc>
    <g id="Web" stroke="none" stroke-width="1" fill="none" fill-rule="evenodd">
        <g id="1.12-History" transform="translate(-886.000000, -587.000000)" fill="#FFFFFF" fill-rule="nonzero">
            <g id="Group-99-Copy" transform="translate(886.000000, 587.000000)">
                <path d="M0.41742,1.21703 C3.16234,3.54168 7.9788,7.6314 9.3944,8.9066 C9.5845,9.0788 9.7883,9.1663 9.9999,9.1663 C10.2111,9.1663 10.4146,9.0796 10.6042,8.9083 C12.021,7.6318 16.8375,3.54168 19.5824,1.21703 C19.7533,1.07258 19.7794,0.81867 19.641,0.64207 C19.3212,0.23398 18.8443,0 18.3332,0 L1.6666,0 C1.15555,0 0.67863,0.23398 0.35883,0.64211 C0.22047,0.81867 0.24653,1.07258 0.41742,1.21703 Z" id="Path"></path>
                <path d="M19.7583,2.47683 C19.6106,2.40808 19.4369,2.43207 19.314,2.53707 C16.2699,5.1176 12.3848,8.4253 11.1625,9.5268 C10.4764,10.1461 9.5243,10.1461 8.8366,9.526 C7.5338,8.3521 3.17094,4.6432 0.68602,2.53703 C0.5623,2.43203 0.38816,2.40887 0.24168,2.47679 C0.09441,2.54519 0,2.6925 0,2.85484 L0,13.3334 C0,14.2526 0.74746,15 1.66668,15 L18.3334,15 C19.2525,15 20,14.2526 20,13.3334 L20,2.85484 C20,2.6925 19.9056,2.5448 19.7583,2.47683 Z" id="Path"></path>
            </g>
        </g>
    </g>
</svg>