<?xml version="1.0" encoding="UTF-8"?>
<svg width="20px" height="20px" viewBox="0 0 20 20" version="1.1" xmlns="http://www.w3.org/2000/svg" xmlns:xlink="http://www.w3.org/1999/xlink">
    <!-- Generator: sketchtool 63.1 (101010) - https://sketch.com -->
    <title></title>
    <desc>Created with sketchtool.</desc>
    <g id="Web" stroke="none" stroke-width="1" fill="none" fill-rule="evenodd">
        <g id="1.14-Global-Search-" transform="translate(-1354.000000, -806.000000)">
            <g id="Group-47" transform="translate(0.000000, 785.000000)">
                <g id="iconspace_Optimize-view" transform="translate(1364.000000, 31.000000) scale(-1, 1) translate(-1364.000000, -31.000000) translate(1350.000000, 17.000000)">
                    <circle id="Shape" cx="14" cy="14" r="14"></circle>
                    <path d="M6.125,5.25 L21.875,5.25 C22.3582492,5.25 22.75,5.64175084 22.75,6.125 L22.75,21.875 C22.75,22.3582492 22.3582492,22.75 21.875,22.75 L6.125,22.75 C5.64175084,22.75 5.25,22.3582492 5.25,21.875 L5.25,6.125 C5.25,5.64175084 5.64175084,5.25 6.125,5.25 Z" id="Shape" fill="#FFFFFF"></path>
                    <path d="M15.75,21.875 L15.75,16.625 C15.75,16.1417508 16.1417508,15.75 16.625,15.75 L21.875,15.75 C22.3582492,15.75 22.75,16.1417508 22.75,16.625 L22.75,21.875 C22.75,22.3582492 22.3582492,22.75 21.875,22.75 L16.625,22.75 C16.1417508,22.75 15.75,22.3582492 15.75,21.875 Z" id="Shape" fill="#FFC200"></path>
                    <path d="M6.125,4.8125 L21.875,4.8125 C22.5998737,4.8125 23.1875,5.40012627 23.1875,6.125 L23.1875,21.875 C23.1875,22.5998737 22.5998737,23.1875 21.875,23.1875 L6.125,23.1875 C5.40012627,23.1875 4.8125,22.5998737 4.8125,21.875 L4.8125,6.125 C4.8125,5.40012627 5.40012627,4.8125 6.125,4.8125 Z M6.125,5.6875 C5.88337542,5.6875 5.6875,5.88337542 5.6875,6.125 L5.6875,21.875 C5.6875,22.1166246 5.88337542,22.3125 6.125,22.3125 L21.875,22.3125 C22.1166246,22.3125 22.3125,22.1166246 22.3125,21.875 L22.3125,6.125 C22.3125,5.88337542 22.1166246,5.6875 21.875,5.6875 L6.125,5.6875 Z" id="Shape" fill="#154E84" fill-rule="nonzero"></path>
                    <path d="M15.3125,21.875 L15.3125,16.625 C15.3125,15.9001263 15.9001263,15.3125 16.625,15.3125 L21.875,15.3125 C22.5998737,15.3125 23.1875,15.9001263 23.1875,16.625 L23.1875,21.875 C23.1875,22.5998737 22.5998737,23.1875 21.875,23.1875 L16.625,23.1875 C15.9001263,23.1875 15.3125,22.5998737 15.3125,21.875 Z M16.1875,21.875 C16.1875,22.1166246 16.3833754,22.3125 16.625,22.3125 L21.875,22.3125 C22.1166246,22.3125 22.3125,22.1166246 22.3125,21.875 L22.3125,16.625 C22.3125,16.3833754 22.1166246,16.1875 21.875,16.1875 L16.625,16.1875 C16.3833754,16.1875 16.1875,16.3833754 16.1875,16.625 L16.1875,21.875 Z" id="Shape" fill="#154E84" fill-rule="nonzero"></path>
                    <path d="M13.7412784,14.3604122 L7.94216038,8.48887594 C7.77236945,8.31696469 7.77408831,8.03996035 7.94599955,7.87016941 C8.1179108,7.70037848 8.39491514,7.70209734 8.56470607,7.87400858 L14.3638241,13.7455448 C14.533615,13.9174561 14.5318962,14.1944604 14.3599849,14.3642514 C14.1880737,14.5340423 13.9110694,14.5323234 13.7412784,14.3604122 Z" id="Shape" fill="#52ABE2" fill-rule="nonzero"></path>
                    <path d="M8.46117164,8.30555451 L8.46117164,11.2533545 C8.46117164,11.4949791 8.26529622,11.6908545 8.02367164,11.6908545 C7.78204706,11.6908545 7.58617164,11.4949791 7.58617164,11.2533545 L7.58617164,7.86805451 C7.58617164,7.62642994 7.78204706,7.43055451 8.02367164,7.43055451 L11.4089716,7.43055451 C11.6505962,7.43055451 11.8464716,7.62642994 11.8464716,7.86805451 C11.8464716,8.10967909 11.6505962,8.30555451 11.4089716,8.30555451 L8.46117164,8.30555451 Z" id="Shape" fill="#52ABE2" fill-rule="nonzero"></path>
                </g>
            </g>
        </g>
    </g>
</svg>