<?xml version="1.0" encoding="UTF-8"?>
<svg width="24px" height="16px" viewBox="0 0 24 16" version="1.1" xmlns="http://www.w3.org/2000/svg" xmlns:xlink="http://www.w3.org/1999/xlink">
    <!-- Generator: Sketch 64 (93537) - https://sketch.com -->
    <title></title>
    <desc>Created with Sketch.</desc>
    <g id="Web" stroke="none" stroke-width="1" fill="none" fill-rule="evenodd">
        <g id="1.12-History" transform="translate(-1193.000000, -490.000000)">
            <g id="icloud" transform="translate(1185.000000, 478.000000)">
                <circle id="Oval-1-Copy-3" cx="20" cy="20" r="20"></circle>
                <path d="M26.3785714,17.7142857 C26.4114286,17.48 26.4285714,17.2414286 26.4285714,17 C26.4285714,14.2428571 24.1857143,12 21.4285714,12 C19.6585714,12 18.0242857,12.9528571 17.14,14.44 C16.6942857,14.2442857 16.2128571,14.1428571 15.7142857,14.1428571 C13.7457143,14.1428571 12.1428571,15.7457143 12.1428571,17.7142857 C12.1428571,17.7871429 12.1442857,17.8585714 12.15,17.9285714 C10.0657143,18.5328571 8.57142857,20.4728571 8.57142857,22.7142857 C8.57142857,25.4714286 10.8142857,27.7142857 13.5714286,27.7142857 L26.4285714,27.7142857 C29.1857143,27.7142857 31.4285714,25.4714286 31.4285714,22.7142857 C31.4285714,19.9414286 29.18,17.6914286 26.3785714,17.7142857 Z" id="Path" fill="#FFFFFF" fill-rule="nonzero"></path>
            </g>
        </g>
    </g>
</svg>