<?xml version="1.0" encoding="UTF-8"?>
<svg width="24px" height="16px" viewBox="0 0 24 16" version="1.1" xmlns="http://www.w3.org/2000/svg" xmlns:xlink="http://www.w3.org/1999/xlink">
    <!-- Generator: Sketch 64 (93537) - https://sketch.com -->
    <title></title>
    <desc>Created with Sketch.</desc>
    <g id="Web" stroke="none" stroke-width="1" fill="none" fill-rule="evenodd">
        <g id="1.12-History" transform="translate(-1193.000000, -780.000000)">
            <g id="Group-3-Copy-13" transform="translate(16.000000, 764.000000)">
                <g id="Group-59-Copy" transform="translate(1169.000000, 4.000000)">
                    <circle id="Oval-1-Copy-37" cx="20" cy="20" r="20"></circle>
                    <g id="onedrive" transform="translate(8.571429, 12.571429)" fill="#FFFFFF" fill-rule="nonzero">
                        <g id="Group" transform="translate(0.000000, 0.089286)">
                            <path d="M8.54058036,1.57232143 C8.25107143,1.51535714 7.95660714,1.48660714 7.66071429,1.48660714 C5.35919643,1.48660714 3.45102679,3.2028125 3.14883929,5.42272321 C1.36419643,5.72267857 0,7.27870536 0,9.14732143 C0,11.1606696 1.58366071,12.8108482 3.57066964,12.9182589 C3.48388393,12.5621875 3.4375,12.1904464 3.4375,11.8080357 C3.4375,10.7355804 3.81035714,9.68647321 4.48732143,8.85397321 C4.9321875,8.30691964 5.49544643,7.86816964 6.1259375,7.569375 C6.52571429,4.880625 8.70808036,2.76607143 11.4286161,2.46910714 L12.7679018,1.2440625 L11.4286161,0.0190178571 C10.3298661,0.218214286 9.32147321,0.757589286 8.54058036,1.57232143 Z" id="Path"></path>
                            <path d="M7.39955357,8.45982143 C7.39955357,8.48611607 7.39977679,8.51245536 7.40022321,8.53883929 C5.90125,8.87089286 4.77678571,10.210625 4.77678571,11.8080357 C4.77678571,13.6542411 6.27879464,15.15625 8.125,15.15625 L11.4285714,15.15625 L14.1071429,9.48754464 L11.4285714,3.81883929 C9.15455357,4.13991071 7.39955357,6.09861607 7.39955357,8.45982143 Z" id="Path"></path>
                        </g>
                        <g id="Group" transform="translate(11.428571, 0.000000)">
                            <path d="M8.70352679,8.60723214 C8.40816964,6.6809375 6.73977679,5.20089286 4.73214286,5.20089286 C4.48790179,5.20089286 4.24477679,5.22308036 4.0053125,5.26709821 C3.12607143,4.3690625 1.92848214,3.86160714 0.658482143,3.86160714 C0.435,3.86160714 0.215223214,3.87767857 0,3.90808036 L0,15.2455357 L8.08035714,15.2455357 C9.9265625,15.2455357 11.4285714,13.7435268 11.4285714,11.8973214 C11.4285714,10.2639732 10.2530804,8.90004464 8.70352679,8.60723214 Z" id="Path"></path>
                            <path d="M4.45732143,3.86870536 C4.54892857,3.86401786 4.64058036,3.86160714 4.73214286,3.86160714 C5.20625,3.86160714 5.67459821,3.92486607 6.12584821,4.04674107 C5.54191964,1.736875 3.44633929,0.0223214286 0.957589286,0.0223214286 C0.633169643,0.0223214286 0.312946429,0.0515625 0,0.108303571 L0,2.55834821 C0.216339286,2.53473214 0.435982143,2.52227679 0.658482143,2.52227679 C2.06209821,2.52232143 3.38794643,2.99616071 4.45732143,3.86870536 Z" id="Path"></path>
                        </g>
                    </g>
                </g>
            </g>
        </g>
    </g>
</svg>