<?xml version="1.0" encoding="UTF-8"?>
<svg width="12px" height="20px" viewBox="0 0 12 20" version="1.1" xmlns="http://www.w3.org/2000/svg" xmlns:xlink="http://www.w3.org/1999/xlink">
    <!-- Generator: Sketch 64 (93537) - https://sketch.com -->
    <title></title>
    <desc>Created with Sketch.</desc>
    <g id="Web" stroke="none" stroke-width="1" fill="none" fill-rule="evenodd">
        <g id="1.12-History" transform="translate(-890.000000, -632.000000)" fill="#FFFFFF" fill-rule="nonzero">
            <g id="Group-97-Copy-3" transform="translate(890.000000, 632.000000)">
                <path d="M10.4618,0 L1.53815,0 C0.8735,0 0.33279,0.54066 0.33279,1.205 L0.33279,2 L11.6668,2 L11.6668,1.205 C11.6668,0.54066 11.1262,0 10.4618,0 Z M7.6668,1.66668 L4.3335,1.66668 C4.1495,1.66668 4.0002,1.51734 4.0002,1.33336 C4.0002,1.14937 4.1495,1.00004 4.3335,1.00004 L7.6668,1.00004 C7.8508,1.00004 8.0001,1.14937 8.0001,1.33336 C8.0001,1.51734 7.8508,1.66668 7.6668,1.66668 Z M10.0001,1.66668 L9.6668,1.66668 C9.4828,1.66668 9.3335,1.51734 9.3335,1.33336 C9.3335,1.14937 9.4828,1.00004 9.6668,1.00004 L10.0001,1.00004 C10.1841,1.00004 10.3335,1.14937 10.3335,1.33336 C10.3335,1.51734 10.1842,1.66668 10.0001,1.66668 Z" id="Shape"></path>
                <path d="M6.4139,17.6667 L5.5862,17.6667 C5.4469,17.6667 5.3332,17.7801 5.3332,17.9198 L5.3332,18.0808 C5.3332,18.2201 5.4465,18.3334 5.5862,18.3334 L6.4139,18.3334 C6.5532,18.3334 6.66650105,18.2201 6.66650105,18.0808 L6.66650105,17.9198 C6.6669,17.7801 6.5532,17.6667 6.4139,17.6667 Z" id="Path"></path>
                <polygon id="Path" points="11.6668 2.66675 0.33353 2.66675 0.33353 16.0001 11.6668 16.0001"></polygon>
                <path d="M0.33353,16.6667 L0.33353,18.7951 C0.33353,19.4594 0.87419,20.0001 1.53853,20.0001 L10.4622,20.0001 C11.1265,20.0001 11.6672,19.4594 11.6672,18.7951 L11.6672,16.6667 L0.33353,16.6667 Z M7.3335,18.0807 C7.3335,18.5877 6.9212,19.0001 6.4142,19.0001 L5.5865,19.0001 C5.0795,19.0001 4.6669,18.5877 4.6669,18.0807 L4.6669,17.9197 C4.6669,17.4127 5.0795,17.0001 5.5865,17.0001 L6.4142,17.0001 C6.9212,17.0001 7.3335,17.4127 7.3335,17.9197 L7.3335,18.0807 Z" id="Shape"></path>
            </g>
        </g>
    </g>
</svg>