<?xml version="1.0" encoding="UTF-8"?>
<svg width="11px" height="19px" viewBox="0 0 11 19" version="1.1" xmlns="http://www.w3.org/2000/svg" xmlns:xlink="http://www.w3.org/1999/xlink">
    <!-- Generator: sketchtool 63.1 (101010) - https://sketch.com -->
    <title></title>
    <desc>Created with sketchtool.</desc>
    <g id="Web" stroke="none" stroke-width="1" fill="none" fill-rule="evenodd">
        <g id="1.3-Data-capture-Classify" transform="translate(-1401.000000, -145.000000)">
            <g id="pushpin-1" transform="translate(1392.000000, 140.000000)">
                <polygon id="Path" fill="#EFEFEF" fill-rule="nonzero" points="13.3595 21.5965 13.3595 14.4888 15.2675 14.4885 15.2674 21.5968 14.3136 23.3051"></polygon>
                <path d="M9.35126,14.4982 C9.35126,12.7823 10.74713,11.3816 12.46295,11.3758 L16.1641,11.3758 C16.9942,11.3786 17.7746,11.7035 18.3616,12.2904 C18.9514,12.8802 19.2762,13.6644 19.2761,14.4984 L19.2756,14.6172 L15.2033,14.6172 L13.4873,14.617 L13.4236,14.6175 L9.35126,14.6172 L9.35126,14.4982 Z" id="Path" fill="#FFC200" fill-rule="nonzero"></path>
                <path d="M12.39901,7.7681 L16.2282,7.7681 L16.2282,11.5039 L12.47382,11.5036 C12.47161,11.5036 12.46935,11.5036 12.46728,11.5037 L12.39895,11.5082 L12.39901,7.7681 Z" id="Path" fill="#FFFFFF" fill-rule="nonzero"></path>
                <polygon id="Path" fill="#52ABE2" fill-rule="nonzero" points="18.7274 5.63471 16.1885 7.89662 12.43875 7.89662 9.90006 5.63498"></polygon>
                <path d="M14.2083,12.7092 L11.85356,12.7092 C11.67639,12.7092 11.53276,12.8528 11.53273,13.03 C11.53273,13.1186 11.56864,13.1988 11.62669,13.2569 C11.68474,13.3149 11.76493,13.3508 11.85354,13.3508 L14.2083,13.3508 C14.3855,13.3508 14.5291,13.2072 14.5291,13.03 C14.5291,12.8528 14.3855,12.7092 14.2083,12.7092 Z" id="Path" fill="#000000" fill-rule="nonzero"></path>
                <path d="M14.8224,13.2568 C15.1143,13.5487 15.5685,13.0955 15.2761,12.8031 C14.9841,12.5112 14.53,12.9644 14.8224,13.2568 Z" id="Path" fill="#000000" fill-rule="nonzero"></path>
                <path d="M9.84166,5.92632 C9.84601,5.93067 9.85052,5.93496 9.85516,5.93907 L12.14237,7.97666 L12.14235,11.1358 C10.43494,11.3031 9.09466,12.7493 9.09466,14.4983 L9.09466,14.5532 C9.09466,14.6383 9.12845,14.72 9.1886,14.7801 C9.1886,14.7801 9.1886,14.7801 9.18862,14.7801 C9.24879,14.8403 9.33035,14.8741 9.41545,14.8741 L13.1028,14.8741 L13.1029,21.5804 C13.1029,21.6352 13.1169,21.689 13.1436,21.7368 L14.0335,23.3305 C14.0482,23.3567 14.0661,23.3802 14.0868,23.4009 C14.1461,23.4603 14.2274,23.4949 14.3137,23.4949 C14.4299,23.4949 14.5371,23.432 14.5938,23.3305 L15.4835,21.7371 C15.5102,21.6893 15.5242,21.6354 15.5242,21.5807 L15.5242,14.8741 L19.2118,14.8741 C19.3885,14.8741 19.5319,14.7312 19.5326,14.5546 L19.5329,14.4986 C19.5329,12.7494 18.1924,11.3031 16.4849,11.1357 L16.4849,7.97662 L18.7723,5.93876 C18.8717,5.85019 18.9061,5.70945 18.8587,5.58502 C18.8113,5.4606 18.692,5.37839 18.5589,5.37839 L10.06855,5.37875 C9.93539,5.37875 9.81614,5.46097 9.76872,5.58538 C9.72357,5.70397 9.75274,5.8374 9.84166,5.92632 Z M15.8432,8.15364 L15.8432,11.1194 L12.78402,11.1192 L12.78402,8.15364 L15.8432,8.15364 Z M14.8825,21.4972 L14.3136,22.5161 L13.7445,21.497 L13.7445,14.8741 L14.8825,14.8741 L14.8825,21.4972 Z M18.8785,14.2325 L15.2066,14.2326 C15.2055,14.2326 15.2045,14.2325 15.2034,14.2325 L13.4238,14.2323 C13.4207,14.2323 13.4177,14.2326 13.4146,14.2327 L9.74914,14.2325 C9.8832,12.8522 11.04951,11.766 12.46384,11.7611 L16.1532,11.761 L16.1633,11.7611 C17.5782,11.766 18.7447,12.8528 18.8785,14.2325 Z M17.7165,6.02014 L16.0419,7.51201 L12.58537,7.51201 L10.91096,6.02034 L17.7165,6.02014 Z" id="Shape" fill="#154E84" fill-rule="nonzero"></path>
                <rect id="Rectangle" x="0" y="0" width="28" height="28"></rect>
            </g>
        </g>
    </g>
</svg>