<?xml version="1.0" encoding="UTF-8"?>
<svg width="28px" height="28px" viewBox="0 0 28 28" version="1.1" xmlns="http://www.w3.org/2000/svg" xmlns:xlink="http://www.w3.org/1999/xlink">
    <title></title>
    <g id="Page-1" stroke="none" stroke-width="1" fill="none" fill-rule="evenodd">
        <g id="L11.--Subscriptions" transform="translate(-337.000000, -133.000000)">
            <g id="plus-2" transform="translate(337.000000, 133.000000)">
                <path d="M14.0001,26.9156 C21.1332,26.9156 26.9157,21.1331 26.9157,14 C26.9157,6.86696 21.1332,1.08447 14.0001,1.08447 C6.86708,1.08447 1.08459,6.86696 1.08459,14 C1.08459,21.1331 6.86708,26.9156 14.0001,26.9156 Z" id="Path" fill="#0091FF" fill-rule="nonzero"></path>
                <path d="M0,14 C0,21.7201 6.28102,28 14,28 C21.7201,28 28,21.7201 28,14 C28,6.28102 21.7201,0 14,0 C6.28102,0 0,6.28102 0,14 Z M2.1687,14.0001 C2.1687,7.47615 7.4759,2.16895 13.9998,2.16895 C20.5238,2.16895 25.831,7.47615 25.831,14.0001 C25.831,20.5229 20.5238,25.8312 13.9998,25.8312 C7.4759,25.8312 2.1687,20.524 2.1687,14.0001 Z" id="Shape" fill="#0091FF"></path>
                <path d="M14,20.4092 C13.4014,20.4092 12.9155,19.9245 12.9155,19.3248 L12.9155,8.48045 C12.9155,7.88184 13.4014,7.396 14,7.396 C14.5986,7.396 15.0844,7.88184 15.0844,8.48045 L15.0844,19.3248 C15.0844,19.9245 14.5986,20.4092 14,20.4092 Z" id="Path" fill="#FFFFFF" fill-rule="nonzero"></path>
                <path d="M19.4221,14.987 L8.57774,14.987 C7.97913,14.987 7.49329,14.5012 7.49329,13.9026 C7.49329,13.304 7.97913,12.8181 8.57774,12.8181 L19.4221,12.8181 C20.0218,12.8181 20.5065,13.304 20.5065,13.9026 C20.5065,14.5012 20.0218,14.987 19.4221,14.987 Z" id="Path" fill="#FFFFFF" fill-rule="nonzero"></path>
            </g>
        </g>
    </g>
</svg>