<?xml version="1.0" encoding="UTF-8"?>
<svg width="18px" height="18px" viewBox="0 0 18 18" version="1.1" xmlns="http://www.w3.org/2000/svg" xmlns:xlink="http://www.w3.org/1999/xlink">
    <!-- Generator: sketchtool 63.1 (101010) - https://sketch.com -->
    <title></title>
    <desc>Created with sketchtool.</desc>
    <g id="Web" stroke="none" stroke-width="1" fill="none" fill-rule="evenodd">
        <g id="1.9-Contact" transform="translate(-986.000000, -89.000000)">
            <g id="Group-2-Copy" transform="translate(981.000000, 84.000000)">
                <circle id="Shape" cx="14" cy="14" r="14"></circle>
                <g id="Group-55" transform="translate(5.600000, 5.600000)" fill-rule="nonzero">
                    <path d="M1.2,0 L12.4,0 C12.5060866,0 12.6078282,0.0421427361 12.6828427,0.117157288 L16.6828427,4.11715729 C16.7578573,4.19217184 16.8,4.2939134 16.8,4.4 L16.8,15.6 C16.8,16.2627417 16.2627417,16.8 15.6,16.8 L1.2,16.8 C0.5372583,16.8 0,16.2627417 0,15.6 L0,1.2 C0,0.5372583 0.5372583,0 1.2,0 Z" id="Shape" fill="#154E84"></path>
                    <path d="M12.2343146,0.8 L1.2,0.8 C0.9790861,0.8 0.8,0.9790861 0.8,1.2 L0.8,15.6 C0.8,15.8209139 0.9790861,16 1.2,16 L15.6,16 C15.8209139,16 16,15.8209139 16,15.6 L16,4.56568542 L12.2343146,0.8 Z" id="Shape" fill="#FFFFFF"></path>
                    <path d="M3.2,0.4 C3.2,0.1790861 3.3790861,0 3.6,0 L12,0 C12.2209139,0 12.4,0.1790861 12.4,0.4 L12.4,4.4 C12.4,4.6209139 12.2209139,4.8 12,4.8 L3.6,4.8 C3.3790861,4.8 3.2,4.6209139 3.2,4.4 L3.2,0.4 Z" id="Shape" fill="#154E84"></path>
                    <polygon id="Shape" fill="#52ABE2" points="4 0.8 4 4 11.6 4 11.6 0.8"></polygon>
                    <path d="M3.2,9.2 C3.2,8.9790861 3.3790861,8.8 3.6,8.8 L12,8.8 C12.2209139,8.8 12.4,8.9790861 12.4,9.2 L12.4,16.4 C12.4,16.6209139 12.2209139,16.8 12,16.8 L3.6,16.8 C3.3790861,16.8 3.2,16.6209139 3.2,16.4 L3.2,9.2 Z" id="Shape" fill="#154E84"></path>
                    <polygon id="Shape" fill="#FFC200" points="4 9.6 4 16 11.6 16 11.6 9.6"></polygon>
                    <polygon id="Shape" fill="#154E84" points="3.2 11.2 12.4 11.2 12.4 14.4 3.2 14.4"></polygon>
                    <polygon id="Shape" fill="#FFFFFF" points="4 12 4 13.6 11.6 13.6 11.6 12"></polygon>
                </g>
            </g>
        </g>
    </g>
</svg>