<?xml version="1.0" encoding="UTF-8"?>
<svg width="16px" height="16px" viewBox="0 0 16 16" version="1.1" xmlns="http://www.w3.org/2000/svg" xmlns:xlink="http://www.w3.org/1999/xlink">
    <title></title>
    <g id="Web" stroke="none" stroke-width="1" fill="none" fill-rule="evenodd">
        <g id="5.-Document-capture" transform="translate(-716.000000, -317.000000)">
            <g id="Group-4" transform="translate(716.000000, 317.000000)">
                <circle id="Oval" fill="#AD0C0C" cx="8" cy="8" r="8"></circle>
                <g id="clear" transform="translate(5.333333, 5.333333)" fill="#FFFFFF" fill-rule="nonzero">
                    <path d="M4.32717378,5.16072328 L2.66666667,3.50017548 L1.00615957,5.16072328 C0.775972137,5.39087002 0.402797495,5.39087002 0.172610056,5.16072328 C-0.0575366852,4.93053585 -0.0575366852,4.55736121 0.172610056,4.32717378 L1.83315786,2.66666667 L0.172610056,1.00615957 C-0.0575366852,0.775972137 -0.0575366852,0.402797495 0.172610056,0.172610056 C0.402797495,-0.0575366852 0.775972137,-0.0575366852 1.00615957,0.172610056 L2.66666667,1.83315786 L4.32717378,0.172610056 C4.55736121,-0.0575366852 4.93053585,-0.0575366852 5.16072328,0.172610056 C5.39087002,0.402797495 5.39087002,0.775972137 5.16072328,1.00615957 L3.50017548,2.66666667 L5.16072328,4.32717378 C5.39087002,4.55736121 5.39087002,4.93053585 5.16072328,5.16072328 C4.93053585,5.39087002 4.55736121,5.39087002 4.32717378,5.16072328 L4.32717378,5.16072328 Z" id="Path"></path>
                </g>
            </g>
        </g>
    </g>
</svg>