<?xml version="1.0" encoding="UTF-8"?>
<svg width="48px" height="48px" viewBox="0 0 48 48" version="1.1" xmlns="http://www.w3.org/2000/svg" xmlns:xlink="http://www.w3.org/1999/xlink">
    <!-- Generator: sketchtool 63.1 (101010) - https://sketch.com -->
    <title></title>
    <desc>Created with sketchtool.</desc>
    <g id="Web" stroke="none" stroke-width="1" fill="none" fill-rule="evenodd">
        <g id="1.3-Data-capture-Classify" transform="translate(-364.000000, -76.000000)" fill-rule="nonzero">
            <g id="Group-87" transform="translate(364.000000, 76.000000)">
                <rect id="Rectangle" fill="#52ABE2" x="0" y="0" width="48" height="48" rx="10"></rect>
                <path d="M15,14 L33,14 C33.85,14 34.5,14.65 34.5,15.5 L34.5,18.5 C34.5,19.35 33.85,20 33,20 L15,20 C14.15,20 13.5,19.35 13.5,18.5 L13.5,15.5 C13.5,14.65 14.15,14 15,14 Z" id="Path" fill="#154E84"></path>
                <path d="M15,15 C14.7,15 14.5,15.2 14.5,15.5 L14.5,18.5 C14.5,18.8 14.7,19 15,19 L33,19 C33.3,19 33.5,18.8 33.5,18.5 L33.5,15.5 C33.5,15.2 33.3,15 33,15 L15,15 Z" id="Path" fill="#FFFFFF"></path>
                <path d="M17,18 C17.5523,18 18,17.5523 18,17 C18,16.4477 17.5523,16 17,16 C16.4477,16 16,16.4477 16,17 C16,17.5523 16.4477,18 17,18 Z" id="Path" fill="#FFC200"></path>
                <path d="M20,18 C20.5523,18 21,17.5523 21,17 C21,16.4477 20.5523,16 20,16 C19.4477,16 19,16.4477 19,17 C19,17.5523 19.4477,18 20,18 Z" id="Path" fill="#FFC200"></path>
                <path d="M16,19.5 C16,19.2 16.2,19 16.5,19 L31.5,19 C31.8,19 32,19.2 32,19.5 L32,33.5 C32,33.8 31.8,34 31.5,34 L16.5,34 C16.2,34 16,33.8 16,33.5 L16,19.5 Z" id="Path" fill="#154E84"></path>
                <polygon id="Path" fill="#52ABE2" points="17 20 17 33 31 33 31 20"></polygon>
                <path d="M23,17.5 L31.5,17.5 C31.8,17.5 32,17.3 32,17 C32,16.7 31.8,16.5 31.5,16.5 L23,16.5 C22.7,16.5 22.5,16.7 22.5,17 C22.5,17.3 22.7,17.5 23,17.5 Z" id="Path" fill="#52ABE2"></path>
                <path d="M15,21 L33,21 C33.85,21 34.5,21.65 34.5,22.5 L34.5,25.5 C34.5,26.35 33.85,27 33,27 L15,27 C14.15,27 13.5,26.35 13.5,25.5 L13.5,22.5 C13.5,21.65 14.15,21 15,21 Z" id="Path" fill="#154E84"></path>
                <path d="M15,22 C14.7,22 14.5,22.2 14.5,22.5 L14.5,25.5 C14.5,25.8 14.7,26 15,26 L33,26 C33.3,26 33.5,25.8 33.5,25.5 L33.5,22.5 C33.5,22.2 33.3,22 33,22 L15,22 Z" id="Path" fill="#FFFFFF"></path>
                <path d="M17,25 C17.5523,25 18,24.5523 18,24 C18,23.4477 17.5523,23 17,23 C16.4477,23 16,23.4477 16,24 C16,24.5523 16.4477,25 17,25 Z" id="Path" fill="#FFC200"></path>
                <path d="M20,25 C20.5523,25 21,24.5523 21,24 C21,23.4477 20.5523,23 20,23 C19.4477,23 19,23.4477 19,24 C19,24.5523 19.4477,25 20,25 Z" id="Path" fill="#FFC200"></path>
                <path d="M23,24.5 L31.5,24.5 C31.8,24.5 32,24.3 32,24 C32,23.7 31.8,23.5 31.5,23.5 L23,23.5 C22.7,23.5 22.5,23.7 22.5,24 C22.5,24.3 22.7,24.5 23,24.5 Z" id="Path" fill="#52ABE2"></path>
                <path d="M15,28 L33,28 C33.85,28 34.5,28.65 34.5,29.5 L34.5,32.5 C34.5,33.35 33.85,34 33,34 L15,34 C14.15,34 13.5,33.35 13.5,32.5 L13.5,29.5 C13.5,28.65 14.15,28 15,28 Z" id="Path" fill="#154E84"></path>
                <path d="M15,29 C14.7,29 14.5,29.2 14.5,29.5 L14.5,32.5 C14.5,32.8 14.7,33 15,33 L33,33 C33.3,33 33.5,32.8 33.5,32.5 L33.5,29.5 C33.5,29.2 33.3,29 33,29 L15,29 Z" id="Path" fill="#FFFFFF"></path>
                <path d="M17,32 C17.5523,32 18,31.5523 18,31 C18,30.4477 17.5523,30 17,30 C16.4477,30 16,30.4477 16,31 C16,31.5523 16.4477,32 17,32 Z" id="Path" fill="#FFC200"></path>
                <path d="M20,32 C20.5523,32 21,31.5523 21,31 C21,30.4477 20.5523,30 20,30 C19.4477,30 19,30.4477 19,31 C19,31.5523 19.4477,32 20,32 Z" id="Path" fill="#FFC200"></path>
                <path d="M23,31.5 L31.5,31.5 C31.8,31.5 32,31.3 32,31 C32,30.7 31.8,30.5 31.5,30.5 L23,30.5 C22.7,30.5 22.5,30.7 22.5,31 C22.5,31.3 22.7,31.5 23,31.5 Z" id="Path" fill="#52ABE2"></path>
            </g>
        </g>
    </g>
</svg>