<?xml version="1.0" encoding="UTF-8"?>
<svg width="24px" height="24px" viewBox="0 0 24 24" version="1.1" xmlns="http://www.w3.org/2000/svg" xmlns:xlink="http://www.w3.org/1999/xlink">
    <!-- Generator: sketchtool 63.1 (101010) - https://sketch.com -->
    <title></title>
    <desc>Created with sketchtool.</desc>
    <g id="Web" stroke="none" stroke-width="1" fill="none" fill-rule="evenodd">
        <g id="1.7-Capture---Ungroup" transform="translate(-1101.000000, -88.000000)">
            <g id="Group-3" transform="translate(356.000000, 76.000000)">
                <g id="Icon-Copy-2" transform="translate(725.000000, 0.000000)">
                    <g id="iconspace_file" transform="translate(12.000000, 4.000000)">
                        <g id="Group-28" transform="translate(8.000000, 8.000000)">
                            <path d="M13.1428571,7.42857143 L18.4183795,7.42857143 C18.7748985,7.42857143 19.110994,7.59494845 19.3271716,7.87844988 L23.1945063,12.9501832 C23.3463362,13.1492973 23.4285714,13.3927647 23.4285714,13.6431619 L23.4285714,21.1428571 C23.4285714,22.4052223 22.4052223,23.4285714 21.1428571,23.4285714 L13.1428571,23.4285714 C11.880492,23.4285714 10.8571429,22.4052223 10.8571429,21.1428571 L10.8571429,9.71428571 C10.8571429,8.45192057 11.880492,7.42857143 13.1428571,7.42857143 Z" id="Shape" fill="#3C2828"></path>
                            <path d="M1.71428571,1.71428571 L14.8571429,1.71428571 C15.4883254,1.71428571 16,2.22596029 16,2.85714286 L16,18.8571429 C16,19.4883254 15.4883254,20 14.8571429,20 L1.71428571,20 C1.08310314,20 0.571428571,19.4883254 0.571428571,18.8571429 L0.571428571,2.85714286 C0.571428571,2.22596029 1.08310314,1.71428571 1.71428571,1.71428571 Z" id="Shape" fill="#3C2828"></path>
                            <path d="M1.71428571,1.14285714 L14.8571429,1.14285714 C15.8039167,1.14285714 16.5714286,1.910369 16.5714286,2.85714286 L16.5714286,18.8571429 C16.5714286,19.8039167 15.8039167,20.5714286 14.8571429,20.5714286 L1.71428571,20.5714286 C0.767511857,20.5714286 0,19.8039167 0,18.8571429 L0,2.85714286 C0,1.910369 0.767511857,1.14285714 1.71428571,1.14285714 Z M1.71428571,2.28571429 C1.39869443,2.28571429 1.14285714,2.54155157 1.14285714,2.85714286 L1.14285714,18.8571429 C1.14285714,19.1727341 1.39869443,19.4285714 1.71428571,19.4285714 L14.8571429,19.4285714 C15.1727341,19.4285714 15.4285714,19.1727341 15.4285714,18.8571429 L15.4285714,2.85714286 C15.4285714,2.54155157 15.1727341,2.28571429 14.8571429,2.28571429 L1.71428571,2.28571429 Z" id="Shape" fill="#F64000" fill-rule="nonzero"></path>
                            <path d="M6.28571429,0.571428571 L10.8571429,0.571428571 C11.4883254,0.571428571 12,1.08310314 12,1.71428571 L12,2.85714286 C12,3.48832543 11.4883254,4 10.8571429,4 L6.28571429,4 C5.65453171,4 5.14285714,3.48832543 5.14285714,2.85714286 L5.14285714,1.71428571 C5.14285714,1.08310314 5.65453171,0.571428571 6.28571429,0.571428571 Z" id="Shape" fill="#3C2828"></path>
                            <path d="M13.1428571,6.85714286 L18.4183795,6.85714286 C18.953158,6.85714286 19.4573012,7.10670839 19.7815676,7.53196054 L23.6489024,12.6036939 C23.8766472,12.902365 24,13.2675662 24,13.6431619 L24,21.1428571 C24,22.7208136 22.7208136,24 21.1428571,24 L13.1428571,24 C11.5649007,24 10.2857143,22.7208136 10.2857143,21.1428571 L10.2857143,9.71428571 C10.2857143,8.13632929 11.5649007,6.85714286 13.1428571,6.85714286 Z M13.1428571,8 C12.1960833,8 11.4285714,8.76751186 11.4285714,9.71428571 L11.4285714,21.1428571 C11.4285714,22.089631 12.1960833,22.8571429 13.1428571,22.8571429 L21.1428571,22.8571429 C22.089631,22.8571429 22.8571429,22.089631 22.8571429,21.1428571 L22.8571429,13.6431619 C22.8571429,13.5179633 22.8160253,13.3962296 22.7401103,13.2966725 L18.8727755,8.22493923 C18.7646868,8.08318851 18.596639,8 18.4183795,8 L13.1428571,8 Z" id="Shape" fill="#F64000" fill-rule="nonzero"></path>
                            <path d="M17.8412698,7.42857143 C18.4724524,7.42857143 18.984127,7.940246 18.984127,8.57142857 L18.984127,12.1142857 C18.984127,12.7454683 19.4958016,13.2571429 20.1269841,13.2571429 L22.2857143,13.2571429 C22.9168969,13.2571429 23.4285714,13.7688174 23.4285714,14.4 L23.4285714,22.2857143 C23.4285714,22.9168969 22.9168969,23.4285714 22.2857143,23.4285714 L12,23.4285714 C11.3688174,23.4285714 10.8571429,22.9168969 10.8571429,22.2857143 L10.8571429,8.57142857 C10.8571429,7.940246 11.3688174,7.42857143 12,7.42857143 L17.8412698,7.42857143 Z" id="Shape" fill="#3C2828"></path>
                            <path d="M6.28571429,0 L10.8571429,0 C11.8039167,0 12.5714286,0.767511857 12.5714286,1.71428571 L12.5714286,2.85714286 C12.5714286,3.80391671 11.8039167,4.57142857 10.8571429,4.57142857 L6.28571429,4.57142857 C5.33894043,4.57142857 4.57142857,3.80391671 4.57142857,2.85714286 L4.57142857,1.71428571 C4.57142857,0.767511857 5.33894043,0 6.28571429,0 Z M6.28571429,1.14285714 C5.970123,1.14285714 5.71428571,1.39869443 5.71428571,1.71428571 L5.71428571,2.85714286 C5.71428571,3.17273414 5.970123,3.42857143 6.28571429,3.42857143 L10.8571429,3.42857143 C11.1727341,3.42857143 11.4285714,3.17273414 11.4285714,2.85714286 L11.4285714,1.71428571 C11.4285714,1.39869443 11.1727341,1.14285714 10.8571429,1.14285714 L6.28571429,1.14285714 Z" id="Shape" fill="#F64000" fill-rule="nonzero"></path>
                            <path d="M19.5555556,8.57142857 L19.5555556,12.1142857 C19.5555556,12.429877 19.8113928,12.6857143 20.1269841,12.6857143 L22.2857143,12.6857143 C23.2324881,12.6857143 24,13.4532261 24,14.4 L24,22.2857143 C24,23.2324881 23.2324881,24 22.2857143,24 L12,24 C11.0532261,24 10.2857143,23.2324881 10.2857143,22.2857143 L10.2857143,8.57142857 C10.2857143,7.62465471 11.0532261,6.85714286 12,6.85714286 L17.8412698,6.85714286 C18.7880437,6.85714286 19.5555556,7.62465471 19.5555556,8.57142857 Z M12,8 C11.6844087,8 11.4285714,8.25583729 11.4285714,8.57142857 L11.4285714,22.2857143 C11.4285714,22.6013056 11.6844087,22.8571429 12,22.8571429 L22.2857143,22.8571429 C22.6013056,22.8571429 22.8571429,22.6013056 22.8571429,22.2857143 L22.8571429,14.4 C22.8571429,14.0844087 22.6013056,13.8285714 22.2857143,13.8285714 L20.1269841,13.8285714 C19.1802103,13.8285714 18.4126984,13.0610596 18.4126984,12.1142857 L18.4126984,8.57142857 C18.4126984,8.25583729 18.1568611,8 17.8412698,8 L12,8 Z" id="Shape" fill="#F64000" fill-rule="nonzero"></path>
                        </g>
                    </g>
                </g>
            </g>
        </g>
    </g>
</svg>