<?xml version="1.0" encoding="UTF-8"?>
<svg width="22px" height="24px" viewBox="0 0 22 24" version="1.1" xmlns="http://www.w3.org/2000/svg" xmlns:xlink="http://www.w3.org/1999/xlink">
    <!-- Generator: sketchtool 63.1 (101010) - https://sketch.com -->
    <title></title>
    <desc>Created with sketchtool.</desc>
    <g id="Web" stroke="none" stroke-width="1" fill="none" fill-rule="evenodd">
        <g id="1.7-Capture---Ungroup" transform="translate(-798.000000, -88.000000)">
            <g id="Group-3" transform="translate(356.000000, 76.000000)">
                <g id="Icon" transform="translate(421.000000, 0.000000)">
                    <g id="iconspace_Page-front" transform="translate(12.000000, 4.000000)">
                        <circle id="Shape" cx="20" cy="20" r="20"></circle>
                        <g id="Group-33" transform="translate(9.000000, 8.000000)">
                            <path d="M16.5714286,19.9335938 L16.5714286,21.7142857 C16.5714286,22.6610596 15.8039167,23.4285714 14.8571429,23.4285714 L2.28571429,23.4285714 C1.33894043,23.4285714 0.571428571,22.6610596 0.571428571,21.7142857 L0.571428571,5.14285714 C0.571428571,4.51167457 1.08310314,4 1.71428571,4 L5.16155134,4 L16.5714286,19.9335938 Z" id="Shape" fill="#383470"></path>
                            <path d="M8.51948052,0.571428571 L14.9939852,0.571428571 C15.4315313,0.571428571 15.8440121,0.77345781 16.1093209,1.11770955 L20.8555954,7.27624287 C21.0419321,7.51802424 21.1428571,7.81366332 21.1428571,8.11771699 L21.1428571,17.2244898 C21.1428571,18.7573618 19.8869286,20 18.3376623,20 L8.51948052,20 C6.97021421,20 5.71428571,18.7573618 5.71428571,17.2244898 L5.71428571,3.34693878 C5.71428571,1.81406682 6.97021421,0.571428571 8.51948052,0.571428571 Z" id="Shape" fill="#383470"></path>
                            <path d="M8.51948052,0 L14.9939852,0 C15.6084125,0 16.1882236,0.283986044 16.5619312,0.768890715 L21.3082057,6.92742403 C21.5714991,7.26906071 21.7142857,7.68732468 21.7142857,8.11771699 L21.7142857,17.2244898 C21.7142857,19.0743218 20.2011671,20.5714286 18.3376623,20.5714286 L8.51948052,20.5714286 C6.65597571,20.5714286 5.14285714,19.0743218 5.14285714,17.2244898 L5.14285714,3.34693878 C5.14285714,1.49710673 6.65597571,0 8.51948052,0 Z M8.51948052,1.14285714 C7.2844527,1.14285714 6.28571429,2.1310269 6.28571429,3.34693878 L6.28571429,17.2244898 C6.28571429,18.4404017 7.2844527,19.4285714 8.51948052,19.4285714 L18.3376623,19.4285714 C19.5726902,19.4285714 20.5714286,18.4404017 20.5714286,17.2244898 L20.5714286,8.11771699 C20.5714286,7.94000195 20.5123651,7.76698777 20.4029852,7.62506171 L15.6567107,1.46652839 C15.4998006,1.26292958 15.2546501,1.14285714 14.9939852,1.14285714 L8.51948052,1.14285714 Z" id="Shape" fill="#5351FB" fill-rule="nonzero"></path>
                            <path d="M14.2857143,0.571428571 C15.0603474,0.571428571 15.6883117,1.19274769 15.6883117,1.95918367 L15.6883117,6.26122449 C15.6883117,7.02766047 16.3162759,7.64897959 17.0909091,7.64897959 L19.7402597,7.64897959 C20.5148929,7.64897959 21.1428571,8.27029871 21.1428571,9.03673469 L21.1428571,18.8571429 C21.1428571,19.4883254 20.6311826,20 20,20 L6.85714286,20 C6.22596029,20 5.71428571,19.4883254 5.71428571,18.8571429 L5.71428571,1.71428571 C5.71428571,1.08310314 6.22596029,0.571428571 6.85714286,0.571428571 L14.2857143,0.571428571 Z" id="Shape" fill="#383470"></path>
                            <path d="M16,19.9335937 L16,21.7142857 C16,22.3454683 15.4883254,22.8571429 14.8571429,22.8571429 L2.28571429,22.8571429 C1.65453171,22.8571429 1.14285714,22.3454683 1.14285714,21.7142857 L1.14285714,5.14285714 C1.14285714,4.82726586 1.39869443,4.57142857 1.71428571,4.57142857 L5.16155134,4.57142857 L5.16155134,3.42857143 L1.71428571,3.42857143 C0.767511857,3.42857143 -5.03470281e-13,4.19608329 -5.03470281e-13,5.14285714 L-5.03470281e-13,21.7142857 C-5.03470281e-13,22.9766509 1.02334914,24 2.28571429,24 L14.8571429,24 C16.119508,24 17.1428571,22.9766509 17.1428571,21.7142857 L17.1428571,19.9335938 L16,19.9335937 Z" id="Shape" fill="#5351FB" fill-rule="nonzero"></path>
                            <path d="M16.2597403,1.95918367 L16.2597403,6.26122449 C16.2597403,6.71070038 16.6305144,7.07755102 17.0909091,7.07755102 L19.7402597,7.07755102 C20.8291314,7.07755102 21.7142857,7.95333863 21.7142857,9.03673469 L21.7142857,18.8571429 C21.7142857,19.8039167 20.9467739,20.5714286 20,20.5714286 L6.85714286,20.5714286 C5.910369,20.5714286 5.14285714,19.8039167 5.14285714,18.8571429 L5.14285714,1.71428571 C5.14285714,0.767511857 5.910369,0 6.85714286,0 L14.2857143,0 C15.3745859,0 16.2597403,0.87578761 16.2597403,1.95918367 Z M6.85714286,1.14285714 C6.54155157,1.14285714 6.28571429,1.39869443 6.28571429,1.71428571 L6.28571429,18.8571429 C6.28571429,19.1727341 6.54155157,19.4285714 6.85714286,19.4285714 L20,19.4285714 C20.3155913,19.4285714 20.5714286,19.1727341 20.5714286,18.8571429 L20.5714286,9.03673469 C20.5714286,8.5872588 20.2006544,8.22040816 19.7402597,8.22040816 L17.0909091,8.22040816 C16.0020374,8.22040816 15.1168831,7.34462055 15.1168831,6.26122449 L15.1168831,1.95918367 C15.1168831,1.50970778 14.7461089,1.14285714 14.2857143,1.14285714 L6.85714286,1.14285714 Z" id="Shape" fill="#5351FB" fill-rule="nonzero"></path>
                        </g>
                    </g>
                </g>
            </g>
        </g>
    </g>
</svg>