<?xml version="1.0" encoding="UTF-8"?>
<svg width="20px" height="24px" viewBox="0 0 20 24" version="1.1" xmlns="http://www.w3.org/2000/svg" xmlns:xlink="http://www.w3.org/1999/xlink">
    <!-- Generator: sketchtool 63.1 (101010) - https://sketch.com -->
    <title></title>
    <desc>Created with sketchtool.</desc>
    <g id="Web" stroke="none" stroke-width="1" fill="none" fill-rule="evenodd">
        <g id="1.7-Capture---Ungroup" transform="translate(-577.000000, -87.000000)">
            <g id="Group-3" transform="translate(356.000000, 76.000000)">
                <g id="Icon" transform="translate(203.000000, 0.000000)">
                    <g id="iconspace_File" transform="translate(8.000000, 3.000000)">
                        <circle id="Shape" cx="20" cy="20" r="20"></circle>
                        <g id="Group-30" transform="translate(10.000000, 8.000000)" fill-rule="nonzero">
                            <path d="M1.71437329,1.55288716e-05 L12.6076591,1.55288716e-05 C13.1164245,1.55288716e-05 13.5989061,0.225997832 13.9246098,0.616842272 L19.0313241,6.74489934 C19.2880598,7.0529822 19.428659,7.4413243 19.428659,7.84235831 L19.428659,22.2857298 C19.428659,23.2325037 18.6611471,24.0000155 17.7143733,24.0000155 L1.71437329,24.0000155 C0.767599431,24.0000155 8.75731701e-05,23.2325037 8.75731701e-05,22.2857298 L8.75731701e-05,1.71430124 C8.75731701e-05,0.767527386 0.767599431,1.55288716e-05 1.71437329,1.55288716e-05 Z" id="Shape" fill="#23EAA4"></path>
                            <path d="M1.71437329,1.14287267 C1.398782,1.14287267 1.14294472,1.39870996 1.14294472,1.71430124 L1.14294472,22.2857298 C1.14294472,22.6013211 1.398782,22.8571584 1.71437329,22.8571584 L17.7143733,22.8571584 C18.0299646,22.8571584 18.2858019,22.6013211 18.2858019,22.2857298 L18.2858019,7.84235831 C18.2858019,7.70868031 18.2389354,7.57923294 18.1533569,7.47653865 L13.0466427,1.34848159 C12.9380748,1.21820011 12.7772475,1.14287267 12.6076591,1.14287267 L1.71437329,1.14287267 Z" id="Shape" fill="#0F3C46"></path>
                            <path d="M12.0000883,-1.36018181e-13 C12.9468613,-1.36018181e-13 13.7143719,0.767528213 13.7143719,1.71430107 L13.7143733,6.28572981 C13.7143733,6.6013211 13.9702106,6.85715839 14.2858019,6.85715839 L17.7143733,6.85715839 C18.6611471,6.85715839 19.428659,7.62467024 19.428659,8.5714441 L19.428659,22.2857298 C19.428659,23.2325037 18.6611471,24.0000155 17.7143733,24.0000155 L1.71428713,24.0000155 C0.767513269,24.0000155 -3.39030391e-13,23.2325037 -3.39030391e-13,22.2857299 L-3.39030391e-13,1.71428571 C-3.39030391e-13,0.76751153 0.767512185,-1.36018181e-13 1.71428713,-1.36018181e-13 L12.0000883,-1.36018181e-13 Z" id="Shape" fill="#23EAA4"></path>
                            <path d="M1.14285714,1.71428568 L1.14285714,22.2857298 C1.14285714,22.6013211 1.39869584,22.8571584 1.71428713,22.8571584 L17.7143733,22.8571584 C18.0299646,22.8571584 18.2858019,22.6013211 18.2858019,22.2857298 L18.2858019,8.5714441 C18.2858019,8.25585281 18.0299646,8.00001553 17.7143733,8.00001553 L14.2858019,8.00001553 C13.339028,8.00001553 12.5715161,7.23250367 12.5715161,6.28572999 L12.5715147,1.71430124 C12.5715147,1.39871023 12.3156779,1.14285714 12.0000868,1.14285714 L1.71428634,1.14285714 C1.39869454,1.14285714 1.14285714,1.39869432 1.14285714,1.71428568 Z" id="Shape" fill="#0F3C46"></path>
                            <path d="M4.00008757,8.92858696 L9.71437329,8.92858696 C10.0299646,8.92858696 10.2858019,8.59280052 10.2858019,8.17858696 C10.2858019,7.7643734 10.0299646,7.42858696 9.71437329,7.42858696 L4.00008757,7.42858696 C3.68449629,7.42858696 3.428659,7.7643734 3.428659,8.17858696 C3.428659,8.59280052 3.68449629,8.92858696 4.00008757,8.92858696 Z" id="Shape" fill="#23EAA4"></path>
                            <path d="M4.00008757,6.0714441 L9.71437329,6.0714441 C10.0299646,6.0714441 10.2858019,5.73565766 10.2858019,5.3214441 C10.2858019,4.90723054 10.0299646,4.5714441 9.71437329,4.5714441 L4.00008757,4.5714441 C3.68449629,4.5714441 3.428659,4.90723054 3.428659,5.3214441 C3.428659,5.73565766 3.68449629,6.0714441 4.00008757,6.0714441 Z" id="Shape" fill="#23EAA4"></path>
                            <path d="M4.00008757,14.6428727 L15.428659,14.6428727 C15.7442503,14.6428727 16.0000876,14.3070862 16.0000876,13.8928727 C16.0000876,13.4786591 15.7442503,13.1428727 15.428659,13.1428727 L4.00008757,13.1428727 C3.68449629,13.1428727 3.428659,13.4786591 3.428659,13.8928727 C3.428659,14.3070862 3.68449629,14.6428727 4.00008757,14.6428727 Z" id="Shape" fill="#23EAA4"></path>
                            <path d="M4.00008757,17.5000155 L15.428659,17.5000155 C15.7442503,17.5000155 16.0000876,17.1642291 16.0000876,16.7500155 C16.0000876,16.335802 15.7442503,16.0000155 15.428659,16.0000155 L4.00008757,16.0000155 C3.68449629,16.0000155 3.428659,16.335802 3.428659,16.7500155 C3.428659,17.1642291 3.68449629,17.5000155 4.00008757,17.5000155 Z" id="Shape" fill="#23EAA4"></path>
                            <path d="M4.00008757,11.7857298 L15.428659,11.7857298 C15.7442503,11.7857298 16.0000876,11.4499434 16.0000876,11.0357298 C16.0000876,10.6215163 15.7442503,10.2857298 15.428659,10.2857298 L4.00008757,10.2857298 C3.68449629,10.2857298 3.428659,10.6215163 3.428659,11.0357298 C3.428659,11.4499434 3.68449629,11.7857298 4.00008757,11.7857298 Z" id="Shape" fill="#23EAA4"></path>
                            <path d="M4.00008757,20.3571584 L15.428659,20.3571584 C15.7442503,20.3571584 16.0000876,20.0213719 16.0000876,19.6071584 C16.0000876,19.1929448 15.7442503,18.8571584 15.428659,18.8571584 L4.00008757,18.8571584 C3.68449629,18.8571584 3.428659,19.1929448 3.428659,19.6071584 C3.428659,20.0213719 3.68449629,20.3571584 4.00008757,20.3571584 Z" id="Shape" fill="#23EAA4"></path>
                        </g>
                    </g>
                </g>
            </g>
        </g>
    </g>
</svg>