<?xml version="1.0" encoding="UTF-8"?>
<svg width="16px" height="15px" viewBox="0 0 16 15" version="1.1" xmlns="http://www.w3.org/2000/svg" xmlns:xlink="http://www.w3.org/1999/xlink">
    <!-- Generator: sketchtool 64 (101010) - https://sketch.com -->
    <title></title>
    <desc>Created with sketchtool.</desc>
    <g id="Web" stroke="none" stroke-width="1" fill="none" fill-rule="evenodd">
        <g id="8.-Data-capture--Popup" transform="translate(-39.000000, -160.000000)" fill-rule="nonzero">
            <g id="warning" transform="translate(39.000000, 160.000000)">
                <path d="M10.0918438,1.2388125 L15.677375,10.9132813 C15.8822187,11.2680625 16,11.679375 16,12.1184687 C16,13.4519063 14.919,14.5329688 13.5855,14.5329688 L8,14.5329688 L6.06840625,7.28125 L8,0.0295625 C8.894375,0.0295625 9.67459375,0.51621875 10.0918438,1.2388125 Z" id="Path" fill="#3B4145"></path>
                <path d="M5.90815625,1.2388125 L0.32259375,10.9132813 C0.11778125,11.2680625 0,11.679375 0,12.1184687 C0,13.4519063 1.081,14.5329688 2.4145,14.5329688 L8,14.5329688 L8,0.0295625 C7.105625,0.0295625 6.32540625,0.51621875 5.90815625,1.2388125 Z" id="Path" fill="#525A61"></path>
                <path d="M14.8410312,11.3961875 L9.25553125,1.7218125 C9.00378125,1.28559375 8.5415,1.01034375 8.04153125,0.9961875 L12.8186875,13.5672812 L13.5855312,13.5672812 C14.38425,13.5672812 15.0342187,12.9173437 15.0342187,12.1185937 C15.0342187,11.8649063 14.96725,11.6150937 14.8410312,11.3961875 Z" id="Path" fill="#FFB751"></path>
                <path d="M13.9016563,11.3961875 C14.0107813,11.6150937 14.0684063,11.8649063 14.0684063,12.1185937 C14.0684063,12.9173125 13.5079375,13.5672813 12.8186563,13.5672813 L2.4145,13.5672813 C1.61578125,13.5672813 0.9658125,12.9173125 0.9658125,12.1185937 C0.9658125,11.8649063 1.03278125,11.6150937 1.15896875,11.3961875 L6.74446875,1.7218125 C7.0033125,1.2736875 7.48428125,0.99521875 8,0.99521875 C8.01384375,0.99521875 8.0276875,0.99553125 8.04153125,0.9961875 C8.47065625,1.0129375 8.86696875,1.28753125 9.08296875,1.7218125 L13.9016563,11.3961875 Z" id="Path" fill="#FFD764"></path>
                <path d="M8,10.3478437 L8,11.9575 C8.44459375,11.9575 8.80484375,11.59725 8.80484375,11.1526562 C8.80484375,10.7080937 8.44459375,10.3478437 8,10.3478437 Z" id="Path" fill="#3B4145"></path>
                <path d="M8,10.3478437 C8.08884375,10.3478437 8.16096875,10.7080937 8.16096875,11.1526875 C8.16096875,11.5972812 8.08884375,11.9575312 8,11.9575312 C7.55540625,11.9575312 7.19515625,11.5972812 7.19515625,11.1526875 C7.19515625,10.7080937 7.55540625,10.3478437 8,10.3478437 Z" id="Path" fill="#525A61"></path>
                <path d="M8,3.4264375 L8,9.3821875 C8.44459375,9.3821875 8.80484375,9.021625 8.80484375,8.57734375 L8.80484375,4.23128125 C8.80484375,3.7866875 8.44459375,3.4264375 8,3.4264375 Z" id="Path" fill="#3B4145"></path>
                <path d="M8,3.4264375 C8.08884375,3.4264375 8.16096875,3.7866875 8.16096875,4.23128125 L8.16096875,8.57734375 C8.16096875,9.02159375 8.08884375,9.3821875 8,9.3821875 C7.55540625,9.3821875 7.19515625,9.021625 7.19515625,8.57734375 L7.19515625,4.23128125 C7.19515625,3.7866875 7.55540625,3.4264375 8,3.4264375 Z" id="Path" fill="#525A61"></path>
            </g>
        </g>
    </g>
</svg>