<?xml version="1.0" encoding="UTF-8"?>
<svg width="70px" height="70px" viewBox="0 0 70 70" version="1.1" xmlns="http://www.w3.org/2000/svg" xmlns:xlink="http://www.w3.org/1999/xlink">
    <title>5C51DD22-15FC-4910-9CA5-FAEB14071282</title>
    <g id="Page-2" stroke="none" stroke-width="1" fill="none" fill-rule="evenodd">
        <g id="L28.-Drive" transform="translate(-56.000000, -810.000000)">
            <g id="Group-2" transform="translate(32.000000, 775.000000)">
                <g id="Group-49" transform="translate(24.000000, 35.000000)">
                    <circle id="Shape" fill="#F9C970" cx="35" cy="35" r="35"></circle>
                    <path d="M35,57.96875 C38.0203072,57.96875 40.46875,55.5203072 40.46875,52.5 C40.46875,49.4796928 38.0203072,47.03125 35,47.03125 C31.9796928,47.03125 29.53125,49.4796928 29.53125,52.5 C29.53125,55.5203072 31.9796928,57.96875 35,57.96875 Z" id="Shape" fill="#154E84" fill-rule="nonzero"></path>
                    <path d="M35,55.78125 C33.1878157,55.78125 31.71875,54.3121843 31.71875,52.5 C31.71875,50.6878157 33.1878157,49.21875 35,49.21875 C36.8121843,49.21875 38.28125,50.6878157 38.28125,52.5 C38.28125,54.3121843 36.8121843,55.78125 35,55.78125 Z" id="Shape" fill="#FFC200" fill-rule="nonzero"></path>
                    <polygon id="Shape" fill="#154E84" fill-rule="nonzero" points="33.9716721 41.5737152 33.9716721 48.1362152 36.1591721 48.1362152 36.1591721 41.5737152"></polygon>
                    <path d="M29.5966721,51.4174652 L20.8466721,51.4174652 C20.2426106,51.4174652 19.7529221,51.9071538 19.7529221,52.5112152 C19.7529221,53.1152767 20.2426106,53.6049652 20.8466721,53.6049652 L29.5966721,53.6049652 C30.2007335,53.6049652 30.6904221,53.1152767 30.6904221,52.5112152 C30.6904221,51.9071538 30.2007335,51.4174652 29.5966721,51.4174652 Z" id="Shape" fill="#154E84" fill-rule="nonzero"></path>
                    <path d="M49.2841721,51.4174652 L40.5341721,51.4174652 C39.9301106,51.4174652 39.4404221,51.9071538 39.4404221,52.5112152 C39.4404221,53.1152767 39.9301106,53.6049652 40.5341721,53.6049652 L49.2841721,53.6049652 C49.8882335,53.6049652 50.3779221,53.1152767 50.3779221,52.5112152 C50.3779221,51.9071538 49.8882335,51.4174652 49.2841721,51.4174652 Z" id="Shape" fill="#154E84" fill-rule="nonzero"></path>
                    <g id="Group-47" transform="translate(18.593750, 12.031250)">
                        <path d="M2.34375,2.34375 L30.46875,2.34375 C31.7631674,2.34375 32.8125,3.39308262 32.8125,4.6875 L32.8125,23.4375 C32.8125,24.7319174 31.7631674,25.78125 30.46875,25.78125 L2.34375,25.78125 C1.04933262,25.78125 0,24.7319174 0,23.4375 L0,4.6875 C0,3.39308262 1.04933262,2.34375 2.34375,2.34375 Z" id="Shape" fill="#154E84" fill-rule="nonzero"></path>
                        <path d="M2.34375,3.90625 C1.91227754,3.90625 1.5625,4.25602754 1.5625,4.6875 L1.5625,23.4375 C1.5625,23.8689725 1.91227754,24.21875 2.34375,24.21875 L30.46875,24.21875 C30.9002225,24.21875 31.25,23.8689725 31.25,23.4375 L31.25,4.6875 C31.25,4.25602754 30.9002225,3.90625 30.46875,3.90625 L2.34375,3.90625 Z" id="Shape" fill="#52ABE2" fill-rule="nonzero"></path>
                        <path d="M2.78125,0.78125 L8.1515001,0.78125 C8.70653848,0.78125 9.23661596,1.01190233 9.6149347,1.41803352 L14.2505743,6.39446648 C14.6288931,6.80059767 15.1589706,7.03125 15.7140089,7.03125 L32.03125,7.03125 L32.03125,7.03125 L32.03125,26.90625 C32.03125,28.0108195 31.1358195,28.90625 30.03125,28.90625 L2.78125,28.90625 C1.6766805,28.90625 0.78125,28.0108195 0.78125,26.90625 L0.78125,2.78125 C0.78125,1.6766805 1.6766805,0.78125 2.78125,0.78125 Z" id="Shape" fill="#FFC200"></path>
                        <path d="M2.78125,0.78125 L8.1515001,0.78125 C8.70653848,0.78125 9.23661596,1.01190233 9.6149347,1.41803352 L14.2505743,6.39446648 C14.6288931,6.80059767 15.1589706,7.03125 15.7140089,7.03125 L32.03125,7.03125 L32.03125,7.03125 L32.03125,23.78125 C32.03125,24.8858195 31.1358195,25.78125 30.03125,25.78125 L2.78125,25.78125 C1.6766805,25.78125 0.78125,24.8858195 0.78125,23.78125 L0.78125,2.78125 C0.78125,1.6766805 1.6766805,0.78125 2.78125,0.78125 Z" id="Shape" fill="#FFFFFF"></path>
                        <text id="FTP" font-family="Roboto-Black, Roboto" font-size="12" font-weight="700" fill="#030D3C">
                            <tspan x="5.46875" y="21.5">FTP</tspan>
                        </text>
                        <path d="M2.34375,0 L8.34186924,0 C8.99230484,0 9.61348939,0.270295702 10.0568317,0.746230685 L14.9519857,6.00125644 C15.0997664,6.15990143 15.3068279,6.25 15.5236398,6.25 L32.03125,6.25 C32.4627225,6.25 32.8125,6.59977754 32.8125,7.03125 L32.8125,27.34375 C32.8125,28.6381674 31.7631674,29.6875 30.46875,29.6875 L2.34375,29.6875 C1.04933262,29.6875 0,28.6381674 0,27.34375 L0,2.34375 C0,1.04933262 1.04933262,0 2.34375,0 Z M31.25,7.8125 L15.5236398,7.8125 C14.8732042,7.8125 14.2520196,7.5422043 13.8086774,7.06626931 L8.91352338,1.81124356 C8.76574262,1.65259857 8.55868111,1.5625 8.34186924,1.5625 L2.34375,1.5625 C1.91227754,1.5625 1.5625,1.91227754 1.5625,2.34375 L1.5625,27.34375 C1.5625,27.7752225 1.91227754,28.125 2.34375,28.125 L30.46875,28.125 C30.9002225,28.125 31.25,27.7752225 31.25,27.34375 L31.25,7.8125 Z" id="Shape" fill="#154E84" fill-rule="nonzero"></path>
                    </g>
                </g>
            </g>
        </g>
    </g>
</svg>