<?xml version="1.0" encoding="UTF-8"?>
<svg width="12px" height="12px" viewBox="0 0 12 12" version="1.1" xmlns="http://www.w3.org/2000/svg" xmlns:xlink="http://www.w3.org/1999/xlink">
    <title></title>
    <defs>
        <path d="M6,0 C9.3137085,0 12,2.6862915 12,6 C12,9.3137085 9.3137085,12 6,12 C2.6862915,12 0,9.3137085 0,6 C0,2.6862915 2.6862915,0 6,0 Z M4.05819047,4.05809744 C3.79728928,4.31789414 3.79639392,4.74000317 4.05619062,5.00090436 L5.061,6.009 L4.07795341,6.99907777 C3.81838709,7.26020815 3.819655,7.68231623 4.08078538,7.94188256 C4.34191576,8.20144889 4.76402384,8.20018097 5.02359017,7.93905059 L6.002,6.954 L6.96163139,7.91869716 C7.22142809,8.17959835 7.64353713,8.18049371 7.90443831,7.92069701 C8.1653395,7.66090031 8.16623486,7.23879127 7.90643816,6.97789009 L6.941,6.009 L7.92999426,5.01513357 C8.18956059,4.75400319 8.18829267,4.33189511 7.92716229,4.07232878 C7.66603192,3.81276245 7.24392383,3.81403037 6.98435751,4.07516075 L6,5.064 L5.00099739,4.06009729 C4.74120069,3.7991961 4.31909165,3.79830074 4.05819047,4.05809744 Z" id="path-1"></path>
    </defs>
    <g id="Page-1" stroke="none" stroke-width="1" fill="none" fill-rule="evenodd">
        <g id="L1.-Global-search-" transform="translate(-185.000000, -840.000000)">
            <g id="Group-70" transform="translate(0.000000, 838.000000)">
                <g id="standard/action/cross-circle" transform="translate(185.000000, 2.000000)">
                    <mask id="mask-2" fill="white">
                        <use xlink:href="#path-1"></use>
                    </mask>
                    <use id="Combined-Shape" fill="#42526E" xlink:href="#path-1"></use>
                    <g id="↳-🎨Color" mask="url(#mask-2)" fill="#BF2600">
                        <g transform="translate(-2.000000, -2.000000)" id="R500">
                            <rect x="0" y="0" width="16" height="16"></rect>
                        </g>
                    </g>
                </g>
            </g>
        </g>
    </g>
</svg>