<?xml version="1.0" encoding="UTF-8"?>
<svg width="43px" height="31px" viewBox="0 0 43 31" version="1.1" xmlns="http://www.w3.org/2000/svg" xmlns:xlink="http://www.w3.org/1999/xlink">
    <title></title>
    <g id="Page-1" stroke="none" stroke-width="1" fill="none" fill-rule="evenodd">
        <path d="M40.4497501,5.9343673 C39.7735835,5.54028397 39.0048335,5.33295063 38.2221668,5.33345063 L17.6710835,5.33345063 C16.5289168,5.33028397 15.5141668,4.6038673 15.1430835,3.52370063 L14.9920001,3.0366173 C14.3803335,1.22603397 12.6844168,0.00536729966 10.7733335,0 L4.44441682,0 C3.68066682,-0.00721603367 2.92908348,0.1911173 2.26841682,0.574450633 C0.867333483,1.35853397 0,2.83895063 0,4.4446173 L0,25.7779506 C0,28.232534 1.98983348,30.2223673 4.44441682,30.2223673 L38.2221668,30.2223673 C40.6767501,30.2223673 42.6666101,28.232534 42.6666101,25.7779506 L42.6666101,9.77795063 C42.6720835,8.19145063 41.8257501,6.7241173 40.4497501,5.9343673 Z" id="Path" fill="#5EB700" fill-rule="nonzero"></path>
    </g>
</svg>