<?xml version="1.0" encoding="UTF-8"?>
<svg width="41px" height="32px" viewBox="0 0 41 32" version="1.1" xmlns="http://www.w3.org/2000/svg" xmlns:xlink="http://www.w3.org/1999/xlink">
    <title>E9C91562-45F6-4763-BA30-A3DC7B070F62</title>
    <g id="Page-1" stroke="none" stroke-width="1" fill="none" fill-rule="evenodd">
        <g id="L2.2-Global-search-" transform="translate(-571.000000, -783.000000)" fill-rule="nonzero">
            <g id="folder-(1)" transform="translate(571.000000, 783.000000)">
                <path d="M32.2253913,31.9791304 L1.08869565,31.9791304 C0.372173913,31.9791304 -0.148869565,31.2987826 0.0382608696,30.6066087 L7.11026087,11.218087 C7.23826087,10.7436522 7.66886957,10.413913 8.16069565,10.413913 L39.2973913,10.413913 C40.013913,10.413913 40.3478261,11.0984348 40.3478261,11.7864348 L33.2758261,31.1749565 C33.1478261,31.6493913 32.7172174,31.9791304 32.2253913,31.9791304 Z" id="Path" fill="#FFC107"></path>
                <path d="M34.9690435,5.2173913 L17.3913043,5.2173913 L13.9130435,0.347826087 L1.20486957,0.347826087 C0.539826087,0.347826087 0,0.886956522 0,1.55269565 L0,31.2765217 C0.048,31.277913 0.096,31.2806957 0.142608696,31.2834783 L7.10956522,12.2824348 C7.23756522,11.8073043 7.66817391,11.4782609 8.16,11.4782609 L36.173913,11.4782609 L36.173913,6.42226087 C36.173913,5.75652174 35.634087,5.2173913 34.9690435,5.2173913 Z" id="Path" fill="#F8E71C"></path>
            </g>
        </g>
    </g>
</svg>