<?xml version="1.0" encoding="UTF-8"?>
<svg width="28px" height="28px" viewBox="0 0 28 28" version="1.1" xmlns="http://www.w3.org/2000/svg" xmlns:xlink="http://www.w3.org/1999/xlink">
    <title></title>
    <g id="Page-1" stroke="none" stroke-width="1" fill="none" fill-rule="evenodd">
        <g id="L6.-Data-capture-Classify" transform="translate(-474.000000, -128.000000)">
            <g id="Group-125" transform="translate(474.000000, 128.000000)">
                <g id="Group">
                    <rect id="Rectangle" x="0" y="0" width="28" height="28"></rect>
                    <path d="M20.3633,17.6914 L13.9648,17.6914 C13.6734,17.6914 13.4375,17.4555 13.4375,17.1641 C13.4375,16.8726 13.6734,16.6367 13.9648,16.6367 L20.3633,16.6367 C20.6548,16.6367 20.8906,16.8726 20.8906,17.1641 C20.8906,17.4555 20.6548,17.6914 20.3633,17.6914 Z" id="Path" fill="#1689FC" fill-rule="nonzero"></path>
                    <path d="M17.1992,15.582 L13.9648,15.582 C13.6734,15.582 13.4375,15.3462 13.4375,15.0547 C13.4375,14.7632 13.6734,14.5273 13.9648,14.5273 L16.8733,14.5273 L17.7822,12.7094 C17.8718,12.5308 18.0541,12.418 18.2539,12.418 L20.3633,12.418 C20.6548,12.418 20.8906,12.6538 20.8906,12.9453 C20.8906,13.2368 20.6548,13.4727 20.3633,13.4727 L18.5799,13.4727 L17.6709,15.2906 C17.5813,15.4693 17.399,15.582 17.1992,15.582 Z" id="Path" fill="#1689FC" fill-rule="nonzero"></path>
                    <path d="M20.3633,21.9102 L18.2539,21.9102 C18.0541,21.9102 17.8718,21.7974 17.7822,21.6187 L16.8733,19.8008 L13.9648,19.8008 C13.6734,19.8008 13.4375,19.5649 13.4375,19.2734 C13.4375,18.982 13.6734,18.7461 13.9648,18.7461 L17.1992,18.7461 C17.399,18.7461 17.5813,18.8589 17.6709,19.0376 L18.5799,20.8555 L20.3633,20.8555 C20.6548,20.8555 20.8906,21.0913 20.8906,21.3828 C20.8906,21.6743 20.6548,21.9102 20.3633,21.9102 Z" id="Path" fill="#1689FC" fill-rule="nonzero"></path>
                    <path d="M16.1445,12.418 L15.0195,12.418 C14.7281,12.418 14.4922,12.1821 14.4922,11.8906 C14.4922,11.5991 14.7281,11.3633 15.0195,11.3633 L15.8623,11.3633 L17.8152,8.43406 C17.913,8.28729 18.0778,8.19922 18.2539,8.19922 L20.3633,8.19922 C20.6548,8.19922 20.8906,8.43508 20.8906,8.72656 C20.8906,9.01804 20.6548,9.25391 20.3633,9.25391 L18.5361,9.25391 L16.5833,12.1831 C16.4854,12.3299 16.3207,12.418 16.1445,12.418 Z" id="Path" fill="#1689FC" fill-rule="nonzero"></path>
                    <path d="M21.418,10.30859 C20.5456,10.30859 19.8359,9.59893 19.8359,8.72656 C19.8359,7.8542 20.5456,7.14453 21.418,7.14453 C22.2903,7.14453 23,7.8542 23,8.72656 C23,9.59893 22.2903,10.30859 21.418,10.30859 Z" id="Path" stroke="#154E84" stroke-width="0.7" fill="#FFC200" fill-rule="nonzero"></path>
                    <path d="M21.418,14.5273 C20.5456,14.5273 19.8359,13.8177 19.8359,12.9453 C19.8359,12.0729 20.5456,11.3633 21.418,11.3633 C22.2903,11.3633 23,12.0729 23,12.9453 C23,13.8177 22.2903,14.5273 21.418,14.5273 Z" id="Path" stroke="#154E84" stroke-width="0.7" fill="#FFC200" fill-rule="nonzero"></path>
                    <path d="M21.418,18.7461 C20.5456,18.7461 19.8359,18.0364 19.8359,17.1641 C19.8359,16.2917 20.5456,15.582 21.418,15.582 C22.2903,15.582 23,16.2917 23,17.1641 C23,18.0364 22.2903,18.7461 21.418,18.7461 Z" id="Path" stroke="#154E84" stroke-width="0.7" fill="#FFC200" fill-rule="nonzero"></path>
                    <path d="M21.418,23 C20.5456,23 19.8359,22.2552 19.8359,21.3828 C19.8359,20.5104 20.5456,19.8008 21.418,19.8008 C22.2903,19.8008 23,20.5104 23,21.3828 C23,22.2552 22.2903,23 21.418,23 Z" id="Path" stroke="#154E84" stroke-width="0.7" fill="#FFC200" fill-rule="nonzero"></path>
                    <path d="M9.7461,5 C7.1305,5 5,7.16559 5,9.78125 C5,11.3527 5.80156,12.8293 7.10938,13.7047 L7.10938,20.3281 C7.10938,20.4652 7.16211,20.6023 7.26761,20.6972 L9.377,22.8418 C9.4719,22.9473 9.609,23 9.7461,23 C9.8832,23 10.0203,22.9473 10.1152,22.8418 L12.2246,20.6972 C12.4355,20.4968 12.4355,20.1593 12.2246,19.9589 L11.5496,19.2734 L12.2246,18.5879 C12.4355,18.3875 12.4355,18.05 12.2246,17.8496 L11.5496,17.1641 L12.2246,16.4785 C12.3301,16.3836 12.3828,16.2465 12.3828,16.1094 L12.3828,13.7047 C13.6906,12.8293 14.4922,11.3527 14.4922,9.78125 C14.4922,7.16559 12.3617,5 9.7461,5 Z M9.7461,10.30859 C8.87067,10.30859 8.16406,9.60192 8.16406,8.72656 C8.16406,7.85114 8.87067,7.14453 9.7461,7.14453 C10.6215,7.14453 11.3281,7.85114 11.3281,8.72656 C11.3281,9.60192 10.6215,10.30859 9.7461,10.30859 Z" id="Shape" stroke="#154E84" stroke-width="0.7" fill="#52ABE2" fill-rule="nonzero"></path>
                    <path d="M14.4922,9.78125 C14.4922,11.3527 13.6906,12.8293 12.3828,13.7047 L12.3828,16.1094 C12.3828,16.2465 12.3301,16.3836 12.2246,16.4785 L11.5496,17.1641 L12.2246,17.8496 C12.4355,18.05 12.4355,18.3875 12.2246,18.5879 L11.5496,19.2734 L12.2246,19.9589 C12.4355,20.1593 12.4355,20.4968 12.2246,20.6972 L10.1152,22.8418 C10.0203,22.9473 9.8832,23 9.7461,23 L9.7461,10.30859 C10.6215,10.30859 11.3281,9.60192 11.3281,8.72656 C11.3281,7.85114 10.6215,7.14453 9.7461,7.14453 L9.7461,5 C12.3617,5 14.4922,7.16559 14.4922,9.78125 Z" id="Path" stroke="#154E84" stroke-width="0.7" fill="#FFFFFF" fill-rule="nonzero"></path>
                </g>
            </g>
        </g>
    </g>
</svg>