<?xml version="1.0" encoding="UTF-8"?>
<svg width="6px" height="11px" viewBox="0 0 6 11" version="1.1" xmlns="http://www.w3.org/2000/svg" xmlns:xlink="http://www.w3.org/1999/xlink">
    <title></title>
    <g id="Page-1" stroke="none" stroke-width="1" fill="none" fill-rule="evenodd" fill-opacity="0.1">
        <g id="L12.1-Data-capture-Color" transform="translate(-1110.000000, -192.000000)" fill="#000000" fill-rule="nonzero">
            <g id="Group-10-Copy" transform="translate(1098.000000, 181.000000)">
                <g id="arrow-point-to-right-copy" transform="translate(15.000000, 16.500000) scale(-1, 1) translate(-15.000000, -16.500000) translate(12.000000, 11.000000)">
                    <path d="M5.77447674,5.77423837 L1.25617442,10.2924012 C0.968755814,10.5799593 0.502755814,10.5799593 0.215476744,10.2924012 C-0.0718255814,10.0050988 -0.0718255814,9.53912209 0.215476744,9.25184302 L4.21347674,5.2539593 L0.215593023,1.25621512 C-0.0717093023,0.968796512 -0.0717093023,0.502866279 0.215593023,0.215563953 C0.502895349,-0.0718546512 0.968872093,-0.0718546512 1.2562907,0.215563953 L5.77459302,4.73379651 C5.91824419,4.87751744 5.98998837,5.06568023 5.98998837,5.25393605 C5.98998837,5.44228488 5.91810465,5.63058721 5.77447674,5.77423837 Z" id="Path"></path>
                </g>
            </g>
        </g>
    </g>
</svg>