<?xml version="1.0" encoding="UTF-8"?>
<svg width="28px" height="28px" viewBox="0 0 28 28" version="1.1" xmlns="http://www.w3.org/2000/svg" xmlns:xlink="http://www.w3.org/1999/xlink">
    <title>iconspace_Planet_6</title>
    <g id="Page-1" stroke="none" stroke-width="1" fill="none" fill-rule="evenodd">
        <g id="Space" transform="translate(-448.000000, -192.000000)">
            <g id="iconspace_Planet_6" transform="translate(448.000000, 192.000000)">
                <circle id="Shape" cx="14" cy="14" r="14"></circle>
                <circle id="Shape" fill="#FFFFFF" cx="14" cy="14" r="8.75"></circle>
                <path d="M17.761792,6.09765154 C20.7116179,7.50438577 22.75,10.5141481 22.75,14 C22.75,16.5744529 21.6381719,18.8892245 19.8684868,20.4903436 C19.8954939,20.3660198 19.9240546,20.2414214 19.954169,20.1165485 C20.6656253,17.1664143 19.1044844,15.2418575 16.2090742,16.2237892 C13.313664,17.2057209 13.5103822,13.2125721 15.3817678,13.2125721 C17.2531535,13.2125721 17.6250682,12.2289982 17.6751206,11.6788654 C17.7251731,11.1287327 17.8035748,10.4471684 15.6788375,9.63160896 C13.5541002,8.81604958 15.0648381,6.27042389 17.3896295,6.125 C17.514996,6.11715788 17.6390501,6.10804173 17.761792,6.09765154 L17.761792,6.09765154 Z" id="Shape" fill="#52ABE2"></path>
                <path d="M10.8010448,22.1467906 C7.55083019,20.8695453 5.25,17.7034665 5.25,14 C5.25,11.1495165 6.61302805,8.61738526 8.72287385,7.01981659 C10.8949896,9.18255826 9.68801737,10.1677761 8.44255698,11.3412609 C7.19329897,12.5183239 8.07404035,14.3909302 10.4200104,15.0543633 C12.7659804,15.7177963 12.7604103,17.8721848 10.9508763,19.186367 C9.74452034,20.0624886 9.64043655,20.9586995 10.638625,21.875 L10.8010448,22.1467906 L10.8010448,22.1467906 Z" id="Shape" fill="#FFC200"></path>
                <path d="M14,23.1875 C19.0741161,23.1875 23.1875,19.0741161 23.1875,14 C23.1875,8.92588386 19.0741161,4.8125 14,4.8125 C8.92588386,4.8125 4.8125,8.92588386 4.8125,14 C4.8125,19.0741161 8.92588386,23.1875 14,23.1875 Z M14,22.3125 C9.40913302,22.3125 5.6875,18.590867 5.6875,14 C5.6875,9.40913302 9.40913302,5.6875 14,5.6875 C18.590867,5.6875 22.3125,9.40913302 22.3125,14 C22.3125,18.590867 18.590867,22.3125 14,22.3125 Z" id="Shape" fill="#154E84" fill-rule="nonzero"></path>
                <path d="M17.7248892,5.66171068 C17.802276,5.65515983 17.8800118,5.66932695 17.9501121,5.70275693 C21.123169,7.21594713 23.1875,10.4217992 23.1875,14 C23.1875,16.6310135 22.0750206,19.0839742 20.1620089,20.8147677 C19.8465964,21.1001366 19.350665,20.8131241 19.440958,20.3974708 C19.4686705,20.2698994 19.497972,20.1420694 19.5288619,20.0139812 C20.1847439,17.2942919 18.8215396,15.799788 16.349585,16.6381115 C14.7880072,17.1676955 13.69107,16.446726 13.5721348,15.1256336 C13.4641665,13.9263567 14.2221391,12.7750721 15.3817678,12.7750721 C16.6888947,12.7750721 17.1781172,12.3130133 17.2394202,11.6392243 L17.241341,11.6181498 C17.3022203,10.9497654 17.0763271,10.6366437 15.52206,10.0400537 C14.2842874,9.56494689 13.9157753,8.48042697 14.4794633,7.42143578 C14.9841557,6.47327849 16.1163847,5.76629083 17.3623157,5.68835345 C17.4844989,5.68071047 17.6053568,5.67182919 17.7248892,5.66171068 Z M17.4169433,6.56164655 C16.4698151,6.62089275 15.6115588,7.15680607 15.2518572,7.83257156 C14.9295781,8.43803193 15.1004796,8.94098982 15.8356149,9.22316426 C17.7349716,9.95221354 18.2115346,10.612801 18.1127338,11.6975199 L18.110821,11.7185065 C18.0090818,12.8367354 17.1479303,13.6500721 15.3817678,13.6500721 C14.8102285,13.6500721 14.3770643,14.3080052 14.4436103,15.0471765 C14.5119259,15.8060036 15.0452225,16.1565165 16.0685635,15.8094669 C18.8755768,14.8575136 20.7244481,16.4225767 20.550901,19.1182295 C21.6785317,17.6778082 22.3125,15.8902531 22.3125,14 C22.3125,10.8018035 20.4901526,7.93271317 17.6781529,6.54336387 C17.5916892,6.55006849 17.5046185,6.55616215 17.4169433,6.56164655 Z" id="Shape" fill="#154E84" fill-rule="nonzero"></path>
                <path d="M11.1765964,21.9223641 C11.3906614,22.2805768 11.0294195,22.7066044 10.6410312,22.5539784 C7.15371214,21.1835575 4.8125,17.8103725 4.8125,14 C4.8125,11.0855226 6.17927283,8.39705341 8.45877008,6.67102518 C8.63266789,6.5393503 8.87699218,6.55588501 9.03156336,6.70978911 C10.8341773,8.50462361 10.7289246,9.7295977 9.25281605,11.1756628 C9.17772336,11.2492271 9.0985081,11.3249725 8.99852345,11.4192188 C8.95431392,11.460891 8.78335516,11.621264 8.74257845,11.6596842 C7.76377969,12.5819178 8.52155873,14.0628291 10.539065,14.6333736 C13.1663974,15.3763751 13.3823856,17.9611781 11.2079657,19.5403604 C10.2159718,20.2608005 10.1496087,20.8322188 10.9344815,21.5527033 C10.9656374,21.5813032 10.9924816,21.6142696 11.0141765,21.6505735 L11.1765964,21.9223641 Z M10.693787,18.8323736 C12.313409,17.6561158 12.1754791,16.0054623 10.3009558,15.4753529 C7.71709572,14.7446452 6.57055071,12.503977 8.14253551,11.0228377 C8.18426643,10.9835184 8.3551355,10.8232296 8.3983464,10.7824987 C8.49458814,10.6917805 8.57003274,10.6196406 8.64049114,10.5506163 C9.71151177,9.50139424 9.83387407,8.84862637 8.68426067,7.60895697 C6.80333218,9.17418874 5.6875,11.4941239 5.6875,14 C5.6875,16.9137492 7.20054891,19.5449397 9.57384918,21.0384692 C9.37500764,20.2778255 9.75546445,19.5138347 10.693787,18.8323736 Z M10.2630734,22.0994265 L10.638625,21.875 L10.3427684,22.1972967 C10.3265452,22.1824044 10.3105647,22.1674926 10.2948267,22.1525619 L10.2630734,22.0994265 Z" id="Shape" fill="#154E84" fill-rule="nonzero"></path>
            </g>
        </g>
    </g>
</svg>