<?xml version="1.0" encoding="UTF-8"?>
<svg width="20px" height="18px" viewBox="0 0 20 18" version="1.1" xmlns="http://www.w3.org/2000/svg" xmlns:xlink="http://www.w3.org/1999/xlink">
    <title></title>
    <defs>
        <path d="M13.0029699,0 C13.5536144,0 14,0.443864822 14,1 L14,2 L18.0092049,2 C19.1086907,2 20,2.89451376 20,3.99406028 L20,16.0059397 C20,17.1072288 19.1017876,18 18.0092049,18 L1.99079514,18 C0.891309342,18 0,17.1054862 0,16.0059397 L0,3.99406028 C0,2.8927712 0.898212381,2 1.99079514,2 L6,2 L6,1 C6,0.44771525 6.45303631,0 6.99703014,0 L13.0029699,0 Z M10,6 C7.790861,6 6,7.790861 6,10 C6,12.209139 7.790861,14 10,14 C12.209139,14 14,12.209139 14,10 C14,7.790861 12.209139,6 10,6 Z M10,8 C11.1045695,8 12,8.8954305 12,10 C12,11.1045695 11.1045695,12 10,12 C8.8954305,12 8,11.1045695 8,10 C8,8.8954305 8.8954305,8 10,8 Z M16,5 L15.8826674,5.00672773 C15.3827202,5.06449284 15,5.48716416 15,6 C15,6.55613518 15.4477153,7 16,7 L16,7 L16.1173326,6.99327227 C16.6172798,6.93550716 17,6.51283584 17,6 L17,6 L16.9932723,5.88266744 C16.9355072,5.38272018 16.5128358,5 16,5 L16,5 Z" id="path-1"></path>
    </defs>
    <g id="Page-3" stroke="none" stroke-width="1" fill="none" fill-rule="evenodd">
        <g id="P2/20.-Profile" transform="translate(-1204.000000, -102.000000)">
            <g id="Group-3" transform="translate(1172.000000, 61.000000)">
                <g id="Group-9" transform="translate(12.000000, 21.000000)">
                    <g id="standard/hardware/camera" transform="translate(20.000000, 20.000000)">
                        <mask id="mask-2" fill="white">
                            <use xlink:href="#path-1"></use>
                        </mask>
                        <use id="Combined-Shape" fill="#42526E" xlink:href="#path-1"></use>
                        <g id="↳-🎨Color" mask="url(#mask-2)" fill="#FFFFFF">
                            <g transform="translate(-2.000000, -3.000000)" id="N0">
                                <polygon points="0 24 24 24 24 0 0 0"></polygon>
                            </g>
                        </g>
                    </g>
                </g>
            </g>
        </g>
    </g>
</svg>