<?xml version="1.0" encoding="UTF-8"?>
<svg width="60px" height="60px" viewBox="0 0 60 60" version="1.1" xmlns="http://www.w3.org/2000/svg" xmlns:xlink="http://www.w3.org/1999/xlink">
    <title></title>
    <g id="Page-1" stroke="none" stroke-width="1" fill="none" fill-rule="evenodd">
        <g id="20.-Profile" transform="translate(-1188.000000, -75.000000)">
            <g id="Group-24" transform="translate(1188.000000, 75.000000)">
                <path d="M30,60 C46.569,60 60,46.56855 60,30 C60,13.43145 46.569,0 30,0 C13.431,0 0,13.43145 0,30 C0,46.56855 13.431,60 30,60 Z" id="Path" fill="#EEEEEE"></path>
                <path d="M30,26.8125 C32.4855,26.8125 34.5,24.79785 34.5,22.3125 C34.5,19.82715 32.4855,17.8125 30,17.8125 C27.5145,17.8125 25.5,19.82715 25.5,22.3125 C25.5,24.79785 27.5145,26.8125 30,26.8125 Z" id="Path" fill="#FFFFFF" fill-rule="nonzero"></path>
                <path d="M25.5555,21.58125 C25.893,19.44375 27.75,17.8125 30,17.8125 C30.7875,17.8125 31.518,17.98125 32.1375,18.375 C32.193,18.54375 32.25,18.76875 32.25,18.9375 C32.25,20.5125 30,21.75 27.1875,21.75 C26.625,21.75 26.0625,21.69375 25.5555,21.58125 Z" id="Path" fill="#52ABE2" fill-rule="nonzero"></path>
                <path d="M30,27.375 C27.1875,27.375 24.9375,25.125 24.9375,22.3125 C24.9375,19.5 27.1875,17.25 30,17.25 C32.8125,17.25 35.0625,19.5 35.0625,22.3125 C35.0625,25.125 32.8125,27.375 30,27.375 Z M30,18.375 C27.8055,18.375 26.0625,20.11875 26.0625,22.3125 C26.0625,24.50625 27.8055,26.25 30,26.25 C32.1945,26.25 33.9375,24.50625 33.9375,22.3125 C33.9375,20.11875 32.1945,18.375 30,18.375 Z" id="Shape" fill="#154E84" fill-rule="nonzero"></path>
                <path d="M30,29.0625 C34.3305,29.0625 37.875,32.60625 37.875,36.9375 L37.875,39.1875 L22.125,39.1875 L22.125,36.9375 C22.125,32.60625 25.6695,29.0625 30,29.0625 Z" id="Path" fill="#FFC200" fill-rule="nonzero"></path>
                <path d="M37.875,39.75 L22.125,39.75 C21.7875,39.75 21.5625,39.525 21.5625,39.1875 L21.5625,36.9375 C21.5625,32.26875 25.3305,28.5 30,28.5 C34.6695,28.5 38.4375,32.26875 38.4375,36.9375 L38.4375,39.1875 C38.4375,39.525 38.2125,39.75 37.875,39.75 Z M22.6875,38.625 L37.3125,38.625 L37.3125,36.9375 C37.3125,32.8875 34.05,29.625 30,29.625 C25.95,29.625 22.6875,32.8875 22.6875,36.9375 L22.6875,38.625 Z" id="Shape" fill="#154E84" fill-rule="nonzero"></path>
                <path d="M30,27.375 C32.8125,27.375 35.0625,25.125 35.0625,22.3125 C35.0625,19.5 32.8125,17.25 30,17.25 C27.1875,17.25 24.9375,19.5 24.9375,22.3125 C24.9375,25.125 27.1875,27.375 30,27.375 Z M30,26.25 C27.8055,26.25 26.0625,24.50625 26.0625,22.3125 C26.0625,20.11875 27.8055,18.375 30,18.375 C32.1945,18.375 33.9375,20.11875 33.9375,22.3125 C33.9375,24.50625 32.1945,26.25 30,26.25 Z" id="Shape" fill="#154E84" fill-rule="nonzero"></path>
                <path d="M30,28.5 C34.6695,28.5 38.4375,32.26875 38.4375,36.9375 L38.4375,39.1875 C38.4375,39.525 38.2125,39.75 37.875,39.75 L22.125,39.75 C21.7875,39.75 21.5625,39.525 21.5625,39.1875 L21.5625,36.9375 C21.5625,32.26875 25.3305,28.5 30,28.5 Z M37.3125,38.625 L37.3125,36.9375 C37.3125,32.8875 34.05,29.625 30,29.625 C25.95,29.625 22.6875,32.8875 22.6875,36.9375 L22.6875,38.625 L37.3125,38.625 Z" id="Shape" fill="#154E84" fill-rule="nonzero"></path>
            </g>
        </g>
    </g>
</svg>