<?xml version="1.0" encoding="UTF-8"?>
<svg width="375px" height="330px" viewBox="0 0 375 330" version="1.1" xmlns="http://www.w3.org/2000/svg" xmlns:xlink="http://www.w3.org/1999/xlink">
    <title></title>
    <defs>
        <linearGradient x1="124.31875%" y1="-1.15196308%" x2="-15.7072917%" y2="111.924897%" id="linearGradient-1">
            <stop stop-color="#1162D7" offset="0%"></stop>
            <stop stop-color="#78F3E3" offset="66.1989796%"></stop>
            <stop stop-color="#52E5BB" offset="100%"></stop>
        </linearGradient>
        <linearGradient x1="100%" y1="0%" x2="0%" y2="100%" id="linearGradient-2">
            <stop stop-color="#FF8960" offset="0%"></stop>
            <stop stop-color="#FF62A5" offset="100%"></stop>
        </linearGradient>
        <linearGradient x1="100%" y1="38.1665449%" x2="0%" y2="61.8334551%" id="linearGradient-3">
            <stop stop-color="#FF8960" offset="0%"></stop>
            <stop stop-color="#FF62A5" offset="100%"></stop>
        </linearGradient>
        <linearGradient x1="51.5802469%" y1="0%" x2="48.4197531%" y2="100%" id="linearGradient-4">
            <stop stop-color="#FF8960" offset="0%"></stop>
            <stop stop-color="#FF62A5" offset="100%"></stop>
        </linearGradient>
        <linearGradient x1="51.814059%" y1="0%" x2="48.185941%" y2="100%" id="linearGradient-5">
            <stop stop-color="#FF8960" offset="0%"></stop>
            <stop stop-color="#FF62A5" offset="100%"></stop>
        </linearGradient>
        <linearGradient x1="63.78125%" y1="0%" x2="36.21875%" y2="100%" id="linearGradient-6">
            <stop stop-color="#FF8960" offset="0%"></stop>
            <stop stop-color="#FF62A5" offset="100%"></stop>
        </linearGradient>
        <linearGradient x1="61.2188366%" y1="0%" x2="38.7811634%" y2="100%" id="linearGradient-7">
            <stop stop-color="#FF8960" offset="0%"></stop>
            <stop stop-color="#FF62A5" offset="100%"></stop>
        </linearGradient>
    </defs>
    <g id="Page-1" stroke="none" stroke-width="1" fill="none" fill-rule="evenodd">
        <g id="P2/0.6-Success" transform="translate(-826.000000, -238.000000)">
            <g id="Artwork" transform="translate(826.000000, 239.000000)">
                <path d="M239.5,222.099478 L238.406865,226.410646 L130.5,199.131726 L131.59171,194.820558 C140.225628,197.002473 146.922686,188.697532 148.005845,184.430486 L154.232584,159.860102 C159.163808,141.979215 175.468201,129.60649 194.041527,129.652035 C195.632061,123.721155 201.737657,120.202763 207.675078,121.792586 C213.613925,123.38241 217.138468,129.478393 215.545084,135.409274 C231.8338,144.488488 240.182675,163.203427 236.045293,181.36755 L230.015233,205.162238 C228.735395,210.204981 235.184467,221.007809 239.5,222.099478" id="Fill-1" fill="#F1F2F7"></path>
                <path d="M164.5,212.410646 C165.547346,223.328259 175.422945,231.34769 186.559105,230.32231 C192.624207,229.764425 198.111611,226.558347 201.5,221.592457 L164.5,212.410646 Z" id="Fill-3" fill="#FFDA3E"></path>
                <path d="M340.5,179.910646 C340.5,261.924024 274.013058,328.410646 191.999285,328.410646 C109.985512,328.410646 43.5,261.924024 43.5,179.910646 C43.5,97.8972684 109.985512,31.4106464 191.999285,31.4106464 C274.013058,31.4106464 340.5,97.8972684 340.5,179.910646 Z" id="Stroke-5" stroke="#E9EAEC" stroke-dasharray="5.017,5.017"></path>
                <path d="M301.5,180.410646 C301.5,241.161474 252.250508,290.410646 191.499286,290.410646 C130.746638,290.410646 81.5,241.161474 81.5,180.410646 C81.5,119.659819 130.746638,70.4106464 191.499286,70.4106464 C252.250508,70.4106464 301.5,119.659819 301.5,180.410646 Z" id="Stroke-7" stroke="#E9EAEC" stroke-dasharray="5.045,5.045"></path>
                <path d="M295.973948,78.718776 C298.100216,78.718776 299.819992,80.4370819 299.819992,82.5647112 C299.819992,84.6923405 298.100216,86.4106464 295.973948,86.4106464 C293.846258,86.4106464 292.126482,84.6923405 292.126482,82.5647112 C292.126482,80.4370819 293.846258,78.718776 295.973948,78.718776 M307.512081,78.718776 C309.639771,78.718776 311.358126,80.4370819 311.358126,82.5647112 C311.358126,84.6923405 309.639771,86.4106464 307.512081,86.4106464 C305.384391,86.4106464 303.666037,84.6923405 303.666037,82.5647112 C303.666037,80.4370819 305.384391,78.718776 307.512081,78.718776 M319.050215,78.718776 C321.177904,78.718776 322.896259,80.4370819 322.896259,82.5647112 C322.896259,84.6923405 321.177904,86.4106464 319.050215,86.4106464 C316.922525,86.4106464 315.20417,84.6923405 315.20417,82.5647112 C315.20417,80.4370819 316.922525,78.718776 319.050215,78.718776 M291.670244,103.718776 L310.024944,103.718776 C311.75609,103.718776 311.75609,103.731567 312.58471,104.344131 C313.41475,104.956695 322.88631,111.410646 322.88631,111.410646 L322.88631,103.718776 L323.329756,103.718776 C328.400964,103.718776 332.5,99.8970023 332.5,95.1371956 L332.5,70.0291796 C332.5,65.2693729 328.391015,61.4106464 323.329756,61.4106464 L291.670244,61.4106464 C286.610407,61.4106464 282.5,65.2693729 282.5,70.0291796 L282.5,95.1371956 C282.5,99.8970023 286.610407,103.718776 291.670244,103.718776" id="Fill-9" fill="url(#linearGradient-1)"></path>
                <path d="M68.144742,123.37213 C68.144742,124.776599 67.0114116,125.909929 65.605508,125.909929 C64.2024736,125.909929 63.0691432,124.776599 63.0691432,123.37213 C63.0691432,121.967661 64.2024736,120.832896 65.605508,120.832896 C67.0114116,120.832896 68.144742,121.967661 68.144742,123.37213 M60.5299091,123.37213 C60.5299091,124.776599 59.3951441,125.909929 57.9921097,125.909929 C56.5876407,125.909929 55.4528757,124.776599 55.4528757,123.37213 C55.4528757,121.967661 56.5876407,120.832896 57.9921097,120.832896 C59.3951441,120.832896 60.5299091,121.967661 60.5299091,123.37213 M52.9150763,123.37213 C52.9150763,124.776599 51.7803113,125.909929 50.3758423,125.909929 C48.9728079,125.909929 47.8380429,124.776599 47.8380429,123.37213 C47.8380429,121.967661 48.9728079,120.832896 50.3758423,120.832896 C51.7803113,120.832896 52.9150763,121.967661 52.9150763,123.37213 M74.5,131.66983 L74.5,115.098817 C74.5,111.957053 71.7857453,109.410646 68.4474416,109.410646 L47.5525584,109.410646 C44.2128201,109.410646 41.5,111.957053 41.5,115.098817 L41.5,131.66983 C41.5,134.810159 44.2056471,137.332178 47.5525584,137.332178 L47.8466504,137.332178 L47.8466504,142.410646 C47.8466504,142.410646 54.097183,138.149898 54.6437639,137.745342 C55.1917793,137.340786 55.1917793,137.332178 56.3337173,137.332178 L68.4474416,137.332178 C71.7857453,137.332178 74.5,134.810159 74.5,131.66983" id="Fill-11" fill="url(#linearGradient-2)"></path>
                <path d="M164.5,212.410646 C165.547346,223.328259 175.422945,231.34769 186.559105,230.32231 C192.624207,229.764425 198.111611,226.558347 201.5,221.592457 L164.5,212.410646 Z" id="Fill-13" fill="url(#linearGradient-3)"></path>
                <path d="M251.759649,146.463276 C254.287667,149.50923 256.186189,153.096592 257.476726,156.899367 C258.791639,160.703578 259.434039,164.744745 259.5,168.788784 C259.5,170.812239 259.355173,172.832823 259.094198,174.836173 C258.750055,176.829471 258.352856,178.808407 257.727663,180.725592 C256.518861,184.561397 254.692035,188.199022 252.202733,191.295239 C252.095188,191.428796 251.903042,191.448901 251.769686,191.34263 C251.666443,191.257901 251.632029,191.120036 251.672179,190.999404 C252.968451,187.304336 254.042465,183.659531 254.763731,179.96159 C254.897087,179.02813 255.080629,178.10903 255.235494,177.185622 C255.341605,176.253597 255.48213,175.328753 255.56243,174.398165 C255.622655,173.46614 255.743105,172.53986 255.781821,171.607835 C255.79616,170.674374 255.840612,169.74235 255.83631,168.810325 C255.857819,165.077919 255.44198,161.351256 254.717845,157.65188 C253.973636,153.949631 252.853737,150.30339 251.508711,146.608322 C251.481467,146.532209 251.520183,146.447479 251.596181,146.420194 C251.656406,146.397216 251.720933,146.417321 251.759649,146.463276" id="Fill-15" fill="url(#linearGradient-4)"></path>
                <path d="M265.649723,147.439638 C268.124547,150.243026 269.988663,153.568207 271.287146,157.097817 C272.588537,160.631715 273.340291,164.385767 273.474065,168.162692 C273.619472,171.938188 273.151262,175.733698 272.124689,179.349082 C271.099571,182.963036 269.50155,186.416878 267.247744,189.393244 C267.233203,189.411828 267.205576,189.416117 267.188127,189.403251 C267.173586,189.391814 267.16777,189.37323 267.172132,189.357505 C268.105644,185.775001 268.887933,182.289708 269.361959,178.785831 C269.835986,175.283383 269.991571,171.782365 269.859251,168.294213 C269.713844,164.80749 269.284894,161.332205 268.530232,157.882651 C267.778479,154.428809 266.715555,151.020712 265.504316,147.522553 C265.489775,147.478237 265.51304,147.431061 265.558116,147.415336 C265.59156,147.403899 265.627912,147.413906 265.649723,147.439638" id="Fill-17" fill="url(#linearGradient-5)"></path>
                <path d="M136.114094,165.360218 C135.331056,161.502631 135.322355,157.472894 135.942986,153.533536 C136.543315,149.584136 137.833878,145.733721 139.626166,142.137228 C141.461955,138.562253 143.80817,135.235461 146.641608,132.389253 C149.454745,129.533003 152.717405,127.112866 156.31648,125.42293 C156.381734,125.392804 156.457137,125.420061 156.487589,125.483182 C156.51224,125.534827 156.499189,125.595079 156.457137,125.632379 C153.529444,128.261965 150.833763,131.003448 148.451296,133.971595 C146.086231,136.945481 143.993779,140.105862 142.302996,143.469953 C140.565811,146.812526 139.240447,150.354505 138.232647,154.008382 C137.240799,157.670866 136.628869,161.450986 136.2388,165.35448 C136.23445,165.387475 136.203998,165.413298 136.169197,165.410646 C136.141645,165.407559 136.119894,165.386041 136.114094,165.360218" id="Fill-19" fill="url(#linearGradient-6)"></path>
                <path d="M124.074666,157.361933 C123.354774,153.761174 123.342095,150.009254 123.864756,146.335767 C124.404323,142.66228 125.482048,139.052965 127.072573,135.691781 C128.646193,132.324893 130.677669,129.174764 133.121921,126.41537 C135.554903,123.651699 138.366849,121.235982 141.5,119.410646 C138.941636,121.988932 136.591773,124.67845 134.541982,127.570465 C132.499235,130.465333 130.72275,133.518491 129.282966,136.729941 C127.85727,139.945668 126.713331,143.285461 125.897642,146.732207 C125.059411,150.177528 124.556473,153.712689 124.194413,157.356229 C124.190187,157.389028 124.162011,157.413271 124.126792,157.410646 C124.101433,157.407566 124.078893,157.387602 124.074666,157.361933" id="Fill-21" fill="url(#linearGradient-7)"></path>
                <path d="M239.5,222.099543 C239.5,222.099543 233.105902,219.623043 229.744645,216.089049 C225.064017,211.168783 225.372442,205.800186 228.536649,195.438737 C232.259162,183.100357 232.157782,170.103 230.724179,164.145166 C225.730842,143.385262 215.5,135.410646 215.5,135.410646 C231.819372,144.489724 240.18396,163.204381 236.038791,181.36823 L229.997382,205.162558 C228.937887,208.67805 235.176345,221.007891 239.5,222.099543 L238.404807,226.410646 L239.5,222.099543 Z" id="Fill-23" fill="#D8DBEA"></path>
                <line x1="15.5" y1="200.469646" x2="12.5" y2="200.410646" id="Stroke-25" stroke="#D2D8DF" stroke-linecap="round"></line>
                <line x1="13.5" y1="195.410646" x2="11.5" y2="197.410646" id="Stroke-27" stroke="#D2D8DF" stroke-linecap="round"></line>
                <line x1="8.529" y1="192.410646" x2="8.5" y2="195.410646" id="Stroke-29" stroke="#D2D8DF" stroke-linecap="round"></line>
                <line x1="3.5" y1="194.410646" x2="5.5" y2="196.410646" id="Stroke-31" stroke="#D2D8DF" stroke-linecap="round"></line>
                <line x1="0.5" y1="199.410646" x2="3.5" y2="199.469646" id="Stroke-33" stroke="#D2D8DF" stroke-linecap="round"></line>
                <line x1="2.5" y1="204.410646" x2="4.5" y2="202.410646" id="Stroke-35" stroke="#D2D8DF" stroke-linecap="round"></line>
                <line x1="8.5" y1="207.410646" x2="8.529" y2="204.410646" id="Stroke-37" stroke="#D2D8DF" stroke-linecap="round"></line>
                <line x1="13.5" y1="205.410646" x2="11.5" y2="203.410646" id="Stroke-39" stroke="#D2D8DF" stroke-linecap="round"></line>
                <line x1="374.347" y1="162.410646" x2="373.5" y2="163.327646" id="Stroke-41" stroke="#D2D8DF" stroke-linecap="round"></line>
                <line x1="369.5" y1="163.410646" x2="370.139" y2="163.999646" id="Stroke-43" stroke="#D2D8DF" stroke-linecap="round"></line>
                <line x1="368.5" y1="168.327646" x2="369.347" y2="167.410646" id="Stroke-45" stroke="#D2D8DF" stroke-linecap="round"></line>
                <line x1="374.138" y1="167.999646" x2="373.5" y2="167.410646" id="Stroke-47" stroke="#D2D8DF" stroke-linecap="round"></line>
                <line x1="263.5" y1="8.46564639" x2="260.5" y2="8.41064639" id="Stroke-49" stroke="#D2D8DF" stroke-linecap="round"></line>
                <line x1="256.531" y1="0.410646388" x2="256.5" y2="3.41064639" id="Stroke-51" stroke="#D2D8DF" stroke-linecap="round"></line>
                <line x1="248.5" y1="7.41064639" x2="251.5" y2="7.46464639" id="Stroke-53" stroke="#D2D8DF" stroke-linecap="round"></line>
                <line x1="255.5" y1="14.4106464" x2="255.531" y2="11.4106464" id="Stroke-55" stroke="#D2D8DF" stroke-linecap="round"></line>
                <path d="M47.5,278.151309 C45.3141374,278.769931 41.6735047,281.808332 40.42783,285.410646 C40.2187346,282.063636 37.9720712,277.856727 35.5,277.250731 C38.5163124,276.242139 41.7832427,272.534616 42.6522491,269.410646 C42.4950568,272.684713 45.6374197,277.438702 47.5,278.151309" id="Fill-57" fill="#EBECEF"></path>
                <path d="M96.5,21.4749543 C94.7865037,21.7632641 91.7498326,23.7713923 90.4718687,26.4106464 C90.624079,23.8445455 89.3144675,20.4522433 87.5,19.7838235 C89.8765908,19.2674477 92.6947421,16.717125 93.6426658,14.4106464 C93.2191896,16.892119 95.1557267,20.7764126 96.5,21.4749543" id="Fill-59" fill="#EBECEF"></path>
                <path d="M311.413458,39.4096825 C309.203347,39.3616679 307.451553,37.5327472 307.501022,35.3240746 C307.549037,33.1154019 309.377944,31.3635957 311.585145,31.4116103 C313.795257,31.4596249 315.54705,33.2885455 315.499036,35.4972182 C315.449567,37.7058909 313.622115,39.4576971 311.413458,39.4096825" id="Fill-61" fill="#D1D9E0"></path>
                <path d="M311.923934,297.409788 C309.992299,297.368845 308.459859,295.767679 308.500802,293.836043 C308.541745,291.902945 310.142911,290.370505 312.076008,290.411448 C314.009106,290.453853 315.541546,292.053557 315.499141,293.986655 C315.456735,295.91829 313.857032,297.452193 311.923934,297.409788" id="Fill-63" fill="#EBECEF"></path>
                <path d="M27.4561622,91.410153 C26.3521338,91.385859 25.4761993,90.472134 25.5004934,89.3667562 C25.5234377,88.262728 26.4385126,87.3881434 27.5425409,87.4110877 C28.6465692,87.4353817 29.5225037,88.3491067 29.4995593,89.4531349 C29.4752653,90.5585127 28.5601905,91.434447 27.4561622,91.410153 Z" id="Stroke-65" stroke="#D2D8DF" stroke-linecap="round"></path>
            </g>
        </g>
    </g>
</svg>