<?xml version="1.0" encoding="UTF-8"?>
<svg width="398px" height="330px" viewBox="0 0 398 330" version="1.1" xmlns="http://www.w3.org/2000/svg" xmlns:xlink="http://www.w3.org/1999/xlink">
    <title></title>
    <g id="Page-1" stroke="none" stroke-width="1" fill="none" fill-rule="evenodd">
        <g id="P2/-0.3.-Change-Password" transform="translate(-864.000000, -275.000000)" fill-rule="nonzero">
            <g id="d_228_09-[Converted]" transform="translate(864.000000, 275.000000)">
                <g id="Group" transform="translate(83.000000, 25.000000)">
                    <path d="M17.9,0.6 L0.1,10.9 L4,25.1 C4,25.1 14.9,30.8 20.1,26.4 C25.3,22 17.9,0.6 17.9,0.6 Z" id="Path" fill="#D9DDF1"></path>
                    <path d="M208.9,111.5 C175,97.6 136.7,57.4 114,33.6 C113.5,33.6 106.3,34.3 93.3,32.1 C47.9,24.6 18.1,0.6 18,0.6 C18.8,36.5 9.5,28.5 9.59919917,31.5 C9.7,36.2 9.9,41 10,45.8 C10.2,50.6 10.4,55.4 10.7,60.2 C12.1,82.3 14.9,105.1 20.2,128.9 C25.1,150.6 31.8,172.1 40.7,193.4 C43.7,200.5 46.9,207.6 50.3,214.6 C57.2,228.7 65.1,242.7 74.1,256.6 C76.3,260.1 78.6,263.5 81,267 C92.7,284.1 102.2,298.4 105,301.9 C105.1,301.9 105.7,301.8 105.6,301.8 C105.6,301.8 105.7,301.8 105.7,301.8 C179.6,289 202.3,228.9 208.3,163.6 C210,145.3 210.2,128.8 210.4,112.2 L208.9,111.5 Z" id="Path" fill="#D8DBEA"></path>
                    <path d="M191,121.8 C182.8,118.4 174.2,113.3 165.9,107.6 C157,101.4 148.1,94.3 139.4,86.7 C124.7,73.9 110.2,59.5 96.7,44.6 L96,43.9 C96,43.9 95.7,43.9 95.7,43.9 L95.4,43.9 C93.8,44 92.2,44 90.6,43.9 C89,43.9 87.3,43.8 85.6,43.6 C82.2,43.3 78.8,42.9 75.3,42.3 C71.2,41.6 67,40.7 62.7,39.7 C59,38.8 55.2,37.7 51.4,36.5 C42.9,33.8 34,30.4 25.2,26.1 C19.4,23.3 13.3,19.9 7.4,16 C5.4,14.7 3.5,13.3 1.5,11.9 L0,10.9 C0,10.9 0,11 0,11 L0,12.5 C0.2,20.6 0.4,28.7 0.5,36.8 C0.6,41.5 0.8,46.3 0.9,51.1 C1.1,55.9 1.3,60.7 1.6,65.5 C3,87.6 5.8,110.4 11.1,134.2 C16,155.9 22.7,177.4 31.6,198.7 C34.6,205.8 37.8,212.9 41.2,219.9 C48.1,234 56,248 65,261.9 C67.2,265.4 69.5,268.8 71.9,272.3 C79,282.7 86.8,293 95.1,303.3 L95.6,304 L95.8,304.3 L96.1,304.3 L96.5,304.2 C96.5,304.2 96.6,304.2 96.6,304.2 C138.9,297.7 165.4,271.4 179.3,229.8 C185,212.8 188.4,193.9 190.2,173.9 C191,165.2 191.5,156.3 191.8,147.4 C192.1,139.7 192.2,131.9 192.3,124.1 L192.3,122.6 L191,121.8 Z" id="Path" fill="#F1F2F7"></path>
                    <path d="M178.1,129.9 C173.8,127.4 169.3,124.5 164.6,121.3 C155.6,115.1 146.4,107.8 136.3,99 C123.3,87.6 110,74.7 96.7,60.5 C96.6,60.4 96.5,60.3 96.4,60.2 C93.2,60.1 89.8,59.9 86.2,59.4 C85.4,59.3 84.5,59.2 83.6,59.1 C82.2,58.9 80.9,58.7 79.5,58.5 C73.4,57.5 67.1,56.1 60.7,54.3 C58.6,53.7 56.4,53.1 54.2,52.4 C46.9,50.1 39.8,47.5 33,44.4 C30.7,43.4 28.5,42.4 26.3,41.3 C24.3,40.3 22.3,39.3 20.3,38.3 C18.3,37.3 16.4,36.2 14.6,35.2 C14.6,35.2 14.4,35.1 14.2,35 C14.1,34.9 13.9,34.8 13.7,34.7 C13.4,34.5 13.1,34.3 12.9,34.2 C13,37.3 13,40.5 13.1,43.6 C13.2,46.3 13.2,48.9 13.3,51.4 C13.5,58.9 13.8,65.4 14.2,71.6 C15.7,95.2 18.6,116.6 23.2,137 C35.3,190.9 59,240 95.6,286.9 C95.9,286.8 96.3,286.7 96.6,286.7 C130.9,279.2 154.7,256.3 167.4,218.4 C172.5,203.3 175.8,185.9 177.7,165.3 C178.4,157.5 178.9,149.1 179.2,139.6 C179.3,136.7 179.4,133.9 179.4,131 C179.2,130.5 178.6,130.2 178.1,129.9 Z" id="Path" fill="#FFFFFF"></path>
                    <path d="M99.5,283.4 C99.2,283.5 98.8,283.6 98.5,283.6 C61.9,236.8 38.2,187.6 26.1,133.7 C21.5,113.3 18.6,91.9 17.1,68.3 C16.7,62.1 16.4,55.5 16.2,48.1 C16.1,45.6 16,43 16,40.3 C16,38.8 15.9,37.3 15.9,35.7 C15.5,35.5 15.1,35.3 14.7,35.1 C14.7,35.1 14.5,35 14.3,34.9 C14.2,34.8 14,34.7 13.8,34.6 C13.5,34.4 13.2,34.2 13,34.1 C13.1,37.2 13.1,40.4 13.2,43.5 C13.3,46.2 13.3,48.8 13.4,51.3 C13.6,58.8 13.9,65.3 14.3,71.5 C15.8,95.1 18.7,116.5 23.3,136.9 C35.4,190.8 59.1,239.9 95.7,286.8 C96,286.7 96.4,286.6 96.7,286.6 C118.3,281.9 135.7,271.1 148.8,254.3 C136.1,269.3 119.6,279 99.5,283.4 Z" id="Path" fill="#D8DBEA"></path>
                    <g transform="translate(66.000000, 115.000000)">
                        <polygon id="Path" fill="#2C89FF" points="5.6 30.9 2.6 32.9 2.6 38.8 5.5 35.9"></polygon>
                        <polygon id="Path" fill="#2C89FF" points="51.4 98.1 54.9 95.9 54.9 92.1 50.9 92.1"></polygon>
                        <path d="M57.1,67 C57.1,65.4 56.8,63.7 56.2,62 C55.2,59.2 53.5,56.5 51.5,54.5 C51.5,54.5 51.5,54.4 51.5,54.4 C51.7,49.1 51.4,40.8 49.4,32.2 C48.3,27.7 46.8,23.1 44.6,18.8 C41.1,12.1 36.4,7.1 30.6,3.7 C24.9,0.4 20.2,-0.1 16.6,2.3 C10.1,6.7 9,19.9 9.2,30.1 C5.9,29.6 3.6,31.8 3.6,36.1 L3.6,59.7 C3.6,65.1 7.4,71.8 12.1,74.5 L48.5,95.5 C49.1,95.8 49.7,96.1 50.2,96.3 C50.8,96.5 51.3,96.6 51.8,96.7 C53.2,96.8 54.5,96.4 55.4,95.4 C55.5,95.3 55.5,95.3 55.6,95.2 C55.7,95.1 55.8,94.9 55.9,94.8 C56.6,93.8 57.1,92.4 57.1,90.6 L57.1,67 L57.1,67 Z M20.4,8.5 C22.9,6.8 26.2,7.1 30.4,9.5 C30.5,9.6 30.5,9.6 30.6,9.6 C31.7,10.2 32.7,10.9 33.6,11.7 C36.5,14 38.8,16.8 40.7,20.4 C42,22.9 43.1,25.6 43.9,28.4 C46.3,36.7 46.5,45.4 46.4,50.9 L30.4,41.7 C30.4,41.7 14.4,32.5 14.4,32.5 C14.1,19.9 16.2,11.3 20.4,8.5 Z" id="Shape" fill="#2C89FF"></path>
                        <path d="M54.2,68.9 C54.2,67.3 53.9,65.6 53.3,63.9 C52.3,61.1 50.6,58.4 48.6,56.4 C48.6,56.4 48.6,56.3 48.6,56.3 C48.8,51 48.5,42.7 46.5,34.1 C45.4,29.6 43.9,25 41.7,20.7 C38.2,14 33.5,9 27.7,5.6 C22,2.3 17.3,1.8 13.7,4.2 C7.2,8.6 6.1,21.8 6.3,32 C3,31.5 0.7,33.7 0.7,38 L0.7,61.6 C0.7,67 4.5,73.7 9.2,76.4 L45.6,97.4 C46.2,97.7 46.8,98 47.3,98.2 C47.9,98.4 48.4,98.5 48.9,98.6 C50.3,98.7 51.6,98.3 52.5,97.3 C52.6,97.2 52.6,97.2 52.7,97.1 C52.8,97 52.9,96.8 53,96.7 C53.7,95.7 54.2,94.3 54.2,92.5 L54.2,68.9 L54.2,68.9 Z M17.5,10.5 C20,8.8 23.3,9.1 27.5,11.5 C27.6,11.6 27.6,11.6 27.7,11.6 C28.8,12.2 29.8,12.9 30.7,13.7 C33.6,16 35.9,18.8 37.8,22.4 C39.1,24.9 40.2,27.6 41,30.4 C43.4,38.7 43.6,47.4 43.5,52.9 L27.5,43.7 C27.5,43.7 11.5,34.5 11.5,34.5 C11.2,21.9 13.3,13.3 17.5,10.5 Z" id="Shape" fill="#43BCFF"></path>
                        <path d="M30.9,63.1 C30.9,59.9 28.6,56 25.8,54.3 C23,52.7 20.7,54 20.7,57.2 C20.7,59.7 22.1,62.7 24.1,64.6 L23,71.7 L28.4,74.8 L27.4,66.9 C29.3,66.9 30.9,65.7 30.9,63.1 Z" id="Path" fill="#143684"></path>
                        <path d="M24.5,70.6 L25.7,64 C23.7,62 22.3,59 22.3,56.4 C22.3,55.2 22.6,54.3 23.1,53.7 C21.5,53.8 20.3,55.1 20.3,57.3 C20.3,59.9 21.7,62.9 23.7,64.9 L22.5,71.5 L28.3,74.9 L28,72.6 L24.5,70.6 Z" id="Path" fill="#2C89FF"></path>
                    </g>
                </g>
                <g id="Group" opacity="0.5" transform="translate(380.000000, 157.000000)">
                    <g id="Path">
                        <path d="M8.9,22.7 C8.9,22.7 17.4,5.9 17.4,5.9 C17.4,5.9 8.9,1 8.9,1 C8.9,0.9 8.9,22.7 8.9,22.7 L8.9,22.7 Z" fill="#FFE356"></path>
                        <path d="M0.4,5.9 C0.4,5.9 8.9,22.7 8.9,22.7 C8.9,22.8 8.9,1 8.9,1 C8.9,1 0.4,5.9 0.4,5.9 C0.4,5.9 0.4,5.9 0.4,5.9 Z" fill="#FEAB18"></path>
                        <polygon fill="#FFD638" points="8.9 0.9 8.9 10.8 13.6 13.4 17.4 5.8"></polygon>
                        <polygon fill="#FFCF2F" points="8.9 10.7 8.9 0.9 17.4 5.8"></polygon>
                        <path d="M0.4,5.8 L8.9,0.9 C8.9,0.9 8.9,10.7 8.9,10.7 C8.9,10.7 0.4,5.8 0.4,5.8 Z" fill="#FFCF2F"></path>
                    </g>
                </g>
                <g id="Group" opacity="0.5" transform="translate(284.000000, 0.000000)">
                    <g id="Path">
                        <path d="M10.4,26.5 C10.4,26.5 20.8,6 20.8,6 C20.8,6 10.4,0 10.4,0 C10.4,0 10.4,26.6 10.4,26.5 L10.4,26.5 Z" fill="#FFE356"></path>
                        <path d="M0,6 L0,6 L10.4,26.5 C10.4,26.6 10.4,0 10.4,0 C10.4,0 0,6 0,6 C0,6 0,6 0,6 Z" fill="#FEAB18"></path>
                        <polygon fill="#FFD638" points="10.4 0 10.4 12 16.1 15.2 20.8 6"></polygon>
                        <polygon fill="#FFCF2F" points="10.4 12 10.4 0 20.8 6"></polygon>
                        <path d="M0.1,6 L10.5,0 C10.5,0 10.5,12 10.5,12 C10.4,12 0.1,6 0.1,6 Z" fill="#FFCF2F"></path>
                    </g>
                </g>
                <g id="Group" opacity="0.5" transform="translate(0.000000, 38.000000)">
                    <g id="Path">
                        <path d="M10.1,25.7 C10.1,25.7 20.1,5.8 20.1,5.8 C20.1,5.8 10.1,7.10542736e-15 10.1,7.10542736e-15 C10.1,7.10542736e-15 10.1,25.8 10.1,25.7 L10.1,25.7 Z" fill="#FFE356"></path>
                        <path d="M0,5.9 L0,5.9 L10.1,25.7 C10.1,25.8 10.1,0 10.1,0 C10.1,0.1 0,5.8 0,5.9 C0,5.9 0,5.9 0,5.9 Z" fill="#FEAB18"></path>
                        <polygon fill="#FFD638" points="10.1 0 10.1 11.6 15.6 14.8 20.1 5.8"></polygon>
                        <polygon fill="#FFCF2F" points="10.1 11.6 10.1 0 20.1 5.8"></polygon>
                        <path d="M0,5.8 L10,0 C10,0 10,11.6 10,11.6 C10.1,11.6 0,5.8 0,5.8 Z" fill="#FFCF2F"></path>
                    </g>
                </g>
            </g>
        </g>
    </g>
</svg>