<?xml version="1.0" encoding="UTF-8"?>
<svg width="18px" height="22px" viewBox="0 0 18 22" version="1.1" xmlns="http://www.w3.org/2000/svg" xmlns:xlink="http://www.w3.org/1999/xlink">
    <!-- Generator: sketchtool 61.2 (101010) - https://sketch.com -->
    <title></title>
    <desc>Created with sketchtool.</desc>
    <g id="Page-3" stroke="none" stroke-width="1" fill="none" fill-rule="evenodd">
        <g id="0.1-Sign-In" transform="translate(-879.000000, -372.000000)">
            <g id="iconspace_User_1" transform="translate(872.000000, 368.000000)">
                <circle id="Shape" cx="16" cy="16" r="16"></circle>
                <path d="M8.87596527,24.6094957 C8.37553644,24.5469421 8,24.1215411 8,23.6172178 L8,22.5 C8,21.3056194 8.76427769,20.2452408 9.8973666,19.8675445 L12.1026334,19.1324555 C13.2357223,18.7547592 14,17.6943806 14,16.5 L13.2892771,15.7892771 C13.0984018,15.5984018 12.9481413,15.3708624 12.8475483,15.1203673 L12.2970441,13.7495113 C11.8358672,12.6010966 11.671867,11.354895 11.8202249,10.1262655 L12.0165976,8.5 C12.0165976,6.84314575 13.3597434,5.5 15.0165976,5.5 L16.9834024,5.5 C18.6402566,5.5 19.9834024,6.84314575 19.9834024,8.5 L20.1874828,10.223857 C20.3305306,11.4321744 20.1637335,12.6570201 19.7027937,13.7830877 L19.1523499,15.127812 C19.0517897,15.3734786 18.9033309,15.5966691 18.7156284,15.7843716 L18,16.5 C18,17.6943806 18.7642777,18.7547592 19.8973666,19.1324555 L22.1026334,19.8675445 C23.2357223,20.2452408 24,21.3056194 24,22.5 L24,23.6172178 C24,24.1215411 23.6244636,24.5469421 23.1240347,24.6094957 L8.87596527,24.6094957 Z" id="Shape" fill="#FFFFFF"></path>
                <path d="M20.0554805,18.6581139 L22.2607473,19.3932028 C23.5980073,19.8389561 24.5,21.0904042 24.5,22.5 L24.5,23.6172178 C24.5,24.3737027 23.9366953,25.0118042 23.1860521,25.1056346 L23.1240347,25.1094957 L8.87596527,25.1094957 L8.8139479,25.1056346 C8.06330466,25.0118042 7.5,24.3737027 7.5,23.6172178 L7.5,22.5 C7.5,21.0904042 8.40199273,19.8389561 9.73925271,19.3932028 L11.9445195,18.6581139 C12.8101429,18.3695728 13.4132109,17.5950328 13.4913756,16.6984824 L12.9357237,16.1428305 C12.6971296,15.9042364 12.509304,15.6198121 12.3835626,15.3066932 L11.8330585,13.9358373 C11.3405361,12.7093667 11.1653892,11.3784629 11.3238307,10.0663255 L11.5167339,8.46879337 C11.5334909,6.55016621 13.0940139,5 15.0165976,5 L16.9834024,5 C18.9061887,5 20.4668381,6.55049302 20.4832714,8.46940009 L20.6840154,10.1650745 C20.8370384,11.4576516 20.65861,12.7679095 20.1655275,13.9725012 L19.6150836,15.3172255 C19.4893834,15.6243088 19.3038099,15.9032969 19.0691818,16.137925 L18.5086244,16.6984824 C18.5867891,17.5950328 19.1898571,18.3695728 20.0554805,18.6581139 Z M23.0875845,24.1094957 C23.3249142,24.0674158 23.5,23.8607147 23.5,23.6172178 L23.5,22.5 C23.5,21.5208346 22.8734374,20.6515254 21.9445195,20.3418861 L19.7392527,19.6067972 C18.4019927,19.1610439 17.5,17.9095958 17.5,16.5 C17.5,16.3673918 17.5526784,16.2402148 17.6464466,16.1464466 L18.362075,15.4308182 C18.5028519,15.2900413 18.614196,15.1226485 18.6896161,14.9383985 L19.24006,13.5936742 C19.668857,12.5461307 19.8240229,11.4066973 19.6909502,10.2826394 L19.4868698,8.55878248 L19.4834024,8.5 C19.4834024,7.11928813 18.3641142,6 16.9834024,6 L15.0165976,6 C13.6358858,6 12.5165976,7.11928813 12.5165976,8.5 L12.5129918,8.55993995 L12.3166191,10.1862054 C12.1783449,11.331327 12.3311982,12.4928265 12.7610297,13.5631854 L13.3115339,14.9340414 C13.3869787,15.1219127 13.4996741,15.2925673 13.6428305,15.4357237 L14.3535534,16.1464466 C14.4473216,16.2402148 14.5,16.3673918 14.5,16.5 C14.5,17.9095958 13.5980073,19.1610439 12.2607473,19.6067972 L10.0554805,20.3418861 C9.12656264,20.6515254 8.5,21.5208346 8.5,22.5 L8.5,23.6172178 C8.5,23.8607147 8.67508582,24.0674158 8.91241546,24.1094957 L23.0875845,24.1094957 Z" id="Shape" fill="#154E84" fill-rule="nonzero"></path>
                <polygon id="Shape" fill="#FFC200" points="8.5 22.5 16 22.5 16 24.5 8.5 24.5"></polygon>
                <polygon id="Shape" fill="#52ABE2" points="16 22.5 23.5 22.5 23.5 24.5 16 24.5"></polygon>
                <path d="M8.87596527,24.6094957 C8.37553644,24.5469421 8,24.1215411 8,23.6172178 L8,22.5 C8,21.3056194 8.76427769,20.2452408 9.8973666,19.8675445 L12.1026334,19.1324555 C13.2357223,18.7547592 14,17.6943806 14,16.5 L13.2892771,15.7892771 C13.0984018,15.5984018 12.9481413,15.3708624 12.8475483,15.1203673 L12.2970441,13.7495113 C11.8358672,12.6010966 11.671867,11.354895 11.8202249,10.1262655 L12.0165976,8.5 C12.0165976,6.84314575 13.3597434,5.5 15.0165976,5.5 L16.9834024,5.5 C18.6402566,5.5 19.9834024,6.84314575 19.9834024,8.5 L20.1874828,10.223857 C20.3305306,11.4321744 20.1637335,12.6570201 19.7027937,13.7830877 L19.1523499,15.127812 C19.0517897,15.3734786 18.9033309,15.5966691 18.7156284,15.7843716 L18,16.5 C18,17.6943806 18.7642777,18.7547592 19.8973666,19.1324555 L22.1026334,19.8675445 C23.2357223,20.2452408 24,21.3056194 24,22.5 L24,23.6172178 C24,24.1215411 23.6244636,24.5469421 23.1240347,24.6094957 L8.87596527,24.6094957 Z" id="Shape" stroke="#154E84" stroke-width="2" stroke-linecap="round" stroke-linejoin="round"></path>
            </g>
        </g>
    </g>
</svg>