<?xml version="1.0" encoding="UTF-8"?>
<svg width="28px" height="28px" viewBox="0 0 28 28" version="1.1" xmlns="http://www.w3.org/2000/svg" xmlns:xlink="http://www.w3.org/1999/xlink">
    <title>D632EEFB-7394-4346-8E7C-0F0942C1D2E7</title>
    <g id="Page-2" stroke="none" stroke-width="1" fill="none" fill-rule="evenodd">
        <g id="L38.-profile" transform="translate(-884.000000, -412.000000)">
            <g id="Group-81" transform="translate(497.000000, 222.000000)">
                <g id="iconspace_Pencil-Copy" transform="translate(387.000000, 190.000000)">
                    <circle id="Shape" cx="14" cy="14" r="14"></circle>
                    <path d="M19.825486,5.52442564 L22.4755744,8.174514 C22.8414752,8.54041485 22.8414752,9.13365733 22.4755744,9.49955818 L10.140044,21.8350885 L5.25,22.75 L6.16491146,17.859956 L18.5004418,5.52442564 C18.8663427,5.15852479 19.4595852,5.15852479 19.825486,5.52442564 Z" id="Shape" fill="#FFFFFF"></path>
                    <path d="M21.5940469,6.85548649 L7.84052991,20.1680682 L6.4458646,17.7034091 L18.781395,5.36787878 C19.1472958,5.00197793 19.7405383,5.00197793 20.1064391,5.36787878 L21.5940469,6.85548649 Z" id="Shape" fill="#52ABE2"></path>
                    <polygon id="Shape" fill="#FFC200" points="10.140044 21.8350885 5.25 22.75 6.16491146 17.859956"></polygon>
                    <polygon id="Shape" fill="#154E84" points="7.20648016 22.4027524 5.25 22.75 5.6875 20.6804724"></polygon>
                    <path d="M20.1348452,5.21506642 L22.7849336,7.86515478 C23.3216888,8.40191001 23.3216888,9.27216217 22.7849336,9.8089174 L10.4494032,22.1444478 C10.3870167,22.2068342 10.3072257,22.2489009 10.2205027,22.2651265 L5.33045871,23.180038 C5.0281647,23.2365962 4.76340381,22.9718353 4.81996204,22.6695413 L5.7348735,17.7794973 C5.75109909,17.6927743 5.79316576,17.6129833 5.85555224,17.5505968 L18.1910826,5.21506642 C18.7278378,4.67831119 19.59809,4.67831119 20.1348452,5.21506642 Z M22.1662151,9.19019896 C22.3612616,8.99515249 22.3612616,8.67891969 22.1662151,8.48387322 L19.5161268,5.83378485 C19.3210803,5.63873838 19.0048475,5.63873838 18.809801,5.83378485 L6.57004123,18.0735447 L5.79753322,22.2024668 L9.92645535,21.4299588 L22.1662151,9.19019896 Z" id="Shape" fill="#154E84" fill-rule="nonzero"></path>
                    <path d="M5.86150261,18.4539051 L9.54959209,22.1465482 L10.1686921,21.5282116 L6.48060265,17.8355685 L5.86150261,18.4539051 Z M6.48060265,17.8355685 L10.1686921,21.5282116 C10.5809165,21.9409449 9.96181648,22.5592815 9.54959209,22.1465482 L5.86150261,18.4539051 C5.44927822,18.0411718 6.06837825,17.4228352 6.48060265,17.8355685 Z" id="Shape" fill="#154E84" fill-rule="nonzero"></path>
                    <path d="M14.1185879,13.1743652 L14.7418135,13.7885433 L14.1185879,13.1743652 Z M14.7418135,13.7885433 C14.3323614,14.2040271 13.7091358,13.5898489 14.1185879,13.1743652 L20.5336913,6.66476105 C20.9431434,6.24927731 21.566369,6.86345548 21.1569169,7.27893922 L8.32671018,20.2981474 C7.91725806,20.7136312 7.29403244,20.099453 7.70348456,19.6839693 L14.1185879,13.1743652 C14.52804,12.7588814 15.1512657,13.3730596 14.7418135,13.7885433 Z" id="Shape" fill="#154E84" fill-rule="nonzero"></path>
                </g>
            </g>
        </g>
    </g>
</svg>