<?xml version="1.0" encoding="UTF-8"?>
<svg width="14px" height="18px" viewBox="0 0 14 18" version="1.1" xmlns="http://www.w3.org/2000/svg" xmlns:xlink="http://www.w3.org/1999/xlink">
    <!-- Generator: sketchtool 61.2 (101010) - https://sketch.com -->
    <title></title>
    <desc>Created with sketchtool.</desc>
    <g id="Page-3" stroke="none" stroke-width="1" fill="none" fill-rule="evenodd">
        <g id="0.1-Sign-In" transform="translate(-882.000000, -434.000000)">
            <g id="iconspace_Unlock" transform="translate(872.000000, 428.000000)">
                <circle id="Shape" cx="16" cy="16" r="16"></circle>
                <path d="M14,14.5 L14,11.5 C14,9.84314575 15.3431458,8.5 17,8.5 C18.6568542,8.5 20,9.84314575 20,11.5 C20,12.0522847 20.4477153,12.5 21,12.5 C21.5522847,12.5 22,12.0522847 22,11.5 C22,8.73857625 19.7614237,6.5 17,6.5 C14.2385763,6.5 12,8.73857625 12,11.5 L12,14.5 C12,15.0522847 12.4477153,15.5 13,15.5 C13.5522847,15.5 14,15.0522847 14,14.5 Z" id="Shape" fill="#FFFFFF"></path>
                <path d="M14.5,14.5 L14.5,11.5 C14.5,10.1192881 15.6192881,9 17,9 C18.3807119,9 19.5,10.1192881 19.5,11.5 C19.5,12.3284271 20.1715729,13 21,13 C21.8284271,13 22.5,12.3284271 22.5,11.5 C22.5,8.46243388 20.0375661,6 17,6 C13.9624339,6 11.5,8.46243388 11.5,11.5 L11.5,14.5 C11.5,15.3284271 12.1715729,16 13,16 C13.8284271,16 14.5,15.3284271 14.5,14.5 Z M13.5,14.5 C13.5,14.7761424 13.2761424,15 13,15 C12.7238576,15 12.5,14.7761424 12.5,14.5 L12.5,11.5 C12.5,9.01471863 14.5147186,7 17,7 C19.4852814,7 21.5,9.01471863 21.5,11.5 C21.5,11.7761424 21.2761424,12 21,12 C20.7238576,12 20.5,11.7761424 20.5,11.5 C20.5,9.56700338 18.9329966,8 17,8 C15.0670034,8 13.5,9.56700338 13.5,11.5 L13.5,14.5 Z" id="Shape" fill="#154E84" fill-rule="nonzero"></path>
                <polygon id="Shape" fill="#FFC200" points="11 14.5 23 14.5 23 23.5 11 23.5"></polygon>
                <polygon id="Shape" fill="#52ABE2" points="11 21.5 23 21.5 23 23.5 11 23.5"></polygon>
                <path d="M10.5,14.5 C10.5,14.2238576 10.7238576,14 11,14 L23,14 C23.2761424,14 23.5,14.2238576 23.5,14.5 L23.5,23.5 C23.5,23.7761424 23.2761424,24 23,24 L11,24 C10.7238576,24 10.5,23.7761424 10.5,23.5 L10.5,14.5 Z M11.5,15 L11.5,23 L22.5,23 L22.5,15 L11.5,15 Z" id="Shape" fill="#154E84" fill-rule="nonzero"></path>
                <path d="M10.5,21.5 C10.5,21.2238576 10.7238576,21 11,21 L23,21 C23.2761424,21 23.5,21.2238576 23.5,21.5 L23.5,23.5 C23.5,23.7761424 23.2761424,24 23,24 L11,24 C10.7238576,24 10.5,23.7761424 10.5,23.5 L10.5,21.5 Z M11.5,22 L11.5,23 L22.5,23 L22.5,22 L11.5,22 Z" id="Shape" fill="#154E84" fill-rule="nonzero"></path>
            </g>
        </g>
    </g>
</svg>