<?xml version="1.0" encoding="UTF-8"?>
<svg width="20px" height="18px" viewBox="0 0 20 18" version="1.1" xmlns="http://www.w3.org/2000/svg" xmlns:xlink="http://www.w3.org/1999/xlink">
    <title></title>
    <g id="Page-1" stroke="none" stroke-width="1" fill="none" fill-rule="evenodd">
        <g id="P2/0.-Sign-In" transform="translate(-1210.000000, -487.000000)" fill="#97A0AF" fill-rule="nonzero">
            <g id="invisible" transform="translate(1210.000000, 487.000000)">
                <path d="M9.83604255,5.46268085 L12.695617,8.32225532 L12.709234,8.17246809 C12.709234,6.67004255 11.4882553,5.44906383 9.98582979,5.44906383 L9.83604255,5.46268085 Z" id="Path"></path>
                <path d="M9.98582979,3.63348936 C12.4913617,3.63348936 14.5248511,5.66697872 14.5248511,8.17251064 C14.5248511,8.75804255 14.4068511,9.31634043 14.2025957,9.82923404 L16.8579149,12.4845532 C18.2286809,11.3407234 19.3089787,9.86102128 19.9762128,8.17251064 C18.4011915,4.1872766 14.5294043,1.364 9.98587234,1.364 C8.71493617,1.364 7.49851064,1.59093617 6.36829787,1.99944681 L8.32914894,3.95574468 C8.842,3.75604255 9.40029787,3.63348936 9.98582979,3.63348936 Z" id="Path"></path>
                <path d="M0.907787234,1.15970213 L2.97757447,3.22948936 L3.3906383,3.64255319 C1.89276596,4.81361702 0.708085106,6.37051064 0,8.17246809 C1.57051064,12.1577021 5.44680851,14.9809787 9.98582979,14.9809787 C11.3929362,14.9809787 12.7364681,14.7086383 13.9665532,14.2138723 L14.352383,14.5997021 L16.9986383,17.2504681 L18.1560851,16.0975745 L2.06523404,0.00225531915 L0.907787234,1.15970213 Z M5.92795745,6.17531915 L7.33051064,7.57787234 C7.28965957,7.77306383 7.26242553,7.96821277 7.26242553,8.17246809 C7.26242553,9.67489362 8.48340426,10.8958723 9.98582979,10.8958723 C10.1900851,10.8958723 10.3852766,10.8686383 10.5759149,10.8277872 L11.9784681,12.2303404 C11.374766,12.5299149 10.7030213,12.7114894 9.98582979,12.7114894 C7.48029787,12.7114894 5.44680851,10.678 5.44680851,8.17246809 C5.44680851,7.45531915 5.62838298,6.78353191 5.92795745,6.17531915 Z" id="Shape"></path>
            </g>
        </g>
    </g>
</svg>