<?xml version="1.0" encoding="UTF-8"?>
<svg width="18px" height="16px" viewBox="0 0 18 16" version="1.1" xmlns="http://www.w3.org/2000/svg" xmlns:xlink="http://www.w3.org/1999/xlink">
    <title></title>
    <defs>
        <path d="M7.297,0.2915 L0.298,7.2905 C0.296,7.2915 0.294,7.2925 0.291,7.2945 C0.097,7.4885 0,7.7455 0,8.0025 C0,8.2595 0.097,8.5165 0.291,8.7115 C0.294,8.7125 0.297,8.7135 0.299,8.7155 L7.294,15.7105 C7.683,16.1005 8.319,16.1005 8.708,15.7105 C9.097,15.3225 9.097,14.6855 8.708,14.2965 L3.414,9.0025 L17,9.0025 C17.55,9.0025 18,8.5525 18,8.0025 C18,7.4535 17.55,7.0035 17,7.0035 L3.414,7.0035 L8.711,1.7055 C9.1,1.3165 9.1,0.6805 8.711,0.2915 C8.516,0.0975 8.26,0.0005 8.003,0.0005 C7.747,0.0005 7.49,0.0975 7.297,0.2915 Z" id="path-1"></path>
    </defs>
    <g id="Page-1" stroke="none" stroke-width="1" fill="none" fill-rule="evenodd">
        <g id="0.-Registration-step-1" transform="translate(-835.000000, -34.000000)">
            <g id="standard/action/arrow-left" transform="translate(835.000000, 34.000000)">
                <mask id="mask-2" fill="white">
                    <use xlink:href="#path-1"></use>
                </mask>
                <use id="Clip-2" fill="#42526E" xlink:href="#path-1"></use>
                <g id="↳-🎨Color" mask="url(#mask-2)" fill="#42526E">
                    <g transform="translate(-3.000000, -4.000000)" id="N500">
                        <polygon points="0 24 24 24 24 0 0 0"></polygon>
                    </g>
                </g>
            </g>
        </g>
    </g>
</svg>