<?xml version="1.0" encoding="UTF-8"?>
<svg width="20px" height="16px" viewBox="0 0 20 16" version="1.1" xmlns="http://www.w3.org/2000/svg" xmlns:xlink="http://www.w3.org/1999/xlink">
    <title>standard/toggle/watch-filled</title>
    <defs>
        <path d="M12.0000003,4.0004 C17.5190357,4.0004 21.9995,8.8404 21.9995,12.0004 C21.9995,15.0864 17.4229829,20.0004 12.0000003,20.0004 C6.57701763,20.0004 1.9995,15.0864 1.9995,12.0004 C1.9995,8.8404 6.47996426,4.0004 12.0000003,4.0004 Z M11.9829909,7.9844 C9.77577695,7.9844 7.98078971,9.7784 7.98078971,11.9844 C7.98078971,14.1904 9.77577695,15.9844 11.9829909,15.9844 C14.1902049,15.9844 15.9851921,14.1904 15.9851921,11.9844 C15.9851921,9.7784 14.1902049,7.9844 11.9829909,7.9844 Z M12,10 C13.1045695,10 14,10.8954305 14,12 C14,13.1045695 13.1045695,14 12,14 C10.8954305,14 10,13.1045695 10,12 C10,10.8954305 10.8954305,10 12,10 Z" id="path-1"></path>
    </defs>
    <g id="Page-2" stroke="none" stroke-width="1" fill="none" fill-rule="evenodd">
        <g id="P2/0.-Sign-In" transform="translate(-657.000000, -488.000000)">
            <g id="standard/toggle/watch-filled" transform="translate(655.000000, 484.000000)">
                <mask id="mask-2" fill="white">
                    <use xlink:href="#path-1"></use>
                </mask>
                <use id="Fill-3" fill="#42526E" fill-rule="evenodd" xlink:href="#path-1"></use>
                <g id="Neutral-/-N080" mask="url(#mask-2)" fill="#97A0AF" fill-rule="evenodd">
                    <polygon id="N80" points="0 24 24 24 24 0 0 0"></polygon>
                </g>
            </g>
        </g>
    </g>
</svg>