<?xml version="1.0" encoding="UTF-8"?>
<svg width="172px" height="30px" viewBox="0 0 172 30" version="1.1" xmlns="http://www.w3.org/2000/svg" xmlns:xlink="http://www.w3.org/1999/xlink">
    <!-- Generator: sketchtool 61.2 (101010) - https://sketch.com -->
    <title></title>
    <desc>Created with sketchtool.</desc>
    <g id="Page-3" stroke="none" stroke-width="1" fill="none" fill-rule="evenodd">
        <g id="0.1-Sign-In" transform="translate(-274.000000, -268.000000)" fill="#FFFFFF" fill-rule="nonzero">
            <path d="M304.44,294.2 L311.52,268.44 L306.44,268.44 L302.28,285.48 L304.44,294.2 Z M286.96,296.92 L292.8,275.16 L292.88,275.16 L298.56,296.92 L302.72,296.92 L295.48,268.44 L290.36,268.44 L284.6,290.2 L284.52,290.2 L279.4,268.44 L274.32,268.44 L281.8,296.92 L286.96,296.92 Z M323.32,297.48 C325.6,297.48 327.6,296.88 329.28,295.64 C331.08,294.4 332.2,292.64 332.64,290.44 L328.32,290.44 C327.52,292.72 325.84,293.88 323.32,293.88 C321.52,293.88 320.12,293.28 319.12,292.04 C318.2,290.96 317.76,289.52 317.76,287.76 L332.92,287.76 C333.32,284.6 332.6,281.8 330.76,279.44 C328.88,276.96 326.36,275.72 323.2,275.72 C320.96,275.72 319,276.36 317.36,277.6 C315.8,278.76 314.64,280.36 313.92,282.36 L318.32,282.36 C319.28,280.32 320.92,279.32 323.2,279.32 C324.68,279.32 325.88,279.88 326.88,280.96 C327.76,282 328.24,283.28 328.36,284.8 L317.76,284.8 L317.76,284.76 L313.32,284.76 C313.24,285.44 313.2,286.04 313.2,286.6 C313.2,289.88 314.08,292.48 315.8,294.44 C317.6,296.48 320.12,297.48 323.32,297.48 Z M341.08,297 L341.08,268.44 L336.52,268.44 L336.52,297 L341.08,297 Z M355.08,297.56 C360.56,297.56 363.72,294.8 364.56,289.24 L360,289.24 C359.56,292.4 357.92,293.96 355.08,293.96 C353.24,293.96 351.84,293.2 350.84,291.72 C350,290.44 349.6,288.84 349.6,286.88 C349.6,284.08 350.24,282.04 351.56,280.76 C352.52,279.84 353.76,279.36 355.28,279.36 C358.04,279.36 359.64,280.64 360,283.24 L364.56,283.24 C364.36,280.8 363.32,278.92 361.52,277.6 C359.88,276.36 357.76,275.76 355.24,275.76 C351.96,275.76 349.4,276.84 347.6,278.96 C345.88,280.96 345.04,283.6 345.04,286.88 C345.04,290.04 345.92,292.56 347.64,294.48 C349.44,296.52 351.92,297.56 355.08,297.56 Z M377.76,297.56 C380.24,297.56 382.36,296.92 384.08,295.68 L381.2,292.8 C380.24,293.56 379.08,293.96 377.76,293.96 C375.84,293.96 374.36,293.2 373.28,291.64 C372.36,290.32 371.88,288.64 371.88,286.64 C371.88,284.68 372.36,283 373.28,281.68 C374.36,280.12 375.84,279.36 377.76,279.36 C379.68,279.36 381.16,280.12 382.24,281.68 C383.16,283 383.64,284.68 383.64,286.64 C383.64,288.24 383.32,289.64 382.68,290.88 L385.84,294.04 C387.4,292.08 388.2,289.64 388.2,286.64 C388.2,283.44 387.28,280.84 385.44,278.84 C383.56,276.8 381,275.76 377.76,275.76 C374.52,275.76 371.96,276.8 370.08,278.84 C368.24,280.84 367.32,283.44 367.32,286.64 C367.32,289.88 368.24,292.52 370.08,294.48 C371.96,296.52 374.52,297.56 377.76,297.56 Z M396.56,297 L396.56,284.72 C396.56,283.08 397,281.76 397.92,280.76 C398.76,279.84 399.84,279.36 401.08,279.36 C402.4,279.36 403.36,279.72 403.92,280.44 C404.44,281.12 404.72,282.24 404.72,283.72 L404.72,297 L409.28,297 L409.28,284.88 C409.28,281.2 410.76,279.36 413.68,279.36 C415.32,279.36 416.36,279.88 416.88,280.88 C417.24,281.6 417.44,282.96 417.44,284.92 L417.44,297 L422,297 L422,282.72 C422,278.08 419.68,275.76 415.08,275.76 C412.44,275.76 410.28,276.92 408.6,279.2 C407.68,276.92 405.76,275.76 402.8,275.76 C400.12,275.76 398,276.92 396.44,279.2 L396.32,279.2 L396.32,276.32 L392,276.32 L392,297 L396.56,297 Z M435.96,297.48 C438.24,297.48 440.24,296.88 441.92,295.64 C443.72,294.4 444.84,292.64 445.28,290.44 L440.96,290.44 C440.16,292.72 438.48,293.88 435.96,293.88 C434.16,293.88 432.76,293.28 431.76,292.04 C430.84,290.96 430.4,289.52 430.4,287.76 L445.56,287.76 C445.96,284.6 445.24,281.8 443.4,279.44 C441.52,276.96 439,275.72 435.84,275.72 C433.6,275.72 431.64,276.36 430,277.6 C428.44,278.76 427.28,280.36 426.56,282.36 L430.96,282.36 C431.92,280.32 433.56,279.32 435.84,279.32 C437.32,279.32 438.52,279.88 439.52,280.96 C440.4,282 440.88,283.28 441,284.8 L430.4,284.8 L430.4,284.76 L425.96,284.76 C425.88,285.44 425.84,286.04 425.84,286.6 C425.84,289.88 426.72,292.48 428.44,294.44 C430.24,296.48 432.76,297.48 435.96,297.48 Z" id="Welcome"></path>
        </g>
    </g>
</svg>