<?xml version="1.0" encoding="UTF-8"?>
<svg width="102px" height="28px" viewBox="0 0 102 28" version="1.1" xmlns="http://www.w3.org/2000/svg" xmlns:xlink="http://www.w3.org/1999/xlink">
    <!-- Generator: sketchtool 63.1 (101010) - https://sketch.com -->
    <title></title>
    <desc>Created with sketchtool.</desc>
    <defs>
        <polygon id="path-1" points="0.0794981818 0.236294458 16.8257345 0.236294458 16.8257345 21 0.0794981818 21"></polygon>
        <linearGradient x1="75.1666318%" y1="50.0001123%" x2="-743.623349%" y2="50.0001123%" id="linearGradient-3">
            <stop stop-color="#FFFFFF" offset="0%"></stop>
            <stop stop-color="#133960" offset="100%"></stop>
        </linearGradient>
    </defs>
    <g id="Web" stroke="none" stroke-width="1" fill="none" fill-rule="evenodd">
        <g id="0-Sign-In" transform="translate(-40.000000, -50.000000)">
            <g id="Group-32" transform="translate(40.000000, 50.000000)">
                <g id="Group-3" transform="translate(22.000000, 6.552632)" fill="#FFFFFF">
                    <path d="M3.18798529,3.26565672 C1.155,5.28949254 0.137426471,7.73771642 0.137426471,10.6112687 L0.137426471,10.6112687 C0.137426471,13.484194 1.155,15.9327313 3.18798529,17.9556269 L3.18798529,17.9556269 C5.21942647,19.9797761 7.67982353,20.9915373 10.5663971,20.9915373 L10.5663971,20.9915373 C13.4523529,20.9915373 15.91275,19.9797761 17.9460441,17.9556269 L17.9460441,17.9556269 C19.9787206,15.9327313 20.9962941,13.484194 20.9962941,10.6112687 L20.9962941,10.6112687 C20.9962941,7.73771642 19.9787206,5.28949254 17.9460441,3.26565672 L17.9460441,3.26565672 C15.91275,1.24213433 13.4523529,0.230373134 10.5663971,0.230373134 L10.5663971,0.230373134 C7.67982353,0.230373134 5.21942647,1.24213433 3.18798529,3.26565672 M6.35373529,14.8046866 C5.19008824,13.6462388 4.60672059,12.2483284 4.60672059,10.6112687 L4.60672059,10.6112687 C4.60672059,8.97420896 5.19008824,7.57535821 6.35373529,6.41753731 L6.35373529,6.41753731 C7.51738235,5.25814925 8.92191176,4.67955224 10.5663971,4.67955224 L10.5663971,4.67955224 C12.2118088,4.67955224 13.6166471,5.25814925 14.7806029,6.41753731 L14.7806029,6.41753731 C15.9439412,7.57535821 16.5257647,8.97420896 16.5257647,10.6112687 L16.5257647,10.6112687 C16.5257647,12.2483284 15.9439412,13.6462388 14.7806029,14.8046866 L14.7806029,14.8046866 C13.6166471,15.9631343 12.2118088,16.5426716 10.5663971,16.5426716 L10.5663971,16.5426716 C8.92191176,16.5426716 7.51738235,15.9631343 6.35373529,14.8046866" id="Fill-1"></path>
                </g>
                <g id="Group-6" transform="translate(38.000000, 6.552632)" fill="#FFFFFF">
                    <path d="M3.45942029,3.26565672 C1.36081159,5.28949254 0.311826087,7.73771642 0.311826087,10.6112687 L0.311826087,10.6112687 C0.311826087,13.484194 1.36081159,15.9327313 3.45942029,17.9556269 L3.45942029,17.9556269 C5.55866667,19.9797761 8.09823188,20.9915373 11.0787536,20.9915373 L11.0787536,20.9915373 C14.0586377,20.9915373 16.5982029,19.9797761 18.6977681,17.9556269 L18.6977681,17.9556269 C20.7970145,15.9327313 21.8456812,13.484194 21.8456812,10.6112687 L21.8456812,10.6112687 C21.8456812,7.73771642 20.7970145,5.28949254 18.6977681,3.26565672 L18.6977681,3.26565672 C16.5982029,1.24213433 14.0586377,0.230373134 11.0787536,0.230373134 L11.0787536,0.230373134 C8.09823188,0.230373134 5.55866667,1.24213433 3.45942029,3.26565672 M6.72785507,14.8046866 C5.52678261,13.6462388 4.92608696,12.2483284 4.92608696,10.6112687 L4.92608696,10.6112687 C4.92608696,8.97420896 5.52678261,7.57535821 6.72785507,6.41753731 L6.72785507,6.41753731 C7.93052174,5.25814925 9.37997101,4.67955224 11.0787536,4.67955224 L11.0787536,4.67955224 C12.7756232,4.67955224 14.2269855,5.25814925 15.4277391,6.41753731 L15.4277391,6.41753731 C16.6310435,7.57535821 17.2314203,8.97420896 17.2314203,10.6112687 L17.2314203,10.6112687 C17.2314203,12.2483284 16.6310435,13.6462388 15.4277391,14.8046866 L15.4277391,14.8046866 C14.2269855,15.9631343 12.7756232,16.5426716 11.0787536,16.5426716 L11.0787536,16.5426716 C9.37997101,16.5426716 7.93052174,15.9631343 6.72785507,14.8046866" id="Fill-4"></path>
                </g>
                <g id="Group-12" transform="translate(32.000000, 6.552632)">
                    <g id="Group-9">
                        <mask id="mask-2" fill="white">
                            <use xlink:href="#path-1"></use>
                        </mask>
                        <g id="Clip-8"></g>
                        <path d="M16.8257345,0.236641791 C16.8257345,0.236641791 12.5197891,0.133835821 9.64864364,3.46562687 C7.20002545,6.30689552 6.94657091,8.76170149 6.40380727,12.9231493 C5.86166182,17.0839701 4.23213455,20.0383881 0.0794981818,20.9915373 C0.0794981818,20.9915373 4.69082545,21.2780149 7.43091636,18.545194 C9.81400727,16.1696866 10.9020073,12.5598806 11.3310255,9.70701493 C11.6237345,7.76247761 11.0757164,1.69786567 16.8257345,0.236641791" id="Fill-7" fill="#F6931D" mask="url(#mask-2)"></path>
                    </g>
                </g>
                <g id="Group-15" transform="translate(62.000000, 7.552632)" fill="#FFFFFF">
                    <path d="M6.46126667,1.0265625 C5.83331667,1.3384375 5.23038333,1.72625 4.65468333,2.186875 L4.65468333,2.186875 L4.65468333,0.476875 L0.148833333,0.476875 L0.148833333,20.000625 L4.65468333,20.000625 L4.65468333,12.573125 C4.65468333,9.82 4.82726667,8.603125 4.97008333,8.0778125 L4.97008333,8.0778125 C5.28865,6.9503125 5.93591667,6.0265625 6.94988333,5.25375 L6.94988333,5.25375 C7.95846667,4.485 9.06806667,4.11125 10.3429667,4.11125 L10.3429667,4.11125 C11.4221667,4.11125 12.2885667,4.34125 12.9184167,4.7953125 L12.9184167,4.7953125 C13.53655,5.240625 13.9475833,5.90875 14.1828667,6.8596875 L14.1828667,6.8596875 C14.2921167,7.264375 14.4229,8.2490625 14.4229,10.64125 L14.4229,10.64125 L14.4229,20.000625 L18.9284333,20.000625 L18.9284333,9.9809375 C18.9284333,7.4275 18.63805,5.5671875 18.0398667,4.294375 L18.0398667,4.294375 C17.4268,2.98875 16.4657167,1.9375 15.1835333,1.169375 L15.1835333,1.169375 C13.9152833,0.410625 12.4526,0.0259375 10.8357,0.0259375 L10.8357,0.0259375 C9.27073333,0.0259375 7.79886667,0.3625 6.46126667,1.0265625" id="Fill-13"></path>
                </g>
                <g id="Group-20" transform="translate(83.000000, 0.552632)" fill="#FFFFFF">
                    <path d="M2.9937,0.138413793 C2.2338,0.138413793 1.5405,0.418655172 0.9891,0.948724138 L0.9891,0.948724138 C0.4179,1.49772414 0.1155,2.20406897 0.1155,2.99048276 L0.1155,2.99048276 C0.1155,3.76665517 0.4179,4.4667931 0.9891,5.0157931 L0.9891,5.0157931 C1.5402,5.54586207 2.2335,5.82641379 2.9937,5.82641379 L2.9937,5.82641379 C3.7644,5.82641379 4.4634,5.54586207 5.0142,5.01610345 L5.0142,5.01610345 C5.5863,4.4667931 5.8884,3.76634483 5.8884,2.99048276 L5.8884,2.99048276 C5.8884,2.20406897 5.5863,1.49803448 5.0145,0.948724138 L5.0145,0.948724138 C4.4631,0.418655172 3.7641,0.138413793 2.9937,0.138413793 Z M0.8679,26.6902759 L5.136,26.6902759 L5.136,7.30117241 L0.8679,7.30117241 L0.8679,26.6902759 Z" id="Fill-18"></path>
                </g>
                <g id="Group-25" transform="translate(90.000000, 0.552632)" fill="url(#linearGradient-3)">
                    <polygon id="Fill-23" points="3.38084211 0.229178571 3.38084211 6.91907143 0.0198947368 6.91907143 0.0198947368 10.9883571 3.38084211 10.9883571 3.38084211 27.0006429 7.87357895 27.0006429 7.87357895 10.9883571 11.7798947 10.9883571 11.7798947 6.91907143 7.87357895 6.91907143 7.87357895 0.229178571"></polygon>
                </g>
                <g id="Group-28" transform="translate(0.000000, 6.552632)" fill="#FFFFFF">
                    <path d="M0,0.0267272727 L5.83292308,10.4252273 L0,20.8234091 L6.42892308,20.8234091 L11.2796923,12.1650455 C11.9584615,10.9537273 11.9584615,9.89609091 11.2796923,8.68509091 L11.2796923,8.68509091 L6.42892308,0.0267272727 L0,0.0267272727 Z" id="Fill-26"></path>
                </g>
                <g id="Group-31" transform="translate(11.000000, 6.552632)" fill="#FFFFFF">
                    <path d="M5.89121212,0.0264090909 L3.90848485,0.0264090909 L2.78060606,1.66377273 L0.0663636364,5.6035 L2.04878788,5.6035 L4.76333333,1.66377273 L6.81090909,1.66377273 C5.32090909,3.82359091 3.8069697,5.96654545 2.33787879,8.14036364 L2.33787879,8.14036364 C0.985454545,10.1407727 0.985454545,10.7090455 2.33787879,12.7094545 L2.33787879,12.7094545 C3.8069697,14.8835909 5.32090909,17.0265455 6.81090909,19.1860455 L6.81090909,19.1860455 L4.76333333,19.1860455 L2.04878788,15.2466364 L0.0663636364,15.2466364 L2.78060606,19.1860455 L3.90848485,20.8234091 L5.89121212,20.8234091 L9.90181818,20.8234091 C7.88393939,17.8118182 5.72212121,14.8011818 3.68636364,11.7899091 L3.68636364,11.7899091 C2.71969697,10.3593636 2.71969697,10.4907727 3.68636364,9.06022727 L3.68636364,9.06022727 C5.72212121,6.04895455 7.88393939,3.03768182 9.90181818,0.0264090909 L9.90181818,0.0264090909 L5.89121212,0.0264090909 Z" id="Fill-29"></path>
                </g>
            </g>
        </g>
    </g>
</svg>