<?xml version="1.0" encoding="UTF-8"?>
<svg width="120px" height="35px" viewBox="0 0 120 35" version="1.1" xmlns="http://www.w3.org/2000/svg" xmlns:xlink="http://www.w3.org/1999/xlink">
    <title>AC146D94-C61D-4ED5-9F8E-48A0059662A8@1x</title>
    <defs>
        <polygon id="path-1" points="0.0947419126 0.280572269 20.0520595 0.280572269 20.0520595 24.9350649 0.0947419126 24.9350649"></polygon>
    </defs>
    <g id="Page-1" stroke="none" stroke-width="1" fill="none" fill-rule="evenodd">
        <g id="P2/0.-Sign-In" transform="translate(-68.000000, -68.000000)">
            <g id="Group-32" transform="translate(68.000000, 68.000000)">
                <g id="Group-3" transform="translate(26.493506, 7.119939)" fill="#303030">
                    <path d="M3.78536287,3.87758868 C1.37142857,6.28065904 0.163177998,9.18764102 0.163177998,12.5996511 L0.163177998,12.5996511 C0.163177998,16.0109168 1.37142857,18.918271 3.78536287,21.3202248 L3.78536287,21.3202248 C6.19746371,23.7236674 9.11889992,24.9250165 12.5463713,24.9250165 L12.5463713,24.9250165 C15.9731092,24.9250165 18.8945455,23.7236674 21.3088464,21.3202248 L21.3088464,21.3202248 C23.7224141,18.918271 24.9306646,16.0109168 24.9306646,12.5996511 L24.9306646,12.5996511 C24.9306646,9.18764102 23.7224141,6.28065904 21.3088464,3.87758868 L21.3088464,3.87758868 C18.8945455,1.47489048 15.9731092,0.273541384 12.5463713,0.273541384 L12.5463713,0.273541384 C9.11889992,0.273541384 6.19746371,1.47489048 3.78536287,3.87758868 M7.54432391,17.5788486 C6.16262796,16.2033262 5.46994652,14.5434697 5.46994652,12.5996511 L5.46994652,12.5996511 C5.46994652,10.6558325 6.16262796,8.99485947 7.54432391,7.62008141 L7.54432391,7.62008141 C8.92601986,6.24344253 10.5937357,5.55642566 12.5463713,5.55642566 L12.5463713,5.55642566 C14.500107,5.55642566 16.1681895,6.24344253 17.5502521,7.62008141 L17.5502521,7.62008141 C18.9315814,8.99485947 19.6224293,10.6558325 19.6224293,12.5996511 L19.6224293,12.5996511 C19.6224293,14.5434697 18.9315814,16.2033262 17.5502521,17.5788486 L17.5502521,17.5788486 C16.1681895,18.954371 14.500107,19.6425044 12.5463713,19.6425044 L12.5463713,19.6425044 C10.5937357,19.6425044 8.92601986,18.954371 7.54432391,17.5788486" id="Fill-1"></path>
                </g>
                <g id="Group-6" transform="translate(43.636364, 7.119939)" fill="#303030">
                    <path d="M4.16600791,3.87758868 C1.63875776,6.28065904 0.375516657,9.18764102 0.375516657,12.5996511 L0.375516657,12.5996511 C0.375516657,16.0109168 1.63875776,18.918271 4.16600791,21.3202248 L4.16600791,21.3202248 C6.69402597,23.7236674 9.75229814,24.9250165 13.3415923,24.9250165 L13.3415923,24.9250165 C16.9301186,24.9250165 19.9883907,23.7236674 22.5167928,21.3202248 L22.5167928,21.3202248 C25.0448108,18.918271 26.307668,16.0109168 26.307668,12.5996511 L26.307668,12.5996511 C26.307668,9.18764102 25.0448108,6.28065904 22.5167928,3.87758868 L22.5167928,3.87758868 C19.9883907,1.47489048 16.9301186,0.273541384 13.3415923,0.273541384 L13.3415923,0.273541384 C9.75229814,0.273541384 6.69402597,1.47489048 4.16600791,3.87758868 M8.10202146,17.5788486 C6.65562959,16.2033262 5.93224167,14.5434697 5.93224167,12.5996511 L5.93224167,12.5996511 C5.93224167,10.6558325 6.65562959,8.99485947 8.10202146,7.62008141 L8.10202146,7.62008141 C9.55033315,6.24344253 11.2958329,5.55642566 13.3415923,5.55642566 L13.3415923,5.55642566 C15.385048,5.55642566 17.1328515,6.24344253 18.5788594,7.62008141 L18.5788594,7.62008141 C20.027939,8.99485947 20.750943,10.6558325 20.750943,12.5996511 L20.750943,12.5996511 C20.750943,14.5434697 20.027939,16.2033262 18.5788594,17.5788486 L18.5788594,17.5788486 C17.1328515,18.954371 15.385048,19.6425044 13.3415923,19.6425044 L13.3415923,19.6425044 C11.2958329,19.6425044 9.55033315,18.954371 8.10202146,17.5788486" id="Fill-4"></path>
                </g>
                <g id="Group-9" transform="translate(37.402597, 7.119939)">
                    <mask id="mask-2" fill="white">
                        <use xlink:href="#path-1"></use>
                    </mask>
                    <g id="Clip-8"></g>
                    <path d="M20.0520595,0.280984687 C20.0520595,0.280984687 14.9204515,0.158914518 11.4987655,4.11503004 C8.58062621,7.48870711 8.2785719,10.4035046 7.63173365,15.3447412 C6.98563211,20.2852336 5.04364392,23.7932623 0.0947419126,24.9250165 C0.0947419126,24.9250165 5.59028855,25.2651754 8.85579032,22.0202675 C11.6958375,19.1996278 12.9924609,14.9134018 13.5037431,11.5259546 C13.852579,9.21704206 13.1994786,2.01601861 20.0520595,0.280984687" id="Fill-7" fill="#F6931D" mask="url(#mask-2)"></path>
                </g>
                <g id="Group-15" transform="translate(73.246753, 8.678380)" fill="#303030">
                    <path d="M7.41963636,1.19987825 C6.69854545,1.56440747 6.00618182,2.01769481 5.34509091,2.55608766 L5.34509091,2.55608766 L5.34509091,0.557386364 L0.170909091,0.557386364 L0.170909091,23.3773539 L5.34509091,23.3773539 L5.34509091,14.6958604 C5.34509091,11.4779221 5.54327273,10.0556006 5.70727273,9.44159903 L5.70727273,9.44159903 C6.07309091,8.12374188 6.81636364,7.04403409 7.98072727,6.14074675 L7.98072727,6.14074675 C9.13890909,5.24220779 10.4130909,4.80535714 11.8770909,4.80535714 L11.8770909,4.80535714 C13.1163636,4.80535714 14.1112727,5.07418831 14.8345455,5.60491071 L14.8345455,5.60491071 C15.5443636,6.12540584 16.0163636,6.90633117 16.2865455,8.01781656 L16.2865455,8.01781656 C16.412,8.49082792 16.5621818,9.64176136 16.5621818,12.4378247 L16.5621818,12.4378247 L16.5621818,23.3773539 L21.736,23.3773539 L21.736,11.6660308 C21.736,8.68149351 21.4025455,6.50710227 20.7156364,5.01939935 L20.7156364,5.01939935 C20.0116364,3.49334416 18.908,2.26461039 17.4356364,1.36680195 L17.4356364,1.36680195 C15.9792727,0.479951299 14.2996364,0.0303165584 12.4429091,0.0303165584 L12.4429091,0.0303165584 C10.6458182,0.0303165584 8.95563636,0.423701299 7.41963636,1.19987825" id="Fill-13"></path>
                </g>
                <g id="Group-20" transform="translate(96.623377, 0.886173)" fill="#303030">
                    <path d="M3.88792208,0.159785043 C2.90103896,0.159785043 2.00064935,0.483296014 1.28454545,1.09520824 L1.28454545,1.09520824 C0.542727273,1.72897447 0.15,2.54437976 0.15,3.45221675 L0.15,3.45221675 C0.15,4.34823108 0.542727273,5.15647112 1.28454545,5.79023735 L1.28454545,5.79023735 C2.00025974,6.40214957 2.90064935,6.72601881 3.88792208,6.72601881 L3.88792208,6.72601881 C4.88883117,6.72601881 5.79662338,6.40214957 6.51194805,5.79059561 L6.51194805,5.79059561 C7.25493506,5.15647112 7.64727273,4.34787282 7.64727273,3.45221675 L7.64727273,3.45221675 C7.64727273,2.54437976 7.25493506,1.72933274 6.51233766,1.09520824 L6.51233766,1.09520824 C5.79623377,0.483296014 4.88844156,0.159785043 3.88792208,0.159785043 Z M1.12714286,30.8112853 L6.67012987,30.8112853 L6.67012987,8.42848186 L1.12714286,8.42848186 L1.12714286,30.8112853 Z" id="Fill-18"></path>
                </g>
                <g id="Group-25" transform="translate(105.974026, 0.886173)" fill="#303030">
                    <polygon id="Fill-23" points="3.95163363 0.264564007 3.95163363 7.98738404 0.0232535885 7.98738404 0.0232535885 12.6849722 3.95163363 12.6849722 3.95163363 31.1695733 9.20288448 31.1695733 9.20288448 12.6849722 13.7687081 12.6849722 13.7687081 7.98738404 9.20288448 7.98738404 9.20288448 0.264564007"></polygon>
                </g>
                <g id="Group-28" transform="translate(0.000000, 7.119939)" fill="#303030">
                    <path d="M0,0.0317355372 L6.8177023,12.3787485 L0,24.7253837 L7.51432567,24.7253837 L13.1840559,14.4445809 C13.9774226,13.006281 13.9774226,11.7504604 13.1840559,10.3125384 L13.1840559,10.3125384 L7.51432567,0.0317355372 L0,0.0317355372 Z" id="Fill-26"></path>
                </g>
                <g id="Group-31" transform="translate(12.467532, 7.119939)" fill="#303030">
                    <path d="M7.34488784,0.0313577332 L4.87291617,0.0313577332 L3.46672963,1.97553719 L0.0827390791,6.65350649 L2.55433294,6.65350649 L5.9387013,1.97553719 L8.49152302,1.97553719 C6.63386068,4.54007084 4.74635183,7.08458087 2.91475797,9.6657379 L2.91475797,9.6657379 C1.22861865,12.0409917 1.22861865,12.7157497 2.91475797,15.0910035 L2.91475797,15.0910035 C4.74635183,17.6725384 6.63386068,20.2170484 8.49152302,22.7812043 L8.49152302,22.7812043 L5.9387013,22.7812043 L2.55433294,18.1036128 L0.0827390791,18.1036128 L3.46672963,22.7812043 L4.87291617,24.7253837 L7.34488784,24.7253837 L12.345124,24.7253837 C9.82932704,21.1494687 7.1340732,17.5746871 4.59598583,13.9991499 L4.59598583,13.9991499 C3.39079103,12.3005431 3.39079103,12.4565762 4.59598583,10.7579693 L4.59598583,10.7579693 C7.1340732,7.18243211 9.82932704,3.60689492 12.345124,0.0313577332 L12.345124,0.0313577332 L7.34488784,0.0313577332 Z" id="Fill-29"></path>
                </g>
            </g>
        </g>
    </g>
</svg>