<?xml version="1.0" encoding="UTF-8"?>
<svg width="28px" height="28px" viewBox="0 0 28 28" version="1.1" xmlns="http://www.w3.org/2000/svg" xmlns:xlink="http://www.w3.org/1999/xlink">
    <title></title>
    <g id="Page-1" stroke="none" stroke-width="1" fill="none" fill-rule="evenodd">
        <g id="L21.--Failed" transform="translate(-12.000000, -128.000000)">
            <g id="Group-53" transform="translate(0.000000, 68.000000)">
                <g id="Group-5" transform="translate(0.000000, 54.000000)">
                    <g id="iconspace_ATM-b" transform="translate(12.000000, 6.000000)">
                        <circle id="Shape" cx="14" cy="14" r="14"></circle>
                        <path d="M6.125,6.125 L21.875,6.125 C22.5998737,6.125 23.1875,6.71262627 23.1875,7.4375 L23.1875,10.0625 C23.1875,10.7873737 22.5998737,11.375 21.875,11.375 L6.125,11.375 C5.40012627,11.375 4.8125,10.7873737 4.8125,10.0625 L4.8125,7.4375 C4.8125,6.71262627 5.40012627,6.125 6.125,6.125 Z" id="Shape" fill="#154E84" fill-rule="nonzero"></path>
                        <path d="M6.125,7 C5.88337542,7 5.6875,7.19587542 5.6875,7.4375 L5.6875,10.0625 C5.6875,10.3041246 5.88337542,10.5 6.125,10.5 L21.875,10.5 C22.1166246,10.5 22.3125,10.3041246 22.3125,10.0625 L22.3125,7.4375 C22.3125,7.19587542 22.1166246,7 21.875,7 L6.125,7 Z" id="Shape" fill="#FFC200" fill-rule="nonzero"></path>
                        <path d="M5.90625,10.28125 C5.90625,10.0396254 6.10212542,9.84375 6.34375,9.84375 L20.78125,9.84375 C21.5061237,9.84375 22.09375,10.4313763 22.09375,11.15625 L22.09375,21.65625 C22.09375,22.3811237 21.5061237,22.96875 20.78125,22.96875 L6.34375,22.96875 C6.10212542,22.96875 5.90625,22.7728746 5.90625,22.53125 L5.90625,10.28125 Z" id="Shape" fill="#154E84" fill-rule="nonzero" transform="translate(14.000000, 16.406250) rotate(-270.000000) translate(-14.000000, -16.406250) "></path>
                        <path d="M6.78125,10.71875 L6.78125,22.09375 L20.78125,22.09375 C21.0228746,22.09375 21.21875,21.8978746 21.21875,21.65625 L21.21875,11.15625 C21.21875,10.9146254 21.0228746,10.71875 20.78125,10.71875 L6.78125,10.71875 Z" id="Shape" fill="#FFFFFF" fill-rule="nonzero" transform="translate(14.000000, 16.406250) rotate(-270.000000) translate(-14.000000, -16.406250) "></path>
                        <path d="M15.875,10.5 L17.375,10.5 C17.9272847,10.5 18.375,10.9477153 18.375,11.5 L18.375,13 C18.375,13.5522847 17.9272847,14 17.375,14 L15.875,14 C15.3227153,14 14.875,13.5522847 14.875,13 L14.875,11.5 C14.875,10.9477153 15.3227153,10.5 15.875,10.5 Z" id="Shape" fill="#FFC200" transform="translate(16.625000, 12.250000) rotate(-270.000000) translate(-16.625000, -12.250000) "></path>
                        <path d="M8.09375,12.46875 L12.03125,12.46875 C12.2728746,12.46875 12.46875,12.6646254 12.46875,12.90625 C12.46875,13.1478746 12.2728746,13.34375 12.03125,13.34375 L8.09375,13.34375 C7.85212542,13.34375 7.65625,13.1478746 7.65625,12.90625 C7.65625,12.6646254 7.85212542,12.46875 8.09375,12.46875 Z" id="Shape" fill="#52ABE2" transform="translate(10.062500, 12.906250) rotate(-270.000000) translate(-10.062500, -12.906250) "></path>
                        <path d="M10.9375,11.375 L12.6875,11.375 C12.9291246,11.375 13.125,11.5708754 13.125,11.8125 C13.125,12.0541246 12.9291246,12.25 12.6875,12.25 L10.9375,12.25 C10.6958754,12.25 10.5,12.0541246 10.5,11.8125 C10.5,11.5708754 10.6958754,11.375 10.9375,11.375 Z" id="Shape" fill="#52ABE2" transform="translate(11.812500, 11.812500) rotate(-270.000000) translate(-11.812500, -11.812500) "></path>
                        <circle id="Shape" fill="#FFC200" cx="11.375" cy="20.5625" r="1.75"></circle>
                        <circle id="Shape" fill="#52ABE2" cx="11.375" cy="18.8125" r="1.75"></circle>
                    </g>
                </g>
            </g>
        </g>
    </g>
</svg>