<?xml version="1.0" encoding="UTF-8"?>
<svg width="28px" height="28px" viewBox="0 0 28 28" version="1.1" xmlns="http://www.w3.org/2000/svg" xmlns:xlink="http://www.w3.org/1999/xlink">
    <title></title>
    <g id="Page-1" stroke="none" stroke-width="1" fill="none" fill-rule="evenodd">
        <g id="L21.--Failed" transform="translate(-12.000000, -660.000000)">
            <g id="Group-53" transform="translate(0.000000, 68.000000)">
                <g id="Group-20" transform="translate(0.000000, 586.000000)">
                    <g id="iconspace_Bill" transform="translate(12.000000, 6.000000)">
                        <circle id="Shape" opacity="0.197916667" cx="14" cy="14" r="14"></circle>
                        <path d="M22.3125,22.75 L10.9375,22.75 C9.48775253,22.75 8.3125,21.5747475 8.3125,20.125 L8.3125,5.25 L10.0625,6.12224919 L11.8125,5.25 L13.5625,6.13299443 L15.3125,5.25 L17.0625,6.13299443 L18.8125,5.25 L20.5625,6.12224919 L22.3125,5.25 L22.3125,18.9613953 L22.3125,22.75 Z" id="Shape" fill="#FFFFFF" transform="translate(15.312500, 14.000000) scale(-1, 1) translate(-15.312500, -14.000000) "></path>
                        <path d="M10.0625,5.6429575 L11.6154179,4.85940444 C11.739364,4.79686519 11.885636,4.79686519 12.0095821,4.85940444 L13.5625,5.6429575 L15.1154179,4.85940444 C15.239364,4.79686519 15.385636,4.79686519 15.5095821,4.85940444 L17.0625,5.6429575 L18.6154179,4.85940444 C18.7388622,4.79711835 18.8844852,4.79685274 19.0081559,4.8586881 L20.5625,5.63586013 L22.1168441,4.8586881 C22.4077383,4.71324099 22.75,4.92477037 22.75,5.25 L22.75,20.5625 C22.75,22.0122475 21.5747475,23.1875 20.125,23.1875 L8.3125,23.1875 C8.07087542,23.1875 7.875,22.9916246 7.875,22.75 L7.875,5.25 C7.875,4.92407266 8.21859749,4.71258284 8.50958212,4.85940444 L10.0625,5.6429575 Z M8.75,5.96078554 L8.75,22.3125 L20.125,22.3125 C21.0914983,22.3125 21.875,21.5289983 21.875,20.5625 L21.875,5.95788987 L20.7581559,6.5163119 C20.6349877,6.57789603 20.4900123,6.57789603 20.3668441,6.5163119 L18.813393,5.73958636 L17.2595821,6.52358999 C17.135636,6.58612925 16.989364,6.58612925 16.8654179,6.52358999 L15.3125,5.74003694 L13.7595821,6.52358999 C13.635636,6.58612925 13.489364,6.58612925 13.3654179,6.52358999 L11.8125,5.74003694 L10.2595821,6.52358999 C10.135636,6.58612925 9.98936396,6.58612925 9.86541788,6.52358999 L8.75,5.96078554 Z" id="Shape" fill="#154E84" fill-rule="nonzero"></path>
                        <path d="M7,19.25 C7,19.008543 7.19561398,18.812737 7.43707087,18.8125002 L17.9370717,18.8022 C19.1442465,18.801017 20.1238149,19.7786656 20.125,20.9858404 L20.125,20.9879843 C20.125,22.1962035 19.1460948,23.1759492 17.9378761,23.1769861 L5.68787549,23.1875 C5.44610435,23.1877073 5.25,22.9917712 5.25,22.75 L5.25,22.7379843 C5.25,22.514963 5.4177586,22.3276377 5.63942965,22.3031332 C6.4102095,22.2179278 7,21.5635122 7,20.78125 L7,19.25 Z" id="Shape" fill="#154E84" fill-rule="nonzero" transform="translate(12.687500, 20.994850) scale(-1, 1) translate(-12.687500, -20.994850) "></path>
                        <path d="M6.67390787,19.6870711 L6.67390787,20.78125 C6.67390787,21.3598866 6.46869985,21.8938938 6.125,22.3110935 L16.736033,22.3019864 C17.461296,22.301364 18.0489079,21.7132476 18.0489079,20.9879843 L18.0489079,20.9866986 C18.0481972,20.2627728 17.4607637,19.6764906 16.7368378,19.6772 L6.67390787,19.6870711 Z" id="Shape" fill="#FFC200" fill-rule="nonzero" transform="translate(12.086954, 20.994147) scale(-1, 1) translate(-12.086954, -20.994147) "></path>
                        <polygon id="Shape" fill="#154E84" fill-rule="nonzero" transform="translate(19.468750, 22.743992) scale(-1, 1) translate(-19.468750, -22.743992) " points="19.25 22.7379843 19.6875 22.7379843 19.6875 22.75 19.2513283 22.75"></polygon>
                        <path d="M13.5625,9.625 C13.5625,9.38337542 13.3666246,9.1875 13.125,9.1875 L11.59375,9.1875 C11.2313131,9.1875 10.9375,9.48131313 10.9375,9.84375 C10.9375,10.2061869 11.2313131,10.5 11.59375,10.5 L12.90625,10.5 C13.751936,10.5 14.4375,11.185564 14.4375,12.03125 C14.4375,12.876936 13.751936,13.5625 12.90625,13.5625 L11.375,13.5625 C10.6501263,13.5625 10.0625,12.9748737 10.0625,12.25 C10.0625,12.0083754 10.2583754,11.8125 10.5,11.8125 C10.7416246,11.8125 10.9375,12.0083754 10.9375,12.25 C10.9375,12.4916246 11.1333754,12.6875 11.375,12.6875 L12.90625,12.6875 C13.2686869,12.6875 13.5625,12.3936869 13.5625,12.03125 C13.5625,11.6688131 13.2686869,11.375 12.90625,11.375 L11.59375,11.375 C10.748064,11.375 10.0625,10.689436 10.0625,9.84375 C10.0625,8.99806398 10.748064,8.3125 11.59375,8.3125 L13.125,8.3125 C13.8498737,8.3125 14.4375,8.90012627 14.4375,9.625 C14.4375,9.86662458 14.2416246,10.0625 14,10.0625 C13.7583754,10.0625 13.5625,9.86662458 13.5625,9.625 Z" id="Path" fill="#52ABE2" fill-rule="nonzero"></path>
                        <path d="M12.9791667,8.75 L12.9791667,7.875 C12.9791667,7.63337542 12.7179994,7.4375 12.3958333,7.4375 C12.0736672,7.4375 11.8125,7.63337542 11.8125,7.875 L11.8125,8.75 C11.8125,8.99162458 12.0736672,9.1875 12.3958333,9.1875 C12.7179994,9.1875 12.9791667,8.99162458 12.9791667,8.75 Z" id="Shape" fill="#52ABE2" fill-rule="nonzero"></path>
                        <path d="M12.9791667,14 L12.9791667,13.125 C12.9791667,12.8833754 12.7179994,12.6875 12.3958333,12.6875 C12.0736672,12.6875 11.8125,12.8833754 11.8125,13.125 L11.8125,14 C11.8125,14.2416246 12.0736672,14.4375 12.3958333,14.4375 C12.7179994,14.4375 12.9791667,14.2416246 12.9791667,14 Z" id="Shape" fill="#52ABE2" fill-rule="nonzero"></path>
                        <path d="M15.75,9.47916667 L20.125,9.47916667 C20.3666246,9.47916667 20.5625,9.21799944 20.5625,8.89583333 C20.5625,8.57366723 20.3666246,8.3125 20.125,8.3125 L15.75,8.3125 C15.5083754,8.3125 15.3125,8.57366723 15.3125,8.89583333 C15.3125,9.21799944 15.5083754,9.47916667 15.75,9.47916667 Z" id="Shape" fill="#52ABE2" fill-rule="nonzero"></path>
                        <path d="M15.75,11.6666667 L20.125,11.6666667 C20.3666246,11.6666667 20.5625,11.4054994 20.5625,11.0833333 C20.5625,10.7611672 20.3666246,10.5 20.125,10.5 L15.75,10.5 C15.5083754,10.5 15.3125,10.7611672 15.3125,11.0833333 C15.3125,11.4054994 15.5083754,11.6666667 15.75,11.6666667 Z" id="Shape" fill="#52ABE2" fill-rule="nonzero"></path>
                        <path d="M15.75,13.8541667 L20.125,13.8541667 C20.3666246,13.8541667 20.5625,13.5929994 20.5625,13.2708333 C20.5625,12.9486672 20.3666246,12.6875 20.125,12.6875 L15.75,12.6875 C15.5083754,12.6875 15.3125,12.9486672 15.3125,13.2708333 C15.3125,13.5929994 15.5083754,13.8541667 15.75,13.8541667 Z" id="Shape" fill="#52ABE2" fill-rule="nonzero"></path>
                        <path d="M10.5,16.0416667 L20.125,16.0416667 C20.3666246,16.0416667 20.5625,15.7804994 20.5625,15.4583333 C20.5625,15.1361672 20.3666246,14.875 20.125,14.875 L10.5,14.875 C10.2583754,14.875 10.0625,15.1361672 10.0625,15.4583333 C10.0625,15.7804994 10.2583754,16.0416667 10.5,16.0416667 Z" id="Shape" fill="#52ABE2" fill-rule="nonzero"></path>
                        <path d="M10.5,18.2291667 L20.125,18.2291667 C20.3666246,18.2291667 20.5625,17.9679994 20.5625,17.6458333 C20.5625,17.3236672 20.3666246,17.0625 20.125,17.0625 L10.5,17.0625 C10.2583754,17.0625 10.0625,17.3236672 10.0625,17.6458333 C10.0625,17.9679994 10.2583754,18.2291667 10.5,18.2291667 Z" id="Shape" fill="#52ABE2" fill-rule="nonzero"></path>
                    </g>
                </g>
            </g>
        </g>
    </g>
</svg>