<?xml version="1.0" encoding="UTF-8"?>
<svg width="28px" height="28px" viewBox="0 0 28 28" version="1.1" xmlns="http://www.w3.org/2000/svg" xmlns:xlink="http://www.w3.org/1999/xlink">
    <title></title>
    <g id="Page-2" stroke="none" stroke-width="1" fill="none" fill-rule="evenodd">
        <g id="P2/13.-Import---Preview" transform="translate(-985.000000, -98.000000)">
            <g id="Group-25">
                <g id="iconspace_Step-2-Copy" transform="translate(985.000000, 98.000000)">
                    <circle id="Shape" fill="#F1F6FF" cx="14" cy="14" r="14"></circle>
                    <path d="M8.70125581,10.5711896 C8.53047872,10.400258 8.53060401,10.1232483 8.70153564,9.95247123 L9.93953205,8.71559416 C10.1104637,8.54481708 10.3874733,8.54494236 10.5582504,8.715874 L14.0015254,12.1622651 L17.4359166,8.7329759 C17.6068979,8.56224857 17.8839076,8.56245448 18.0546349,8.73343581 L19.2911516,9.97179217 C19.4618789,10.1427735 19.461673,10.4197831 19.2906917,10.5905104 L15.8568411,14.0192598 L19.2922821,17.4578097 C19.4630592,17.6287414 19.4629339,17.905751 19.2920023,18.0765281 L18.0540059,19.3134052 C17.8830742,19.4841823 17.6060646,19.484057 17.4352875,19.3131253 L13.9993065,15.8740349 L10.5548976,19.3133269 C10.3839163,19.4840542 10.1069067,19.4838483 9.93617933,19.312867 L8.69966263,18.0745106 C8.52893531,17.9035293 8.52914122,17.6265197 8.70012255,17.4557924 L12.1439908,14.0170402 L8.70125581,10.5711896 Z M9.62947328,10.2622502 L13.0722983,13.7081909 C13.2431105,13.8791577 13.2429449,14.1562367 13.0719284,14.3269992 L9.62796999,17.7658414 L10.2462283,18.3850195 L13.6905471,14.9458175 C13.8614933,14.7751253 14.1384335,14.7752909 14.3091754,14.9461873 L17.7450664,18.3851877 L18.3640646,17.7667492 L14.9285336,14.3281091 C14.7577214,14.1571423 14.757887,13.8800632 14.9289036,13.7093007 L18.3628442,10.2804614 L17.7445859,9.66128325 L14.3102848,13.0904825 C14.1393386,13.2611747 13.8623984,13.2610091 13.6916565,13.0901126 L10.2484715,9.64381163 L9.62947328,10.2622502 Z" id="Shape" fill="#154E84" fill-rule="nonzero"></path>
                    <polygon id="Shape" fill="#FFFFFF" points="14.0621843 12.8247475 19.0119318 7.875 20.2493687 9.11243687 15.2996212 14.0621843 20.2493687 19.0119318 19.0119318 20.2493687 14.0621843 15.2996212 9.11243687 20.2493687 7.875 19.0119318 12.8247475 14.0621843 7.875 9.11243687 9.11243687 7.875"></polygon>
                    <polygon id="Shape" fill="#FFC200" points="9.11243687 8.49371843 10.3498737 9.7311553 9.7311553 10.3498737 8.49371843 9.11243687"></polygon>
                    <polygon id="Shape" fill="#52ABE2" points="18.3932134 17.7744949 19.6306502 19.0119318 19.0119318 19.6306502 17.7744949 18.3932134"></polygon>
                    <path d="M14.0621843,12.206029 L18.7025726,7.56564078 C18.873427,7.39478641 19.1504366,7.39478641 19.321291,7.56564078 L20.5587279,8.80307765 C20.7295823,8.97393203 20.7295823,9.25094171 20.5587279,9.42179608 L15.9183396,14.0621843 L20.5587279,18.7025726 C20.7295823,18.873427 20.7295823,19.1504366 20.5587279,19.321291 L19.321291,20.5587279 C19.1504366,20.7295823 18.873427,20.7295823 18.7025726,20.5587279 L14.0621843,15.9183396 L9.42179608,20.5587279 C9.25094171,20.7295823 8.97393203,20.7295823 8.80307765,20.5587279 L7.56564078,19.321291 C7.39478641,19.1504366 7.39478641,18.873427 7.56564078,18.7025726 L12.206029,14.0621843 L7.56564078,9.42179608 C7.39478641,9.25094171 7.39478641,8.97393203 7.56564078,8.80307765 L8.80307765,7.56564078 C8.97393203,7.39478641 9.25094171,7.39478641 9.42179608,7.56564078 L14.0621843,12.206029 Z M14.3715436,13.1341067 C14.2006892,13.3049611 13.9236795,13.3049611 13.7528251,13.1341067 L9.11243687,8.49371843 L8.49371843,9.11243687 L13.1341067,13.7528251 C13.3049611,13.9236795 13.3049611,14.2006892 13.1341067,14.3715436 L8.49371843,19.0119318 L9.11243687,19.6306502 L13.7528251,14.990262 C13.9236795,14.8194076 14.2006892,14.8194076 14.3715436,14.990262 L19.0119318,19.6306502 L19.6306502,19.0119318 L14.990262,14.3715436 C14.8194076,14.2006892 14.8194076,13.9236795 14.990262,13.7528251 L19.6306502,9.11243687 L19.0119318,8.49371843 L14.3715436,13.1341067 Z" id="Shape" fill="#154E84" fill-rule="nonzero"></path>
                </g>
            </g>
        </g>
    </g>
</svg>