<?xml version="1.0" encoding="UTF-8"?>
<svg width="40px" height="40px" viewBox="0 0 40 40" version="1.1" xmlns="http://www.w3.org/2000/svg" xmlns:xlink="http://www.w3.org/1999/xlink">
    <title></title>
    <g id="Page-1" stroke="none" stroke-width="1" fill="none" fill-rule="evenodd">
        <g id="L29.3-Sync-success" transform="translate(-1271.000000, -17.000000)">
            <g id="Group-59-Copy" transform="translate(1271.000000, 17.000000)">
                <circle id="Oval-1-Copy-37" cx="20" cy="20" r="20"></circle>
                <g id="onedrive" transform="translate(6.000000, 11.000000)" fill="#FFFFFF" fill-rule="nonzero">
                    <g id="Group" transform="translate(0.000000, 0.109375)">
                        <path d="M10.4622109,1.92609375 C10.1075625,1.8563125 9.74684375,1.82109375 9.384375,1.82109375 C6.56501563,1.82109375 4.22750781,3.92344531 3.85732812,6.64283594 C1.67114063,7.01028125 0,8.91641406 0,11.2054688 C0,13.6718203 1.93998438,15.6932891 4.37407031,15.8248672 C4.26775781,15.3886797 4.2109375,14.9332969 4.2109375,14.4648438 C4.2109375,13.1510859 4.6676875,11.8659297 5.49696875,10.8461172 C6.04192969,10.1759766 6.73192187,9.63850781 7.50427344,9.27248438 C7.994,5.97876563 10.6673984,3.3884375 14.0000547,3.02465625 L15.6406797,1.52397656 L14.0000547,0.023296875 C12.6540859,0.2673125 11.4188047,0.928046875 10.4622109,1.92609375 Z" id="Path"></path>
                        <path d="M9.06445313,10.3632813 C9.06445313,10.3954922 9.06472656,10.4277578 9.06527344,10.4600781 C7.22903125,10.8668438 5.8515625,12.5080156 5.8515625,14.4648438 C5.8515625,16.7264453 7.69152344,18.5664063 9.953125,18.5664063 L14,18.5664063 L17.28125,11.6222422 L14,4.67807813 C11.2143281,5.07139063 9.06445313,7.47080469 9.06445313,10.3632813 Z" id="Path"></path>
                    </g>
                    <g id="Group" transform="translate(14.000000, 0.000000)">
                        <path d="M10.6618203,10.5438594 C10.3000078,8.18414844 8.25622656,6.37109375 5.796875,6.37109375 C5.49767969,6.37109375 5.19985156,6.39827344 4.90650781,6.45219531 C3.8294375,5.35210156 2.36239063,4.73046875 0.806640625,4.73046875 C0.532875,4.73046875 0.263648438,4.75015625 0,4.78739844 L0,18.6757813 L9.8984375,18.6757813 C12.1600391,18.6757813 14,16.8358203 14,14.5742188 C14,12.5733672 12.5600234,10.9025547 10.6618203,10.5438594 Z" id="Path"></path>
                        <path d="M5.46021875,4.73916406 C5.5724375,4.73342188 5.68471094,4.73046875 5.796875,4.73046875 C6.37765625,4.73046875 6.95138281,4.80796094 7.50416406,4.95725781 C6.78885156,2.12767188 4.22176563,0.02734375 1.17304688,0.02734375 C0.775632813,0.02734375 0.383359375,0.0631640625 0,0.132671875 L0,3.13397656 C0.265015625,3.10504688 0.534078125,3.08978906 0.806640625,3.08978906 C2.52607031,3.08984375 4.15023438,3.67029688 5.46021875,4.73916406 Z" id="Path"></path>
                    </g>
                </g>
            </g>
        </g>
    </g>
</svg>