<?xml version="1.0" encoding="UTF-8"?>
<svg width="40px" height="40px" viewBox="0 0 40 40" version="1.1" xmlns="http://www.w3.org/2000/svg" xmlns:xlink="http://www.w3.org/1999/xlink">
    <title></title>
    <g id="Page-1" stroke="none" stroke-width="1" fill="none" fill-rule="evenodd">
        <g id="L29.3-Sync-success-Copy" transform="translate(-1271.000000, -17.000000)">
            <g id="Group-59-Copy" transform="translate(1271.000000, 17.000000)">
                <circle id="Oval-1-Copy-37" fill="#FFFFFF" cx="20" cy="20" r="20"></circle>
                <g id="onedrive" transform="translate(6.000000, 11.000000)" fill="#BF2600" fill-rule="nonzero">
                    <g id="thunderbolt">
                        <path d="M10.4622109,2.03546875 C10.1075625,1.9656875 9.74684375,1.93046875 9.384375,1.93046875 C6.56501563,1.93046875 4.22750781,4.03282031 3.85732812,6.75221094 C1.67114063,7.11965625 0,9.02578906 0,11.3148437 C0,13.7811953 1.93998438,15.8026641 4.37407031,15.9342422 C4.26775781,15.4980547 4.2109375,15.0426719 4.2109375,14.5742187 C4.2109375,13.2604609 4.6676875,11.9753047 5.49696875,10.9554922 C6.04192969,10.2853516 6.73192187,9.74788281 7.50427344,9.38185937 C7.994,6.08814062 10.6673984,3.4978125 14.0000547,3.13403125 L15.6406797,1.63335156 L14.0000547,0.132671875 C12.6540859,0.3766875 11.4188047,1.03742187 10.4622109,2.03546875 Z" id="Path"></path>
                        <path d="M19.4602188,4.73916406 C19.5724375,4.73342188 19.6847109,4.73046875 19.796875,4.73046875 C20.3776563,4.73046875 20.9513828,4.80796094 21.5041641,4.95725781 C20.7888516,2.12767188 18.2217656,0.02734375 15.1730469,0.02734375 C14.7756328,0.02734375 14.3833594,0.0631640625 14,0.132671875 L14,3.13397656 C14.2650156,3.10504688 14.5340781,3.08978906 14.8066406,3.08978906 C16.5260703,3.08984375 18.1502344,3.67029688 19.4602188,4.73916406 Z" id="Path"></path>
                        <path d="M14.8066406,4.73046875 C15.3966413,4.73046875 15.9738845,4.81987324 16.521938,4.99087323 C16.62331,5.00565715 16.805075,5.09636444 16.7812384,5.07567504 L16.7812384,5.07567504 C17.577601,5.36994845 18.3032273,5.83601906 18.9065078,6.45219531 C19.1998516,6.39827344 19.4976797,6.37109375 19.796875,6.37109375 C22.2562266,6.37109375 24.3000078,8.18414844 24.6618203,10.5438594 C26.5600234,10.9025547 28,12.5733672 28,14.5742188 C28,16.7672869 26.2698623,18.5638813 24.1028366,18.670752 L23.8984375,18.6757812 L9.953125,18.6757812 C7.69152344,18.6757812 5.8515625,16.8358203 5.8515625,14.5742187 C5.8515625,12.6173906 7.22903125,10.9762187 9.06527344,10.5694531 C9.06472656,10.5371328 9.06445313,10.5048672 9.06445313,10.4726562 C9.06445313,7.66052626 11.0965495,5.31444686 13.7693649,4.82484049 L14,4.78745312 L14.2654693,4.75608681 C14.4436372,4.73921875 14.6241302,4.73046875 14.8066406,4.73046875 Z M16.4584656,5 C16.4049114,5.05053843 16.3706489,5.19074943 16.3528522,5.2691945 L15.0072929,12.2103754 C14.9849474,12.3448695 15.013952,12.454286 15.0943066,12.5385069 C15.1522924,12.6003612 15.2214156,12.6310084 15.3017703,12.6310084 C15.3375043,12.6310084 15.3642814,12.6283857 15.3821249,12.6227278 L18.1000207,11.7729159 L16.7812384,18.5710274 C16.7693583,18.6308484 18.1662834,15.4589504 20.9720135,9.05533337 C21.0211361,8.92075086 21.0056373,8.79730742 20.9251654,8.68517988 C20.8583165,8.60110633 20.7823231,8.55905482 20.6975838,8.55884854 C20.6795292,8.55884854 20.6529866,8.56453596 20.6171119,8.57570451 L17.9661823,9.40020291 L16.7825692,5.0791419 C16.6964834,5.04765348 16.609584,5.01821995 16.521938,4.99087323 C16.4918379,4.98774159 16.4697275,4.98939394 16.4584656,5 Z" id="Combined-Shape"></path>
                    </g>
                </g>
            </g>
        </g>
    </g>
</svg>