<?xml version="1.0" encoding="UTF-8"?>
<svg width="28px" height="28px" viewBox="0 0 28 28" version="1.1" xmlns="http://www.w3.org/2000/svg" xmlns:xlink="http://www.w3.org/1999/xlink">
    <title></title>
    <g id="Web" stroke="none" stroke-width="1" fill="none" fill-rule="evenodd">
        <g id="9.-Data-capture-" transform="translate(-738.000000, -142.000000)">
            <g id="iconspace_Cloud-Download" transform="translate(738.000000, 142.000000)">
                <g id="Group">
                    <rect id="Rectangle" x="0" y="0" width="28" height="28"></rect>
                    <path d="M18.7393,8.39338 C20.7863,8.77279 22.3125,10.5714 22.3125,12.7032 C22.3125,14.9427 20.6281,16.8156 18.4232,17.0598 L18.375,17.0625 L9.625,17.0625 L9.57683,17.0598 C7.37189,16.8156 5.6875,14.9427 5.6875,12.7032 C5.6875,10.2826 7.64605,8.31991 10.0625,8.31991 C10.0916,8.31991 10.1207,8.3202 10.1497,8.32076 C10.5565,6.30648 12.3341,4.8125 14.4375,4.8125 C16.5659,4.8125 18.3611,6.34232 18.7393,8.39338 Z" id="Path" fill="#154E84" fill-rule="nonzero"></path>
                    <path d="M18.3501,16.1875 C20.1012,15.9817 21.4375,14.488 21.4375,12.7032 C21.4375,10.9034 20.0788,9.40054 18.3075,9.21425 C18.1021,9.19264 17.9397,9.03021 17.9182,8.82472 C17.7322,7.049 16.2326,5.6875 14.4375,5.6875 C12.6408,5.6875 11.1404,7.05132 10.9564,8.82895 C10.9313,9.07143 10.7128,9.24662 10.4707,9.21847 C10.336,9.20281 10.1998,9.19491 10.0625,9.19491 C8.12971,9.19491 6.5625,10.7654 6.5625,12.7032 C6.5625,14.488 7.89879,15.9817 9.64987,16.1875 L18.3501,16.1875 Z" id="Path" fill="#FFFFFF" fill-rule="nonzero"></path>
                    <polygon id="Path" fill="#52ABE2" points="12.6875 12.6875 15.3125 12.6875 15.3125 19.2949 17.0625 19.3058 14 22.75 10.9375 19.2917 12.6875 19.2949"></polygon>
                    <polygon id="Path" fill="#FFC200" points="12.6875 17.0625 15.3125 17.0625 15.3125 19.2949 17.0625 19.3058 14 22.75 10.9375 19.2917 12.6875 19.2949"></polygon>
                    <path d="M12.6875,12.25 C12.4459,12.25 12.25,12.4459 12.25,12.6875 L12.25,18.8566 L10.9383,18.8542 C10.5608,18.8535 10.3597,19.2991 10.61,19.5817 L13.6725,23.04 C13.8463,23.2364 14.1527,23.2367 14.327,23.0407 L17.3895,19.5965 C17.6395,19.3153 17.4415,18.8706 17.0652,18.8683 L15.75,18.8601 L15.75,12.6875 C15.75,12.4459 15.5541,12.25 15.3125,12.25 L12.6875,12.25 Z M13.125,19.2949 L13.125,13.125 L14.875,13.125 L14.875,19.2949 C14.875,19.5354 15.0692,19.7309 15.3098,19.7324 L16.0934,19.7372 L14.0007,22.0908 L11.9109,19.7309 L12.6867,19.7324 C12.9286,19.7328 13.125,19.5368 13.125,19.2949 Z" id="Shape" fill="#154E84"></path>
                </g>
            </g>
        </g>
    </g>
</svg>