<?xml version="1.0" encoding="UTF-8"?>
<svg width="20px" height="20px" viewBox="0 0 20 20" version="1.1" xmlns="http://www.w3.org/2000/svg" xmlns:xlink="http://www.w3.org/1999/xlink">
    <!-- Generator: sketchtool 63.1 (101010) - https://sketch.com -->
    <title></title>
    <desc>Created with sketchtool.</desc>
    <g id="Web" stroke="none" stroke-width="1" fill="none" fill-rule="evenodd">
        <g id="1.5-Data-capture-" transform="translate(-52.000000, -749.000000)">
            <g id="Group-43" transform="translate(12.000000, 76.000000)">
                <g id="iconspace_Email" transform="translate(36.000000, 669.000000)">
                    <circle id="Shape" cx="14" cy="14" r="14"></circle>
                    <path d="M5.02813436,11.972109 L13.7781344,17.1205526 C13.9150719,17.2011257 14.0849281,17.2011257 14.2218656,17.1205526 L22.9718656,11.972109 C23.240991,11.8137573 23.2623558,11.4325533 23.0126099,11.2451213 L20.6210104,9.45024745 C20.3937624,9.27969987 20.1173076,9.1875 19.8331806,9.1875 L8.16681939,9.1875 C7.88269242,9.1875 7.60623757,9.27969987 7.37898957,9.45024745 L4.98739006,11.2451213 C4.73764423,11.4325533 4.75900896,11.8137573 5.02813436,11.972109 Z" id="Shape" fill="#154E84" fill-rule="nonzero"></path>
                    <path d="M6.03768432,11.5508928 L7.90420945,10.1500825 C7.97995878,10.0932333 8.0721104,10.0625 8.16681939,10.0625 L19.8331806,10.0625 C19.9278896,10.0625 20.0200412,10.0932333 20.0957906,10.1500825 L21.9623157,11.5508928 L14,16.235868 L6.03768432,11.5508928 Z" id="Shape" fill="#52ABE2" fill-rule="nonzero"></path>
                    <path d="M7.65793921,13.5048564 C7.52162515,13.4269626 7.4375,13.2819999 7.4375,13.125 L7.4375,5.25 C7.4375,5.00837542 7.63337542,4.8125 7.875,4.8125 L20.125,4.8125 C20.3666246,4.8125 20.5625,5.00837542 20.5625,5.25 L20.5625,13.125 C20.5625,13.2819999 20.4783748,13.4269626 20.3420608,13.5048564 L14.2170608,17.0048564 C14.082559,17.0817145 13.917441,17.0817145 13.7829392,17.0048564 L7.65793921,13.5048564 Z" id="Shape" fill="#154E84" fill-rule="nonzero"></path>
                    <polygon id="Shape" fill="#FFFFFF" fill-rule="nonzero" points="8.3125 12.8711089 14 16.1211089 19.6875 12.8711089 19.6875 5.6875 8.3125 5.6875"></polygon>
                    <path d="M10.9375,10.3541667 L17.0625,10.3541667 C17.3041246,10.3541667 17.5,10.0929994 17.5,9.77083333 C17.5,9.44866723 17.3041246,9.1875 17.0625,9.1875 L10.9375,9.1875 C10.6958754,9.1875 10.5,9.44866723 10.5,9.77083333 C10.5,10.0929994 10.6958754,10.3541667 10.9375,10.3541667 Z" id="Shape" fill="#154E84" fill-rule="nonzero"></path>
                    <path d="M10.9375,8.16666667 L14,8.16666667 C14.2416246,8.16666667 14.4375,7.90549944 14.4375,7.58333333 C14.4375,7.26116723 14.2416246,7 14,7 L10.9375,7 C10.6958754,7 10.5,7.26116723 10.5,7.58333333 C10.5,7.90549944 10.6958754,8.16666667 10.9375,8.16666667 Z" id="Shape" fill="#154E84" fill-rule="nonzero"></path>
                    <path d="M10.9375,12.5416667 L17.0625,12.5416667 C17.3041246,12.5416667 17.5,12.2804994 17.5,11.9583333 C17.5,11.6361672 17.3041246,11.375 17.0625,11.375 L10.9375,11.375 C10.6958754,11.375 10.5,11.6361672 10.5,11.9583333 C10.5,12.2804994 10.6958754,12.5416667 10.9375,12.5416667 Z" id="Shape" fill="#154E84" fill-rule="nonzero"></path>
                    <path d="M5.25,11.5950388 L14,16.7434824 L22.75,11.5950388 L22.75,20.75 C22.75,21.8545695 21.8545695,22.75 20.75,22.75 L7.25,22.75 C6.1454305,22.75 5.25,21.8545695 5.25,20.75 L5.25,11.5950388 L5.25,11.5950388 Z" id="Shape" fill="#FFC200"></path>
                    <path d="M6.5625,12.4700388 L14,16.7434824 L22.75,11.5950388 L22.75,20.75 C22.75,21.8545695 21.8545695,22.75 20.75,22.75 L8.5625,22.75 C7.4579305,22.75 6.5625,21.8545695 6.5625,20.75 L6.5625,12.4700388 L6.5625,12.4700388 Z" id="Shape" fill="#FFFFFF"></path>
                    <path d="M14,16.235868 L22.5281344,11.2179687 C22.8197861,11.0463627 23.1875,11.2566465 23.1875,11.5950388 L23.1875,21.875 C23.1875,22.5998737 22.5998737,23.1875 21.875,23.1875 L6.125,23.1875 C5.40012627,23.1875 4.8125,22.5998737 4.8125,21.875 L4.8125,11.5950388 C4.8125,11.2566465 5.18021387,11.0463627 5.47186564,11.2179687 L14,16.235868 Z M5.6875,12.3600755 L5.6875,21.875 C5.6875,22.1166246 5.88337542,22.3125 6.125,22.3125 L21.875,22.3125 C22.1166246,22.3125 22.3125,22.1166246 22.3125,21.875 L22.3125,12.3600755 L14.2218656,17.1205526 C14.0849281,17.2011257 13.9150719,17.2011257 13.7781344,17.1205526 L5.6875,12.3600755 Z" id="Shape" fill="#154E84" fill-rule="nonzero"></path>
                </g>
            </g>
        </g>
    </g>
</svg>