<?xml version="1.0" encoding="UTF-8"?>
<svg width="52px" height="60px" viewBox="0 0 52 60" version="1.1" xmlns="http://www.w3.org/2000/svg" xmlns:xlink="http://www.w3.org/1999/xlink">
    <title>1A3558FC-DD84-4B46-AE38-43FD23AC44E1</title>
    <defs>
        <linearGradient x1="50%" y1="0%" x2="50%" y2="100%" id="linearGradient-1">
            <stop stop-color="#1FAD60" offset="0%"></stop>
            <stop stop-color="#237C4B" offset="100%"></stop>
        </linearGradient>
        <path d="M30,0 L42.6464466,0 C46.5124399,0 50,3.48756014 50,7.35355339 L50,20 L30,0 Z" id="path-2"></path>
        <filter x="-20.0%" y="-30.0%" width="140.0%" height="140.0%" filterUnits="objectBoundingBox" id="filter-3">
            <feOffset dx="0" dy="-2" in="SourceAlpha" result="shadowOffsetOuter1"></feOffset>
            <feGaussianBlur stdDeviation="1" in="shadowOffsetOuter1" result="shadowBlurOuter1"></feGaussianBlur>
            <feComposite in="shadowBlurOuter1" in2="SourceAlpha" operator="out" result="shadowBlurOuter1"></feComposite>
            <feColorMatrix values="0 0 0 0 0   0 0 0 0 0   0 0 0 0 0  0 0 0 0.0909637238 0" type="matrix" in="shadowBlurOuter1"></feColorMatrix>
        </filter>
        <polygon id="path-4" points="0 16.5584416 11.038961 16.5584416 11.038961 17.5324675 0 17.5324675"></polygon>
        <filter x="-54.4%" y="-616.0%" width="208.7%" height="1332.0%" filterUnits="objectBoundingBox" id="filter-5">
            <feOffset dx="0" dy="0" in="SourceAlpha" result="shadowOffsetOuter1"></feOffset>
            <feGaussianBlur stdDeviation="2" in="shadowOffsetOuter1" result="shadowBlurOuter1"></feGaussianBlur>
            <feColorMatrix values="0 0 0 0 0   0 0 0 0 0   0 0 0 0 0  0 0 0 0.4 0" type="matrix" in="shadowBlurOuter1"></feColorMatrix>
        </filter>
        <rect id="path-6" x="14.2857143" y="3.8961039" width="1.2987013" height="18.8311688"></rect>
        <filter x="-539.0%" y="-42.5%" width="1332.0%" height="185.0%" filterUnits="objectBoundingBox" id="filter-7">
            <feOffset dx="1" dy="0" in="SourceAlpha" result="shadowOffsetOuter1"></feOffset>
            <feGaussianBlur stdDeviation="2.5" in="shadowOffsetOuter1" result="shadowBlurOuter1"></feGaussianBlur>
            <feColorMatrix values="0 0 0 0 0.125490196   0 0 0 0 0.423529412   0 0 0 0 0.258823529  0 0 0 0.25 0" type="matrix" in="shadowBlurOuter1"></feColorMatrix>
        </filter>
        <polygon id="path-8" points="14.1682965 24.7225813 15.664853 26.9001344 1.04383671 23.4815165 1.04383671 21.0753301 14.1682965 23.9223319"></polygon>
        <filter x="-44.5%" y="-94.4%" width="188.9%" height="323.2%" filterUnits="objectBoundingBox" id="filter-9">
            <feOffset dx="0" dy="1" in="SourceAlpha" result="shadowOffsetOuter1"></feOffset>
            <feGaussianBlur stdDeviation="2" in="shadowOffsetOuter1" result="shadowBlurOuter1"></feGaussianBlur>
            <feColorMatrix values="0 0 0 0 0   0 0 0 0 0   0 0 0 0 0  0 0 0 0.3 0" type="matrix" in="shadowBlurOuter1"></feColorMatrix>
        </filter>
        <linearGradient x1="100%" y1="50%" x2="4.09710941%" y2="50%" id="linearGradient-10">
            <stop stop-color="#FAFCFB" offset="0%"></stop>
            <stop stop-color="#ECF3EF" offset="100%"></stop>
        </linearGradient>
    </defs>
    <g id="Page-2" stroke="none" stroke-width="1" fill="none" fill-rule="evenodd">
        <g id="L39.-Email" transform="translate(-740.000000, -240.000000)">
            <g id="files-icon-picture-copy" transform="translate(740.000000, 240.000000)">
                <g id="PDF">
                    <path d="M30,0 L50,20 L50,53 C50,56.8659932 46.8659932,60 43,60 L7,60 C3.13400675,60 0,56.8659932 0,53 L0,7 C0,3.13400675 3.13400675,0 7,0 L30,0 Z" id="Combined-Shape" fill="url(#linearGradient-1)"></path>
                    <g id="Path" transform="translate(40.000000, 10.000000) scale(-1, -1) translate(-40.000000, -10.000000) ">
                        <use fill="black" fill-opacity="1" filter="url(#filter-3)" xlink:href="#path-2"></use>
                        <use fill-opacity="0.4" fill="#FFFFFF" fill-rule="evenodd" xlink:href="#path-2"></use>
                    </g>
                </g>
                <g id="Group-9" transform="translate(12.500000, 23.333333)">
                    <g id="Right" transform="translate(13.636364, 4.545455)">
                        <g id="Shadow">
                            <use fill="black" fill-opacity="1" filter="url(#filter-5)" xlink:href="#path-4"></use>
                            <use fill="#FFFFFF" fill-rule="evenodd" xlink:href="#path-4"></use>
                        </g>
                        <path d="M11.0415158,0 L11.0415158,17.5324675 L0.00255480639,17.5324675 L0.00255480639,0 L11.0415158,0 Z M9.41558442,14.2857143 L5.51948052,14.2857143 L5.51948052,16.2337662 L9.41558442,16.2337662 L9.41558442,14.2857143 Z M4.54545455,14.2857143 L0.649350649,14.2857143 L0.649350649,16.2337662 L4.54545455,16.2337662 L4.54545455,14.2857143 Z M9.41558442,11.038961 L5.51948052,11.038961 L5.51948052,12.987013 L9.41558442,12.987013 L9.41558442,11.038961 Z M4.54545455,11.038961 L0.649350649,11.038961 L0.649350649,12.987013 L4.54545455,12.987013 L4.54545455,11.038961 Z M9.41558442,7.79220779 L5.51948052,7.79220779 L5.51948052,9.74025974 L9.41558442,9.74025974 L9.41558442,7.79220779 Z M4.54545455,7.79220779 L0.649350649,7.79220779 L0.649350649,9.74025974 L4.54545455,9.74025974 L4.54545455,7.79220779 Z M9.41558442,4.54545455 L5.51948052,4.54545455 L5.51948052,6.49350649 L9.41558442,6.49350649 L9.41558442,4.54545455 Z M4.54545455,4.54545455 L0.649350649,4.54545455 L0.649350649,6.49350649 L4.54545455,6.49350649 L4.54545455,4.54545455 Z M9.41558442,1.2987013 L5.51948052,1.2987013 L5.51948052,3.24675325 L9.41558442,3.24675325 L9.41558442,1.2987013 Z M4.54545455,1.2987013 L0.649350649,1.2987013 L0.649350649,3.24675325 L4.54545455,3.24675325 L4.54545455,1.2987013 Z" id="Combined-Shape" fill="#FFFFFF"></path>
                    </g>
                    <g id="Left">
                        <g id="Left-Shadow" fill="black" fill-opacity="1">
                            <use filter="url(#filter-7)" xlink:href="#path-6"></use>
                        </g>
                        <g id="Left-Shadow-2" fill="black" fill-opacity="1">
                            <use filter="url(#filter-9)" xlink:href="#path-8"></use>
                        </g>
                        <path d="M15.5844156,0 L15.5844156,26.6233766 L0,23.8115249 L0,2.81185168 L15.5844156,0 Z M11.1028025,8.53465747 L9.28575725,8.65892103 L7.90656088,12.1322022 L6.74459016,8.86443739 L4.7953947,9.00098975 L6.63607364,13.1905825 L4.64327037,17.5584963 L6.36575125,17.7041629 L7.72389974,14.458495 L9.04499195,17.8547546 L11.1698514,18.032361 L9.04499195,13.1905825 L11.1028025,8.53465747 Z" fill="url(#linearGradient-10)"></path>
                    </g>
                </g>
            </g>
        </g>
    </g>
</svg>