<?xml version="1.0" encoding="UTF-8"?>
<svg width="18px" height="18px" viewBox="0 0 18 18" version="1.1" xmlns="http://www.w3.org/2000/svg" xmlns:xlink="http://www.w3.org/1999/xlink">
    <title>CCB9ACC6-16B9-4BDF-8316-6DA99BD9800C</title>
    <defs>
        <path d="M9,0 C13.9705627,0 18,4.02943725 18,9 C18,13.9705627 13.9705627,18 9,18 C4.02943725,18 0,13.9705627 0,9 C0,4.02943725 4.02943725,0 9,0 Z M6.0872857,6.08714616 C5.69593392,6.4768412 5.69459088,7.11000476 6.08428593,7.50135654 L7.591,9.014 L6.11693012,10.4986167 C5.72758063,10.8903122 5.7294825,11.5234743 6.12117807,11.9128238 C6.51287364,12.3021733 7.14603576,12.3002715 7.53538525,11.9085759 L9.002,10.432 L10.4424471,11.8780457 C10.8321421,12.2693975 11.4653057,12.2707406 11.8566575,11.8810455 C12.2480092,11.4913505 12.2493523,10.8581869 11.8596572,10.4668351 L10.412,9.013 L11.8949914,7.52270035 C12.2843409,7.13100479 12.282439,6.49784266 11.8907434,6.10849317 C11.4990479,5.71914368 10.8658858,5.72104555 10.4765363,6.11274112 L9.001,7.596 L7.50149608,6.09014593 C7.11180103,5.69879415 6.47863748,5.69745111 6.0872857,6.08714616 Z" id="path-1"></path>
    </defs>
    <g id="Page-2" stroke="none" stroke-width="1" fill="none" fill-rule="evenodd">
        <g id="L41.-Invoice" transform="translate(-393.000000, -261.000000)">
            <g id="standard/action/check-circle-copy-2" transform="translate(393.000000, 261.000000)">
                <mask id="mask-2" fill="white">
                    <use xlink:href="#path-1"></use>
                </mask>
                <use id="Combined-Shape" fill="#42526E" xlink:href="#path-1"></use>
                <g id="↳-🎨Color" mask="url(#mask-2)" fill="#DE350B">
                    <g transform="translate(-3.000000, -3.000000)" id="R400">
                        <rect x="0" y="0" width="24" height="24"></rect>
                    </g>
                </g>
            </g>
        </g>
    </g>
</svg>