<?xml version="1.0" encoding="UTF-8"?>
<svg width="28px" height="28px" viewBox="0 0 28 28" version="1.1" xmlns="http://www.w3.org/2000/svg" xmlns:xlink="http://www.w3.org/1999/xlink">
    <title></title>
    <g id="Page-1" stroke="none" stroke-width="1" fill="none" fill-rule="evenodd">
        <g id="L19.--Import-Flle" transform="translate(-337.000000, -667.000000)">
            <g id="Group-4" transform="translate(303.000000, 611.000000)">
                <g id="iconspace_File-Add" transform="translate(34.000000, 56.000000)">
                    <circle id="Shape" cx="14" cy="14" r="14"></circle>
                    <path d="M7.875,4.8125 L16.2151719,4.8125 C16.6046955,4.8125 16.9740955,4.9855177 17.2234624,5.28475798 L21.1332904,9.97655167 C21.3298537,10.2124276 21.4375,10.509752 21.4375,10.8167937 L21.4375,21.875 C21.4375,22.5998737 20.8498737,23.1875 20.125,23.1875 L7.875,23.1875 C7.15012627,23.1875 6.5625,22.5998737 6.5625,21.875 L6.5625,6.125 C6.5625,5.40012627 7.15012627,4.8125 7.875,4.8125 Z" id="Shape" fill="#154E84" fill-rule="nonzero"></path>
                    <path d="M7.875,5.6875 C7.63337542,5.6875 7.4375,5.88337542 7.4375,6.125 L7.4375,21.875 C7.4375,22.1166246 7.63337542,22.3125 7.875,22.3125 L20.125,22.3125 C20.3666246,22.3125 20.5625,22.1166246 20.5625,21.875 L20.5625,10.8167937 C20.5625,10.7144465 20.5266179,10.6153383 20.4610968,10.536713 L16.5512687,5.84491933 C16.4681464,5.74517257 16.3450131,5.6875 16.2151719,5.6875 L7.875,5.6875 Z" id="Shape" fill="#FFC200" fill-rule="nonzero"></path>
                    <path d="M15.7500005,4.81248811 C16.4748736,4.81248811 17.0624989,5.4001269 17.0624989,6.12499986 L17.0625,9.625 C17.0625,9.86662458 17.2583754,10.0625 17.5,10.0625 L20.125,10.0625 C20.8498737,10.0625 21.4375,10.6501263 21.4375,11.375 L21.4375,21.875 C21.4375,22.5998737 20.8498737,23.1875 20.125,23.1875 L7.87493403,23.1875 C7.1500603,23.1875 6.56243295,22.5998737 6.56243295,21.875 L6.56243295,6.12498811 C6.56243295,5.40011413 7.15005947,4.81248811 7.87493403,4.81248811 L15.7500005,4.81248811 Z" id="Shape" fill="#154E84" fill-rule="nonzero"></path>
                    <path d="M7.43743295,6.12498808 L7.43743295,21.875 C7.43743295,22.1166246 7.63330945,22.3125 7.87493403,22.3125 L20.125,22.3125 C20.3666246,22.3125 20.5625,22.1166246 20.5625,21.875 L20.5625,11.375 C20.5625,11.1333754 20.3666246,10.9375 20.125,10.9375 L17.5,10.9375 C16.7751263,10.9375 16.1875,10.3498737 16.1875,9.62500014 L16.1874989,6.125 C16.1874989,5.88337563 15.9916238,5.68748811 15.7499994,5.68748811 L7.87493343,5.68748811 C7.63330846,5.68748811 7.43743295,5.88336345 7.43743295,6.12498808 Z" id="Shape" fill="#FFFFFF" fill-rule="nonzero"></path>
                    <path d="M11.375,15.875 L16.625,15.875 C16.8666246,15.875 17.0625,15.6511424 17.0625,15.375 C17.0625,15.0988576 16.8666246,14.875 16.625,14.875 L11.375,14.875 C11.1333754,14.875 10.9375,15.0988576 10.9375,15.375 C10.9375,15.6511424 11.1333754,15.875 11.375,15.875 Z" id="Shape" fill="#52ABE2" fill-rule="nonzero"></path>
                    <path d="M14.4375,17.9375 C14.4375,18.1791246 14.2416246,18.375 14,18.375 C13.7583754,18.375 13.5625,18.1791246 13.5625,17.9375 L13.5625,12.6875 C13.5625,12.4458754 13.7583754,12.25 14,12.25 C14.2416246,12.25 14.4375,12.4458754 14.4375,12.6875 L14.4375,17.9375 Z" id="Path" fill="#52ABE2" fill-rule="nonzero"></path>
                </g>
            </g>
        </g>
    </g>
</svg>