<?xml version="1.0" encoding="UTF-8"?>
<svg width="28px" height="28px" viewBox="0 0 28 28" version="1.1" xmlns="http://www.w3.org/2000/svg" xmlns:xlink="http://www.w3.org/1999/xlink">
    <title>4A0087C9-4DE1-48FE-9AFC-1732BF2B4EF4@1x</title>
    <g id="Page-1" stroke="none" stroke-width="1" fill="none" fill-rule="evenodd">
        <g id="L42.-Invoice-add-new" transform="translate(-498.000000, -746.000000)">
            <g id="Group-35" transform="translate(490.000000, 703.000000)">
                <g id="iconspace_Spread-Arrow" transform="translate(8.000000, 43.000000)">
                    <circle id="Shape" cx="14" cy="14" r="14"></circle>
                    <path d="M9.1388074,19.9128006 L8.51919214,19.2949803 L9.1388074,19.9128006 Z M5.82138603,22.0006244 L11.2169982,16.5893362 C11.6288784,16.1762594 12.2484937,16.7940797 11.8366135,17.2071565 L6.4410013,22.6184447 C6.0291211,23.0315216 5.40950583,22.4137013 5.82138603,22.0006244 Z" id="Shape" fill="#154E84" fill-rule="nonzero"></path>
                    <path d="M21.269752,6.5625 L17.7993421,6.5625 C17.5577175,6.5625 17.3618421,6.36662458 17.3618421,6.125 C17.3618421,5.88337542 17.5577175,5.6875 17.7993421,5.6875 L22.2962977,5.6875 C22.5323392,5.6875 22.7247214,5.87442812 22.7334858,6.10832604 C22.7388699,6.14521727 22.7392303,6.18309399 22.7337977,6.22118318 L22.7337977,10.6224215 C22.7337977,10.864046 22.5379223,11.0599215 22.2962977,11.0599215 C22.0546731,11.0599215 21.8587977,10.864046 21.8587977,10.6224215 L21.8587977,7.21075306 L17.2149767,11.8324097 C16.8015122,12.2439008 16.1842756,11.6237041 16.5977401,11.212213 L21.269752,6.5625 L21.269752,6.5625 Z" id="Shape" fill="#154E84" fill-rule="nonzero"></path>
                    <path d="M6.5625,21.8566052 L10.6258198,21.8566052 C10.8674443,21.8566052 11.0633198,22.0524807 11.0633198,22.2941052 C11.0633198,22.5357298 10.8674443,22.7316052 10.6258198,22.7316052 L6.125,22.7316052 C5.88337542,22.7316052 5.6875,22.5357298 5.6875,22.2941052 L5.6875,17.7993421 C5.6875,17.5577175 5.88337542,17.3618421 6.125,17.3618421 C6.36662458,17.3618421 6.5625,17.5577175 6.5625,17.7993421 L6.5625,21.8566052 Z" id="Shape" fill="#154E84" fill-rule="nonzero"></path>
                    <path d="M19.2885851,19.9038299 L19.9073703,19.2851783 L19.2885851,19.9038299 Z M22.6030457,21.9814359 C23.0154801,22.3939594 22.3966948,23.0126111 21.9842604,22.6000875 L19.2885851,19.9038299 L16.5929098,17.2075722 C16.1804754,16.7950487 16.7992606,16.1763971 17.211695,16.5889206 L19.9073703,19.2851783 L22.6030457,21.9814359 Z" id="Shape" fill="#154E84" fill-rule="nonzero"></path>
                    <path d="M17.7993421,21.8566052 L21.8626619,21.8566052 L21.8626619,17.7993421 C21.8626619,17.5577175 22.0585373,17.3618421 22.3001619,17.3618421 C22.5417864,17.3618421 22.7376619,17.5577175 22.7376619,17.7993421 L22.7376619,22.2941052 C22.7376619,22.5357298 22.5417864,22.7316052 22.3001619,22.7316052 L17.7993421,22.7316052 C17.5577175,22.7316052 17.3618421,22.5357298 17.3618421,22.2941052 C17.3618421,22.0524807 17.5577175,21.8566052 17.7993421,21.8566052 Z" id="Shape" fill="#154E84" fill-rule="nonzero"></path>
                    <path d="M11.8283814,11.2133358 L11.2088966,11.8312869 L5.8428824,6.45195359 L6.46236727,5.83400254 L11.8283814,11.2133358 Z M11.2088966,11.8312869 L5.8428824,6.45195359 C5.43091503,6.03896367 6.05039991,5.42101263 6.46236727,5.83400254 L11.8283814,11.2133358 C12.2403488,11.6263258 11.6208639,12.2442768 11.2088966,11.8312869 Z" id="Shape" fill="#154E84" fill-rule="nonzero"></path>
                    <path d="M6.5625,6.5625 L10.5834507,6.5625 C10.8250753,6.5625 11.0209507,6.36662458 11.0209507,6.125 C11.0209507,5.88337542 10.8250753,5.6875 10.5834507,5.6875 L6.125,5.6875 C5.88337542,5.6875 5.6875,5.88337542 5.6875,6.125 L5.6875,10.6224215 C5.6875,10.864046 5.88337542,11.0599215 6.125,11.0599215 C6.36662458,11.0599215 6.5625,10.864046 6.5625,10.6224215 L6.5625,6.5625 Z" id="Shape" fill="#154E84" fill-rule="nonzero"></path>
                </g>
            </g>
        </g>
    </g>
</svg>