<?xml version="1.0" ?><svg viewBox="0 0 32 32" xmlns="http://www.w3.org/2000/svg"><defs><style>.cls-1{fill:#0593ff;}</style></defs><title/><g id="Minimize"><path class="cls-1" style="fill: #4f7aa2;" d="M27,12H21.41l6.3-6.29a1,1,0,1,0-1.42-1.42L20,10.59V5a1,1,0,0,0-2,0v8a1,1,0,0,0,.08.38.9.9,0,0,0,.54.54A1,1,0,0,0,19,14h8a1,1,0,0,0,0-2Z"/><path class="cls-1" style="fill: #4f7aa2;" d="M13,4a1,1,0,0,0-1,1v5.59L5.71,4.29A1,1,0,0,0,4.29,5.71L10.59,12H5a1,1,0,0,0,0,2h8a1,1,0,0,0,.38-.08.9.9,0,0,0,.54-.54A1,1,0,0,0,14,13V5A1,1,0,0,0,13,4Z"/><path class="cls-1" style="fill: #4f7aa2;" d="M28,19a1,1,0,0,0-1-1H19a1,1,0,0,0-.38.08.9.9,0,0,0-.54.54A1,1,0,0,0,18,19v8a1,1,0,0,0,2,0V21.41l6.29,6.3a1,1,0,0,0,1.42,0,1,1,0,0,0,0-1.42L21.41,20H27A1,1,0,0,0,28,19Z"/><path class="cls-1" style="fill: #4f7aa2;" d="M13.71,18.29a1.15,1.15,0,0,0-.33-.21A1,1,0,0,0,13,18H5a1,1,0,0,0,0,2h5.59l-6.3,6.29a1,1,0,0,0,0,1.42,1,1,0,0,0,1.42,0L12,21.41V27a1,1,0,0,0,2,0V19a1,1,0,0,0-.08-.38A1.15,1.15,0,0,0,13.71,18.29Z"/></g></svg>