<?xml version="1.0" encoding="UTF-8"?>
<svg width="20px" height="20px" viewBox="0 0 20 20" version="1.1" xmlns="http://www.w3.org/2000/svg" xmlns:xlink="http://www.w3.org/1999/xlink">
    <title></title>
    <defs>
        <path d="M10,1.66666667 C14.6027778,1.66666667 18.3333333,5.39722222 18.3333333,10 C18.3333333,14.6027778 14.6027778,18.3333333 10,18.3333333 C5.39722222,18.3333333 1.66666667,14.6027778 1.66666667,10 C1.66666667,5.39722222 5.39722222,1.66666667 10,1.66666667 Z M10,3.33333333 C6.31769681,3.33333333 3.33333333,6.31769681 3.33333333,10 C3.33333333,13.6823032 6.31769681,16.6666667 10,16.6666667 C13.6823032,16.6666667 16.6666667,13.6823032 16.6666667,10 C16.6666667,6.31769681 13.6823032,3.33333333 10,3.33333333 Z M10,8.33333333 C10.4602373,8.33333333 10.8333333,8.71607463 10.8333333,9.16910777 L10.8333333,13.3308922 C10.8333333,13.7569711 10.518163,14.108582 10.1051625,14.1601548 L10,14.1666667 C9.53976271,14.1666667 9.16666667,13.7839254 9.16666667,13.3308922 L9.16666667,9.16910777 C9.16666667,8.74302887 9.48183695,8.39141801 9.89483751,8.3398452 L10,8.33333333 Z M10,5.83333333 C10.4602373,5.83333333 10.8333333,6.20642938 10.8333333,6.66666667 C10.8333333,7.12690396 10.4602373,7.5 10,7.5 C9.53976271,7.5 9.16666667,7.12690396 9.16666667,6.66666667 C9.16666667,6.20642938 9.53976271,5.83333333 10,5.83333333 Z" id="path-1"></path>
    </defs>
    <g id="Page-2" stroke="none" stroke-width="1" fill="none" fill-rule="evenodd">
        <g id="P2/3.-Scan---Choose-Doctype" transform="translate(-505.000000, -621.000000)">
            <g id="Group-12" transform="translate(473.000000, 366.000000)">
                <g id="standard/status/info" transform="translate(32.000000, 255.000000)">
                    <mask id="mask-2" fill="white">
                        <use xlink:href="#path-1"></use>
                    </mask>
                    <use id="Combined-Shape" fill="#42526E" fill-rule="nonzero" xlink:href="#path-1"></use>
                    <g id="↳-🎨Color" mask="url(#mask-2)" fill="#0065FF">
                        <rect id="B300" x="0" y="0" width="20" height="20"></rect>
                    </g>
                </g>
            </g>
        </g>
    </g>
</svg>