<?xml version="1.0" encoding="UTF-8"?>
<svg width="14px" height="14px" viewBox="0 0 14 14" version="1.1" xmlns="http://www.w3.org/2000/svg" xmlns:xlink="http://www.w3.org/1999/xlink">
    <!-- Generator: sketchtool 63.1 (101010) - https://sketch.com -->
    <title></title>
    <desc>Created with sketchtool.</desc>
    <g id="Web" stroke="none" stroke-width="1" fill="none" fill-rule="evenodd">
        <g id="1.15-send-email" transform="translate(-1321.000000, -84.000000)">
            <g id="iconspace_Text-widht" transform="translate(1314.000000, 77.000000)">
                <circle id="Shape" cx="14" cy="14" r="14"></circle>
                <polygon id="Shape" fill="#FFC200" transform="translate(14.196294, 14.196293) rotate(-45.000000) translate(-14.196294, -14.196293) " points="18.6076999 12.8837934 18.6076999 10.6962934 22.4723889 13.9406291 18.6076999 17.6962934 18.6076999 15.5106411 9.85769987 15.5106411 9.85769987 17.6962934 5.92019987 13.9406291 9.88920531 10.6962934 9.85769987 12.8837934 18.6076999 12.8837934"></polygon>
                <polygon id="Shape" fill="#52ABE2" transform="translate(11.283124, 17.109463) rotate(-45.000000) translate(-11.283124, -17.109463) " points="11.0643744 18.4238111 11.0643744 20.6094634 7.12687438 16.8537991 11.0958798 13.6094634 11.0643744 15.7969634 15.4393744 15.7969634 15.4393744 18.4238111"></polygon>
                <path d="M18.1701995,10.6962931 C18.1701995,10.3246228 18.6043318,10.1222428 18.8889942,10.3612117 L22.7536832,13.6055474 C22.9521492,13.772156 22.963124,14.0737908 22.7772905,14.2543819 L18.9126015,18.0100462 C18.6352363,18.2795868 18.1701995,18.0830534 18.1701995,17.6962931 L18.1701995,15.9481408 L10.2951995,15.9481408 L10.2951995,17.6962931 C10.2951995,18.0810986 9.83418874,18.278469 9.5557366,18.0128759 L5.6182366,14.2572116 C5.42788848,14.0756538 5.4396468,13.768376 5.64331299,13.6018957 L9.61231843,10.35756 C9.90029224,10.1221651 10.3320159,10.3306917 10.3266595,10.7025935 L10.3015459,12.4462931 L18.1701995,12.4462931 L18.1701995,10.6962931 Z M19.0451995,12.8837931 C19.0451995,13.1254177 18.849324,13.3212931 18.6076995,13.3212931 L9.85769947,13.3212931 C9.61361064,13.3212931 9.41672971,13.1215562 9.42024483,12.8774927 L9.43821172,11.630008 L6.58056606,13.9658984 L9.42019947,16.6743962 L9.42019947,15.5106408 C9.42019947,15.2690162 9.61607489,15.0731408 9.85769947,15.0731408 L18.6076995,15.0731408 C18.849324,15.0731408 19.0451995,15.2690162 19.0451995,15.5106408 L19.0451995,16.6610815 L21.8202074,13.9643578 L19.0451995,11.6347895 L19.0451995,12.8837931 Z" id="Shape" fill="#154E84" fill-rule="nonzero" transform="translate(14.196294, 14.196294) rotate(-45.000000) translate(-14.196294, -14.196294) "></path>
                <path d="M11.5018753,20.6094627 C11.5018753,20.9942682 11.0408646,21.1916386 10.7624125,20.9260455 L6.82491248,17.1703812 C6.63456436,16.9888234 6.64632268,16.6815456 6.84998886,16.5150652 L10.8189943,13.2707296 C11.1069681,13.0353346 11.5386917,13.2438613 11.5333354,13.6157631 L11.5082218,15.3594627 L15.4393753,15.3594627 C15.6809999,15.3594627 15.8768753,15.5553381 15.8768753,15.7969627 L15.8768753,18.4238104 C15.8768753,18.665435 15.6809999,18.8613104 15.4393753,18.8613104 L11.5018753,18.8613104 L11.5018753,20.6094627 Z M10.6268753,19.5875658 L10.6268753,18.4238104 C10.6268753,18.1821858 10.8227508,17.9863104 11.0643753,17.9863104 L15.0018753,17.9863104 L15.0018753,16.2344627 L11.0643753,16.2344627 C10.8202865,16.2344627 10.6234056,16.0347258 10.6269207,15.7906622 L10.6448876,14.5431776 L7.78724194,16.879068 L10.6268753,19.5875658 Z" id="Shape" fill="#154E84" fill-rule="nonzero" transform="translate(11.283124, 17.109462) rotate(-45.000000) translate(-11.283124, -17.109462) "></path>
            </g>
        </g>
    </g>
</svg>