<?xml version="1.0" encoding="UTF-8"?>
<svg width="28px" height="28px" viewBox="0 0 28 28" version="1.1" xmlns="http://www.w3.org/2000/svg" xmlns:xlink="http://www.w3.org/1999/xlink">
    <title></title>
    <g id="Page-1" stroke="none" stroke-width="1" fill="none" fill-rule="evenodd">
        <g id="L21.--Failed" transform="translate(-12.000000, -701.000000)">
            <g id="Group-53" transform="translate(0.000000, 68.000000)">
                <g id="Group-21" transform="translate(0.000000, 627.000000)">
                    <g id="iconspace_Medals" transform="translate(12.000000, 6.000000)">
                        <circle id="Shape" cx="14" cy="14" r="14"></circle>
                        <polyline id="Shape" fill="#52ABE2" points="19.1727941 14.6677632 21.875 20.9539474 19.1727941 20.9539474 17.3713235 22.75 14.6691176 17.3618421"></polyline>
                        <polyline id="Shape" fill="#52ABE2" points="13.7683824 17.3618421 11.0661765 22.75 9.26470588 20.9539474 6.5625 20.9539474 9.26470588 14.6677632"></polyline>
                        <path d="M19.1727941,20.5164474 C19.0569902,20.5164474 18.9459101,20.5623603 18.8639012,20.6441226 L17.491063,22.0128319 L15.0601933,17.1657144 L14.278042,17.5579698 L16.9802479,22.9461277 C17.1138927,23.2126134 17.4690966,23.2703098 17.6802165,23.0598248 L19.3536267,21.3914474 L21.875,21.3914474 C22.1892934,21.3914474 22.4010591,21.0699147 22.2769376,20.7811688 L19.5747317,14.4949846 L18.7708566,14.8405418 L21.2107255,20.5164474 L19.1727941,20.5164474 Z" id="Shape" fill="#154E84" fill-rule="nonzero"></path>
                        <path d="M9.57359885,20.6441226 C9.49158989,20.5623603 9.3805098,20.5164474 9.26470588,20.5164474 L7.22677452,20.5164474 L9.66664345,14.8405418 L8.86276832,14.4949846 L6.16056243,20.7811688 C6.0364409,21.0699147 6.2482066,21.3914474 6.5625,21.3914474 L9.08387329,21.3914474 L10.7572835,23.0598248 C10.9684034,23.2703098 11.3236073,23.2126134 11.4572521,22.9461277 L14.159458,17.5579698 L13.3773067,17.1657144 L10.946437,22.0128319 L9.57359885,20.6441226 Z" id="Shape" fill="#154E84" fill-rule="nonzero"></path>
                        <ellipse id="Shape" fill="#FFFFFF" cx="14.21875" cy="11.5246711" rx="5.85477941" ry="5.83717105"></ellipse>
                        <ellipse id="Shape" fill="#FFC200" cx="13.5116893" cy="11.7460526" rx="5.19918929" ry="5.18355263"></ellipse>
                        <ellipse id="Shape" stroke="#154E84" stroke-width="2" stroke-linejoin="round" cx="14.21875" cy="11.5246711" rx="5.85477941" ry="5.83717105"></ellipse>
                        <path d="M14.21875,17.7993421 C17.6935855,17.7993421 20.5110294,14.9903717 20.5110294,11.5246711 C20.5110294,8.05897044 17.6935855,5.25 14.21875,5.25 C10.7439145,5.25 7.92647059,8.05897044 7.92647059,11.5246711 C7.92647059,14.9903717 10.7439145,17.7993421 14.21875,17.7993421 Z M14.21875,16.9243421 C11.2265747,16.9243421 8.80147059,14.5065315 8.80147059,11.5246711 C8.80147059,8.54281056 11.2265747,6.125 14.21875,6.125 C17.2109253,6.125 19.6360294,8.54281056 19.6360294,11.5246711 C19.6360294,14.5065315 17.2109253,16.9243421 14.21875,16.9243421 Z" id="Shape" fill="#154E84" fill-rule="nonzero"></path>
                    </g>
                </g>
            </g>
        </g>
    </g>
</svg>