<?xml version="1.0" encoding="UTF-8"?>
<svg width="20px" height="3px" viewBox="0 0 20 3" version="1.1" xmlns="http://www.w3.org/2000/svg" xmlns:xlink="http://www.w3.org/1999/xlink">
    <!-- Generator: sketchtool 63.1 (101010) - https://sketch.com -->
    <title></title>
    <desc>Created with sketchtool.</desc>
    <g id="Web" stroke="none" stroke-width="1" fill="none" fill-rule="evenodd">
        <g id="1.15-send-email" transform="translate(-1358.000000, -89.000000)">
            <g id="iconspace_Minus" transform="translate(1354.000000, 77.000000)">
                <circle id="Shape" cx="14" cy="14" r="14"></circle>
                <polygon id="Shape" fill="#FFFFFF" points="5 14 23 14 23 12 5 12"></polygon>
                <polygon id="Shape" fill="#FFC200" points="5 12 9 12 9 14 5 14"></polygon>
                <polygon id="Shape" fill="#52ABE2" points="19 13 23 13 23 15 19 15"></polygon>
                <path d="M4.52631579,15 L23.4736842,15 C23.7643604,15 24,14.7761424 24,14.5 L24,12.5 C24,12.2238576 23.7643604,12 23.4736842,12 L4.52631579,12 C4.23563961,12 4,12.2238576 4,12.5 L4,14.5 C4,14.7761424 4.23563961,15 4.52631579,15 Z M5,14 L5,13 L23,13 L23,14 L5,14 Z" id="Shape" fill="#154E84" fill-rule="nonzero"></path>
            </g>
        </g>
    </g>
</svg>