<?xml version="1.0" encoding="UTF-8"?>
<svg width="14px" height="18px" viewBox="0 0 14 18" version="1.1" xmlns="http://www.w3.org/2000/svg" xmlns:xlink="http://www.w3.org/1999/xlink">
    <!-- Generator: sketchtool 63.1 (101010) - https://sketch.com -->
    <title></title>
    <desc>Created with sketchtool.</desc>
    <g id="Web" stroke="none" stroke-width="1" fill="none" fill-rule="evenodd">
        <g id="1.5-Data-capture-" transform="translate(-996.000000, -147.000000)">
            <g id="iconspace_Cursor" transform="translate(989.000000, 142.000000)">
                <circle id="Shape" cx="14" cy="14" r="14"></circle>
                <polygon id="Shape" fill="#FFFFFF" points="15.2662028 15.3893898 20.125 16.0052959 10.7176224 5.6875 7.875 19.1976331 11.7662028 16.3014862 13.4222777 22.3125 16.9222777 21.4004037"></polygon>
                <polygon id="Shape" fill="#52ABE2" points="13.125 21 16.625 20.125 17.0625 21.4375 13.5625 22.3125"></polygon>
                <path d="M20.0699823,16.4393228 C20.4736221,16.4904886 20.7224233,16.0111882 20.4482936,15.710529 L11.040916,5.39273311 C10.800636,5.12919953 10.3629259,5.24843158 10.2894965,5.59741946 L7.44687415,19.1075525 C7.36390797,19.501866 7.81297058,19.7891777 8.13621358,19.5485942 L11.5143095,17.0343429 L13.0004925,22.4287047 C13.0640403,22.6593625 13.3010857,22.7961942 13.532605,22.7358605 L17.032605,21.8237642 C17.2687234,21.762232 17.408873,21.5194388 17.3440629,21.284199 L15.8623204,15.9059552 L20.0699823,16.4393228 Z M13.7294633,21.7803361 L12.187988,16.1852815 C12.106249,15.8885953 11.7518574,15.7667858 11.5049893,15.950525 L8.54115073,18.1564527 L10.9698649,6.61350161 L19.0009476,15.421809 L15.3212205,14.955363 C15.0114833,14.9161004 14.7614898,15.2045934 14.8444177,15.5055945 L16.3826603,21.0889157 L13.7294633,21.7803361 Z" id="Shape" fill="#154E84" fill-rule="nonzero"></path>
            </g>
        </g>
    </g>
</svg>