<?xml version="1.0" encoding="UTF-8"?>
<svg width="20px" height="20px" viewBox="0 0 20 20" version="1.1" xmlns="http://www.w3.org/2000/svg" xmlns:xlink="http://www.w3.org/1999/xlink">
    <title></title>
    <g id="Page-1" stroke="none" stroke-width="1" fill="none" fill-rule="evenodd">
        <g id="6.-Scan---reclassify" transform="translate(-1087.000000, -611.000000)">
            <g id="Group-16" transform="translate(1064.000000, 81.000000)">
                <g id="Group-15" transform="translate(16.000000, 316.000000)">
                    <g id="iconspace_Multiple-Shoots" transform="translate(7.000000, 214.000000)">
                        <circle id="Shape" cx="10" cy="10" r="10"></circle>
                        <path d="M8.125,7.5 L15.625,7.5 C16.142767,7.5 16.5625,7.91973305 16.5625,8.4375 L16.5625,15.9375 C16.5625,16.455267 16.142767,16.875 15.625,16.875 L8.125,16.875 C7.60723305,16.875 7.1875,16.455267 7.1875,15.9375 L7.1875,8.4375 C7.1875,7.91973305 7.60723305,7.5 8.125,7.5 Z" id="Shape" fill="#154E84" fill-rule="nonzero"></path>
                        <path d="M8.125,8.125 C7.95241102,8.125 7.8125,8.26491102 7.8125,8.4375 L7.8125,15.9375 C7.8125,16.110089 7.95241102,16.25 8.125,16.25 L15.625,16.25 C15.797589,16.25 15.9375,16.110089 15.9375,15.9375 L15.9375,8.4375 C15.9375,8.26491102 15.797589,8.125 15.625,8.125 L8.125,8.125 Z" id="Shape" fill="#FFC200" fill-rule="nonzero"></path>
                        <path d="M6.25,5.625 L13.75,5.625 C14.267767,5.625 14.6875,6.04473305 14.6875,6.5625 L14.6875,14.0625 C14.6875,14.580267 14.267767,15 13.75,15 L6.25,15 C5.73223305,15 5.3125,14.580267 5.3125,14.0625 L5.3125,6.5625 C5.3125,6.04473305 5.73223305,5.625 6.25,5.625 Z" id="Shape" fill="#154E84" fill-rule="nonzero"></path>
                        <path d="M6.25,6.25 C6.07741102,6.25 5.9375,6.38991102 5.9375,6.5625 L5.9375,14.0625 C5.9375,14.235089 6.07741102,14.375 6.25,14.375 L13.75,14.375 C13.922589,14.375 14.0625,14.235089 14.0625,14.0625 L14.0625,6.5625 C14.0625,6.38991102 13.922589,6.25 13.75,6.25 L6.25,6.25 Z" id="Shape" fill="#52ABE2" fill-rule="nonzero"></path>
                        <path d="M4.375,3.75 L11.875,3.75 C12.392767,3.75 12.8125,4.16973305 12.8125,4.6875 L12.8125,12.1875 C12.8125,12.705267 12.392767,13.125 11.875,13.125 L4.375,13.125 C3.85723305,13.125 3.4375,12.705267 3.4375,12.1875 L3.4375,4.6875 C3.4375,4.16973305 3.85723305,3.75 4.375,3.75 Z" id="Shape" fill="#154E84" fill-rule="nonzero"></path>
                        <path d="M4.375,4.375 C4.20241102,4.375 4.0625,4.51491102 4.0625,4.6875 L4.0625,12.1875 C4.0625,12.360089 4.20241102,12.5 4.375,12.5 L11.875,12.5 C12.047589,12.5 12.1875,12.360089 12.1875,12.1875 L12.1875,4.6875 C12.1875,4.51491102 12.047589,4.375 11.875,4.375 L4.375,4.375 Z" id="Shape" fill="#FFFFFF" fill-rule="nonzero"></path>
                    </g>
                </g>
            </g>
        </g>
    </g>
</svg>