<?xml version="1.0" encoding="UTF-8"?>
<svg width="28px" height="28px" viewBox="0 0 28 28" version="1.1" xmlns="http://www.w3.org/2000/svg" xmlns:xlink="http://www.w3.org/1999/xlink">
    <title></title>
    <g id="Page-1" stroke="none" stroke-width="1" fill="none" fill-rule="evenodd">
        <g id="L1.-Global-search--Copy" transform="translate(-12.000000, -824.000000)">
            <g id="Group-53" transform="translate(0.000000, 68.000000)">
                <g id="Group-5-Copy-6" transform="translate(0.000000, 750.000000)">
                    <g id="Group-15" transform="translate(12.000000, 6.000000)">
                        <circle id="Shape" cx="14" cy="14" r="14"></circle>
                        <path d="M6.5625,7 L21.4375,7 C21.6791246,7 21.875,7.19587542 21.875,7.4375 L21.875,21.4375 C21.875,22.1623737 21.2873737,22.75 20.5625,22.75 L7.4375,22.75 C6.71262627,22.75 6.125,22.1623737 6.125,21.4375 L6.125,7.4375 C6.125,7.19587542 6.32087542,7 6.5625,7 Z" id="Shape" fill="#FFFFFF"></path>
                        <path d="M6.5625,6.5625 L21.4375,6.5625 C21.9207492,6.5625 22.3125,6.95425084 22.3125,7.4375 L22.3125,21.4375 C22.3125,22.4039983 21.5289983,23.1875 20.5625,23.1875 L7.4375,23.1875 C6.47100169,23.1875 5.6875,22.4039983 5.6875,21.4375 L5.6875,7.4375 C5.6875,6.95425084 6.07925084,6.5625 6.5625,6.5625 Z M6.5625,7.4375 L6.5625,21.4375 C6.5625,21.9207492 6.95425084,22.3125 7.4375,22.3125 L20.5625,22.3125 C21.0457492,22.3125 21.4375,21.9207492 21.4375,21.4375 L21.4375,7.4375 L6.5625,7.4375 Z" id="Shape" fill="#154E84" fill-rule="nonzero"></path>
                        <path d="M9.625,16.4791667 L18.375,16.4791667 C18.6166246,16.4791667 18.8125,16.2179994 18.8125,15.8958333 C18.8125,15.5736672 18.6166246,15.3125 18.375,15.3125 L9.625,15.3125 C9.38337542,15.3125 9.1875,15.5736672 9.1875,15.8958333 C9.1875,16.2179994 9.38337542,16.4791667 9.625,16.4791667 Z" id="Shape" fill="#52ABE2" fill-rule="nonzero"></path>
                        <path d="M9.625,12.9791667 L18.375,12.9791667 C18.6166246,12.9791667 18.8125,12.7179994 18.8125,12.3958333 C18.8125,12.0736672 18.6166246,11.8125 18.375,11.8125 L9.625,11.8125 C9.38337542,11.8125 9.1875,12.0736672 9.1875,12.3958333 C9.1875,12.7179994 9.38337542,12.9791667 9.625,12.9791667 Z" id="Shape" fill="#52ABE2" fill-rule="nonzero"></path>
                        <path d="M9.625,19.9791667 L16.625,19.9791667 C16.8666246,19.9791667 17.0625,19.7179994 17.0625,19.3958333 C17.0625,19.0736672 16.8666246,18.8125 16.625,18.8125 L9.625,18.8125 C9.38337542,18.8125 9.1875,19.0736672 9.1875,19.3958333 C9.1875,19.7179994 9.38337542,19.9791667 9.625,19.9791667 Z" id="Shape" fill="#52ABE2" fill-rule="nonzero"></path>
                        <polygon id="Shape" fill="#FFC200" points="8.75 5.39583333 8.75 8.16666667 10.5 8.16666667 10.5 5.39583333"></polygon>
                        <polygon id="Shape" fill="#FFC200" points="13.125 5.39583333 13.125 8.16666667 14.875 8.16666667 14.875 5.39583333"></polygon>
                        <polygon id="Shape" fill="#FFC200" points="17.5 5.39583333 17.5 8.16666667 19.25 8.16666667 19.25 5.39583333"></polygon>
                        <path d="M8.3125,5.39583333 L8.3125,8.16666667 C8.3125,8.40829124 8.50837542,8.60416667 8.75,8.60416667 L10.5,8.60416667 C10.7416246,8.60416667 10.9375,8.40829124 10.9375,8.16666667 L10.9375,5.39583333 C10.9375,5.15420876 10.7416246,4.95833333 10.5,4.95833333 L8.75,4.95833333 C8.50837542,4.95833333 8.3125,5.15420876 8.3125,5.39583333 Z M10.0625,5.83333333 L10.0625,7.72916667 L9.1875,7.72916667 L9.1875,5.83333333 L10.0625,5.83333333 Z" id="Shape" fill="#154E84" fill-rule="nonzero"></path>
                        <path d="M12.6875,5.39583333 L12.6875,8.16666667 C12.6875,8.40829124 12.8833754,8.60416667 13.125,8.60416667 L14.875,8.60416667 C15.1166246,8.60416667 15.3125,8.40829124 15.3125,8.16666667 L15.3125,5.39583333 C15.3125,5.15420876 15.1166246,4.95833333 14.875,4.95833333 L13.125,4.95833333 C12.8833754,4.95833333 12.6875,5.15420876 12.6875,5.39583333 Z M14.4375,5.83333333 L14.4375,7.72916667 L13.5625,7.72916667 L13.5625,5.83333333 L14.4375,5.83333333 Z" id="Shape" fill="#154E84" fill-rule="nonzero"></path>
                        <path d="M17.0625,5.39583333 L17.0625,8.16666667 C17.0625,8.40829124 17.2583754,8.60416667 17.5,8.60416667 L19.25,8.60416667 C19.4916246,8.60416667 19.6875,8.40829124 19.6875,8.16666667 L19.6875,5.39583333 C19.6875,5.15420876 19.4916246,4.95833333 19.25,4.95833333 L17.5,4.95833333 C17.2583754,4.95833333 17.0625,5.15420876 17.0625,5.39583333 Z M18.8125,5.83333333 L18.8125,7.72916667 L17.9375,7.72916667 L17.9375,5.83333333 L18.8125,5.83333333 Z" id="Shape" fill="#154E84" fill-rule="nonzero"></path>
                    </g>
                </g>
            </g>
        </g>
    </g>
</svg>