<?xml version="1.0" encoding="UTF-8"?>
<svg width="24px" height="24px" viewBox="0 0 24 24" version="1.1" xmlns="http://www.w3.org/2000/svg" xmlns:xlink="http://www.w3.org/1999/xlink">
    <title></title>
    <g id="Page-1" stroke="none" stroke-width="1" fill="none" fill-rule="evenodd">
        <g id="L6.-Data-capture-Classify" transform="translate(-1034.000000, -129.000000)" fill-rule="nonzero">
            <g id="Group-8" transform="translate(1034.000000, 129.000000)">
                <g id="refresh-(2)" fill="#FE9923">
                    <path d="M24,4.82489063 L19.6722187,4.2343125 L19.0800469,8.56246875 L20.7032812,7.32932813 C21.4427344,8.7339375 21.8325938,10.305 21.8325938,11.9062031 C21.8325938,17.3278594 17.42175,21.7387031 12.0000937,21.7387031 L12.0000937,23.7730313 C18.5434688,23.7730313 23.8669219,18.4495781 23.8669219,11.9062031 C23.8669219,9.86076563 23.3397187,7.85521875 22.3416562,6.08465625 L24,4.82489063 Z" id="Path"></path>
                    <path d="M0.133171875,11.9062969 C0.133171875,13.9516406 0.660375,15.9572813 1.6584375,17.72775 L0,18.9876094 L4.32778125,19.5781875 L4.91995312,15.250125 L3.2968125,16.483125 C2.55735937,15.0784219 2.16745312,13.5075469 2.16745312,11.9063437 C2.1675,6.48464062 6.57834375,2.07379688 12,2.07379688 L12,0.03946875 C5.456625,0.03946875 0.133171875,5.36292188 0.133171875,11.9062969 Z" id="Path"></path>
                </g>
                <path d="M6.78,16.11 C7.25333333,16.11 7.65333333,16.0466667 7.98,15.92 C8.30666667,15.7933333 8.57,15.5816667 8.77,15.285 C8.97,14.9883333 9.11333333,14.605 9.2,14.135 C9.28666667,13.665 9.33,13.0966667 9.33,12.43 C9.33,11.7633333 9.28666667,11.195 9.2,10.725 C9.11333333,10.255 8.97,9.87166667 8.77,9.575 C8.57,9.27833333 8.30666667,9.06166667 7.98,8.925 C7.65333333,8.78833333 7.25333333,8.72 6.78,8.72 C6.30666667,8.72 5.90666667,8.78833333 5.58,8.925 C5.25333333,9.06166667 4.99,9.27833333 4.79,9.575 C4.59,9.87166667 4.44666667,10.255 4.36,10.725 C4.27333333,11.195 4.23,11.7633333 4.23,12.43 C4.23,13.0966667 4.27333333,13.665 4.36,14.135 C4.44666667,14.605 4.59,14.9883333 4.79,15.285 C4.99,15.5816667 5.25333333,15.7933333 5.58,15.92 C5.90666667,16.0466667 6.30666667,16.11 6.78,16.11 Z M6.78,14.88 C6.64,14.88 6.52833333,14.8433333 6.445,14.77 C6.36166667,14.6966667 6.29833333,14.5666667 6.255,14.38 C6.21166667,14.1933333 6.18333333,13.9416667 6.17,13.625 C6.15933333,13.3716667 6.15293333,13.0660667 6.1508,12.7082 L6.15,12.43 C6.15,11.95 6.15666667,11.5516667 6.17,11.235 C6.18333333,10.9183333 6.21166667,10.6666667 6.255,10.48 C6.29833333,10.2933333 6.36166667,10.1633333 6.445,10.09 C6.52833333,10.0166667 6.64,9.98 6.78,9.98 C6.92,9.98 7.03166667,10.0166667 7.115,10.09 C7.19833333,10.1633333 7.26166667,10.2933333 7.305,10.48 C7.34833333,10.6666667 7.37666667,10.9183333 7.39,11.235 C7.40333333,11.5516667 7.41,11.95 7.41,12.43 C7.41,12.91 7.40333333,13.3083333 7.39,13.625 C7.37666667,13.9416667 7.34833333,14.1933333 7.305,14.38 C7.26166667,14.5666667 7.19833333,14.6966667 7.115,14.77 C7.03166667,14.8433333 6.92,14.88 6.78,14.88 Z M12.34,16.11 C12.64,16.11 12.9316667,16.0783333 13.215,16.015 C13.4983333,15.9516667 13.75,15.8283333 13.97,15.645 C14.19,15.4616667 14.3666667,15.21 14.5,14.89 C14.6333333,14.57 14.7,14.16 14.7,13.66 L14.7,13.13 L12.9,13.13 C12.9,13.47 12.8916667,13.7516667 12.875,13.975 C12.8583333,14.1983333 12.83,14.3766667 12.79,14.51 C12.75,14.6433333 12.6933333,14.7383333 12.62,14.795 C12.5466667,14.8516667 12.4533333,14.88 12.34,14.88 C12.2,14.88 12.0883333,14.8433333 12.005,14.77 C11.9216667,14.6966667 11.8583333,14.5666667 11.815,14.38 C11.7716667,14.1933333 11.7433333,13.9416667 11.73,13.625 C11.7193333,13.3716667 11.7129333,13.0660667 11.7108,12.7082 L11.71,12.43 C11.71,11.95 11.7166667,11.5516667 11.73,11.235 C11.7433333,10.9183333 11.7716667,10.6666667 11.815,10.48 C11.8583333,10.2933333 11.9216667,10.1633333 12.005,10.09 C12.0883333,10.0166667 12.2,9.98 12.34,9.98 C12.52,9.98 12.65,10.0533333 12.73,10.2 C12.81,10.3466667 12.85,10.6233333 12.85,11.03 L12.85,11.43 L14.65,11.43 L14.65,10.98 C14.65,10.6333333 14.6083333,10.3216667 14.525,10.045 C14.4416667,9.76833333 14.3083333,9.53166667 14.125,9.335 C13.9416667,9.13833333 13.7033333,8.98666667 13.41,8.88 C13.1166667,8.77333333 12.76,8.72 12.34,8.72 C11.86,8.72 11.4566667,8.785 11.13,8.915 C10.8033333,9.045 10.54,9.25666667 10.34,9.55 C10.14,9.84333333 9.99833333,10.2266667 9.915,10.7 C9.83166667,11.1733333 9.79,11.75 9.79,12.43 C9.79,13.0966667 9.825,13.665 9.895,14.135 C9.965,14.605 10.0933333,14.9883333 10.28,15.285 C10.4666667,15.5816667 10.7266667,15.7933333 11.06,15.92 C11.3933333,16.0466667 11.82,16.11 12.34,16.11 Z M17.23,16 L17.23,13.14 L17.72,13.14 C17.8333333,13.14 17.9283333,13.155 18.005,13.185 C18.0816667,13.215 18.145,13.2683333 18.195,13.345 C18.245,13.4216667 18.28,13.5266667 18.3,13.66 C18.32,13.7933333 18.33,13.96 18.33,14.16 L18.33,14.64 C18.33,14.7133333 18.3316667,14.8083333 18.335,14.925 C18.3383333,15.0416667 18.345,15.1633333 18.355,15.29 C18.365,15.4166667 18.3816667,15.5433333 18.405,15.67 C18.4283333,15.7966667 18.4633333,15.9066667 18.51,16 L20.49,16 L20.49,15.9 C20.43,15.8666667 20.3866667,15.8316667 20.36,15.795 C20.3333333,15.7583333 20.3066667,15.72 20.28,15.68 C20.26,15.64 20.2433333,15.5833333 20.23,15.51 C20.2166667,15.4366667 20.2066667,15.355 20.2,15.265 C20.1933333,15.175 20.19,15.08 20.19,14.98 L20.19,14.08 C20.19,13.6 20.1066667,13.2233333 19.94,12.95 C19.7733333,12.6766667 19.4666667,12.52 19.02,12.48 L19.02,12.46 C19.4466667,12.3933333 19.7566667,12.2133333 19.95,11.92 C20.1433333,11.6266667 20.24,11.24 20.24,10.76 C20.24,10.4866667 20.205,10.2333333 20.135,10 C20.065,9.76666667 19.9516667,9.565 19.795,9.395 C19.6383333,9.225 19.435,9.09333333 19.185,9 C18.935,8.90666667 18.6333333,8.86 18.28,8.86 L15.37,8.86 L15.37,16 L17.23,16 Z M17.6,11.88 L17.23,11.88 L17.23,10.2 L17.59,10.2 C17.87,10.2 18.0716667,10.2633333 18.195,10.39 C18.3183333,10.5166667 18.38,10.73 18.38,11.03 C18.38,11.2833333 18.3166667,11.4883333 18.19,11.645 C18.0633333,11.8016667 17.8666667,11.88 17.6,11.88 Z" id="OCR" fill="#030D3C"></path>
            </g>
        </g>
    </g>
</svg>