<?xml version="1.0" encoding="UTF-8"?>
<svg width="28px" height="28px" viewBox="0 0 28 28" version="1.1" xmlns="http://www.w3.org/2000/svg" xmlns:xlink="http://www.w3.org/1999/xlink">
    <title></title>
    <g id="Page-2" stroke="none" stroke-width="1" fill="none" fill-rule="evenodd">
        <g id="P2/5.-Scan---Preview-" transform="translate(-1199.000000, -86.000000)">
            <g id="Group-16" transform="translate(1021.000000, 80.000000)">
                <g id="Group-2" transform="translate(178.000000, 6.000000)">
                    <rect id="Rectangle" x="0" y="0" width="28" height="28"></rect>
                    <g id="send" transform="translate(4.000000, 4.000000)" fill-rule="nonzero">
                        <g id="Group" transform="translate(0.689655, 0.000000)">
                            <polyline id="Path" fill="#FFC200" points="7.64136249 12.4708682 6.03456126 18.6154635 10.7962097 14.5917686"></polyline>
                            <path d="M19.3103841,0.0362348555 L7.64136249,12.4709069 L14.6012111,16.9708811 C14.9481301,17.195181 15.414993,17.0086644 15.5066779,16.6091519 L19.3103841,0.0362348555 L0.371881133,7.59782207 C-0.103812728,7.78774536 -0.129128119,8.44396014 0.330591534,8.66907305 L4.82950939,10.8722761" id="Path" fill="#FFFFFF"></path>
                            <polyline id="Path" fill="#52ABE2" points="9.26456967 7.57420747 4.82954864 10.8722761 6.06015139 18.6154635 7.64136249 12.4708682 19.3103841 0.0362348555 12.0923577 5.4596946"></polyline>
                        </g>
                        <g id="Group" fill="#154E84">
                            <path d="M19.9893359,0.473837241 C20.0529688,0.203955862 19.8133984,-0.0408606897 19.5382812,0.0121655172 C19.4891797,0.0216275862 19.4570703,0.028 19.4548828,0.0289655172 L0.614179687,7.56938483 C0.25078125,7.71486897 0.015703125,8.04604138 0.0007421875,8.4337931 C-0.01421875,8.82158345 0.1946875,9.16959448 0.5459375,9.34203586 L4.84265625,11.451189 L6.01417969,18.8401379 C5.98082031,18.9980193 6.05039062,19.1606897 6.18992187,19.2466979 C6.25351562,19.2858979 6.32515625,19.3051697 6.39648437,19.3051697 C6.40078125,19.3051697 6.40507812,19.3051697 6.409375,19.3049379 C6.41367187,19.3051697 6.41796875,19.3051697 6.42222656,19.3051697 C6.55757812,19.3051697 6.68054687,19.2360772 6.75101562,19.1272828 L11.2209766,15.3410262 L14.7083594,17.6012248 C14.8705469,17.7063503 15.0580078,17.7600717 15.2467187,17.7600717 C15.3710156,17.7600717 15.4958203,17.7367448 15.6142188,17.6894345 C15.9128125,17.5701738 16.1335156,17.3134234 16.2046484,17.0026428 L19.9887109,0.476154483 C19.9888672,0.475768276 19.9890625,0.474995862 19.9893359,0.473837241 Z M9.923125,7.67130483 C9.79328125,7.50102621 9.54832031,7.46707862 9.37605469,7.59541517 L5.15484375,10.7420359 L0.893398438,8.65018483 C0.787851563,8.59835586 0.779921875,8.50219034 0.781291971,8.46322207 C0.78296875,8.42429241 0.798203125,8.32905379 0.90734375,8.28537379 L17.0533984,1.82336 L12.1889453,5.48715034 C12.0173047,5.61641379 11.9841797,5.85875862 12.1149219,6.02841931 C12.2457031,6.19815724 12.4907813,6.23094621 12.6623828,6.10164414 L16.2630078,3.38973793 L7.71433594,12.5209048 C7.6765625,12.5596414 7.6465625,12.6066428 7.6275,12.6599779 C7.62742188,12.660171 6.50582031,16.9536331 6.50582031,16.9536331 L5.61945313,11.3630566 L9.84636719,8.21218759 C10.0186719,8.08381241 10.0530078,7.84162207 9.923125,7.67130483 Z M7.11097656,17.8052193 L8.23964844,13.4087172 L10.5407422,14.9000938 L7.11097656,17.8052193 Z M15.4427734,16.8320552 C15.4223828,16.9209214 15.358125,16.9586538 15.3216016,16.9732138 C15.2852344,16.9877352 15.2130078,17.004651 15.1367188,16.9551779 L8.59609375,12.716171 L18.906875,1.70267034 L15.4427734,16.8320552 Z" id="Shape"></path>
                            <path d="M11.0242187,7.23099034 C10.8589453,7.23099034 10.7072266,7.12385655 10.6542969,6.96891034 C10.6028516,6.81840552 10.6517187,6.6470069 10.7764062,6.54632276 C10.8998047,6.44668138 11.0751953,6.43188966 11.214375,6.50797241 C11.3550391,6.58486621 11.4335547,6.74460138 11.4102734,6.90155586 C11.3825781,7.08836414 11.2150781,7.23099034 11.0242187,7.23099034 L11.0242187,7.23099034 Z" id="Path"></path>
                        </g>
                    </g>
                </g>
            </g>
        </g>
    </g>
</svg>