<?xml version="1.0" encoding="UTF-8"?>
<svg width="52px" height="60px" viewBox="0 0 52 60" version="1.1" xmlns="http://www.w3.org/2000/svg" xmlns:xlink="http://www.w3.org/1999/xlink">
    <title>89AD8362-204B-41D0-AE80-6A6031DB9EDB</title>
    <defs>
        <linearGradient x1="50%" y1="0.453111342%" x2="50%" y2="100%" id="linearGradient-1">
            <stop stop-color="#DA2A2A" offset="0%"></stop>
            <stop stop-color="#9A0B0B" offset="100%"></stop>
        </linearGradient>
        <path d="M30,0 L42.6464466,0 C46.5124399,0 50,3.48756014 50,7.35355339 L50,20 L30,0 Z" id="path-2"></path>
        <filter x="-20.0%" y="-30.0%" width="140.0%" height="140.0%" filterUnits="objectBoundingBox" id="filter-3">
            <feOffset dx="0" dy="-2" in="SourceAlpha" result="shadowOffsetOuter1"></feOffset>
            <feGaussianBlur stdDeviation="1" in="shadowOffsetOuter1" result="shadowBlurOuter1"></feGaussianBlur>
            <feComposite in="shadowBlurOuter1" in2="SourceAlpha" operator="out" result="shadowBlurOuter1"></feComposite>
            <feColorMatrix values="0 0 0 0 0   0 0 0 0 0   0 0 0 0 0  0 0 0 0.0909637238 0" type="matrix" in="shadowBlurOuter1"></feColorMatrix>
        </filter>
    </defs>
    <g id="Page-2" stroke="none" stroke-width="1" fill="none" fill-rule="evenodd">
        <g id="L39.-Email" transform="translate(-740.000000, -416.000000)">
            <g id="files-icon-picture-copy-2" transform="translate(740.000000, 416.000000)">
                <g id="PDF">
                    <path d="M30,0 L50,20 L50,53 C50,56.8659932 46.8659932,60 43,60 L7,60 C3.13400675,60 0,56.8659932 0,53 L0,7 C0,3.13400675 3.13400675,0 7,0 L30,0 Z" id="Combined-Shape" fill="url(#linearGradient-1)"></path>
                    <g id="Path" transform="translate(40.000000, 10.000000) scale(-1, -1) translate(-40.000000, -10.000000) ">
                        <use fill="black" fill-opacity="1" filter="url(#filter-3)" xlink:href="#path-2"></use>
                        <use fill-opacity="0.4" fill="#FFFFFF" fill-rule="evenodd" xlink:href="#path-2"></use>
                    </g>
                </g>
                <g id="adobe-reader-symbol" transform="translate(13.000000, 25.000000)" fill="#FFFFFF" fill-rule="nonzero">
                    <path d="M23.5616842,16.1418947 C22.716,14.6147368 19.0124211,13.6421053 15.7421053,13.4576842 C15.4465263,13.1412632 15.1465263,12.8084211 14.8389474,12.4585263 C12.0284211,9.24505263 10.8903158,4.57515789 10.4652632,2.10126316 C10.4147368,1.57705263 10.3591579,1.14126316 10.3124211,0.816631579 C10.2745263,0.558315789 10.1949474,0.0195789474 9.63473684,0.0195789474 C9.45536842,0.0195789474 9.28231579,0.0966315789 9.15915789,0.233684211 C8.95957895,0.461684211 8.98926316,0.706736842 9.02463158,0.989684211 C9.06442105,1.31431579 9.12442105,1.74884211 9.20968421,2.24463158 C9.44905263,4.75642105 9.56210526,9.53873684 7.62884211,13.3376842 C7.42736842,13.7336842 7.22652632,14.1138947 7.02694737,14.4764211 C3.40926316,15.5286316 0.490105263,17.4050526 0.0625263158,18.9612632 C-0.0922105263,19.5246316 0.0423157895,20.0646316 0.442105263,20.4827368 C0.907578947,20.9690526 1.45705263,21.2153684 2.07536842,21.2153684 C3.78694737,21.2153684 5.73789474,19.3092632 7.87389474,15.552 C8.82505263,15.3018947 9.76926316,15.1275789 10.6818947,15.0353684 C11.0374737,14.9993684 11.6128421,14.9242105 11.9665263,14.8698947 C12.9410526,14.7195789 14.0437895,14.6589474 15.1768421,14.6962105 C17.7991579,17.4221053 19.9433684,18.804 21.5501053,18.804 C22.4128421,18.8033684 23.1271579,18.3827368 23.5604211,17.6197895 C23.8269474,17.1473684 23.8282105,16.6218947 23.5616842,16.1418947 Z M2.07473684,19.9522105 C1.80694737,19.9522105 1.57831579,19.8435789 1.35410526,19.6092632 C1.26252632,19.5138947 1.24231579,19.4317895 1.28021053,19.2966316 C1.50063158,18.4951579 3.35242105,17.1214737 6.05873684,16.1242105 C4.52968421,18.5368421 3.06631579,19.9522105 2.07473684,19.9522105 Z M11.7726316,13.6231579 C11.4366316,13.6749474 10.8909474,13.7456842 10.5536842,13.7810526 C9.94042105,13.8416842 9.31010526,13.9383158 8.67410526,14.0684211 C8.70063158,14.0166316 8.72715789,13.9642105 8.75368421,13.9117895 C9.70168421,12.0492632 10.2890526,9.816 10.5063158,7.25621053 C11.376,9.69031579 12.5103158,11.7151579 13.8877895,13.2903158 C13.9282105,13.3370526 13.9705263,13.3844211 14.0109474,13.4324211 C13.2157895,13.4513684 12.4654737,13.5164211 11.7726316,13.6231579 Z M22.4589474,16.9995789 C22.2492632,17.3709474 21.9511579,17.5433684 21.5235789,17.5433684 L21.5229474,17.5433684 C20.5187368,17.5433684 18.9745263,16.5928421 17.1258947,14.8496842 C19.9869474,15.2090526 22.0818947,16.0749474 22.4576842,16.7538947 C22.512,16.8524211 22.512,16.9048421 22.4589474,16.9995789 Z" id="Shape"></path>
                </g>
            </g>
        </g>
    </g>
</svg>