<?xml version="1.0" encoding="UTF-8"?>
<svg width="28px" height="28px" viewBox="0 0 28 28" version="1.1" xmlns="http://www.w3.org/2000/svg" xmlns:xlink="http://www.w3.org/1999/xlink">
    <title></title>
    <g id="Page-2" stroke="none" stroke-width="1" fill="none" fill-rule="evenodd">
        <g id="P2/4.-Scan" transform="translate(-1340.000000, -91.000000)">
            <g id="iconspace_Gallery" transform="translate(1340.000000, 91.000000)">
                <circle id="Shape" cx="14" cy="14" r="14"></circle>
                <path d="M5.6875,4.8125 L21.4375,4.8125 C22.1623737,4.8125 22.75,5.40012627 22.75,6.125 L22.75,21.875 C22.75,22.5998737 22.1623737,23.1875 21.4375,23.1875 L5.6875,23.1875 C4.96262627,23.1875 4.375,22.5998737 4.375,21.875 L4.375,6.125 C4.375,5.40012627 4.96262627,4.8125 5.6875,4.8125 Z" id="Shape" fill="#154E84" fill-rule="nonzero"></path>
                <path d="M5.6875,5.6875 C5.44587542,5.6875 5.25,5.88337542 5.25,6.125 L5.25,21.875 C5.25,22.1166246 5.44587542,22.3125 5.6875,22.3125 L21.4375,22.3125 C21.6791246,22.3125 21.875,22.1166246 21.875,21.875 L21.875,6.125 C21.875,5.88337542 21.6791246,5.6875 21.4375,5.6875 L5.6875,5.6875 Z" id="Shape" fill="#FFFFFF" fill-rule="nonzero"></path>
                <path d="M13.125,16.625 C13.125,16.5089678 13.1710936,16.3976879 13.2531408,16.3156408 L17.6281408,11.9406408 C17.7989729,11.7698087 18.0759385,11.7697831 18.2468021,11.9405837 L22.6234176,16.3155837 C22.7055327,16.3976685 22.7516155,16.5090278 22.7516155,16.6251346 L22.75,21.8751154 C22.7498088,22.5998539 22.1622385,23.1872692 21.4375128,23.1872692 L13.5625128,23.1875 C13.3208832,23.1875 13.125,22.9916296 13.125,22.75 L13.125,16.625 Z" id="Shape" fill="#154E84" fill-rule="nonzero"></path>
                <path d="M14,16.8062184 L14,22.3124872 L21.4375,22.3122692 C21.6790795,22.3122692 21.8749363,22.1164641 21.875,21.8748653 L21.8765597,16.80621 L17.9375571,12.8686613 L14,16.8062184 Z" id="Shape" fill="#52ABE2" fill-rule="nonzero"></path>
                <path d="M4.375,20.125 C4.375,20.0089678 4.42109362,19.8976879 4.50314078,19.8156408 L10.6281408,13.6906408 C10.805383,13.5133986 11.0950096,13.5210151 11.2626912,13.7073279 L19.1376912,22.4573279 C19.3910782,22.738869 19.1912748,23.1875 18.8125,23.1875 L5.6875,23.1875 C4.96262627,23.1875 4.375,22.5998737 4.375,21.875 L4.375,20.125 Z" id="Shape" fill="#154E84" fill-rule="nonzero"></path>
                <path d="M5.25,20.3062184 L5.25,21.875 C5.25,22.1166246 5.44587542,22.3125 5.6875,22.3125 L17.8301539,22.3125 L10.9207898,14.6354287 L5.25,20.3062184 Z" id="Shape" fill="#52ABE2" fill-rule="nonzero"></path>
                <path d="M13.125,12.25 C14.0914983,12.25 14.875,11.4664983 14.875,10.5 C14.875,9.53350169 14.0914983,8.75 13.125,8.75 C12.1585017,8.75 11.375,9.53350169 11.375,10.5 C11.375,11.4664983 12.1585017,12.25 13.125,12.25 Z" id="Shape" fill="#154E84" fill-rule="nonzero"></path>
                <path d="M13.125,11.375 C12.6417508,11.375 12.25,10.9832492 12.25,10.5 C12.25,10.0167508 12.6417508,9.625 13.125,9.625 C13.6082492,9.625 14,10.0167508 14,10.5 C14,10.9832492 13.6082492,11.375 13.125,11.375 Z" id="Shape" fill="#FFC200" fill-rule="nonzero"></path>
                <path d="M5.6875,4.8125 L21.4375,4.8125 C22.1623737,4.8125 22.75,5.40012627 22.75,6.125 L22.75,21.875 C22.75,22.5998737 22.1623737,23.1875 21.4375,23.1875 L5.6875,23.1875 C4.96262627,23.1875 4.375,22.5998737 4.375,21.875 L4.375,6.125 C4.375,5.40012627 4.96262627,4.8125 5.6875,4.8125 Z M5.6875,5.6875 C5.44587542,5.6875 5.25,5.88337542 5.25,6.125 L5.25,21.875 C5.25,22.1166246 5.44587542,22.3125 5.6875,22.3125 L21.4375,22.3125 C21.6791246,22.3125 21.875,22.1166246 21.875,21.875 L21.875,6.125 C21.875,5.88337542 21.6791246,5.6875 21.4375,5.6875 L5.6875,5.6875 Z" id="Shape" fill="#154E84" fill-rule="nonzero"></path>
            </g>
        </g>
    </g>
</svg>