<?xml version="1.0" encoding="UTF-8"?>
<svg width="28px" height="28px" viewBox="0 0 28 28" version="1.1" xmlns="http://www.w3.org/2000/svg" xmlns:xlink="http://www.w3.org/1999/xlink">
    <title></title>
    <g id="Page-2" stroke="none" stroke-width="1" fill="none" fill-rule="evenodd">
        <g id="P2/5.-Scan---Preview-" transform="translate(-1192.000000, -135.000000)">
            <g id="Group-16" transform="translate(1021.000000, 80.000000)">
                <g id="iconspace_Printer" transform="translate(171.000000, 55.000000)">
                    <g id="Group">
                        <rect id="Rectangle" x="0" y="0" width="28" height="28"></rect>
                        <path d="M6.125,10.0625 L21.875,10.0625 C22.5999,10.0625 23.1875,10.6501 23.1875,11.375 L23.1875,18.375 C23.1875,19.0999 22.5999,19.6875 21.875,19.6875 L6.125,19.6875 C5.40013,19.6875 4.8125,19.0999 4.8125,18.375 L4.8125,11.375 C4.8125,10.6501 5.40013,10.0625 6.125,10.0625 Z" id="Path" fill="#154E84" fill-rule="nonzero"></path>
                        <path d="M6.125,10.9375 C5.88338,10.9375 5.6875,11.1334 5.6875,11.375 L5.6875,18.375 C5.6875,18.6166 5.88338,18.8125 6.125,18.8125 L21.875,18.8125 C22.1166,18.8125 22.3125,18.6166 22.3125,18.375 L22.3125,11.375 C22.3125,11.1334 22.1166,10.9375 21.875,10.9375 L6.125,10.9375 Z" id="Path" fill="#FFFFFF" fill-rule="nonzero"></path>
                        <rect id="Rectangle" fill="#FFC200" fill-rule="nonzero" x="7" y="12.25" width="4.375" height="1.75" rx="0.875"></rect>
                        <path d="M20.5625,14 C21.0457,14 21.4375,13.6082 21.4375,13.125 C21.4375,12.6418 21.0457,12.25 20.5625,12.25 C20.0793,12.25 19.6875,12.6418 19.6875,13.125 C19.6875,13.6082 20.0793,14 20.5625,14 Z" id="Path" fill="#FFC200"></path>
                        <path d="M17.9375,14 C18.4207,14 18.8125,13.6082 18.8125,13.125 C18.8125,12.6418 18.4207,12.25 17.9375,12.25 C17.4543,12.25 17.0625,12.6418 17.0625,13.125 C17.0625,13.6082 17.4543,14 17.9375,14 Z" id="Path" fill="#FFC200"></path>
                        <path d="M21,15.3125 C21.2416,15.3125 21.4375,15.5084 21.4375,15.75 L21.4375,19.25 C21.4375,19.4916 21.2416,19.6875 21,19.6875 L7,19.6875 C6.75838,19.6875 6.5625,19.4916 6.5625,19.25 L6.5625,15.75 C6.5625,15.5084 6.75838,15.3125 7,15.3125 L21,15.3125 Z" id="Path" fill="#154E84" fill-rule="nonzero"></path>
                        <polygon id="Path" fill="#52ABE2" fill-rule="nonzero" points="20.5625 16.1875 7.4375 16.1875 7.4375 18.8125 20.5625 18.8125"></polygon>
                        <path d="M8.3125,15.75 C8.3125,15.5084 8.50838,15.3125 8.75,15.3125 L19.25,15.3125 C19.4916,15.3125 19.6875,15.5084 19.6875,15.75 L19.6875,21.875 C19.6875,22.5999 19.0999,23.1875 18.375,23.1875 L9.625,23.1875 C8.90013,23.1875 8.3125,22.5999 8.3125,21.875 L8.3125,15.75 Z" id="Path" fill="#154E84" fill-rule="nonzero"></path>
                        <path d="M9.1875,16.1875 L9.1875,21.875 C9.1875,22.1166 9.38338,22.3125 9.625,22.3125 L18.375,22.3125 C18.6166,22.3125 18.8125,22.1166 18.8125,21.875 L18.8125,16.1875 L9.1875,16.1875 Z" id="Path" fill="#FFFFFF" fill-rule="nonzero"></path>
                        <path d="M6.5625,10.9375 L21.4375,10.9375 L21.4375,9.625 C21.4375,8.90013 20.8499,8.3125 20.125,8.3125 L7.875,8.3125 C7.15013,8.3125 6.5625,8.90013 6.5625,9.625 L6.5625,10.9375 Z" id="Path" fill="#154E84" fill-rule="nonzero"></path>
                        <path d="M7.4375,10.0625 L7.4375,9.625 C7.4375,9.38338 7.63338,9.1875 7.875,9.1875 L20.125,9.1875 C20.3666,9.1875 20.5625,9.38338 20.5625,9.625 L20.5625,10.0625 L7.4375,10.0625 Z" id="Path" fill="#52ABE2" fill-rule="nonzero"></path>
                        <path d="M8.3125,10.9375 L19.6875,10.9375 L19.6875,6.125 C19.6875,5.40013 19.0999,4.8125 18.375,4.8125 L9.625,4.8125 C8.90013,4.8125 8.3125,5.40013 8.3125,6.125 L8.3125,10.9375 Z" id="Path" fill="#154E84" fill-rule="nonzero"></path>
                        <path d="M9.1875,10.0625 L9.1875,6.125 C9.1875,5.88338 9.38338,5.6875 9.625,5.6875 L18.375,5.6875 C18.6166,5.6875 18.8125,5.88338 18.8125,6.125 L18.8125,10.0625 L9.1875,10.0625 Z" id="Path" fill="#FFFFFF" fill-rule="nonzero"></path>
                    </g>
                    <rect id="Rectangle" fill="#154E84" x="22" y="2" width="1" height="5" rx="0.5"></rect>
                    <rect id="Rectangle-Copy-7" fill="#154E84" transform="translate(22.500000, 4.500000) rotate(-270.000000) translate(-22.500000, -4.500000) " x="22" y="2" width="1" height="5" rx="0.5"></rect>
                </g>
            </g>
        </g>
    </g>
</svg>