<?xml version="1.0" encoding="UTF-8"?>
<svg width="18px" height="18px" viewBox="0 0 18 18" version="1.1" xmlns="http://www.w3.org/2000/svg" xmlns:xlink="http://www.w3.org/1999/xlink">
    <!-- Generator: sketchtool 63.1 (101010) - https://sketch.com -->
    <title></title>
    <desc>Created with sketchtool.</desc>
    <g id="Web" stroke="none" stroke-width="1" fill="none" fill-rule="evenodd">
        <g id="1.5-Data-capture-" transform="translate(-1030.000000, -147.000000)">
            <g id="iconspace_Rotate-Copy-2" transform="translate(1025.000000, 142.000000)">
                <path d="M7.52930928,8.78134803 C9.09083503,6.84596855 11.4483744,5.6875 14,5.6875 C18.590867,5.6875 22.3125,9.40913302 22.3125,14 C22.3125,18.590867 18.590867,22.3125 14,22.3125 C10.2724616,22.3125 7.03069433,19.8374881 6.0124468,16.3087969 C5.93172685,16.0290655 6.14165093,15.75 6.43279583,15.75 L8.27717522,15.75 C8.4584993,15.75 8.62103179,15.8618509 8.68580683,16.0312103 C9.52108566,18.2151125 11.6224346,19.6875 14,19.6875 C17.1411195,19.6875 19.6875,17.1411195 19.6875,14 C19.6875,10.8588805 17.1411195,8.3125 14,8.3125 C12.1039918,8.3125 10.3697588,9.24743694 9.31841981,10.7692486 L10.3876912,11.9573279 C10.6410782,12.238869 10.4412748,12.6875 10.0625,12.6875 L6.125,12.6875 C5.88337542,12.6875 5.6875,12.4916246 5.6875,12.25 L5.6875,7.875 C5.6875,7.47403818 6.18196188,7.28429536 6.45019119,7.58232793 L7.52930928,8.78134803 Z" id="Shape" fill="#154E84" fill-rule="nonzero"></path>
                <path d="M14,21.4375 C18.1076178,21.4375 21.4375,18.1076178 21.4375,14 C21.4375,9.89238217 18.1076178,6.5625 14,6.5625 C11.5502472,6.5625 9.30167676,7.75498174 7.91644236,9.72022129 C7.75463866,9.94977309 7.42153297,9.9695878 7.23365691,9.76083663 L6.5625,9.01510672 L6.5625,11.8125 L9.08015395,11.8125 L8.44354102,11.1051523 C8.31411372,10.9613442 8.29451208,10.7496017 8.39534065,10.5844781 C9.57923725,8.64565002 11.6856765,7.4375 14,7.4375 C17.6243687,7.4375 20.5625,10.3756313 20.5625,14 C20.5625,17.6243687 17.6243687,20.5625 14,20.5625 C11.3601394,20.5625 9.01543392,18.9892689 7.98360924,16.625 L7.03865612,16.625 C8.11435893,19.4810585 10.865347,21.4375 14,21.4375 Z" id="Shape" fill="#FFFFFF" fill-rule="nonzero"></path>
                <!-- <polygon id="Shape" fill="#FFC200" points="7.4375 18.375 9.625 18.375 8.75 17.0625 7 17.0625"></polygon>
                <polygon id="Shape" fill="#52ABE2" points="8.75 17.5 7 17.5 6.5625 16.625 6.5625 16.1875 8.3125 16.1875 8.3125 16.625"></polygon>
                <path d="M7.52930928,8.78134803 C9.09083503,6.84596855 11.4483744,5.6875 14,5.6875 C18.590867,5.6875 22.3125,9.40913302 22.3125,14 C22.3125,18.590867 18.590867,22.3125 14,22.3125 C10.2724616,22.3125 7.03069433,19.8374881 6.0124468,16.3087969 C5.93172685,16.0290655 6.14165093,15.75 6.43279583,15.75 L8.27717522,15.75 C8.4584993,15.75 8.62103179,15.8618509 8.68580683,16.0312103 C9.52108566,18.2151125 11.6224346,19.6875 14,19.6875 C17.1411195,19.6875 19.6875,17.1411195 19.6875,14 C19.6875,10.8588805 17.1411195,8.3125 14,8.3125 C12.1039918,8.3125 10.3697588,9.24743694 9.31841981,10.7692486 L10.3876912,11.9573279 C10.6410782,12.238869 10.4412748,12.6875 10.0625,12.6875 L6.125,12.6875 C5.88337542,12.6875 5.6875,12.4916246 5.6875,12.25 L5.6875,7.875 C5.6875,7.47403818 6.18196188,7.28429536 6.45019119,7.58232793 L7.52930928,8.78134803 Z M14,21.4375 C18.1076178,21.4375 21.4375,18.1076178 21.4375,14 C21.4375,9.89238217 18.1076178,6.5625 14,6.5625 C11.5502472,6.5625 9.30167676,7.75498174 7.91644236,9.72022129 C7.75463866,9.94977309 7.42153297,9.9695878 7.23365691,9.76083663 L6.5625,9.01510672 L6.5625,11.8125 L9.08015395,11.8125 L8.44354102,11.1051523 C8.31411372,10.9613442 8.29451208,10.7496017 8.39534065,10.5844781 C9.57923725,8.64565002 11.6856765,7.4375 14,7.4375 C17.6243687,7.4375 20.5625,10.3756313 20.5625,14 C20.5625,17.6243687 17.6243687,20.5625 14,20.5625 C11.3601394,20.5625 9.01543392,18.9892689 7.98360924,16.625 L7.03865612,16.625 C8.11435893,19.4810585 10.865347,21.4375 14,21.4375 Z" id="Shape" fill="#154E84" fill-rule="nonzero"></path> -->
            </g>
        </g>
    </g>
</svg>