<?xml version="1.0" encoding="UTF-8"?>
<svg width="16px" height="16px" viewBox="0 0 16 16" version="1.1" xmlns="http://www.w3.org/2000/svg" xmlns:xlink="http://www.w3.org/1999/xlink">
    <!-- Generator: sketchtool 64 (101010) - https://sketch.com -->
    <title></title>
    <desc>Created with sketchtool.</desc>
    <g id="Web" stroke="none" stroke-width="1" fill="none" fill-rule="evenodd">
        <g id="1.5-Data-capture-" transform="translate(-964.000000, -149.000000)">
            <g id="iconspace_Minize-view" transform="translate(972.000000, 157.000000) scale(-1, 1) translate(-972.000000, -157.000000) translate(960.000000, 145.000000)">
                <circle id="Shape" cx="12" cy="12" r="12"></circle>
                <path d="M5.25,4.5 L18.75,4.5 C19.1642136,4.5 19.5,4.83578644 19.5,5.25 L19.5,18.75 C19.5,19.1642136 19.1642136,19.5 18.75,19.5 L5.25,19.5 C4.83578644,19.5 4.5,19.1642136 4.5,18.75 L4.5,5.25 C4.5,4.83578644 4.83578644,4.5 5.25,4.5 Z" id="Shape" fill="#FFFFFF"></path>
                <path d="M5.25,4.125 L18.75,4.125 C19.3713203,4.125 19.875,4.62867966 19.875,5.25 L19.875,18.75 C19.875,19.3713203 19.3713203,19.875 18.75,19.875 L5.25,19.875 C4.62867966,19.875 4.125,19.3713203 4.125,18.75 L4.125,5.25 C4.125,4.62867966 4.62867966,4.125 5.25,4.125 Z M5.25,4.875 C5.04289322,4.875 4.875,5.04289322 4.875,5.25 L4.875,18.75 C4.875,18.9571068 5.04289322,19.125 5.25,19.125 L18.75,19.125 C18.9571068,19.125 19.125,18.9571068 19.125,18.75 L19.125,5.25 C19.125,5.04289322 18.9571068,4.875 18.75,4.875 L5.25,4.875 Z" id="Shape" fill="#154E84" fill-rule="nonzero"></path>
                <path d="M13.5,18.75 L13.5,14.25 C13.5,13.8357864 13.8357864,13.5 14.25,13.5 L18.75,13.5 C19.1642136,13.5 19.5,13.8357864 19.5,14.25 L19.5,18.75 C19.5,19.1642136 19.1642136,19.5 18.75,19.5 L14.25,19.5 C13.8357864,19.5 13.5,19.1642136 13.5,18.75 Z" id="Shape" fill="#FFC200"></path>
                <path d="M13.125,18.75 L13.125,14.25 C13.125,13.6286797 13.6286797,13.125 14.25,13.125 L18.75,13.125 C19.3713203,13.125 19.875,13.6286797 19.875,14.25 L19.875,18.75 C19.875,19.3713203 19.3713203,19.875 18.75,19.875 L14.25,19.875 C13.6286797,19.875 13.125,19.3713203 13.125,18.75 Z M13.875,18.75 C13.875,18.9571068 14.0428932,19.125 14.25,19.125 L18.75,19.125 C18.9571068,19.125 19.125,18.9571068 19.125,18.75 L19.125,14.25 C19.125,14.0428932 18.9571068,13.875 18.75,13.875 L14.25,13.875 C14.0428932,13.875 13.875,14.0428932 13.875,14.25 L13.875,18.75 Z" id="Shape" fill="#154E84" fill-rule="nonzero"></path>
                <path d="M11.0282386,11.9339247 L6.05756604,6.90117937 C5.91203096,6.75382688 5.91350426,6.51639458 6.06085676,6.3708595 C6.20820925,6.22532441 6.44564155,6.22679772 6.59117663,6.37415022 L11.5618492,11.4068956 C11.7073843,11.5542481 11.705911,11.7916804 11.5585585,11.9372155 C11.411206,12.0827505 11.1737737,12.0812772 11.0282386,11.9339247 Z" id="Shape" fill="#52ABE2" fill-rule="nonzero"></path>
                <path d="M11.0310789,8.9327457 C11.0310789,8.72563892 11.1989721,8.5577457 11.4060789,8.5577457 C11.6131857,8.5577457 11.7810789,8.72563892 11.7810789,8.9327457 L11.7810789,11.8344314 C11.7810789,12.0415382 11.6131857,12.2094314 11.4060789,12.2094314 L8.50439322,12.2094314 C8.29728644,12.2094314 8.12939322,12.0415382 8.12939322,11.8344314 C8.12939322,11.6273246 8.29728644,11.4594314 8.50439322,11.4594314 L11.0310789,11.4594314 L11.0310789,8.9327457 Z" id="Shape" fill="#52ABE2" fill-rule="nonzero"></path>
            </g>
        </g>
    </g>
</svg>