<?xml version="1.0" encoding="UTF-8"?>
<svg width="28px" height="28px" viewBox="0 0 28 28" version="1.1" xmlns="http://www.w3.org/2000/svg" xmlns:xlink="http://www.w3.org/1999/xlink">
    <title></title>
    <g id="Page-1" stroke="none" stroke-width="1" fill="none" fill-rule="evenodd">
        <g id="L16.3--Scan---Preview" transform="translate(-368.000000, -87.000000)">
            <g id="Group-11" transform="translate(368.000000, 87.000000)">
                <rect id="Rectangle" x="0" y="0" width="28" height="28"></rect>
                <g id="scanner" transform="translate(5.000000, 5.000000)" fill-rule="nonzero">
                    <g id="Group" transform="translate(0.250000, 0.250000)">
                        <path d="M12.8166562,3.21665625 L15.4833125,10.6833125 L15.4833125,13.35 C15.4833125,13.6329062 15.3710312,13.9042813 15.1709687,14.1043437 C14.9709062,14.3044062 14.6995625,14.41675 14.416625,14.4166875 L13.616625,14.4166875 L13.616625,15.2166875 C13.6161875,15.3637813 13.4970625,15.4829063 13.3499687,15.4833438 L2.15,15.4833438 C2.00290625,15.4829063 1.88378125,15.3637813 1.88334375,15.2166875 L1.88334375,14.4166875 L1.08334375,14.4166875 C0.8004375,14.4167812 0.5290625,14.3044062 0.329,14.1043437 C0.1289375,13.9042813 0.0166562239,13.6329375 0.0166562239,13.35 L0.0166562239,10.6833437 L2.6833125,3.2166875 L0.2833125,3.2166875 C0.13621875,3.21625 0.01709375,3.097125 0.0166562239,2.95003125 L0.0166562239,2.15 L3.21665625,0.01665625 L12.2833125,0.01665625 L15.4833125,2.15 L15.4833125,2.95 C15.482875,3.09709375 15.36375,3.21621875 15.2166562,3.21665625 L12.8166562,3.21665625 Z" id="Path" fill="#FFFFFF"></path>
                        <path d="M12.0166562,3.21665625 L14.6833125,10.6833125 L14.6833125,13.35 C14.6833125,13.6329062 14.5710312,13.9042813 14.3709687,14.1043437 C14.1709062,14.3044062 13.8995625,14.41675 13.616625,14.4166875 L12.816625,14.4166875 L12.816625,15.2166875 C12.8161875,15.3637813 12.6970625,15.4829063 12.5499687,15.4833438 L2.15,15.4833438 C2.00290625,15.4829063 1.88378125,15.3637813 1.88334375,15.2166875 L1.88334375,14.4166875 L1.08334375,14.4166875 C0.8004375,14.4167812 0.5290625,14.3044062 0.329,14.1043437 C0.1289375,13.9042813 0.0166562239,13.6329375 0.0166562239,13.35 L0.0166562239,10.6833437 L2.6833125,3.2166875 L0.2833125,3.2166875 C0.13621875,3.21625 0.01709375,3.097125 0.0166562239,2.95003125 L0.0166562239,2.15 L3.21665625,0.01665625 L11.4833125,0.01665625 L14.6833125,2.15 L14.6833125,2.95 C14.682875,3.09709375 14.56375,3.21621875 14.4166562,3.21665625 L12.0166562,3.21665625 Z" id="Path" fill="#FFFFFF"></path>
                        <path d="M13.6166563,14.4166563 L13.6166563,15.2166562 C13.6162187,15.36375 13.4970937,15.482875 13.35,15.4833125 L2.15,15.4833125 C2.00290625,15.482875 1.88378125,15.36375 1.88334375,15.2166562 L1.88334375,14.4166563 L13.6166563,14.4166563 Z" id="Path" fill="#FFFFFF"></path>
                        <path d="M12.8166562,14.4166563 L12.8166562,15.2166562 C12.8162187,15.36375 12.6970937,15.482875 12.55,15.4833125 L2.15,15.4833125 C2.00290625,15.482875 1.88378125,15.36375 1.88334375,15.2166562 L1.88334375,14.4166563 L12.8166562,14.4166563 Z" id="Path" fill="#FFFFFF"></path>
                        <polygon id="Path" fill="#FFFFFF" points="14.6833438 10.6833438 0.01665625 10.6833438 2.68334375 3.21665625 12.0166563 3.21665625"></polygon>
                        <path d="M4.01665625,10.6833438 L11.4833125,10.6833438 L11.4833125,12.2833437 C11.4833125,12.5779062 11.2445313,12.8166875 10.9499688,12.8166875 L4.55,12.8166875 C4.2554375,12.8166875 4.01665625,12.5779062 4.01665625,12.2833437 L4.01665625,10.6833438 Z" id="Path" fill="#FFC200"></path>
                        <g transform="translate(5.062500, 10.656250)" fill="#F5F5F5">
                            <path d="M1.0875,0.02709375 L1.0875,1.09375 L0.2875,1.09375 C0.14021875,1.09375 0.02084375,0.97434375 0.02084375,0.82709375 L0.02084375,0.02709375 L1.0875,0.02709375 L1.0875,0.02709375 Z" id="Path"></path>
                            <rect id="Rectangle" x="1.0875" y="0.02709375" width="1.06665625" height="1.06665625"></rect>
                            <rect id="Rectangle" x="2.15415625" y="0.02709375" width="1.06665625" height="1.06665625"></rect>
                            <rect id="Rectangle" x="3.22084375" y="0.02709375" width="1.06665625" height="1.06665625"></rect>
                            <path d="M5.35415625,0.02709375 L5.35415625,0.82709375 C5.35415625,0.974375 5.23478125,1.09375 5.0875,1.09375 L4.2875,1.09375 L4.2875,0.02709375 L5.35415625,0.02709375 L5.35415625,0.02709375 Z" id="Path"></path>
                        </g>
                        <path d="M1.35,11.75 L1.88334375,11.75 C2.030625,11.75 2.15,11.869375 2.15,12.0166563 L2.15,12.55 C2.15,12.6972813 2.03059375,12.8166563 1.88334375,12.8166563 L1.35,12.8166563 C1.20271875,12.8166563 1.08334375,12.69725 1.08334375,12.55 L1.08334375,12.0166563 C1.08334375,11.8694063 1.20271875,11.75 1.35,11.75 Z" id="Path" fill="#FFEB3A"></path>
                        <path d="M13.5926563,9.61665625 L1.90734375,9.61665625 C1.82065625,9.616125 1.7395625,9.57365625 1.68978125,9.5026875 C1.64,9.43171875 1.62765625,9.34103125 1.65665625,9.2593125 L3.3713125,4.4593125 C3.409875,4.35403125 3.50984375,4.2838125 3.62196875,4.2833125 L11.8779688,4.2833125 C11.9900938,4.2838125 12.0900938,4.35403125 12.128625,4.4593125 L13.8432813,9.2593125 C13.8723125,9.341 13.8599688,9.4316875 13.8101563,9.5026875 C13.7604375,9.57365625 13.679375,9.616125 13.5926563,9.61665625 Z" id="Path" fill="#52ABE2"></path>
                        <path d="M12.8166563,9.61665625 L1.90734375,9.61665625 C1.82065625,9.616125 1.7395625,9.57365625 1.68978125,9.5026875 C1.64,9.43171875 1.62765625,9.34103125 1.65665625,9.2593125 L3.3713125,4.4593125 C3.409875,4.35403125 3.50984375,4.2838125 3.62196875,4.2833125 L11.1019688,4.2833125 C11.2140938,4.28384375 11.3140625,4.35403125 11.352625,4.4593125 L13.0672813,9.2593125 C13.0963125,9.341 13.0839688,9.4316875 13.0341563,9.5026875 C12.9844375,9.57365625 12.903375,9.616125 12.8166563,9.61665625 Z" id="Path" fill="#52ABE2"></path>
                        <path d="M15.4833437,2.15 L15.4833437,2.95 C15.4829062,3.09709375 15.3637812,3.21621875 15.2166875,3.21665625 L0.28334375,3.21665625 C0.13625,3.21621875 0.017125,3.09709375 0.0166875,2.95 L0.0166875,2.15 L15.4833437,2.15 Z" id="Path" fill="#FFFFFF"></path>
                        <path d="M14.6833438,2.15 L14.6833438,2.95 C14.6829063,3.09709375 14.5637812,3.21621875 14.4166875,3.21665625 L0.28334375,3.21665625 C0.13625,3.21621875 0.017125,3.09709375 0.0166875,2.95 L0.0166875,2.15 L14.6833438,2.15 Z" id="Path" fill="#FFFFFF"></path>
                        <polygon id="Path" fill="#FFFFFF" points="14.4166563 2.15 0.01665625 2.15 3.21665625 0.01665625 11.2166562 0.01665625"></polygon>
                    </g>
                    <g id="Group" fill="#154E84">
                        <path d="M15.974125,2.28884375 C15.9619062,2.26184375 15.9452187,2.237125 15.9247812,2.21565625 C15.9209375,2.21165625 15.9165,2.20875 15.9124062,2.205 C15.90275,2.19525 15.8923125,2.18625 15.88125,2.178125 L12.68125,0.04478125 C12.6374687,0.01559375 12.586,0 12.5333437,0 L3.46665625,0 C3.414,0 3.3625625,0.01559375 3.31875,0.0448125 L0.11875,2.178125 C0.1076875,2.18625 0.09725,2.19525 0.08759375,2.205 C0.0835,2.20875 0.0790625,2.2116875 0.07521875,2.21565625 C0.05478125,2.23709375 0.03809375,2.26184375 0.025875,2.28884375 C0.02303125,2.2949375 0.0210625,2.30109375 0.0186875,2.3074375 C0.0069375,2.33690625 0.00059375,2.36828125 -2.60427277e-08,2.4 L-2.60427277e-08,3.46665625 C-2.60427277e-08,3.537375 0.0280625,3.60521875 0.07809375,3.65525 C0.12809375,3.70525 0.1959375,3.73334375 0.2666875,3.73334375 L2.55496875,3.73334375 L0.0155,10.84375 C0.0119375,10.858625 0.00975,10.8737813 0.0089375,10.8890313 C0.004625,10.9035 0.00165625,10.9183125 -2.60427277e-08,10.9333125 L-2.60427277e-08,13.6 C0.000875,14.3360312 0.5973125,14.9324687 1.33334375,14.9333437 L1.8666875,14.9333437 L1.8666875,15.4666875 C1.86703125,15.7610937 2.10559375,15.9996875 2.40003125,16.0000312 L13.6000312,16.0000312 C13.8944375,15.9996875 14.1330312,15.761125 14.133375,15.4666875 L14.133375,14.9333437 L14.6667187,14.9333437 C15.40275,14.9324687 15.9991875,14.3360312 16.0000937,13.6 L16.0000937,10.9333437 C15.99325,10.9037812 15.9880625,10.873875 15.9845625,10.84375 L13.445125,3.73334375 L15.7334062,3.73334375 C15.804125,3.733375 15.8719687,3.70528125 15.922,3.65525 C15.972,3.60525 16.0000937,3.53740625 16.0000937,3.46665625 L16.0000937,2.4 C15.9995,2.36828125 15.9931562,2.33690625 15.9814062,2.3074375 C15.9789375,2.30109375 15.9769375,2.29496875 15.974125,2.28884375 Z M3.54740625,0.53334375 L12.452625,0.53334375 L14.852625,2.13334375 L1.14740625,2.13334375 L3.54740625,0.53334375 Z M13.600375,15.4666562 L2.4,15.4666562 L2.4,14.9333125 L13.600125,14.9333125 L13.600375,15.4666562 Z M15.4666562,13.6 C15.4661875,14.041625 15.1082812,14.3995312 14.6666562,14.4 L1.33334375,14.4 C0.89171875,14.3995313 0.5338125,14.041625 0.53334375,13.6 L0.53334375,11.2 L4,11.2 L4,12.5333438 C4.00046875,12.9749688 4.358375,13.332875 4.8,13.3333438 L11.2,13.3333438 C11.641625,13.332875 11.9995312,12.9749688 12,12.5333438 L12,11.2 L15.4666562,11.2 L15.4666562,13.6 Z M7.2,11.2 L7.2,11.7333437 L6.66665625,11.7333437 L6.66665625,11.2 L7.2,11.2 Z M8.26665625,11.2 L8.26665625,11.7333437 L7.7333125,11.7333437 L7.7333125,11.2 L8.26665625,11.2 Z M9.33334375,11.2 L9.33334375,11.7333437 L8.8,11.7333437 L8.8,11.2 L9.33334375,11.2 Z M10.4,11.2 L10.4,11.7333437 L9.86665625,11.7333437 L9.86665625,11.2 L10.4,11.2 Z M6.13334375,11.7333437 L5.6,11.7333437 L5.6,11.2 L6.13334375,11.2 L6.13334375,11.7333437 Z M5.33334375,12.2666563 L10.6666875,12.2666563 C10.7374062,12.2666875 10.80525,12.2385938 10.8552813,12.1885625 C10.9052813,12.1385625 10.933375,12.0707188 10.933375,11.9999688 L10.933375,11.1999688 L11.4667188,11.1999688 L11.4667188,12.5333125 C11.4665625,12.6805313 11.3472813,12.7998438 11.2000625,12.7999688 L4.8,12.7999688 C4.65278125,12.7998125 4.53346875,12.6805313 4.53334375,12.5333125 L4.53334375,11.2 L5.0666875,11.2 L5.0666875,12 C5.06665625,12.0707188 5.09475,12.1385625 5.14478125,12.1885938 C5.19475,12.2385938 5.26259375,12.2666875 5.33334375,12.2666563 Z M15.3549375,10.6666563 L0.6450625,10.6666563 L3.12125,3.73334375 L12.87875,3.73334375 L15.3549375,10.6666563 Z M0.53334375,3.2 L0.53334375,2.66665625 L15.4666875,2.66665625 L15.4666875,3.2 L0.53334375,3.2 Z" id="Shape"></path>
                        <path d="M2.13334375,11.7333437 L1.6,11.7333437 C1.30559375,11.7336875 1.067,11.97225 1.06665625,12.2666875 L1.06665625,12.8 C1.067,13.0944063 1.3055625,13.333 1.6,13.3333438 L2.13334375,13.3333438 C2.42775,13.333 2.66634375,13.0944375 2.6666875,12.8 L2.6666875,12.2666563 C2.66634375,11.97225 2.42775,11.7336562 2.13334375,11.7333437 Z M1.6,12.8 L1.6,12.2666563 L2.13334375,12.2666563 L2.13371875,12.8 L1.6,12.8 Z" id="Shape"></path>
                        <path d="M1.65625,9.4205625 C1.59803125,9.58390625 1.6228125,9.765375 1.72271875,9.907125 C1.822625,10.048875 1.9851875,10.13325 2.15859375,10.1333125 L13.8414063,10.1333125 C14.0147813,10.1332188 14.1772813,10.0489062 14.2771875,9.90721875 C14.3770938,9.76553125 14.4019063,9.584125 14.34375,9.4208125 L12.6292813,4.6208125 C12.5532813,4.4086875 12.3524063,4.26703125 12.1270625,4.26665625 L3.87290625,4.26665625 C3.64759375,4.26703125 3.4466875,4.4086875 3.3706875,4.6208125 L1.65625,9.4205625 Z M3.87290625,4.8 L12.1269375,4.8 L13.841375,9.6 L2.1583125,9.60078125 L2.15859375,9.60025 L2.15859375,9.6 L3.87290625,4.8 Z" id="Shape"></path>
                        <path d="M14.4773438,12.7226563 C14.50325,12.7461875 14.5329688,12.765125 14.56525,12.7786563 C14.6298438,12.807125 14.7034063,12.807125 14.7679688,12.7786563 C14.8002813,12.765125 14.8300625,12.7461875 14.856,12.7226563 C14.8794688,12.6966563 14.8984063,12.6669063 14.912,12.634625 C14.9256875,12.6025625 14.9329375,12.5681563 14.9333438,12.5333125 C14.9328437,12.5162813 14.9310625,12.4993125 14.928,12.4825313 C14.9254375,12.4649375 14.9200313,12.447875 14.912,12.432 C14.9061563,12.4149375 14.8980313,12.39875 14.8879063,12.3838125 C14.878125,12.369875 14.8674688,12.3565625 14.856,12.3439688 C14.8305,12.319875 14.800625,12.300875 14.7679687,12.2879688 C14.6686875,12.2460625 14.5539375,12.2681563 14.4773437,12.3439688 L14.4453125,12.3838125 C14.4351875,12.3987188 14.4270937,12.4149375 14.4212187,12.432 C14.4131563,12.4478438 14.4077812,12.4649063 14.4053438,12.4825313 C14.4022187,12.4992813 14.4004062,12.5162813 14.4,12.5333125 C14.400375,12.5681563 14.4075938,12.6025625 14.4212187,12.634625 C14.4348125,12.6669375 14.4537813,12.6967188 14.4773438,12.7226563 Z" id="Path"></path>
                        <path d="M13.3545625,12.634625 C13.3789375,12.7015313 13.4316563,12.75425 13.4985625,12.778625 C13.563125,12.8070937 13.6367188,12.8070937 13.7012813,12.778625 C13.7335938,12.7650938 13.763375,12.7461563 13.7893125,12.722625 C13.8127813,12.696625 13.8317188,12.666875 13.8453125,12.6345938 C13.8589688,12.6025625 13.86625,12.5681563 13.8666563,12.5333125 C13.8661563,12.5162813 13.864375,12.4993125 13.8613125,12.4825313 C13.85875,12.4649375 13.8533438,12.447875 13.8452813,12.432 C13.8394375,12.4149375 13.8313125,12.39875 13.8211875,12.3838125 C13.810625,12.3705313 13.7999688,12.35725 13.7892813,12.3439688 C13.7633438,12.3204375 13.7335625,12.3015 13.70125,12.2879688 C13.6019375,12.2463125 13.4873438,12.2684063 13.410625,12.3439688 L13.3785938,12.3838125 C13.3684688,12.3987188 13.360375,12.4149375 13.3545,12.432 C13.3464375,12.4478438 13.3410625,12.4649063 13.338625,12.4825313 C13.3355,12.4992813 13.3336875,12.5162813 13.3332813,12.5333125 C13.3324375,12.5682813 13.3397188,12.6029688 13.3545625,12.634625 Z" id="Path"></path>
                    </g>
                </g>
            </g>
        </g>
    </g>
</svg>