<?xml version="1.0" encoding="UTF-8"?>
<svg width="28px" height="28px" viewBox="0 0 28 28" version="1.1" xmlns="http://www.w3.org/2000/svg" xmlns:xlink="http://www.w3.org/1999/xlink">
    <title>FE39305B-8A2C-46BD-9A7D-C41B5391DD35@1x</title>
    <g id="Page-1" stroke="none" stroke-width="1" fill="none" fill-rule="evenodd">
        <g id="L42.-Invoice-add-new" transform="translate(-498.000000, -822.000000)">
            <g id="Group-35" transform="translate(490.000000, 703.000000)">
                <g id="iconspace_Setting" transform="translate(8.000000, 119.000000)">
                    <circle id="Shape" cx="14" cy="14" r="14"></circle>
                    <path d="M8.73738631,9.87079578 L7.63159723,8.17525253 L9.48775253,6.31909723 L11.1832958,7.42488631 C11.657608,7.15351656 12.169043,6.93964302 12.7081022,6.79276447 L13.125,4.8125 L15.75,4.8125 L16.1668978,6.79276447 C16.705957,6.93964302 17.217392,7.15351656 17.6917042,7.42488631 L19.3872475,6.31909723 L21.2434028,8.17525253 L20.1376137,9.87079578 C20.4089834,10.345108 20.622857,10.856543 20.7697355,11.3956022 L22.75,11.8125 L22.75,14.4375 L20.7697355,14.8543978 C20.622857,15.393457 20.4089834,15.904892 20.1376137,16.3792042 L21.2434028,18.0747475 L19.3872475,19.9309028 L17.6917042,18.8251137 C17.217392,19.0964834 16.705957,19.310357 16.1668978,19.4572355 L15.75,21.4375 L13.125,21.4375 L12.7081022,19.4572355 C12.169043,19.310357 11.657608,19.0964834 11.1832958,18.8251137 L9.48775253,19.9309028 L7.63159723,18.0747475 L8.73738631,16.3792042 C8.46601656,15.904892 8.25214302,15.393457 8.10526447,14.8543978 L6.125,14.4375 L6.125,11.8125 L8.10526447,11.3956022 C8.25214302,10.856543 8.46601656,10.345108 8.73738631,9.87079578 L8.73738631,9.87079578 Z" id="Shape" fill="#FFFFFF"></path>
                    <circle id="Shape" fill="#52ABE2" cx="14.4375" cy="13.125" r="3.0625"></circle>
                    <path d="M14.4375,10.0625 L14.4375,16.1875 C12.746128,16.1875 11.375,14.816372 11.375,13.125 C11.375,11.433628 12.746128,10.0625 14.4375,10.0625 Z" id="Shape" fill="#FFC200"></path>
                    <path d="M7.26514259,8.41424469 C7.15212626,8.24095297 7.175946,8.01218533 7.32223801,7.86589331 L9.17839331,6.00973801 C9.32468533,5.863446 9.55345297,5.83962626 9.72674469,5.95264259 L11.2031387,6.91550827 C11.5651113,6.72660245 11.9433073,6.56964 12.3338617,6.44672838 L12.6968845,4.72237041 C12.7395056,4.51992005 12.9181118,4.375 13.125,4.375 L15.75,4.375 C15.9568882,4.375 16.1354944,4.51992005 16.1781155,4.72237041 L16.5411383,6.44672838 C16.9316927,6.56964 17.3098887,6.72660245 17.6718613,6.91550827 L19.1482553,5.95264259 C19.321547,5.83962626 19.5503147,5.863446 19.6966067,6.00973801 L21.552762,7.86589331 C21.699054,8.01218533 21.7228737,8.24095297 21.6098574,8.41424469 L20.6469917,9.89063871 C20.8358975,10.2526113 20.99286,10.6308073 21.1157716,11.0213617 L22.8401296,11.3843845 C23.0425799,11.4270056 23.1875,11.6056118 23.1875,11.8125 L23.1875,14.4375 C23.1875,14.6443882 23.0425799,14.8229944 22.8401296,14.8656155 L21.1157716,15.2286383 C20.99286,15.6191927 20.8358975,15.9973887 20.6469917,16.3593613 L21.6098574,17.8357553 C21.7228737,18.009047 21.699054,18.2378147 21.552762,18.3841067 L19.6966067,20.240262 C19.5503147,20.386554 19.321547,20.4103737 19.1482553,20.2973574 L17.6718613,19.3344917 C17.3098887,19.5233975 16.9316927,19.68036 16.5411383,19.8032716 L16.1781155,21.5276296 C16.1354944,21.7300799 15.9568882,21.875 15.75,21.875 L13.125,21.875 C12.9181118,21.875 12.7395056,21.7300799 12.6968845,21.5276296 L12.3338617,19.8032716 C11.9433073,19.68036 11.5651113,19.5233975 11.2031387,19.3344917 L9.72674469,20.2973574 C9.55345297,20.4103737 9.32468533,20.386554 9.17839331,20.240262 L7.32223801,18.3841067 C7.175946,18.2378147 7.15212626,18.009047 7.26514259,17.8357553 L8.22800827,16.3593613 C8.03910245,15.9973887 7.88214,15.6191927 7.75922838,15.2286383 L6.03487041,14.8656155 C5.83242005,14.8229944 5.6875,14.6443882 5.6875,14.4375 L5.6875,11.8125 C5.6875,11.6056118 5.83242005,11.4270056 6.03487041,11.3843845 L7.75922838,11.0213617 C7.88214,10.6308073 8.03910245,10.2526113 8.22800827,9.89063871 L7.26514259,8.41424469 Z M8.19196869,8.23359951 L9.10384094,9.63180363 C9.19354117,9.76934398 9.19867185,9.94553115 9.11712736,10.0880583 C8.86155112,10.5347658 8.66315815,11.0122814 8.52737598,11.5106158 C8.48422041,11.6690011 8.35603222,11.7898992 8.19539406,11.8237177 L6.5625,12.1674849 L6.5625,14.0825151 L8.19539406,14.4262823 C8.35603222,14.4601008 8.48422041,14.5809989 8.52737598,14.7393842 C8.66315815,15.2377186 8.86155112,15.7152342 9.11712736,16.1619417 C9.19867185,16.3044689 9.19354117,16.480656 9.10384094,16.6181964 L8.19196869,18.0164005 L9.54609951,19.3705313 L10.9443036,18.4586591 C11.081844,18.3689588 11.2580311,18.3638281 11.4005583,18.4453726 C11.8472658,18.7009489 12.3247814,18.8993418 12.8231158,19.035124 C12.9815011,19.0782796 13.1023992,19.2064678 13.1362177,19.3671059 L13.4799849,21 L15.3950151,21 L15.7387823,19.3671059 C15.7726008,19.2064678 15.8934989,19.0782796 16.0518842,19.035124 C16.5502186,18.8993418 17.0277342,18.7009489 17.4744417,18.4453726 C17.6169689,18.3638281 17.793156,18.3689588 17.9306964,18.4586591 L19.3289005,19.3705313 L20.6830313,18.0164005 L19.7711591,16.6181964 C19.6814588,16.480656 19.6763281,16.3044689 19.7578726,16.1619417 C20.0134489,15.7152342 20.2118418,15.2377186 20.347624,14.7393842 C20.3907796,14.5809989 20.5189678,14.4601008 20.6796059,14.4262823 L22.3125,14.0825151 L22.3125,12.1674849 L20.6796059,11.8237177 C20.5189678,11.7898992 20.3907796,11.6690011 20.347624,11.5106158 C20.2118418,11.0122814 20.0134489,10.5347658 19.7578726,10.0880583 C19.6763281,9.94553115 19.6814588,9.76934398 19.7711591,9.63180363 L20.6830313,8.23359951 L19.3289005,6.87946869 L17.9306964,7.79134094 C17.793156,7.88104117 17.6169689,7.88617185 17.4744417,7.80462736 C17.0277342,7.54905112 16.5502186,7.35065815 16.0518842,7.21487598 C15.8934989,7.17172041 15.7726008,7.04353222 15.7387823,6.88289406 L15.3950151,5.25 L13.4799849,5.25 L13.1362177,6.88289406 C13.1023992,7.04353222 12.9815011,7.17172041 12.8231158,7.21487598 C12.3247814,7.35065815 11.8472658,7.54905112 11.4005583,7.80462736 C11.2580311,7.88617185 11.081844,7.88104117 10.9443036,7.79134094 L9.54609951,6.87946869 L8.19196869,8.23359951 Z" id="Shape" fill="#154E84" fill-rule="nonzero"></path>
                    <path d="M14.4375,16.625 C16.3704966,16.625 17.9375,15.0579966 17.9375,13.125 C17.9375,11.1920034 16.3704966,9.625 14.4375,9.625 C12.5045034,9.625 10.9375,11.1920034 10.9375,13.125 C10.9375,15.0579966 12.5045034,16.625 14.4375,16.625 Z M14.4375,15.75 C12.9877525,15.75 11.8125,14.5747475 11.8125,13.125 C11.8125,11.6752525 12.9877525,10.5 14.4375,10.5 C15.8872475,10.5 17.0625,11.6752525 17.0625,13.125 C17.0625,14.5747475 15.8872475,15.75 14.4375,15.75 Z" id="Shape" fill="#154E84" fill-rule="nonzero"></path>
                    <path d="M14.4375,9.625 L14.875,9.625 L14.875,16.625 L14.4375,16.625 C12.5045034,16.625 10.9375,15.0579966 10.9375,13.125 C10.9375,11.1920034 12.5045034,9.625 14.4375,9.625 Z M11.8125,13.125 C11.8125,14.4256859 12.7585004,15.5054215 14,15.7137057 L14,10.5362943 C12.7585004,10.7445785 11.8125,11.8243141 11.8125,13.125 Z" id="Shape" fill="#154E84" fill-rule="nonzero"></path>
                </g>
            </g>
        </g>
    </g>
</svg>