<?xml version="1.0" encoding="UTF-8"?>
<svg width="20px" height="20px" viewBox="0 0 20 20" version="1.1" xmlns="http://www.w3.org/2000/svg" xmlns:xlink="http://www.w3.org/1999/xlink">
    <!-- Generator: sketchtool 64 (101010) - https://sketch.com -->
    <title></title>
    <desc>Created with sketchtool.</desc>
    <g id="Web" stroke="none" stroke-width="1" fill="none" fill-rule="evenodd">
        <g id="1.5-Data-capture-" transform="translate(-709.000000, -146.000000)">
            <g id="iconspace_Share" transform="translate(706.000000, 142.000000)">
                <g id="Group">
                    <rect id="Rectangle" x="0" y="0" width="28" height="28"></rect>
                    <path d="M19.25,22.75 C20.6997,22.75 21.875,21.5747 21.875,20.125 C21.875,18.6753 20.6997,17.5 19.25,17.5 C17.8003,17.5 16.625,18.6753 16.625,20.125 C16.625,21.5747 17.8003,22.75 19.25,22.75 Z" id="Path" fill="#FFFFFF"></path>
                    <path d="M19.25,10.5 C20.6997,10.5 21.875,9.32475 21.875,7.875 C21.875,6.42525 20.6997,5.25 19.25,5.25 C17.8003,5.25 16.625,6.42525 16.625,7.875 C16.625,9.32475 17.8003,10.5 19.25,10.5 Z" id="Path" fill="#52ABE2"></path>
                    <path d="M7,16.625 C8.44975,16.625 9.625,15.4497 9.625,14 C9.625,12.5503 8.44975,11.375 7,11.375 C5.55025,11.375 4.375,12.5503 4.375,14 C4.375,15.4497 5.55025,16.625 7,16.625 Z" id="Path" fill="#FFC200"></path>
                    <path d="M22.3125,20.125 C22.3125,21.8164 20.9414,23.1875 19.25,23.1875 C17.5586,23.1875 16.1875,21.8164 16.1875,20.125 C16.1875,18.4336 17.5586,17.0625 19.25,17.0625 C20.9414,17.0625 22.3125,18.4336 22.3125,20.125 Z M17.0625,20.125 C17.0625,21.3331 18.0419,22.3125 19.25,22.3125 C20.4581,22.3125 21.4375,21.3331 21.4375,20.125 C21.4375,18.9169 20.4581,17.9375 19.25,17.9375 C18.0419,17.9375 17.0625,18.9169 17.0625,20.125 Z" id="Shape" fill="#154E84"></path>
                    <path d="M22.3125,7.875 C22.3125,9.56637 20.9414,10.9375 19.25,10.9375 C17.5586,10.9375 16.1875,9.56637 16.1875,7.875 C16.1875,6.18363 17.5586,4.8125 19.25,4.8125 C20.9414,4.8125 22.3125,6.18363 22.3125,7.875 Z M17.0625,7.875 C17.0625,9.08312 18.0419,10.0625 19.25,10.0625 C20.4581,10.0625 21.4375,9.08312 21.4375,7.875 C21.4375,6.66688 20.4581,5.6875 19.25,5.6875 C18.0419,5.6875 17.0625,6.66688 17.0625,7.875 Z" id="Shape" fill="#154E84"></path>
                    <path d="M10.0625,14 C10.0625,15.6914 8.69137,17.0625 7,17.0625 C5.30863,17.0625 3.9375,15.6914 3.9375,14 C3.9375,12.3086 5.30863,10.9375 7,10.9375 C8.69137,10.9375 10.0625,12.3086 10.0625,14 Z M4.8125,14 C4.8125,15.2081 5.79188,16.1875 7,16.1875 C8.20812,16.1875 9.1875,15.2081 9.1875,14 C9.1875,12.7919 8.20812,11.8125 7,11.8125 C5.79188,11.8125 4.8125,12.7919 4.8125,14 Z" id="Shape" fill="#154E84"></path>
                    <path d="M9.41122,16.1318 L16.2825,19.979 C16.4933,20.0971 16.7599,20.0219 16.8779,19.811 C16.996,19.6002 16.9208,19.3336 16.7099,19.2156 L9.83869,15.3683 C9.62787,15.2502 9.36127,15.3255 9.24322,15.5363 C9.12518,15.7471 9.20039,16.0137 9.41122,16.1318 Z" id="Path" fill="#154E84" fill-rule="nonzero"></path>
                    <path d="M9.41122,12.2156 L16.2825,8.36828 C16.4933,8.25024 16.7599,8.32545 16.8779,8.53628 C16.996,8.74711 16.9208,9.01371 16.7099,9.13175 L9.83869,12.979 C9.62787,13.0971 9.36127,13.0219 9.24322,12.811 C9.12518,12.6002 9.20039,12.3336 9.41122,12.2156 Z" id="Path" fill="#154E84" fill-rule="nonzero"></path>
                </g>
            </g>
        </g>
    </g>
</svg>