<?xml version="1.0" encoding="UTF-8"?>
<svg width="20px" height="20px" viewBox="0 0 20 20" version="1.1" xmlns="http://www.w3.org/2000/svg" xmlns:xlink="http://www.w3.org/1999/xlink">
    <title></title>
    <g id="Page-1" stroke="none" stroke-width="1" fill="none" fill-rule="evenodd">
        <g id="6.-Scan---reclassify" transform="translate(-1087.000000, -869.000000)">
            <g id="Group-16" transform="translate(1064.000000, 81.000000)">
                <g id="Group-14-Copy" transform="translate(16.000000, 572.000000)">
                    <g id="iconspace_Gallery" transform="translate(7.000000, 216.000000)">
                        <circle id="Shape" cx="10" cy="10" r="10"></circle>
                        <path d="M4.0625,3.4375 L15.3125,3.4375 C15.830267,3.4375 16.25,3.85723305 16.25,4.375 L16.25,15.625 C16.25,16.142767 15.830267,16.5625 15.3125,16.5625 L4.0625,16.5625 C3.54473305,16.5625 3.125,16.142767 3.125,15.625 L3.125,4.375 C3.125,3.85723305 3.54473305,3.4375 4.0625,3.4375 Z" id="Shape" fill="#154E84" fill-rule="nonzero"></path>
                        <path d="M4.0625,4.0625 C3.88991102,4.0625 3.75,4.20241102 3.75,4.375 L3.75,15.625 C3.75,15.797589 3.88991102,15.9375 4.0625,15.9375 L15.3125,15.9375 C15.485089,15.9375 15.625,15.797589 15.625,15.625 L15.625,4.375 C15.625,4.20241102 15.485089,4.0625 15.3125,4.0625 L4.0625,4.0625 Z" id="Shape" fill="#FFFFFF" fill-rule="nonzero"></path>
                        <path d="M9.375,11.875 C9.375,11.7921198 9.40792401,11.7126342 9.46652913,11.6540291 L12.5915291,8.52902913 C12.713552,8.40700622 12.9113846,8.40698796 13.0334301,8.52898834 L16.159584,11.6539883 C16.2182377,11.7126203 16.2511539,11.7921627 16.2511539,11.8750962 L16.25,15.6250824 C16.2498634,16.1427528 15.8301704,16.5623351 15.3125092,16.5623351 L9.68750916,16.5625 C9.5149166,16.5625 9.375,16.4225926 9.375,16.25 L9.375,11.875 Z" id="Shape" fill="#154E84" fill-rule="nonzero"></path>
                        <path d="M10,12.0044417 L10,15.9374908 L15.3125,15.9373351 C15.4850568,15.9373351 15.6249545,15.7974743 15.625,15.6249038 L15.6261141,12.0044357 L12.8125408,9.19190095 L10,12.0044417 Z" id="Shape" fill="#52ABE2" fill-rule="nonzero"></path>
                        <path d="M3.125,14.375 C3.125,14.2921198 3.15792401,14.2126342 3.21652913,14.1540291 L7.59152913,9.77902913 C7.71813071,9.65242755 7.92500686,9.6578679 8.04477942,9.79094852 L13.6697794,16.0409485 C13.8507701,16.2420493 13.7080534,16.5625 13.4375,16.5625 L4.0625,16.5625 C3.54473305,16.5625 3.125,16.142767 3.125,15.625 L3.125,14.375 Z" id="Shape" fill="#154E84" fill-rule="nonzero"></path>
                        <path d="M3.75,14.5044417 L3.75,15.625 C3.75,15.797589 3.88991102,15.9375 4.0625,15.9375 L12.7358242,15.9375 L7.80056411,10.4538776 L3.75,14.5044417 Z" id="Shape" fill="#52ABE2" fill-rule="nonzero"></path>
                        <path d="M9.375,8.75 C10.0653559,8.75 10.625,8.19035594 10.625,7.5 C10.625,6.80964406 10.0653559,6.25 9.375,6.25 C8.68464406,6.25 8.125,6.80964406 8.125,7.5 C8.125,8.19035594 8.68464406,8.75 9.375,8.75 Z" id="Shape" fill="#154E84" fill-rule="nonzero"></path>
                        <path d="M9.375,8.125 C9.02982203,8.125 8.75,7.84517797 8.75,7.5 C8.75,7.15482203 9.02982203,6.875 9.375,6.875 C9.72017797,6.875 10,7.15482203 10,7.5 C10,7.84517797 9.72017797,8.125 9.375,8.125 Z" id="Shape" fill="#FFC200" fill-rule="nonzero"></path>
                        <path d="M4.0625,3.4375 L15.3125,3.4375 C15.830267,3.4375 16.25,3.85723305 16.25,4.375 L16.25,15.625 C16.25,16.142767 15.830267,16.5625 15.3125,16.5625 L4.0625,16.5625 C3.54473305,16.5625 3.125,16.142767 3.125,15.625 L3.125,4.375 C3.125,3.85723305 3.54473305,3.4375 4.0625,3.4375 Z M4.0625,4.0625 C3.88991102,4.0625 3.75,4.20241102 3.75,4.375 L3.75,15.625 C3.75,15.797589 3.88991102,15.9375 4.0625,15.9375 L15.3125,15.9375 C15.485089,15.9375 15.625,15.797589 15.625,15.625 L15.625,4.375 C15.625,4.20241102 15.485089,4.0625 15.3125,4.0625 L4.0625,4.0625 Z" id="Shape" fill="#154E84" fill-rule="nonzero"></path>
                    </g>
                </g>
            </g>
        </g>
    </g>
</svg>