<?xml version="1.0" encoding="UTF-8"?>
<svg width="20px" height="19px" viewBox="0 0 20 19" version="1.1" xmlns="http://www.w3.org/2000/svg" xmlns:xlink="http://www.w3.org/1999/xlink">
    <!-- Generator: sketchtool 64 (101010) - https://sketch.com -->
    <title></title>
    <desc>Created with sketchtool.</desc>
    <g id="Web" stroke="none" stroke-width="1" fill="none" fill-rule="evenodd">
        <g id="1.5-Data-capture-" transform="translate(-854.000000, -147.000000)">
            <g id="iconspace_Grid" transform="translate(850.000000, 142.000000)">
                <g id="Group" transform="translate(4.000000, 5.000000)">
                    <path d="M2.125,0.8125 L7.375,0.8125 C7.8582,0.8125 8.25,1.20425 8.25,1.6875 L8.25,6.9375 C8.25,7.4207 7.8582,7.8125 7.375,7.8125 L2.125,7.8125 C1.64175,7.8125 1.25,7.4207 1.25,6.9375 L1.25,1.6875 C1.25,1.20425 1.64175,0.8125 2.125,0.8125 Z" id="Path-2" fill="#FFC200"></path>
                    <path d="M12.625,0.8125 L17.875,0.8125 C18.3582,0.8125 18.75,1.20425 18.75,1.6875 L18.75,6.9375 C18.75,7.4207 18.3582,7.8125 17.875,7.8125 L12.625,7.8125 C12.1418,7.8125 11.75,7.4207 11.75,6.9375 L11.75,1.6875 C11.75,1.20425 12.1418,0.8125 12.625,0.8125 Z" id="Path" fill="#FFFFFF"></path>
                    <path d="M2.125,11.3125 L7.375,11.3125 C7.8582,11.3125 8.25,11.7043 8.25,12.1875 L8.25,17.4375 C8.25,17.9207 7.8582,18.3125 7.375,18.3125 L2.125,18.3125 C1.64175,18.3125 1.25,17.9207 1.25,17.4375 L1.25,12.1875 C1.25,11.7043 1.64175,11.3125 2.125,11.3125 Z" id="Path" fill="#FFFFFF"></path>
                    <path d="M12.625,11.3125 L17.875,11.3125 C18.3582,11.3125 18.75,11.7043 18.75,12.1875 L18.75,17.4375 C18.75,17.9207 18.3582,18.3125 17.875,18.3125 L12.625,18.3125 C12.1418,18.3125 11.75,17.9207 11.75,17.4375 L11.75,12.1875 C11.75,11.7043 12.1418,11.3125 12.625,11.3125 Z" id="Path" fill="#52ABE2"></path>
                    <path d="M7.375,0.375 L2.125,0.375 C1.40013,0.375 0.8125,0.96263 0.8125,1.6875 L0.8125,6.9375 C0.8125,7.6624 1.40013,8.25 2.125,8.25 L7.375,8.25 C8.0999,8.25 8.6875,7.6624 8.6875,6.9375 L8.6875,1.6875 C8.6875,0.96263 8.0999,0.375 7.375,0.375 Z M1.6875,1.6875 C1.6875,1.44588 1.88338,1.25 2.125,1.25 L7.375,1.25 C7.6166,1.25 7.8125,1.44588 7.8125,1.6875 L7.8125,6.9375 C7.8125,7.1791 7.6166,7.375 7.375,7.375 L2.125,7.375 C1.88338,7.375 1.6875,7.1791 1.6875,6.9375 L1.6875,1.6875 Z" id="Shape" fill="#154E84"></path>
                    <path d="M17.875,0.375 L12.625,0.375 C11.9001,0.375 11.3125,0.96263 11.3125,1.6875 L11.3125,6.9375 C11.3125,7.6624 11.9001,8.25 12.625,8.25 L17.875,8.25 C18.5999,8.25 19.1875,7.6624 19.1875,6.9375 L19.1875,1.6875 C19.1875,0.96263 18.5999,0.375 17.875,0.375 Z M12.1875,1.6875 C12.1875,1.44588 12.3834,1.25 12.625,1.25 L17.875,1.25 C18.1166,1.25 18.3125,1.44588 18.3125,1.6875 L18.3125,6.9375 C18.3125,7.1791 18.1166,7.375 17.875,7.375 L12.625,7.375 C12.3834,7.375 12.1875,7.1791 12.1875,6.9375 L12.1875,1.6875 Z" id="Shape" fill="#154E84"></path>
                    <path d="M7.375,10.875 L2.125,10.875 C1.40013,10.875 0.8125,11.4626 0.8125,12.1875 L0.8125,17.4375 C0.8125,18.1624 1.40013,18.75 2.125,18.75 L7.375,18.75 C8.0999,18.75 8.6875,18.1624 8.6875,17.4375 L8.6875,12.1875 C8.6875,11.4626 8.0999,10.875 7.375,10.875 Z M1.6875,12.1875 C1.6875,11.9459 1.88338,11.75 2.125,11.75 L7.375,11.75 C7.6166,11.75 7.8125,11.9459 7.8125,12.1875 L7.8125,17.4375 C7.8125,17.6791 7.6166,17.875 7.375,17.875 L2.125,17.875 C1.88338,17.875 1.6875,17.6791 1.6875,17.4375 L1.6875,12.1875 Z" id="Shape" fill="#154E84"></path>
                    <path d="M17.875,10.875 L12.625,10.875 C11.9001,10.875 11.3125,11.4626 11.3125,12.1875 L11.3125,17.4375 C11.3125,18.1624 11.9001,18.75 12.625,18.75 L17.875,18.75 C18.5999,18.75 19.1875,18.1624 19.1875,17.4375 L19.1875,12.1875 C19.1875,11.4626 18.5999,10.875 17.875,10.875 Z M12.1875,12.1875 C12.1875,11.9459 12.3834,11.75 12.625,11.75 L17.875,11.75 C18.1166,11.75 18.3125,11.9459 18.3125,12.1875 L18.3125,17.4375 C18.3125,17.6791 18.1166,17.875 17.875,17.875 L12.625,17.875 C12.3834,17.875 12.1875,17.6791 12.1875,17.4375 L12.1875,12.1875 Z" id="Shape" fill="#154E84"></path>
                </g>
            </g>
        </g>
    </g>
</svg>