<?xml version="1.0" encoding="UTF-8"?>
<svg width="20px" height="20px" viewBox="0 0 20 20" version="1.1" xmlns="http://www.w3.org/2000/svg" xmlns:xlink="http://www.w3.org/1999/xlink">
    <!-- Generator: sketchtool 63.1 (101010) - https://sketch.com -->
    <title></title>
    <desc>Created with sketchtool.</desc>
    <g id="Web" stroke="none" stroke-width="1" fill="none" fill-rule="evenodd">
        <g id="1.5-Data-capture-" transform="translate(-1379.000000, -929.000000)" fill-rule="nonzero">
            <g id="Group-5-Copy-2" transform="translate(1233.000000, 713.000000)">
                <g id="iconspace_Delete-Copy" transform="translate(142.000000, 212.000000)">
                    <path d="M6.53751981,6.5625 L21.4624802,6.5625 L20.6077411,21.9478044 C20.5691013,22.6433199 19.9938498,23.1875 19.2972618,23.1875 L8.70273816,23.1875 C8.00615017,23.1875 7.43089869,22.6433199 7.39225894,21.9478044 L6.53751981,6.5625 Z" id="Shape" fill="#154E84"></path>
                    <path d="M7.46248019,7.4375 L8.26591175,21.8992681 C8.27879167,22.1311066 8.47054216,22.3125 8.70273816,22.3125 L19.2972618,22.3125 C19.5294578,22.3125 19.7212083,22.1311066 19.7340882,21.8992681 L20.5375198,7.4375 L7.46248019,7.4375 Z" id="Shape" fill="#FFFFFF"></path>
                    <path d="M17.063352,11.3477095 L16.625852,18.3477095 C16.6107799,18.5888635 16.7940555,18.7965759 17.0352095,18.811648 C17.2763635,18.8267201 17.4840759,18.6434445 17.499148,18.4022905 L17.936648,11.4022905 C17.9517201,11.1611365 17.7684445,10.9534241 17.5272905,10.938352 C17.2861365,10.9232799 17.0784241,11.1065555 17.063352,11.3477095 Z" id="Shape" fill="#52ABE2"></path>
                    <path d="M13.5625,11.375 L13.5625,18.375 C13.5625,18.6166246 13.7863576,18.8125 14.0625,18.8125 C14.3386424,18.8125 14.5625,18.6166246 14.5625,18.375 L14.5625,11.375 C14.5625,11.1333754 14.3386424,10.9375 14.0625,10.9375 C13.7863576,10.9375 13.5625,11.1333754 13.5625,11.375 Z" id="Shape" fill="#52ABE2"></path>
                    <path d="M11.374148,18.3477095 L10.936648,11.3477095 C10.9215759,11.1065555 10.7138635,10.9232799 10.4727095,10.938352 C10.2315555,10.9534241 10.0482799,11.1611365 10.063352,11.4022905 L10.500852,18.4022905 C10.5159241,18.6434445 10.7236365,18.8267201 10.9647905,18.811648 C11.2059445,18.7965759 11.3892201,18.5888635 11.374148,18.3477095 Z" id="Shape" fill="#52ABE2"></path>
                    <path d="M5.69913289,6.5625 L22.3125,6.5625 C22.7957492,6.5625 23.1875,6.95425084 23.1875,7.4375 L23.1875,8.3125 C23.1875,8.79574916 22.7957492,9.1875 22.3125,9.1875 L5.69138905,9.1875 C5.20813989,9.1875 4.81638905,8.79574916 4.81638905,8.3125 L4.81638905,8.30475647 L4.82416715,7.42975647 C4.82841705,6.94954743 5.21890504,6.5625 5.69913289,6.5625 Z" id="Shape" fill="#154E84"></path>
                    <polygon id="Shape" fill="#FFC200" points="5.69138905 8.3125 22.3125 8.3125 22.3125 7.4375 5.69913289 7.4375"></polygon>
                    <path d="M10.9836881,5.05434405 C11.0577971,4.90612604 11.2092872,4.8125 11.375,4.8125 L16.625,4.8125 C16.7907128,4.8125 16.9422029,4.90612604 17.0163119,5.05434405 L17.8913119,6.80434405 C18.036759,7.09523828 17.8252296,7.4375 17.5,7.4375 L10.5,7.4375 C10.1747704,7.4375 9.96324099,7.09523828 10.1086881,6.80434405 L10.9836881,5.05434405 Z M11.2078899,6.5625 L16.7921101,6.5625 L16.3546101,5.6875 L11.6453899,5.6875 L11.2078899,6.5625 Z" id="Shape" fill="#154E84"></path>
                </g>
            </g>
        </g>
    </g>
</svg>