<?xml version="1.0" encoding="UTF-8"?>
<svg xmlns="http://www.w3.org/2000/svg" xmlns:xlink="http://www.w3.org/1999/xlink" width="28px" height="28px" viewBox="0 0 28 28" version="1.1">
<g id="surface1">
<path style=" stroke:none;fill-rule:nonzero;fill:rgb(81.568627%,60%,29.411765%);fill-opacity:1;" d="M 23.625 3.9375 L 11.375 3.9375 C 11.375 3.9375 9.714844 1.3125 8.75 1.3125 L 4.375 1.3125 C 3.410156 1.3125 2.625 2.09375 2.625 3.0625 L 2.625 23.1875 C 2.625 24.152344 3.410156 24.9375 4.375 24.9375 L 23.625 24.9375 C 24.589844 24.9375 25.375 24.152344 25.375 23.1875 L 25.375 5.6875 C 25.375 4.722656 24.589844 3.9375 23.625 3.9375 Z M 23.625 3.9375 "/>
<path style=" stroke:none;fill-rule:nonzero;fill:rgb(89.411765%,90.588235%,90.588235%);fill-opacity:1;" d="M 2.625 6.5625 L 25.375 6.5625 L 25.375 13.5625 L 2.625 13.5625 Z M 2.625 6.5625 "/>
<path style=" stroke:none;fill-rule:nonzero;fill:rgb(95.686275%,70.588235%,34.901961%);fill-opacity:1;" d="M 1.75 8.3125 L 26.25 8.3125 C 27.214844 8.3125 28 9.09375 28 10.0625 L 26.25 24.9375 C 26.25 25.902344 25.464844 26.6875 24.5 26.6875 L 3.5 26.6875 C 2.535156 26.6875 1.75 25.902344 1.75 24.9375 L 0 10.0625 C 0 9.09375 0.785156 8.3125 1.75 8.3125 Z M 1.75 8.3125 "/>
<path style=" stroke:none;fill-rule:nonzero;fill:rgb(97.254902%,82.352941%,60.784314%);fill-opacity:1;" d="M 19.074219 16.710938 L 14.742188 12.335938 C 14.332031 11.660156 13.667969 11.660156 13.261719 12.335938 L 8.925781 16.710938 C 8.515625 17.382812 8.847656 17.9375 9.664062 17.9375 L 12.25 17.9375 L 12.25 21.4375 C 12.25 22.402344 13.035156 23.1875 14 23.1875 C 14.964844 23.1875 15.75 22.402344 15.75 21.4375 L 15.75 17.9375 L 18.335938 17.9375 C 19.148438 17.9375 19.484375 17.382812 19.074219 16.710938 Z M 19.074219 16.710938 "/>
</g>
</svg>
