<?xml version="1.0" encoding="UTF-8"?>
<svg xmlns="http://www.w3.org/2000/svg" xmlns:xlink="http://www.w3.org/1999/xlink" width="28px" height="28px" viewBox="0 0 28 28" version="1.1">
<defs>
<filter id="alpha" filterUnits="objectBoundingBox" x="0%" y="0%" width="100%" height="100%">
  <feColorMatrix type="matrix" in="SourceGraphic" values="0 0 0 0 1 0 0 0 0 1 0 0 0 0 1 0 0 0 1 0"/>
</filter>
<mask id="mask0">
  <g filter="url(#alpha)">
<rect x="0" y="0" width="28" height="28" style="fill:rgb(0%,0%,0%);fill-opacity:0.14902;stroke:none;"/>
  </g>
</mask>
<clipPath id="clip1">
  <rect x="0" y="0" width="28" height="28"/>
</clipPath>
<g id="surface5" clip-path="url(#clip1)">
<path style=" stroke:none;fill-rule:nonzero;fill:rgb(27.058824%,25.490196%,23.529412%);fill-opacity:1;" d="M 25.839844 26.367188 C 25.839844 25.785156 20.539062 25.316406 14 25.316406 C 7.460938 25.316406 2.160156 25.785156 2.160156 26.367188 C 2.160156 26.945312 7.460938 27.417969 14 27.417969 C 20.539062 27.417969 25.839844 26.945312 25.839844 26.367188 Z M 25.839844 26.367188 "/>
</g>
</defs>
<g id="surface1">
<use xlink:href="#surface5" mask="url(#mask0)"/>
<path style="fill-rule:nonzero;fill:rgb(100%,100%,100%);fill-opacity:1;stroke-width:1;stroke-linecap:round;stroke-linejoin:round;stroke:rgb(27.058824%,25.490196%,23.529412%);stroke-opacity:1;stroke-miterlimit:10;" d="M 41.899554 44.497768 L 6.100446 44.497768 C 5.799107 44.497768 5.497768 44.203125 5.497768 43.901786 L 5.497768 35.296875 C 5.497768 34.600446 6.100446 34.098214 6.703125 34.098214 L 41.203125 34.098214 C 41.899554 34.098214 42.401786 34.700893 42.401786 35.296875 L 42.401786 43.901786 C 42.502232 44.203125 42.200893 44.497768 41.899554 44.497768 Z M 41.899554 44.497768 " transform="matrix(0.583333,0,0,0.583333,0,0)"/>
<path style=" stroke:none;fill-rule:nonzero;fill:rgb(100%,100%,100%);fill-opacity:1;" d="M 4.316406 3.324219 L 23.742188 3.324219 L 23.742188 19.890625 L 4.316406 19.890625 Z M 4.316406 3.324219 "/>
<path style=" stroke:none;fill-rule:nonzero;fill:rgb(87.843137%,87.843137%,87.843137%);fill-opacity:1;" d="M 4.316406 3.324219 L 23.742188 3.324219 L 23.742188 4.839844 L 4.316406 4.839844 Z M 4.316406 3.324219 "/>
<path style="fill:none;stroke-width:1;stroke-linecap:round;stroke-linejoin:round;stroke:rgb(27.058824%,25.490196%,23.529412%);stroke-opacity:1;stroke-miterlimit:10;" d="M 7.399554 5.698661 L 40.700893 5.698661 L 40.700893 34.098214 L 7.399554 34.098214 Z M 7.399554 5.698661 " transform="matrix(0.583333,0,0,0.583333,0,0)"/>
<path style=" stroke:none;fill-rule:nonzero;fill:rgb(52.941176%,53.72549%,54.901961%);fill-opacity:1;" d="M 23.683594 3.324219 L 4.316406 3.324219 C 3.910156 3.324219 3.617188 2.976562 3.617188 2.625 L 3.617188 2.214844 C 3.617188 1.808594 3.964844 1.515625 4.316406 1.515625 L 23.742188 1.515625 C 24.148438 1.515625 24.441406 1.867188 24.441406 2.214844 L 24.441406 2.566406 C 24.441406 2.976562 24.089844 3.324219 23.683594 3.324219 Z M 23.683594 3.324219 "/>
<path style=" stroke:none;fill-rule:nonzero;fill:rgb(74.117647%,74.509804%,75.294118%);fill-opacity:1;" d="M 23.683594 1.515625 L 4.316406 1.515625 C 3.910156 1.515625 3.617188 1.867188 3.617188 2.214844 L 3.617188 2.566406 C 3.617188 2.683594 3.617188 2.742188 3.675781 2.859375 C 3.792969 2.566406 4.023438 2.390625 4.316406 2.390625 L 23.742188 2.390625 C 24.035156 2.390625 24.324219 2.566406 24.382812 2.859375 C 24.441406 2.800781 24.441406 2.683594 24.441406 2.566406 L 24.441406 2.214844 C 24.441406 1.808594 24.089844 1.515625 23.683594 1.515625 Z M 23.683594 1.515625 "/>
<path style="fill:none;stroke-width:1;stroke-linecap:round;stroke-linejoin:round;stroke:rgb(27.058824%,25.490196%,23.529412%);stroke-opacity:1;stroke-miterlimit:10;" d="M 40.600446 5.698661 L 7.399554 5.698661 C 6.703125 5.698661 6.200893 5.102679 6.200893 4.5 L 6.200893 3.796875 C 6.200893 3.100446 6.796875 2.598214 7.399554 2.598214 L 40.700893 2.598214 C 41.397321 2.598214 41.899554 3.200893 41.899554 3.796875 L 41.899554 4.399554 C 41.899554 5.102679 41.296875 5.698661 40.600446 5.698661 Z M 40.600446 5.698661 " transform="matrix(0.583333,0,0,0.583333,0,0)"/>
<path style=" stroke:none;fill-rule:nonzero;fill:rgb(0%,72.156863%,94.117647%);fill-opacity:1;" d="M 11.140625 21.292969 L 16.917969 21.292969 L 16.917969 25.957031 L 11.140625 25.957031 Z M 11.140625 21.292969 "/>
<path style=" stroke:none;fill-rule:nonzero;fill:rgb(29.019608%,81.176471%,100%);fill-opacity:1;" d="M 12.25 25.957031 L 14.992188 25.957031 L 16.859375 21.292969 L 14.117188 21.292969 Z M 12.25 25.957031 "/>
<path style="fill:none;stroke-width:1;stroke-linecap:round;stroke-linejoin:round;stroke:rgb(27.058824%,25.490196%,23.529412%);stroke-opacity:1;stroke-miterlimit:10;" d="M 19.098214 36.502232 L 29.002232 36.502232 L 29.002232 44.497768 L 19.098214 44.497768 Z M 19.098214 36.502232 " transform="matrix(0.583333,0,0,0.583333,0,0)"/>
<path style=" stroke:none;fill-rule:nonzero;fill:rgb(0%,72.156863%,94.117647%);fill-opacity:1;" d="M 6.066406 21.640625 L 8.226562 21.640625 L 8.226562 24.148438 L 6.066406 24.148438 Z M 6.066406 21.640625 "/>
<path style=" stroke:none;fill-rule:nonzero;fill:rgb(29.019608%,81.176471%,100%);fill-opacity:1;" d="M 6.824219 24.148438 L 8.226562 24.148438 L 8.226562 21.640625 L 7.816406 21.640625 Z M 6.824219 24.148438 "/>
<path style=" stroke:none;fill-rule:nonzero;fill:rgb(0%,72.156863%,94.117647%);fill-opacity:1;" d="M 6.476562 15.515625 L 8.632812 15.515625 L 8.632812 18.023438 L 6.476562 18.023438 Z M 6.476562 15.515625 "/>
<path style=" stroke:none;fill-rule:nonzero;fill:rgb(29.019608%,81.176471%,100%);fill-opacity:1;" d="M 7.175781 18.023438 L 8.632812 18.023438 L 8.632812 15.515625 L 8.226562 15.515625 Z M 7.175781 18.023438 "/>
<path style=" stroke:none;fill-rule:nonzero;fill:rgb(0%,72.156863%,94.117647%);fill-opacity:1;" d="M 19.367188 15.515625 L 21.523438 15.515625 L 21.523438 18.023438 L 19.367188 18.023438 Z M 19.367188 15.515625 "/>
<path style=" stroke:none;fill-rule:nonzero;fill:rgb(29.019608%,81.176471%,100%);fill-opacity:1;" d="M 20.125 18.023438 L 21.523438 18.023438 L 21.523438 15.515625 L 21.175781 15.515625 Z M 20.125 18.023438 "/>
<path style=" stroke:none;fill-rule:nonzero;fill:rgb(0%,72.156863%,94.117647%);fill-opacity:1;" d="M 15.050781 15.515625 L 17.207031 15.515625 L 17.207031 18.023438 L 15.050781 18.023438 Z M 15.050781 15.515625 "/>
<path style=" stroke:none;fill-rule:nonzero;fill:rgb(29.019608%,81.176471%,100%);fill-opacity:1;" d="M 15.808594 18.023438 L 17.207031 18.023438 L 17.207031 15.515625 L 16.859375 15.515625 Z M 15.808594 18.023438 "/>
<path style=" stroke:none;fill-rule:nonzero;fill:rgb(0%,72.156863%,94.117647%);fill-opacity:1;" d="M 10.792969 15.515625 L 12.949219 15.515625 L 12.949219 18.023438 L 10.792969 18.023438 Z M 10.792969 15.515625 "/>
<path style=" stroke:none;fill-rule:nonzero;fill:rgb(29.019608%,81.176471%,100%);fill-opacity:1;" d="M 11.492188 18.023438 L 12.949219 18.023438 L 12.949219 15.515625 L 12.542969 15.515625 Z M 11.492188 18.023438 "/>
<path style=" stroke:none;fill-rule:nonzero;fill:rgb(0%,72.156863%,94.117647%);fill-opacity:1;" d="M 6.476562 10.5 L 8.632812 10.5 L 8.632812 13.007812 L 6.476562 13.007812 Z M 6.476562 10.5 "/>
<path style=" stroke:none;fill-rule:nonzero;fill:rgb(29.019608%,81.176471%,100%);fill-opacity:1;" d="M 7.175781 13.007812 L 8.632812 13.007812 L 8.632812 10.5 L 8.226562 10.5 Z M 7.175781 13.007812 "/>
<path style=" stroke:none;fill-rule:nonzero;fill:rgb(0%,72.156863%,94.117647%);fill-opacity:1;" d="M 19.367188 10.5 L 21.523438 10.5 L 21.523438 13.007812 L 19.367188 13.007812 Z M 19.367188 10.5 "/>
<path style=" stroke:none;fill-rule:nonzero;fill:rgb(29.019608%,81.176471%,100%);fill-opacity:1;" d="M 20.125 13.007812 L 21.523438 13.007812 L 21.523438 10.5 L 21.175781 10.5 Z M 20.125 13.007812 "/>
<path style=" stroke:none;fill-rule:nonzero;fill:rgb(0%,72.156863%,94.117647%);fill-opacity:1;" d="M 15.050781 10.5 L 17.207031 10.5 L 17.207031 13.007812 L 15.050781 13.007812 Z M 15.050781 10.5 "/>
<path style=" stroke:none;fill-rule:nonzero;fill:rgb(29.019608%,81.176471%,100%);fill-opacity:1;" d="M 15.808594 13.007812 L 17.207031 13.007812 L 17.207031 10.5 L 16.859375 10.5 Z M 15.808594 13.007812 "/>
<path style=" stroke:none;fill-rule:nonzero;fill:rgb(0%,72.156863%,94.117647%);fill-opacity:1;" d="M 10.792969 10.5 L 12.949219 10.5 L 12.949219 13.007812 L 10.792969 13.007812 Z M 10.792969 10.5 "/>
<path style=" stroke:none;fill-rule:nonzero;fill:rgb(29.019608%,81.176471%,100%);fill-opacity:1;" d="M 11.492188 13.007812 L 12.949219 13.007812 L 12.949219 10.5 L 12.542969 10.5 Z M 11.492188 13.007812 "/>
<path style=" stroke:none;fill-rule:nonzero;fill:rgb(0%,72.156863%,94.117647%);fill-opacity:1;" d="M 6.476562 5.484375 L 8.632812 5.484375 L 8.632812 7.992188 L 6.476562 7.992188 Z M 6.476562 5.484375 "/>
<path style=" stroke:none;fill-rule:nonzero;fill:rgb(29.019608%,81.176471%,100%);fill-opacity:1;" d="M 7.175781 7.992188 L 8.632812 7.992188 L 8.632812 5.484375 L 8.226562 5.484375 Z M 7.175781 7.992188 "/>
<path style=" stroke:none;fill-rule:nonzero;fill:rgb(0%,72.156863%,94.117647%);fill-opacity:1;" d="M 19.367188 5.484375 L 21.523438 5.484375 L 21.523438 7.992188 L 19.367188 7.992188 Z M 19.367188 5.484375 "/>
<path style=" stroke:none;fill-rule:nonzero;fill:rgb(29.019608%,81.176471%,100%);fill-opacity:1;" d="M 20.125 7.992188 L 21.523438 7.992188 L 21.523438 5.484375 L 21.175781 5.484375 Z M 20.125 7.992188 "/>
<path style=" stroke:none;fill-rule:nonzero;fill:rgb(0%,72.156863%,94.117647%);fill-opacity:1;" d="M 15.050781 5.484375 L 17.207031 5.484375 L 17.207031 7.992188 L 15.050781 7.992188 Z M 15.050781 5.484375 "/>
<path style=" stroke:none;fill-rule:nonzero;fill:rgb(29.019608%,81.176471%,100%);fill-opacity:1;" d="M 15.808594 7.992188 L 17.207031 7.992188 L 17.207031 5.484375 L 16.859375 5.484375 Z M 15.808594 7.992188 "/>
<path style=" stroke:none;fill-rule:nonzero;fill:rgb(0%,72.156863%,94.117647%);fill-opacity:1;" d="M 10.792969 5.484375 L 12.949219 5.484375 L 12.949219 7.992188 L 10.792969 7.992188 Z M 10.792969 5.484375 "/>
<path style=" stroke:none;fill-rule:nonzero;fill:rgb(29.019608%,81.176471%,100%);fill-opacity:1;" d="M 11.492188 7.992188 L 12.949219 7.992188 L 12.949219 5.484375 L 12.542969 5.484375 Z M 11.492188 7.992188 "/>
<path style="fill:none;stroke-width:1;stroke-linecap:round;stroke-linejoin:round;stroke:rgb(27.058824%,25.490196%,23.529412%);stroke-opacity:1;stroke-miterlimit:10;" d="M 11.102679 26.598214 L 14.799107 26.598214 L 14.799107 30.897321 L 11.102679 30.897321 Z M 11.102679 26.598214 " transform="matrix(0.583333,0,0,0.583333,0,0)"/>
<path style="fill:none;stroke-width:1;stroke-linecap:round;stroke-linejoin:round;stroke:rgb(27.058824%,25.490196%,23.529412%);stroke-opacity:1;stroke-miterlimit:10;" d="M 33.200893 26.598214 L 36.897321 26.598214 L 36.897321 30.897321 L 33.200893 30.897321 Z M 33.200893 26.598214 " transform="matrix(0.583333,0,0,0.583333,0,0)"/>
<path style="fill:none;stroke-width:1;stroke-linecap:round;stroke-linejoin:round;stroke:rgb(27.058824%,25.490196%,23.529412%);stroke-opacity:1;stroke-miterlimit:10;" d="M 25.801339 26.598214 L 29.497768 26.598214 L 29.497768 30.897321 L 25.801339 30.897321 Z M 25.801339 26.598214 " transform="matrix(0.583333,0,0,0.583333,0,0)"/>
<path style="fill:none;stroke-width:1;stroke-linecap:round;stroke-linejoin:round;stroke:rgb(27.058824%,25.490196%,23.529412%);stroke-opacity:1;stroke-miterlimit:10;" d="M 18.502232 26.598214 L 22.198661 26.598214 L 22.198661 30.897321 L 18.502232 30.897321 Z M 18.502232 26.598214 " transform="matrix(0.583333,0,0,0.583333,0,0)"/>
<path style="fill:none;stroke-width:1;stroke-linecap:round;stroke-linejoin:round;stroke:rgb(27.058824%,25.490196%,23.529412%);stroke-opacity:1;stroke-miterlimit:10;" d="M 11.102679 18 L 14.799107 18 L 14.799107 22.299107 L 11.102679 22.299107 Z M 11.102679 18 " transform="matrix(0.583333,0,0,0.583333,0,0)"/>
<path style="fill:none;stroke-width:1;stroke-linecap:round;stroke-linejoin:round;stroke:rgb(27.058824%,25.490196%,23.529412%);stroke-opacity:1;stroke-miterlimit:10;" d="M 33.200893 18 L 36.897321 18 L 36.897321 22.299107 L 33.200893 22.299107 Z M 33.200893 18 " transform="matrix(0.583333,0,0,0.583333,0,0)"/>
<path style="fill:none;stroke-width:1;stroke-linecap:round;stroke-linejoin:round;stroke:rgb(27.058824%,25.490196%,23.529412%);stroke-opacity:1;stroke-miterlimit:10;" d="M 25.801339 18 L 29.497768 18 L 29.497768 22.299107 L 25.801339 22.299107 Z M 25.801339 18 " transform="matrix(0.583333,0,0,0.583333,0,0)"/>
<path style="fill:none;stroke-width:1;stroke-linecap:round;stroke-linejoin:round;stroke:rgb(27.058824%,25.490196%,23.529412%);stroke-opacity:1;stroke-miterlimit:10;" d="M 18.502232 18 L 22.198661 18 L 22.198661 22.299107 L 18.502232 22.299107 Z M 18.502232 18 " transform="matrix(0.583333,0,0,0.583333,0,0)"/>
<path style="fill:none;stroke-width:1;stroke-linecap:round;stroke-linejoin:round;stroke:rgb(27.058824%,25.490196%,23.529412%);stroke-opacity:1;stroke-miterlimit:10;" d="M 11.102679 9.401786 L 14.799107 9.401786 L 14.799107 13.700893 L 11.102679 13.700893 Z M 11.102679 9.401786 " transform="matrix(0.583333,0,0,0.583333,0,0)"/>
<path style="fill:none;stroke-width:1;stroke-linecap:round;stroke-linejoin:round;stroke:rgb(27.058824%,25.490196%,23.529412%);stroke-opacity:1;stroke-miterlimit:10;" d="M 33.200893 9.401786 L 36.897321 9.401786 L 36.897321 13.700893 L 33.200893 13.700893 Z M 33.200893 9.401786 " transform="matrix(0.583333,0,0,0.583333,0,0)"/>
<path style="fill:none;stroke-width:1;stroke-linecap:round;stroke-linejoin:round;stroke:rgb(27.058824%,25.490196%,23.529412%);stroke-opacity:1;stroke-miterlimit:10;" d="M 25.801339 9.401786 L 29.497768 9.401786 L 29.497768 13.700893 L 25.801339 13.700893 Z M 25.801339 9.401786 " transform="matrix(0.583333,0,0,0.583333,0,0)"/>
<path style="fill:none;stroke-width:1;stroke-linecap:round;stroke-linejoin:round;stroke:rgb(27.058824%,25.490196%,23.529412%);stroke-opacity:1;stroke-miterlimit:10;" d="M 18.502232 9.401786 L 22.198661 9.401786 L 22.198661 13.700893 L 18.502232 13.700893 Z M 18.502232 9.401786 " transform="matrix(0.583333,0,0,0.583333,0,0)"/>
<path style=" stroke:none;fill-rule:nonzero;fill:rgb(0%,72.156863%,94.117647%);fill-opacity:1;" d="M 19.773438 21.640625 L 21.933594 21.640625 L 21.933594 24.148438 L 19.773438 24.148438 Z M 19.773438 21.640625 "/>
<path style=" stroke:none;fill-rule:nonzero;fill:rgb(29.019608%,81.176471%,100%);fill-opacity:1;" d="M 20.535156 24.148438 L 21.933594 24.148438 L 21.933594 21.640625 L 21.523438 21.640625 Z M 20.535156 24.148438 "/>
<path style="fill:none;stroke-width:1;stroke-linecap:round;stroke-linejoin:round;stroke:rgb(27.058824%,25.490196%,23.529412%);stroke-opacity:1;stroke-miterlimit:10;" d="M 10.399554 37.098214 L 14.102679 37.098214 L 14.102679 41.397321 L 10.399554 41.397321 Z M 10.399554 37.098214 " transform="matrix(0.583333,0,0,0.583333,0,0)"/>
<path style="fill:none;stroke-width:1;stroke-linecap:round;stroke-linejoin:round;stroke:rgb(27.058824%,25.490196%,23.529412%);stroke-opacity:1;stroke-miterlimit:10;" d="M 33.897321 37.098214 L 37.600446 37.098214 L 37.600446 41.397321 L 33.897321 41.397321 Z M 33.897321 37.098214 " transform="matrix(0.583333,0,0,0.583333,0,0)"/>
<path style="fill:none;stroke-width:1;stroke-linecap:round;stroke-linejoin:round;stroke:rgb(27.058824%,25.490196%,23.529412%);stroke-opacity:1;stroke-miterlimit:10;" d="M 24 36.502232 L 24 44.497768 " transform="matrix(0.583333,0,0,0.583333,0,0)"/>
<path style=" stroke:none;fill-rule:nonzero;fill:rgb(52.941176%,53.72549%,54.901961%);fill-opacity:1;" d="M 17.035156 21.292969 L 10.964844 21.292969 C 10.558594 21.292969 10.265625 20.941406 10.265625 20.589844 L 10.265625 20.242188 C 10.265625 19.832031 10.617188 19.542969 10.964844 19.542969 L 16.976562 19.542969 C 17.382812 19.542969 17.675781 19.890625 17.675781 20.242188 L 17.675781 20.589844 C 17.734375 20.941406 17.382812 21.292969 17.035156 21.292969 Z M 17.035156 21.292969 "/>
<path style=" stroke:none;fill-rule:nonzero;fill:rgb(74.117647%,74.509804%,75.294118%);fill-opacity:1;" d="M 17.035156 19.484375 L 10.964844 19.484375 C 10.558594 19.484375 10.265625 19.832031 10.265625 20.183594 L 10.265625 20.535156 C 10.265625 20.648438 10.265625 20.707031 10.324219 20.824219 C 10.441406 20.535156 10.675781 20.359375 10.964844 20.359375 L 16.976562 20.359375 C 17.265625 20.359375 17.558594 20.535156 17.617188 20.824219 C 17.675781 20.765625 17.675781 20.648438 17.675781 20.535156 L 17.675781 20.183594 C 17.734375 19.832031 17.382812 19.484375 17.035156 19.484375 Z M 17.035156 19.484375 "/>
<path style="fill:none;stroke-width:1;stroke-linecap:round;stroke-linejoin:round;stroke:rgb(27.058824%,25.490196%,23.529412%);stroke-opacity:1;stroke-miterlimit:10;" d="M 29.203125 36.502232 L 18.796875 36.502232 C 18.100446 36.502232 17.598214 35.899554 17.598214 35.296875 L 17.598214 34.700893 C 17.598214 33.997768 18.200893 33.502232 18.796875 33.502232 L 29.102679 33.502232 C 29.799107 33.502232 30.301339 34.098214 30.301339 34.700893 L 30.301339 35.296875 C 30.401786 35.899554 29.799107 36.502232 29.203125 36.502232 Z M 29.203125 36.502232 " transform="matrix(0.583333,0,0,0.583333,0,0)"/>
</g>
</svg>
