<?xml version="1.0" encoding="UTF-8"?>
<svg width="28px" height="28px" viewBox="0 0 28 28" version="1.1" xmlns="http://www.w3.org/2000/svg" xmlns:xlink="http://www.w3.org/1999/xlink">
    <title>FE692186-90BA-4BD8-BDE9-B1AC3C6C9BBD</title>
    <g id="Page-2" stroke="none" stroke-width="1" fill="none" fill-rule="evenodd">
        <g id="L12.-Data-capture-" transform="translate(-630.000000, -314.000000)">
            <g id="iconspace_Refresh-1" transform="translate(630.000000, 314.000000)">
                <circle id="Shape" cx="14" cy="14" r="14"></circle>
                <g id="Group-29" transform="translate(4.344172, 3.030828)">
                    <path d="M4.58779012,4.63284966 C3.4629018,4.63284966 2.55099964,5.55461635 2.55099964,6.69167319 L2.55099964,12.8681438 L0.514209162,12.8681438 L0.514209162,6.69167319 C0.514209162,4.41755952 2.33801348,2.57402613 4.58779012,2.57402613 L11.8377386,2.57402613 L11.8377386,0.515202603 L15.4406797,3.59539562 L11.8377386,6.69167319 L11.8377386,4.63284966 L4.58779012,4.63284966 Z" id="Shape" fill="#FFFFFF"></path>
                    <path d="M4.58779012,4.63284966 C3.4629018,4.63284966 2.55099964,5.55461635 2.55099964,6.69167319 L2.55099964,10.2946144 L0.514209162,10.2946144 L0.514209162,6.69167319 C0.514209162,4.41755952 2.33801348,2.57402613 4.58779012,2.57402613 L11.8377386,2.57402613 L11.8377386,0.515202603 L15.4406797,3.59539562 L11.8377386,6.69167319 L11.8377386,4.63284966 L4.58779012,4.63284966 Z" id="Shape" fill="#FFC200"></path>
                    <path d="M14.4553341,16.471085 C15.5802224,16.471085 16.4921246,15.5493183 16.4921246,14.4122614 L16.4921246,8.23579084 L18.528915,8.23579084 L18.528915,14.4122614 C18.528915,16.6863751 16.7051107,18.5299085 14.4553341,18.5299085 L7.20538563,18.5299085 L7.20538563,20.588732 L3.60244446,17.508539 L7.20538563,14.4122614 L7.20538563,16.471085 L14.4553341,16.471085 Z" id="Shape" fill="#FFFFFF"></path>
                    <path d="M14.4553341,16.471085 C15.5802224,16.471085 16.4921246,15.5493183 16.4921246,14.4122614 L16.4921246,10.8093203 L18.528915,10.8093203 L18.528915,14.4122614 C18.528915,16.6863751 16.7051107,18.5299085 14.4553341,18.5299085 L7.20538563,18.5299085 L7.20538563,20.588732 L3.60244446,17.508539 L7.20538563,14.4122614 L7.20538563,16.471085 L14.4553341,16.471085 Z" id="Shape" fill="#52ABE2"></path>
                    <path d="M4.58779012,4.63284966 C3.4629018,4.63284966 2.55099964,5.55461635 2.55099964,6.69167319 L2.55099964,12.8681438 L0.514209162,12.8681438 L0.514209162,6.69167319 C0.514209162,4.41755952 2.33801348,2.57402613 4.58779012,2.57402613 L11.8377386,2.57402613 L11.8377386,0.515202603 L15.4406797,3.59539562 L11.8377386,6.69167319 L11.8377386,4.63284966 L4.58779012,4.63284966 Z" id="Shape"></path>
                    <path d="M14.4553341,16.471085 C15.5802224,16.471085 16.4921246,15.5493183 16.4921246,14.4122614 L16.4921246,8.23579084 L18.528915,8.23579084 L18.528915,14.4122614 C18.528915,16.6863751 16.7051107,18.5299085 14.4553341,18.5299085 L7.20538563,18.5299085 L7.20538563,20.588732 L3.60244446,17.508539 L7.20538563,14.4122614 L7.20538563,16.471085 L14.4553341,16.471085 Z" id="Shape"></path>
                    <path d="M4.58779012,4.63284966 C3.4629018,4.63284966 2.55099964,5.55461635 2.55099964,6.69167319 L2.55099964,12.8681438 L0.514209162,12.8681438 L0.514209162,6.69167319 C0.514209162,4.41755952 2.33801348,2.57402613 4.58779012,2.57402613 L11.8377386,2.57402613 L11.8377386,0.515202603 L15.4406797,3.59539562 L11.8377386,6.69167319 L11.8377386,4.63284966 L4.58779012,4.63284966 Z" id="Shape" fill="#FFFFFF"></path>
                    <path d="M4.58779012,4.63284966 C3.4629018,4.63284966 2.55099964,5.55461635 2.55099964,6.69167319 L2.55099964,10.2946144 L0.514209162,10.2946144 L0.514209162,6.69167319 C0.514209162,4.41755952 2.33801348,2.57402613 4.58779012,2.57402613 L11.8377386,2.57402613 L11.8377386,0.515202603 L15.4406797,3.59539562 L11.8377386,6.69167319 L11.8377386,4.63284966 L4.58779012,4.63284966 Z" id="Shape" fill="#FFC200"></path>
                    <path d="M14.4553341,16.471085 C15.5802224,16.471085 16.4921246,15.5493183 16.4921246,14.4122614 L16.4921246,8.23579084 L18.528915,8.23579084 L18.528915,14.4122614 C18.528915,16.6863751 16.7051107,18.5299085 14.4553341,18.5299085 L7.20538563,18.5299085 L7.20538563,20.588732 L3.60244446,17.508539 L7.20538563,14.4122614 L7.20538563,16.471085 L14.4553341,16.471085 Z" id="Shape" fill="#FFFFFF"></path>
                    <path d="M14.4553341,16.471085 C15.5802224,16.471085 16.4921246,15.5493183 16.4921246,14.4122614 L16.4921246,10.8093203 L18.528915,10.8093203 L18.528915,14.4122614 C18.528915,16.6863751 16.7051107,18.5299085 14.4553341,18.5299085 L7.20538563,18.5299085 L7.20538563,20.588732 L3.60244446,17.508539 L7.20538563,14.4122614 L7.20538563,16.471085 L14.4553341,16.471085 Z" id="Shape" fill="#52ABE2"></path>
                    <path d="M11.3235294,5.14805227 L4.58828684,5.14805227 C3.74890976,5.14805227 3.06620224,5.838145 3.06620224,6.69216992 L3.06620224,12.8686405 C3.06620224,13.1529047 2.83576057,13.3833464 2.55149636,13.3833464 L0.514705882,13.3833464 C0.230441673,13.3833464 -5.74703683e-14,13.1529047 -5.74703683e-14,12.8686405 L-5.74703683e-14,6.69216992 C-5.74703683e-14,4.13502432 2.05299895,2.05981697 4.58828684,2.05981697 L11.3235294,2.05981697 L11.3235294,0.515699327 C11.3235294,0.0762703902 11.8386903,-0.161072221 12.1726977,0.124474314 L15.7756389,3.20466733 C16.0155568,3.40977566 16.0160338,3.78053022 15.7766446,3.98625531 L12.1737035,7.08253288 C11.8399596,7.36934399 11.3235294,7.13222168 11.3235294,6.69216992 L11.3235294,5.14805227 Z M2.03679048,12.3539346 L2.03679048,6.69216992 C2.03679048,5.27208115 3.17788727,4.1186405 4.58828684,4.1186405 L11.8382353,4.1186405 C12.1224995,4.1186405 12.3529412,4.34908218 12.3529412,4.63334639 L12.3529412,5.57118861 L14.6502835,3.59691004 L12.3529412,1.63288745 L12.3529412,2.57452286 C12.3529412,2.85878707 12.1224995,3.08922874 11.8382353,3.08922874 L4.58828684,3.08922874 C2.62402144,3.08922874 1.02941176,4.70108816 1.02941176,6.69216992 L1.02941176,12.3539346 L2.03679048,12.3539346 Z" id="Shape" fill="#154E84" fill-rule="nonzero"></path>
                    <path d="M14.4558308,15.9558824 C15.2952079,15.9558824 15.9779154,15.2657896 15.9779154,14.4117647 L15.9779154,8.23529412 C15.9779154,7.95102991 16.2083571,7.72058824 16.4926213,7.72058824 L18.5294118,7.72058824 C18.813676,7.72058824 19.0441177,7.95102991 19.0441177,8.23529412 L19.0441177,14.4117647 C19.0441177,16.9689103 16.9911187,19.0441176 14.4558308,19.0441176 L7.72058824,19.0441176 L7.72058824,20.5882353 C7.72058824,21.0276642 7.20542734,21.2650068 6.8714199,20.9794603 L3.26847872,17.8992673 C3.02856088,17.694159 3.02808381,17.3234044 3.267473,17.1176793 L6.87041418,14.0214017 C7.20415801,13.7345906 7.72058824,13.9717129 7.72058824,14.4117647 L7.72058824,15.9558824 L14.4558308,15.9558824 Z M17.0073272,14.4117647 C17.0073272,15.8318535 15.8662304,16.9852941 14.4558308,16.9852941 L7.20588236,16.9852941 C6.92161815,16.9852941 6.69117647,16.7548524 6.69117647,16.4705882 L6.69117647,15.532746 L4.39383413,17.5070246 L6.69117647,19.4710472 L6.69117647,18.5294118 C6.69117647,18.2451476 6.92161815,18.0147059 7.20588236,18.0147059 L14.4558308,18.0147059 C16.4200962,18.0147059 18.0147059,16.4028465 18.0147059,14.4117647 L18.0147059,8.75 L17.0073272,8.75 L17.0073272,14.4117647 Z" id="Shape" fill="#154E84" fill-rule="nonzero"></path>
                </g>
            </g>
        </g>
    </g>
</svg>