<svg viewBox="0 0 318.13 337.39" xmlns="http://www.w3.org/2000/svg"><g data-name="Layer 2"><g data-name="Layer 1"><path d="M295.38 133.12s-14.83-10-39.7-15.78a62.18 62.18 0 1 0-68.88 0c-12 2.87-21 6.22-27.74 9.57-3.35-31.57-29.66-56.44-62.18-56.44A62.11 62.11 0 0 0 62.44 184.3c-24.87 5.74-39.7 15.78-39.7 15.78C13.65 205.34 6 217.78 6 228.3v62.18a19.19 19.19 0 0 0 19.13 19.13h143.5a19.19 19.19 0 0 0 19.13-19.13v-47.83H293a19.19 19.19 0 0 0 19.13-19.13v-62.18c0-10.53-7.13-23.44-16.75-28.22Z" fill="#e7e7e7" class="fill-e7e7e7"></path><path d="M309.62 161.34v62.18a19.19 19.19 0 0 1-19.13 19.13H185.26v47.84a19.2 19.2 0 0 1-19.15 19.13H22.62a19.18 19.18 0 0 1-19.13-19.13v-26.15c8 3.11 16.67 4.74 25.19 6.29 32.42 5.83 70.1 9.46 94.27-12.91 11.37-10.51 18.3-25.81 31.62-33.69s29.66-6.59 44.92-8.51c37.25-4.67 69.84-29.66 90.44-61a178.23 178.23 0 0 0 9.59-16.45c6.06 6.13 10.1 15.36 10.1 23.27Z" fill="#ced0d0" class="fill-ced0d0"></path><path d="M168.63 318.13H25.13A25.16 25.16 0 0 1 0 293v-62.19C0 218.54 8.58 204 19.56 197.5c1.6-1.06 12.31-7.87 29.91-13.38A68.16 68.16 0 0 1 96.88 67a68.55 68.55 0 0 1 66.83 53.79q4.73-1.9 10.15-3.59a68.18 68.18 0 1 1 94.79 0c17.11 5.36 27.71 12 29.76 13.28 11.08 5.75 19.72 20.34 19.72 33.41V226A25.16 25.16 0 0 1 293 251.16h-99.24V293a25.16 25.16 0 0 1-25.13 25.13ZM96.88 79a56.25 56.25 0 0 0-56.18 56.15 55.6 55.6 0 0 0 25 46.64l11.73 7.71-13.67 3.16c-23.31 5.34-37.52 14.81-37.66 14.9l-.35.22C18.3 212.1 12 222.64 12 230.81V293a13.15 13.15 0 0 0 13.13 13.13h143.5A13.15 13.15 0 0 0 181.76 293v-53.84H293A13.15 13.15 0 0 0 306.13 226v-62.15c0-8.6-6.27-19.28-13.42-22.85l-.35-.18-.32-.22c-.22-.14-14.41-9.54-37.69-14.91l-13.67-3.16 11.73-7.71a55.59 55.59 0 0 0 25-46.64 56.18 56.18 0 1 0-112.36 0 55.59 55.59 0 0 0 25 46.64l11.59 7.61-13.48 3.24a125.57 125.57 0 0 0-26.46 9.1l-7.7 3.87-.91-8.6A56.67 56.67 0 0 0 96.88 79Z" fill="#52abe2" class="fill-426572"></path><path d="M86.85 96.87a42.57 42.57 0 0 1 17-2.25c3.85.28 3.84-5.72 0-6a47 47 0 0 0-18.59 2.46c-3.64 1.23-2.08 7 1.6 5.79ZM76.75 168.75a42.23 42.23 0 0 1-17.17-30.13c-1.28-13.05 3.87-25 13.49-33.67 2.87-2.6-1.39-6.83-4.24-4.24-22.26 20.17-19.35 55.92 4.89 73.22 3.15 2.25 6.15-3 3-5.18Z" fill="#ffffff" class="fill-ffffff"></path><path d="M168.33 336.34s86.83-43.41 86.83-108.54V141l-86.83-21.71L81.51 141v86.83c0 65.1 86.82 108.51 86.82 108.51Z" fill="#f7dd86" class="fill-a9ea9c"></path><path d="M255.16 186.56v36.29c0 65.13-86.83 108.54-86.83 108.54S81.51 288 81.51 222.86v-36.3c0 65.13 86.82 108.54 86.82 108.54s86.83-43.41 86.83-108.54Z" fill="#ffc200" class="fill-91cd86"></path><path d="m168.33 337.39-2.68-1.39A234.93 234.93 0 0 1 121 305.35c-29.74-26-45.46-54.8-45.46-83.21v-91.51l92.83-23.21 92.83 23.21v91.51c0 28.41-15.72 57.18-45.46 83.21A234.93 234.93 0 0 1 171 336ZM87.51 140v82.14c0 54.45 66.51 93.89 80.83 101.74 14.3-7.86 80.83-47.37 80.83-101.74V140l-80.83-20.21Z" fill="#52abe2" class="fill-426572"></path></g></g></svg>