<?xml version="1.0" encoding="UTF-8"?>
<svg width="28px" height="28px" viewBox="0 0 28 28" version="1.1" xmlns="http://www.w3.org/2000/svg" xmlns:xlink="http://www.w3.org/1999/xlink">
    <title></title>
    <g id="Page-1" stroke="none" stroke-width="1" fill="none" fill-rule="evenodd">
        <g id="L21.--Failed" transform="translate(-12.000000, -783.000000)">
            <g id="Group-53" transform="translate(0.000000, 68.000000)">
                <g id="Group-23" transform="translate(0.000000, 709.000000)">
                    <g id="iconspace_Wallet" transform="translate(12.000000, 6.000000)">
                        <circle id="Shape" cx="14" cy="14" r="14"></circle>
                        <path d="M4.8125,10.5 C4.8125,10.2583754 5.00837542,10.0625 5.25,10.0625 L21,10.0625 C21.7248737,10.0625 22.3125,10.6501263 22.3125,11.375 L22.3125,21.4375 C22.3125,22.1623737 21.7248737,22.75 21,22.75 L6.125,22.75 C5.40012627,22.75 4.8125,22.1623737 4.8125,21.4375 L4.8125,10.5 Z" id="Shape" fill="#154E84" fill-rule="nonzero"></path>
                        <path d="M5.6875,10.9375 L5.6875,21.4375 C5.6875,21.6791246 5.88337542,21.875 6.125,21.875 L21,21.875 C21.2416246,21.875 21.4375,21.6791246 21.4375,21.4375 L21.4375,11.375 C21.4375,11.1333754 21.2416246,10.9375 21,10.9375 L5.6875,10.9375 Z" id="Shape" fill="#FFFFFF" fill-rule="nonzero"></path>
                        <path d="M18.8125,14.4375 L22.75,14.4375 C22.9916246,14.4375 23.1875,14.6333754 23.1875,14.875 L23.1875,19.25 C23.1875,19.4916246 22.9916246,19.6875 22.75,19.6875 L18.8125,19.6875 C17.3627525,19.6875 16.1875,18.5122475 16.1875,17.0625 C16.1875,15.6127525 17.3627525,14.4375 18.8125,14.4375 Z" id="Shape" fill="#154E84" fill-rule="nonzero"></path>
                        <path d="M22.3125,15.3125 L18.8125,15.3125 C17.8460017,15.3125 17.0625,16.0960017 17.0625,17.0625 C17.0625,18.0289983 17.8460017,18.8125 18.8125,18.8125 L22.3125,18.8125 L22.3125,15.3125 Z" id="Shape" fill="#FFC200" fill-rule="nonzero"></path>
                        <path d="M6.34375,9.1875 L21.875,9.1875 C22.1166246,9.1875 22.3125,9.38337542 22.3125,9.625 L22.3125,10.9375 C22.3125,11.6623737 21.7248737,12.25 21,12.25 L6.34375,12.25 C5.49806398,12.25 4.8125,11.564436 4.8125,10.71875 C4.8125,9.87306398 5.49806398,9.1875 6.34375,9.1875 Z" id="Shape" fill="#154E84" fill-rule="nonzero" transform="translate(13.562500, 10.718750) scale(1, -1) translate(-13.562500, -10.718750) "></path>
                        <path d="M21.4375,10.0625 L6.34375,10.0625 C5.98131313,10.0625 5.6875,10.3563131 5.6875,10.71875 C5.6875,11.0811869 5.98131313,11.375 6.34375,11.375 L21,11.375 C21.2416246,11.375 21.4375,11.1791246 21.4375,10.9375 L21.4375,10.0625 Z" id="Shape" fill="#52ABE2" fill-rule="nonzero" transform="translate(13.562500, 10.718750) scale(1, -1) translate(-13.562500, -10.718750) "></path>
                        <path d="M7,6.5625 C7,6.32087542 7.19587542,6.125 7.4375,6.125 L18.375,6.125 C18.6166246,6.125 18.8125,6.32087542 18.8125,6.5625 L18.8125,11.8125 C18.8125,12.0541246 18.6166246,12.25 18.375,12.25 L7.4375,12.25 C7.19587542,12.25 7,12.0541246 7,11.8125 L7,6.5625 Z" id="Shape" fill="#154E84" fill-rule="nonzero"></path>
                        <polygon id="Shape" fill="#FFC200" fill-rule="nonzero" points="7.875 7 7.875 11.375 17.9375 11.375 17.9375 7"></polygon>
                        <path d="M10.5,8.75 C10.5,8.50837542 10.6958754,8.3125 10.9375,8.3125 L21.875,8.3125 C22.1166246,8.3125 22.3125,8.50837542 22.3125,8.75 L22.3125,11.8125 C22.3125,12.0541246 22.1166246,12.25 21.875,12.25 L10.9375,12.25 C10.6958754,12.25 10.5,12.0541246 10.5,11.8125 L10.5,8.75 Z" id="Shape" fill="#154E84" fill-rule="nonzero"></path>
                        <polygon id="Shape" fill="#52ABE2" fill-rule="nonzero" points="11.375 9.1875 11.375 11.375 21.4375 11.375 21.4375 9.1875"></polygon>
                        <circle id="Shape" fill="#154E84" cx="19.25" cy="17.0625" r="1"></circle>
                    </g>
                </g>
            </g>
        </g>
    </g>
</svg>