<?xml version="1.0" encoding="UTF-8"?>
<svg width="24px" height="22px" viewBox="0 0 24 22" version="1.1" xmlns="http://www.w3.org/2000/svg" xmlns:xlink="http://www.w3.org/1999/xlink">
    <title></title>
    <g id="Page-1" stroke="none" stroke-width="1" fill="none" fill-rule="evenodd">
        <g id="L16.4-Sacn---Delete" transform="translate(-588.000000, -451.000000)" fill-rule="nonzero">
            <g id="Group-35" transform="translate(556.000000, 432.000000)">
                <g id="warning" transform="translate(32.000000, 19.000000)">
                    <path d="M15.1377656,1.85821875 L23.5160625,16.3699219 C23.8233281,16.9020937 24,17.5190625 24,18.1777031 C24,20.1778594 22.3785,21.7994531 20.37825,21.7994531 L12,21.7994531 L9.10260938,10.921875 L12,0.04434375 C13.3415625,0.04434375 14.5118906,0.774328125 15.1377656,1.85821875 Z" id="Path" fill="#3B4145"></path>
                    <path d="M8.86223437,1.85821875 L0.483890625,16.3699219 C0.176671875,16.9020937 0,17.5190625 0,18.1777031 C0,20.1778594 1.6215,21.7994531 3.62175,21.7994531 L12,21.7994531 L12,0.04434375 C10.6584375,0.04434375 9.48810938,0.774328125 8.86223437,1.85821875 Z" id="Path" fill="#525A61"></path>
                    <path d="M22.2615469,17.0942813 L13.8832969,2.58271875 C13.5056719,1.92839062 12.81225,1.51551562 12.0622969,1.49428125 L19.2280313,20.3509219 L20.3782969,20.3509219 C21.576375,20.3509219 22.5513281,19.3760156 22.5513281,18.1778906 C22.5513281,17.7973594 22.450875,17.4226406 22.2615469,17.0942813 Z" id="Path" fill="#FFB751"></path>
                    <path d="M20.8524844,17.0942812 C21.0161719,17.4226406 21.1026094,17.7973594 21.1026094,18.1778906 C21.1026094,19.3759687 20.2619062,20.3509219 19.2279844,20.3509219 L3.62175,20.3509219 C2.42367188,20.3509219 1.44871875,19.3759687 1.44871875,18.1778906 C1.44871875,17.7973594 1.54917188,17.4226406 1.73845312,17.0942812 L10.1167031,2.58271875 C10.5049687,1.91053125 11.2264219,1.49282812 12,1.49282812 C12.0207656,1.49282812 12.0415312,1.49329687 12.0622969,1.49428125 C12.7059844,1.51940625 13.3004531,1.93129687 13.6244531,2.58271875 L20.8524844,17.0942812 Z" id="Path" fill="#FFD764"></path>
                    <path d="M12,15.5217656 L12,17.93625 C12.6668906,17.93625 13.2072656,17.395875 13.2072656,16.7289844 C13.2072656,16.0621406 12.6668906,15.5217656 12,15.5217656 Z" id="Path" fill="#3B4145"></path>
                    <path d="M12,15.5217656 C12.1332656,15.5217656 12.2414531,16.0621406 12.2414531,16.7290312 C12.2414531,17.3959219 12.1332656,17.9362969 12,17.9362969 C11.3331094,17.9362969 10.7927344,17.3959219 10.7927344,16.7290312 C10.7927344,16.0621406 11.3331094,15.5217656 12,15.5217656 Z" id="Path" fill="#525A61"></path>
                    <path d="M12,5.13965625 L12,14.0732813 C12.6668906,14.0732813 13.2072656,13.5324375 13.2072656,12.8660156 L13.2072656,6.34692187 C13.2072656,5.68003125 12.6668906,5.13965625 12,5.13965625 Z" id="Path" fill="#3B4145"></path>
                    <path d="M12,5.13965625 C12.1332656,5.13965625 12.2414531,5.68003125 12.2414531,6.34692187 L12.2414531,12.8660156 C12.2414531,13.5323906 12.1332656,14.0732813 12,14.0732813 C11.3331094,14.0732813 10.7927344,13.5324375 10.7927344,12.8660156 L10.7927344,6.34692187 C10.7927344,5.68003125 11.3331094,5.13965625 12,5.13965625 Z" id="Path" fill="#525A61"></path>
                </g>
            </g>
        </g>
    </g>
</svg>