<?xml version="1.0" encoding="UTF-8"?>
<svg width="28px" height="28px" viewBox="0 0 28 28" version="1.1" xmlns="http://www.w3.org/2000/svg" xmlns:xlink="http://www.w3.org/1999/xlink">
    <title></title>
    <g id="Page-1" stroke="none" stroke-width="1" fill="none" fill-rule="evenodd">
        <g id="L19.--Import-Flle" transform="translate(-337.000000, -755.000000)">
            <g id="Group-4" transform="translate(303.000000, 611.000000)">
                <g id="iconspace_Write_1" transform="translate(34.000000, 144.000000)">
                    <circle id="Shape" cx="14" cy="14" r="14"></circle>
                    <path d="M9.625,4.8125 L20.125,4.8125 C20.6082492,4.8125 21,5.20425084 21,5.6875 L21,21.4375 C21,21.9207492 20.6082492,22.3125 20.125,22.3125 L6.125,22.3125 C5.64175084,22.3125 5.25,21.9207492 5.25,21.4375 L5.25,10.0625 L9.625,4.8125 Z" id="Shape" fill="#FFFFFF"></path>
                    <path d="M9.75,4.8125 L9.75,9.625 C9.75,9.86662458 9.55412458,10.0625 9.3125,10.0625 L5.25,10.0625 L9.75,4.8125 Z" id="Shape" fill="#52ABE2"></path>
                    <path d="M9.28890319,4.53241933 C9.37202549,4.43267257 9.49515882,4.375 9.625,4.375 L20.125,4.375 C20.8498737,4.375 21.4375,4.96262627 21.4375,5.6875 L21.4375,21.4375 C21.4375,22.1623737 20.8498737,22.75 20.125,22.75 L6.125,22.75 C5.40012627,22.75 4.8125,22.1623737 4.8125,21.4375 L4.8125,10.0625 C4.8125,9.96015278 4.8483821,9.86104464 4.91390319,9.78241933 L9.28890319,4.53241933 Z M9.82991404,5.25 L5.6875,10.2208968 L5.6875,21.4375 C5.6875,21.6791246 5.88337542,21.875 6.125,21.875 L20.125,21.875 C20.3666246,21.875 20.5625,21.6791246 20.5625,21.4375 L20.5625,5.6875 C20.5625,5.44587542 20.3666246,5.25 20.125,5.25 L9.82991404,5.25 Z" id="Shape" fill="#154E84" fill-rule="nonzero"></path>
                    <path d="M20.8490659,4.99087666 L22.5716233,6.7134341 C22.8094589,6.95126965 22.8094589,7.33687727 22.5716233,7.57471282 L14.5535286,15.5928076 L11.375,16.1875 L11.9696924,13.0089714 L19.9877872,4.99087666 C20.2256227,4.75304111 20.6112303,4.75304111 20.8490659,4.99087666 Z" id="Shape" fill="#52ABE2"></path>
                    <polygon id="Shape" fill="#FFC200" points="14.5535286 15.5928076 11.375 16.1875 11.9696924 13.0089714"></polygon>
                    <path d="M9.41782524,4.52777877 C9.68216221,4.21938564 10.1875,4.40632225 10.1875,4.8125 L10.1875,9.625 C10.1875,10.1082492 9.79574916,10.5 9.3125,10.5 L5.25,10.5 C4.87622047,10.5 4.67457274,10.0615734 4.91782524,9.77777877 L9.41782524,4.52777877 Z M9.3125,5.99517512 L6.20122153,9.625 L9.3125,9.625 L9.3125,5.99517512 Z" id="Shape" fill="#154E84" fill-rule="nonzero"></path>
                    <path d="M22.8809826,6.40407488 C23.2896725,6.81276481 23.2896725,7.47538211 22.8809826,7.88407203 L14.8628878,15.9021668 C14.8005013,15.9645533 14.7207103,16.0066199 14.6339873,16.0228455 L11.4554587,16.617538 C11.1531647,16.6740962 10.8884038,16.4093353 10.944962,16.1070413 L11.5396545,12.9285127 C11.5558801,12.8417897 11.5979467,12.7619987 11.6603332,12.6996122 L19.678428,4.68151745 C20.0871179,4.27282752 20.7497352,4.27282752 21.1584251,4.68151745 L22.8809826,6.40407488 Z M22.2622641,7.2653536 C22.3292453,7.19837243 22.3292453,7.08977449 22.2622641,7.02279332 L20.5397067,5.30023588 C20.4727255,5.23325471 20.3641276,5.23325471 20.2971464,5.30023588 L12.3748222,13.2225601 L11.9225332,15.6399668 L14.3399399,15.1876778 L22.2622641,7.2653536 Z" id="Shape" fill="#154E84" fill-rule="nonzero"></path>
                    <path d="M14.8628878,15.2834483 C15.1117176,15.5322781 14.9798837,15.9581294 14.6339873,16.0228455 L11.4554587,16.617538 C11.1531647,16.6740962 10.8884038,16.4093353 10.944962,16.1070413 L11.5396545,12.9285127 C11.6043706,12.5826163 12.0302219,12.4507824 12.2790517,12.6996122 L14.8628878,15.2834483 Z M12.2471183,13.9051157 L11.9225332,15.6399668 L13.6573843,15.3153817 L12.2471183,13.9051157 Z" id="Shape" fill="#154E84" fill-rule="nonzero"></path>
                </g>
            </g>
        </g>
    </g>
</svg>