<?xml version="1.0" encoding="UTF-8"?>
<svg width="52px" height="60px" viewBox="0 0 52 60" version="1.1" xmlns="http://www.w3.org/2000/svg" xmlns:xlink="http://www.w3.org/1999/xlink">
    <title>3F1FD267-9520-4570-A5F9-3CB4E7F9159D@1.5x</title>
    <defs>
        <linearGradient x1="50%" y1="0%" x2="50%" y2="100%" id="linearGradient-1">
            <stop stop-color="#8D8D8E" offset="0%"></stop>
            <stop stop-color="#55585F" offset="100%"></stop>
        </linearGradient>
        <path d="M29.5890411,0.821917808 L42.0622487,0.821917808 C45.8752831,0.821917808 49.3150685,4.26170315 49.3150685,8.07473759 L49.3150685,20.5479452 L29.5890411,0.821917808 Z" id="path-2"></path>
        <filter x="-20.3%" y="-30.4%" width="140.6%" height="140.6%" filterUnits="objectBoundingBox" id="filter-3">
            <feOffset dx="0" dy="-2" in="SourceAlpha" result="shadowOffsetOuter1"></feOffset>
            <feGaussianBlur stdDeviation="1" in="shadowOffsetOuter1" result="shadowBlurOuter1"></feGaussianBlur>
            <feComposite in="shadowBlurOuter1" in2="SourceAlpha" operator="out" result="shadowBlurOuter1"></feComposite>
            <feColorMatrix values="0 0 0 0 0   0 0 0 0 0   0 0 0 0 0  0 0 0 0.0909637238 0" type="matrix" in="shadowBlurOuter1"></feColorMatrix>
        </filter>
    </defs>
    <g id="Page-2" stroke="none" stroke-width="1" fill="none" fill-rule="evenodd">
        <g id="L39.-Email" transform="translate(-740.000000, -328.000000)">
            <g id="PDF" transform="translate(740.000000, 328.000000)">
                <path d="M29.5890411,0.821917808 L49.3150685,20.5479452 L49.3150685,53.0958904 C49.3150685,56.9089248 46.2239933,60 42.4109589,60 L6.90410959,60 C3.09107515,60 0,56.9089248 0,53.0958904 L0,7.7260274 C0,3.91299296 3.09107515,0.821917808 6.90410959,0.821917808 L29.5890411,0.821917808 Z" id="Combined-Shape" fill="url(#linearGradient-1)"></path>
                <g id="Path" transform="translate(39.452055, 10.684932) scale(-1, -1) translate(-39.452055, -10.684932) ">
                    <use fill="black" fill-opacity="1" filter="url(#filter-3)" xlink:href="#path-2"></use>
                    <use fill-opacity="0.4" fill="#FFFFFF" fill-rule="evenodd" xlink:href="#path-2"></use>
                </g>
                <g id="zipper" transform="translate(18.082192, 0.719178)" fill="#FFFFFF" fill-rule="nonzero" opacity="0.804036458">
                    <path d="M7.42821062,7.28610873 C7.69366438,7.28610873 7.90877568,7.07093322 7.90877568,6.80554366 L7.90877568,4.57191781 C7.90877568,4.13026541 7.54950771,3.77099743 7.10785531,3.77099743 L6.39554795,3.77099743 L6.39554795,0.800920377 C6.39548373,0.359267979 6.03627997,-1.2793176e-12 5.59456336,-1.2793176e-12 L2.36750856,-1.2793176e-12 C1.92585616,-1.2793176e-12 1.56658818,0.359267979 1.56658818,0.800920377 L1.56658818,3.77093322 L0.854345034,3.77093322 C0.412692637,3.77093322 0.0534246575,4.1302012 0.0534246575,4.5718536 L0.0534246575,10.5397474 C0.0534246575,11.6252568 0.496168664,12.6091824 1.2104024,13.3207834 L1.2104024,32.0756635 C1.2104024,32.5173159 1.56973459,32.8765839 2.01132277,32.8765839 L5.95081336,32.8765839 C6.39246575,32.8765839 6.75173373,32.5173159 6.75173373,32.0756635 L6.75173373,13.3208476 C7.46596747,12.6092466 7.90877568,11.6253211 7.90877568,10.5398116 L7.90877568,10.2228596 C7.90877568,9.95747003 7.69360017,9.74229452 7.4281464,9.74229452 C7.16269264,9.74229452 6.94758134,9.95747003 6.94758134,10.2228596 L6.94758134,10.5398116 C6.94758134,12.1755565 5.61678082,13.506357 3.98103596,13.506357 C2.3452911,13.506357 1.01455479,12.1755565 1.01455479,10.5398116 L1.01455479,4.73212757 L1.56658818,4.73212757 L1.56658818,6.24118151 C1.56658818,6.6828339 1.92585616,7.04210188 2.36750856,7.04210188 L5.59456336,7.04210188 C6.03621575,7.04210188 6.39548373,6.6828339 6.39548373,6.24118151 L6.39548373,4.73212757 L6.94758134,4.73212757 L6.94758134,6.80554366 C6.94764555,7.07093322 7.16269264,7.28610873 7.42821062,7.28610873 Z M5.79066781,31.9155822 L5.16652397,31.9155822 L5.16652397,31.7089469 C5.16652397,31.0553296 4.63478168,30.5235231 3.98110017,30.5235231 C3.86731592,30.5235231 3.77401541,30.4379923 3.75976027,30.3279966 L5.79066781,30.3279966 L5.79066781,31.9155822 L5.79066781,31.9155822 Z M2.17153253,27.4890411 L2.79561216,27.4890411 L2.79561216,27.5946062 C2.79561216,28.2482235 3.32735445,28.78003 3.98103596,28.78003 C4.1047089,28.78003 4.20532962,28.8806507 4.20532962,29.0043236 L4.20532962,29.3668664 L2.17153253,29.3668664 L2.17153253,27.4890411 L2.17153253,27.4890411 Z M3.98103596,20.2872432 C4.1047089,20.2872432 4.20532962,20.3878639 4.20532962,20.5115368 L4.20532962,20.85 L2.17153253,20.85 L2.17153253,18.9721104 L2.79561216,18.9721104 L2.79561216,19.1018193 C2.79561216,19.7554366 3.32735445,20.2872432 3.98103596,20.2872432 Z M2.79561216,21.8111301 L2.79561216,21.8414384 C2.79561216,22.4950557 3.32735445,23.0268622 3.98103596,23.0268622 C4.1047089,23.0268622 4.20532962,23.1274829 4.20532962,23.2511558 L4.20532962,23.6840111 C4.20532962,23.6856807 4.20558647,23.6873502 4.20558647,23.6890197 L2.17153253,23.6890197 L2.17153253,21.8111301 L2.79561216,21.8111301 L2.79561216,21.8111301 Z M2.79561216,24.6500856 L2.79561216,24.7556507 C2.79561216,25.409268 3.32735445,25.9410745 3.98103596,25.9410745 C4.1047089,25.9410745 4.20532962,26.0416952 4.20532962,26.1653682 L4.20532962,26.5279752 L2.17153253,26.5279752 L2.17153253,24.6500856 L2.79561216,24.6500856 Z M5.79066781,29.3668664 L5.16652397,29.3668664 L5.16652397,29.0043236 C5.16652397,28.3507063 4.63478168,27.8188998 3.98110017,27.8188998 C3.85742723,27.8188998 3.75680651,27.7182791 3.75680651,27.5946062 L3.75680651,27.4890411 L5.79066781,27.4890411 L5.79066781,29.3668664 L5.79066781,29.3668664 Z M5.79066781,26.527911 L5.16652397,26.527911 L5.16652397,26.1653039 C5.16652397,25.5116866 4.63478168,24.9798801 3.98110017,24.9798801 C3.85742723,24.9798801 3.75680651,24.8792594 3.75680651,24.7555865 L3.75680651,24.6500214 L5.79066781,24.6500214 L5.79066781,26.527911 L5.79066781,26.527911 Z M5.79066781,23.6889555 L5.16626712,23.6889555 C5.16626712,23.687286 5.16652397,23.6856164 5.16652397,23.6839469 L5.16652397,23.2510916 C5.16652397,22.5974743 4.63478168,22.0656678 3.98110017,22.0656678 C3.85742723,22.0656678 3.75680651,21.9650471 3.75680651,21.8413741 L3.75680651,21.8110659 L5.79066781,21.8110659 L5.79066781,23.6889555 Z M5.79066781,20.8499358 L5.16652397,20.8499358 L5.16652397,20.5114726 C5.16652397,19.8578553 4.63478168,19.3260488 3.98110017,19.3260488 C3.85742723,19.3260488 3.75680651,19.2254281 3.75680651,19.1017551 L3.75680651,18.9720462 L5.79066781,18.9720462 L5.79066781,20.8499358 L5.79066781,20.8499358 Z M5.79053938,18.0109803 L5.15117723,18.0109803 C5.16074486,17.9731592 5.16639555,17.9337329 5.16639555,17.8928938 L5.16639555,17.4600385 C5.16639555,16.8064212 4.63465325,16.2746147 3.98097175,16.2746147 C3.88657962,16.2746147 3.80599315,16.2158604 3.77298801,16.1330908 L5.79053938,16.1330908 L5.79053938,18.0109803 Z M5.79066781,14.024101 L5.79066781,15.1720248 L5.16652397,15.1720248 L5.16652397,14.9668022 C5.16652397,14.7354452 5.09955051,14.5196918 4.98441781,14.3371361 C5.26682363,14.2624572 5.53664384,14.1565068 5.79066781,14.024101 Z M2.17153253,14.024101 C2.46819349,14.1787885 2.78681507,14.2965539 3.12155394,14.3716182 C3.33743579,14.5998288 3.6427012,14.7425086 3.98103596,14.7425086 C4.1047089,14.7425086 4.20532962,14.8431293 4.20532962,14.9668022 L4.20532962,15.1720248 L2.17153253,15.1720248 L2.17153253,14.024101 L2.17153253,14.024101 Z M2.17153253,16.133155 L2.79985017,16.133155 C2.84261558,16.7481807 3.35535103,17.2358091 3.98103596,17.2358091 C4.1047089,17.2358091 4.20532962,17.3364298 4.20532962,17.4601027 L4.20532962,17.892958 C4.20532962,17.9337971 4.21098031,17.9731592 4.22054795,18.0110445 L2.17153253,18.0110445 L2.17153253,16.133155 L2.17153253,16.133155 Z M2.17153253,30.3279966 L2.79708904,30.3279966 C2.81256421,30.9683219 3.33711473,31.4846533 3.98103596,31.4846533 C4.1047089,31.4846533 4.20532962,31.585274 4.20532962,31.7089469 L4.20532962,31.9155822 L2.17153253,31.9155822 L2.17153253,30.3279966 L2.17153253,30.3279966 Z M5.4343536,6.08097175 L2.52765411,6.08097175 L2.52765411,0.961130137 L5.4343536,0.961130137 L5.4343536,6.08097175 Z" id="Shape"></path>
                    <path d="M4.35898973,9.02632705 C4.09905822,8.97315925 3.84503425,9.14068921 3.79180223,9.40074914 C3.73863442,9.66074486 3.9062286,9.91470462 4.16622432,9.96793664 C4.5900899,10.0546875 4.89773116,10.4323844 4.89773116,10.8660745 C4.89779538,11.3715539 4.48651541,11.7828339 3.98103596,11.7828339 C3.65246147,11.7828339 3.34700342,11.6052226 3.18390411,11.3193493 C3.05239726,11.0887628 2.75894692,11.0086901 2.52829623,11.1400685 C2.29777397,11.2715753 2.21750856,11.5650899 2.34901541,11.7956122 C2.68272688,12.3805865 3.30809075,12.743964 3.98103596,12.743964 C5.01652397,12.743964 5.8588613,11.9015625 5.8588613,10.8660745 C5.8588613,9.97795377 5.22803938,9.20419521 4.35898973,9.02632705 Z" id="Path"></path>
                </g>
            </g>
        </g>
    </g>
</svg>