<?xml version="1.0" encoding="UTF-8"?>
<svg width="17px" height="19px" viewBox="0 0 17 19" version="1.1" xmlns="http://www.w3.org/2000/svg" xmlns:xlink="http://www.w3.org/1999/xlink">
    <!-- Generator: sketchtool 63.1 (101010) - https://sketch.com -->
    <title></title>
    <desc>Created with sketchtool.</desc>
    <g id="Web" stroke="none" stroke-width="1" fill="none" fill-rule="evenodd">
        <g id="1.5-Data-capture-" transform="translate(-1102.000000, -146.000000)" fill-rule="nonzero">
            <g id="iconspace_Zoom-In" transform="translate(1097.000000, 142.000000)">
                <path d="M21.5977876,20.4496297 L16.518114,14.5884679 C16.3518273,14.3965986 16.057675,14.3861066 15.8781408,14.5656408 L14.5656408,15.8781408 C14.403339,16.0404426 14.3940602,16.3005792 14.544386,16.4740321 L19.6240596,22.335194 C20.0948774,22.8784452 20.9169427,22.9371642 21.460194,22.4663464 C21.4835768,22.4460813 21.5062296,22.4249888 21.5281092,22.4031092 C22.0601748,21.8710437 22.0905929,21.0182513 21.5977876,20.4496297 Z" id="Shape" fill="#154E84"></path>
                <path d="M16.1646147,15.5166037 L20.9365596,21.022694 C21.1287133,21.2444097 21.1168527,21.5769288 20.9093908,21.7843908 C20.9022192,21.7915624 20.8947941,21.798476 20.8871297,21.8051185 C20.7090646,21.9594416 20.4396107,21.9401949 20.2852876,21.7621297 L15.4724095,16.2088089 L16.1646147,15.5166037 Z" id="Shape" fill="#52ABE2"></path>
                <path d="M7.86589331,17.5091067 C4.9613689,14.6045823 4.9613689,9.89541773 7.86589331,6.99089331 C10.7704177,4.0863689 15.4795823,4.0863689 18.3841067,6.99089331 C21.2886311,9.89541773 21.2886311,14.6045823 18.3841067,17.5091067 C15.4795823,20.4136311 10.7704177,20.4136311 7.86589331,17.5091067 Z" id="Shape" fill="#154E84"></path>
                <path d="M17.7653883,7.60961175 C15.2025726,5.04679608 11.0474274,5.04679608 8.48461175,7.60961175 C5.92179608,10.1724274 5.92179608,14.3275726 8.48461175,16.8903883 C11.0474274,19.4532039 15.2025726,19.4532039 17.7653883,16.8903883 C20.3282039,14.3275726 20.3282039,10.1724274 17.7653883,7.60961175 Z" id="Shape" fill="#FFC200"></path>
                <path d="M9.10333018,16.2716698 C6.88222327,14.0505629 6.88222327,10.4494371 9.10333018,8.22833018 C11.3244371,6.00722327 14.9255629,6.00722327 17.1466698,8.22833018 C19.3677767,10.4494371 19.3677767,14.0505629 17.1466698,16.2716698 C14.9255629,18.4927767 11.3244371,18.4927767 9.10333018,16.2716698 Z" id="Shape" fill="#154E84"></path>
                <path d="M16.5279514,8.84704862 C14.6485532,6.96765046 11.6014468,6.96765046 9.72204862,8.84704862 C7.84265046,10.7264468 7.84265046,13.7735532 9.72204862,15.6529514 C11.6014468,17.5323495 14.6485532,17.5323495 16.5279514,15.6529514 C18.4073495,13.7735532 18.4073495,10.7264468 16.5279514,8.84704862 Z" id="Shape" fill="#FFFFFF"></path>
                <path d="M10.5,12.8125 L15.75,12.8125 C15.9916246,12.8125 16.1875,12.5886424 16.1875,12.3125 C16.1875,12.0363576 15.9916246,11.8125 15.75,11.8125 L10.5,11.8125 C10.2583754,11.8125 10.0625,12.0363576 10.0625,12.3125 C10.0625,12.5886424 10.2583754,12.8125 10.5,12.8125 Z" id="Shape" fill="#154E84"></path>
                <path d="M12.6875,9.625 L12.6875,14.875 C12.6875,15.1166246 12.9113576,15.3125 13.1875,15.3125 C13.4636424,15.3125 13.6875,15.1166246 13.6875,14.875 L13.6875,9.625 C13.6875,9.38337542 13.4636424,9.1875 13.1875,9.1875 C12.9113576,9.1875 12.6875,9.38337542 12.6875,9.625 Z" id="Shape" fill="#154E84"></path>
            </g>
        </g>
    </g>
</svg>