<?xml version="1.0" encoding="UTF-8"?>
<svg width="354px" height="290px" viewBox="0 0 354 290" version="1.1" xmlns="http://www.w3.org/2000/svg" xmlns:xlink="http://www.w3.org/1999/xlink">
    <title></title>
    <defs>
        <linearGradient x1="100%" y1="0%" x2="0%" y2="100%" id="linearGradient-1">
            <stop stop-color="#FF8960" offset="0%"></stop>
            <stop stop-color="#FF62A5" offset="100%"></stop>
        </linearGradient>
        <linearGradient x1="100%" y1="0%" x2="0%" y2="100%" id="linearGradient-2">
            <stop stop-color="#FF404E" offset="0%"></stop>
            <stop stop-color="#FF62A5" offset="100%"></stop>
        </linearGradient>
    </defs>
    <g id="Page-1" stroke="none" stroke-width="1" fill="none" fill-rule="evenodd">
        <g id="L14.-Contact---No-result" transform="translate(-542.000000, -454.000000)">
            <g id="Artwork" transform="translate(544.000000, 456.000000)">
                <g id="circle">
                    <line x1="10" y1="131" x2="10" y2="134" id="Stroke-1" stroke="#D2D8DF" stroke-width="2.921" stroke-linecap="round"></line>
                    <g id="Group-8" transform="translate(0.000000, 132.000000)" stroke="#D2D8DF" stroke-linecap="round" stroke-width="2.921">
                        <line x1="3.26202857" y1="0.625411765" x2="5.71345714" y2="3.14894118" id="Stroke-2"></line>
                        <line x1="0.395142857" y1="7.34302941" x2="3.86142857" y2="7.34302941" id="Stroke-4"></line>
                        <line x1="2.98165714" y1="14.1803824" x2="5.43308571" y2="11.6568529" id="Stroke-6"></line>
                    </g>
                    <line x1="10" y1="147" x2="10" y2="144" id="Stroke-9" stroke="#D2D8DF" stroke-width="2.921" stroke-linecap="round"></line>
                    <line x1="15" y1="145" x2="13" y2="143" id="Stroke-10" stroke="#D2D8DF" stroke-width="2.921" stroke-linecap="round"></line>
                    <line x1="19" y1="140" x2="16" y2="140" id="Stroke-11" stroke="#D2D8DF" stroke-width="2.921" stroke-linecap="round"></line>
                    <line x1="17" y1="133" x2="15" y2="135" id="Stroke-12" stroke="#D2D8DF" stroke-width="2.921" stroke-linecap="round"></line>
                    <line x1="171" y1="0" x2="171" y2="2" id="Stroke-13" stroke="#D2D8DF" stroke-width="2.921" stroke-linecap="round"></line>
                    <line x1="165" y1="6" x2="167" y2="6" id="Stroke-15" stroke="#D2D8DF" stroke-width="2.921" stroke-linecap="round"></line>
                    <line x1="171" y1="12" x2="171" y2="10" id="Stroke-16" stroke="#D2D8DF" stroke-width="2.921" stroke-linecap="round"></line>
                    <line x1="176" y1="6" x2="174" y2="6" id="Stroke-17" stroke="#D2D8DF" stroke-width="2.921" stroke-linecap="round"></line>
                    <line x1="55" y1="84" x2="55" y2="87" id="Stroke-18" stroke="#D2D8DF" stroke-width="2.921" stroke-linecap="round"></line>
                    <line x1="46" y1="93" x2="49" y2="93" id="Stroke-19" stroke="#D2D8DF" stroke-width="2.921" stroke-linecap="round"></line>
                    <line x1="55" y1="101" x2="55" y2="98" id="Stroke-20" stroke="#D2D8DF" stroke-width="2.921" stroke-linecap="round"></line>
                    <line x1="63" y1="93" x2="60" y2="93" id="Stroke-21" stroke="#D2D8DF" stroke-width="2.921" stroke-linecap="round"></line>
                    <g id="Group-42" transform="translate(26.000000, 27.000000)">
                        <path d="M244.253887,166.038616 C246.643705,166.038616 248.581877,167.977295 248.581877,170.367737 C248.581877,172.759029 246.643705,174.696859 244.253887,174.696859 C241.864069,174.696859 239.925897,172.759029 239.925897,170.367737" id="Stroke-22" stroke="#D2D8DF" stroke-width="2.921" stroke-linecap="round"></path>
                        <path d="M264.061783,126.763177 C266.63158,125.96155 270.570746,122.818734 271.482528,119.437298 C272.309413,122.426413 275.77571,125.96155 278.903272,126.229042 C275.382642,127.475639 272.016522,131.178914 271.482528,134.088206 C271.119173,131.122869 266.463486,127.19541 264.061783,126.763177" id="Fill-26" fill="#EBECEE"></path>
                        <path d="M0.272855208,164.705148 C1.55817812,164.304335 3.5269125,162.733351 3.98280312,161.042633 C4.39624583,162.536342 6.12896979,164.304335 7.69275104,164.438506 C5.93286042,165.060955 4.250225,166.913017 3.98280312,168.367663 C3.80112604,166.884994 1.47328229,164.92084 0.272855208,164.705148" id="Fill-28" fill="#EBECEE"></path>
                        <path d="M24.1249339,25.5970974 C24.1249339,27.4517072 22.6222776,28.9539072 20.7690016,28.9539072 C18.9148766,28.9539072 17.4130693,27.4517072 17.4130693,25.5970974 C17.4130693,23.7433367 18.9148766,22.2402875 20.7690016,22.2402875 C22.6222776,22.2402875 24.1249339,23.7433367 24.1249339,25.5970974" id="Fill-30" fill="#D1D8DF"></path>
                        <path d="M248.218984,34.6105344 C248.218984,37.7091934 245.706917,40.2210689 242.609917,40.2210689 C239.511219,40.2210689 237,37.7091934 237,34.6105344 C237,31.5118754 239.511219,29 242.609917,29 C245.706917,29 248.218984,31.5118754 248.218984,34.6105344" id="Fill-32" fill="#EBECEE"></path>
                        <path d="M325.91468,19.40946 C325.91468,21.867837 323.923023,23.8600141 321.466138,23.8600141 C319.008404,23.8600141 317.016747,21.867837 317.016747,19.40946 C317.016747,16.951083 319.008404,14.9589059 321.466138,14.9589059 C323.923023,14.9589059 325.91468,16.951083 325.91468,19.40946" id="Fill-34" fill="#EBECEE"></path>
                        <path d="M86.8441927,227.26749 C86.8441927,228.817244 85.5885833,230.073182 84.0392344,230.073182 C82.4907344,230.073182 81.235125,228.817244 81.235125,227.26749 C81.235125,225.717736 82.4907344,224.461798 84.0392344,224.461798 C85.5885833,224.461798 86.8441927,225.717736 86.8441927,227.26749 Z" id="Stroke-36" stroke="#D2D8DF" stroke-width="2.921" stroke-linecap="round"></path>
                        <path d="M85.1753104,4.03173836 C85.1753104,5.8863482 83.6726542,7.3885482 81.8193781,7.3885482 C79.9661021,7.3885482 78.4634458,5.8863482 78.4634458,4.03173836 C78.4634458,2.1779777 79.9661021,0.674928525 81.8193781,0.674928525 C83.6726542,0.674928525 85.1753104,2.1779777 85.1753104,4.03173836 Z" id="Stroke-38" stroke="#D2D8DF" stroke-width="2.921" stroke-linecap="round"></path>
                        <path d="M170.778948,258.335941 C168.634479,259.152003 166.234474,258.074393 165.418625,255.930213 C164.602776,253.785184 165.679255,251.383702 167.824573,250.568489 C169.968193,249.752426 172.368198,250.829187 173.184047,252.974216 C174.000745,255.119246 172.923417,257.519879 170.778948,258.335941 Z" id="Stroke-40" stroke="#D2D8DF" stroke-width="2.921" stroke-linecap="round"></path>
                    </g>
                </g>
                <g id="search" transform="translate(89.000000, 68.000000)">
                    <g id="documents">
                        <path d="M106.501156,138 L24.4964848,138 C18.7245975,138 14,133.261447 14,127.470146 L14,10.5274887 C14,4.73618706 18.7245975,0 24.4964848,0 L106.501156,0 C112.275402,0 117,4.73618706 117,10.5274887 L117,127.470146 C117,133.261447 112.275402,138 106.501156,138" id="Fill-1" fill="#E0E2EE"></path>
                        <path d="M99.5011565,143 L17.4964848,143 C11.7245975,143 7,138.261447 7,132.470146 L7,15.5274887 C7,9.73618706 11.7245975,5 17.4964848,5 L99.5011565,5 C105.275402,5 110,9.73618706 110,15.5274887 L110,132.470146 C110,138.261447 105.275402,143 99.5011565,143" id="Fill-3" fill="#E8EBF2"></path>
                        <path d="M92.6918909,146.947227 L10.5177091,146.947227 C4.73389091,146.947227 -0.000472727273,142.228295 -0.000472727273,136.460973 L-0.000472727273,20.0025322 C-0.000472727273,14.2352102 4.73389091,9.5186339 10.5177091,9.5186339 L92.6918909,9.5186339 C98.4780727,9.5186339 103.212436,14.2352102 103.212436,20.0025322 L103.212436,136.460973 C103.212436,142.228295 98.4780727,146.947227 92.6918909,146.947227" id="Fill-5" fill="#D8DBEA"></path>
                        <path d="M92.6918909,146.947227 L10.5177091,146.947227 C4.73389091,146.947227 -0.000472727273,142.228295 -0.000472727273,136.460973 L-0.000472727273,20.0025322 C-0.000472727273,14.2352102 4.73389091,9.5186339 10.5177091,9.5186339 L92.6918909,9.5186339 C98.4780727,9.5186339 103.212436,14.2352102 103.212436,20.0025322 L103.212436,136.460973 C103.212436,142.228295 98.4780727,146.947227 92.6918909,146.947227" id="Fill-8" fill="#F1F2F7"></path>
                        <path d="M80.84781,45 L20.15219,45 C18.4188402,45 17,43.6501687 17,42.0011249 C17,40.3498313 18.4188402,39 20.15219,39 L80.84781,39 C82.5811598,39 84,40.3498313 84,42.0011249 C84,43.6501687 82.5811598,45 80.84781,45" id="Fill-11" fill="#E0E2EE"></path>
                        <path d="M80.84781,63 L20.15219,63 C18.4188402,63 17,61.6501687 17,60.0011249 C17,58.3498313 18.4188402,57 20.15219,57 L80.84781,57 C82.5811598,57 84,58.3498313 84,60.0011249 C84,61.6501687 82.5811598,63 80.84781,63" id="Fill-13" fill="#E0E2EE"></path>
                        <path d="M80.84781,81 L20.15219,81 C18.4188402,81 17,79.6501687 17,78.0011249 C17,76.352081 18.4188402,75 20.15219,75 L80.84781,75 C82.5811598,75 84,76.352081 84,78.0011249 C84,79.6501687 82.5811598,81 80.84781,81" id="Fill-15" fill="#E0E2EE"></path>
                        <path d="M80.84781,99 L20.15219,99 C18.4188402,99 17,97.6501687 17,96.0011249 C17,94.3498313 18.4188402,93 20.15219,93 L80.84781,93 C82.5811598,93 84,94.3498313 84,96.0011249 C84,97.6501687 82.5811598,99 80.84781,99" id="Fill-17" fill="#E0E2EE"></path>
                        <path d="M51.8343229,117 L20.1656771,117 C18.4249109,117 17,115.650169 17,114.001125 C17,112.349831 18.4249109,111 20.1656771,111 L51.8343229,111 C53.5750891,111 55,112.349831 55,114.001125 C55,115.650169 53.5750891,117 51.8343229,117" id="Fill-19" fill="#E0E2EE"></path>
                    </g>
                    <g transform="translate(48.000000, 27.000000)">
                        <path d="M67.754957,66.7367621 C55.6182566,78.8713922 36.8291481,80.240323 23.1884029,70.8715438 C21.445136,69.6527374 19.7858514,68.2838065 18.238543,66.7367621 C17.4419845,65.942884 16.6912345,65.1235611 15.9837481,64.260982 C14.5687753,62.5383684 13.3294016,60.701253 12.3139805,58.8030702 C10.5249051,55.5970241 9.30843571,52.1950529 8.64421285,48.6785801 C6.5013943,37.6507993 9.70544247,25.7807952 18.238543,17.2516948 C26.7920028,8.69714949 38.6640319,5.5140037 49.6936942,7.63610089 C53.208222,8.32056629 56.6133185,9.53682823 59.8199115,11.3052426 C61.7209632,12.3433908 63.5329427,13.5825531 65.2583952,14.9972845 C66.1185765,15.7021058 66.9380392,16.4552722 67.7320527,17.2516948 C69.2819061,18.7987392 70.6714297,20.4551964 71.8675398,22.2007104 C81.2404623,35.8365843 79.8687531,54.6250323 67.754957,66.7367621" id="Fill-21" fill-opacity="0.1" fill="#FFFFFF"></path>
                        <path d="M64.3588331,64.3465486 C51.7322445,76.9754971 31.2698404,76.9731475 18.6409023,64.3465486 C6.02841122,51.7340471 6.02841122,31.2692765 18.6573493,18.6426776 C31.2698404,6.03017607 51.7322445,6.03017607 64.3447357,18.6426776 C76.9713242,31.2692765 76.9713242,51.7340471 64.3588331,64.3465486 M70.8389468,12.1555098 C54.6316138,-4.0518366 28.3681216,-4.0518366 12.1607886,12.1555098 C-4.04419486,28.3605066 -4.05829228,54.6404674 12.1466912,70.8478138 C26.8972909,85.5937265 50.0170585,86.9235842 66.2784317,74.8162406 C67.8667409,73.6320564 69.3963109,72.3045483 70.8553938,70.8478138 C72.3121271,69.3887297 73.6396341,67.8591584 74.8214678,66.2708479 C86.9288013,50.0071118 85.5871969,26.9037721 70.8389468,12.1555098" id="Fill-23" fill="#E0E2EE"></path>
                        <path d="M134.622095,131.941654 L133.941654,132.622095 C129.440096,137.125968 122.068649,137.125968 117.564776,132.622095 L76,91.0573194 L93.0573194,74 L134.622095,115.564776 C139.125968,120.068649 139.125968,127.437781 134.622095,131.941654" id="Fill-25" fill="url(#linearGradient-1)"></path>
                        <path d="M75.7174335,65 L88,77.2825665 L79.280169,86 L67,73.7174335 C68.620733,72.5090764 70.17913,71.1544697 71.6703962,69.6679986 C73.1568672,68.1815276 74.5114739,66.620733 75.7174335,65" id="Fill-27" fill="#E0E2EE"></path>
                        <polygon id="Fill-29" fill="#EF545F" points="134 115.053576 117.051276 132 114 128.946424 130.946424 112"></polygon>
                        <polygon id="Fill-31" fill="url(#linearGradient-2)" points="94 74.5868179 76.5871234 92 74 89.4131821 91.4128766 72"></polygon>
                        <path d="M56,14.2986225 L13.2964989,57 C11.6882833,54.1177085 10.5947881,51.0592769 10,47.8979064 L46.8974537,11 C50.0566939,11.6176339 53.1175651,12.7087871 56,14.2986225" id="Fill-33" fill-opacity="0.5" fill="#FFFFFF"></path>
                        <path d="M70,24.4483811 L23.8328703,68 C22.1795619,66.911608 20.6059019,65.6865978 19.1384398,64.3021996 C18.3829865,63.5895077 17.6685641,62.8586001 17,62.086707 L63.7294959,18 C64.5477025,18.6329979 65.3248782,19.3069812 66.0779179,20.019673 C67.54538,21.4040712 68.8656132,22.8863792 70,24.4483811" id="Fill-35" fill-opacity="0.5" fill="#FFFFFF"></path>
                    </g>
                </g>
            </g>
        </g>
    </g>
</svg>