<?xml version="1.0" encoding="UTF-8"?>
<svg width="285px" height="259px" viewBox="0 0 285 259" version="1.1" xmlns="http://www.w3.org/2000/svg" xmlns:xlink="http://www.w3.org/1999/xlink">
    <title>E2D45BD6-64B2-4D09-B741-84986E894390@1x</title>
    <g id="Page-1" stroke="none" stroke-width="1" fill="none" fill-rule="evenodd">
        <g id="L1.-Global-search-" transform="translate(-551.000000, -362.000000)">
            <g id="Untitled-2-02" transform="translate(554.000000, 366.000000)">
                <polygon id="Rectangle" fill="#F7FAFE" fill-rule="nonzero" transform="translate(89.001176, 219.018624) rotate(-84.730000) translate(-89.001176, -219.018624) " points="56.2811788 195.778196 121.721173 195.778196 121.721173 242.259051 56.2811788 242.259051"></polygon>
                <path d="M76.5,198.326087 C84.4675704,211.218136 88.6290325,226.133832 88.4969508,241.326087" id="Path" stroke="#FFFFFF" stroke-width="1.48" stroke-linecap="round"></path>
                <path d="M237.5,100.326087 L212.5,100.326087 C213.884519,93.9244371 218.408528,88.6571342 224.524393,86.326087 C224.524393,86.326087 236.487512,87.339437 237.5,100.326087" id="Path" fill="#E0E5EF" fill-rule="nonzero" opacity="0.329915365"></path>
                <path d="M224.5,86.326087 C216.775638,89.2601087 211.671707,96.6539396 211.676057,104.903545 L211.676057,224.794068 C211.676005,238.297183 201.162177,249.475223 187.661182,250.326087 C182.558021,249.774756 178.550539,244.600035 178.550539,238.34063 L178.550539,235.760761 C178.550539,229.468396 182.612054,224.284686 187.73923,223.775304 C187.466061,223.748337 187.18989,223.733355 186.910717,223.733355 L90.5,223.733355 L90.5,111.909044 C90.5016575,97.7806524 101.975573,86.3277414 116.129875,86.326087 L224.5,86.326087 Z" id="Path" fill="#EBF1FC" fill-rule="nonzero"></path>
                <path d="M107.704433,109.326087 L115.281273,109.326087 C116.506642,109.326087 117.5,110.339585 117.5,111.589798 L117.5,117.062376 C117.5,118.312589 116.506642,119.326087 115.281273,119.326087 L107.704433,119.326087 C106.483996,119.319661 105.498411,118.307573 105.5,117.062376 L105.5,111.589798 C105.498411,110.344601 106.483996,109.332513 107.704433,109.326087 Z" id="Path" stroke="#FFFFFF" stroke-width="2"></path>
                <path d="M107.713759,128.326087 L115.283385,128.326087 C116.507588,128.326087 117.5,129.340176 117.5,130.591119 L117.5,136.061055 C117.5,137.311998 116.507588,138.326087 115.283385,138.326087 L107.713759,138.326087 C106.491133,138.326087 105.5,137.313304 105.5,136.063974 L105.5,130.591119 C105.5,129.341315 106.490672,128.327698 107.713759,128.326087 L107.713759,128.326087 Z" id="Path" stroke="#FFFFFF" stroke-width="2"></path>
                <path d="M107.713759,148.326087 L115.283385,148.326087 C116.507588,148.326087 117.5,149.340176 117.5,150.591119 L117.5,156.061055 C117.5,157.311998 116.507588,158.326087 115.283385,158.326087 L107.713759,158.326087 C106.491133,158.326087 105.5,157.313304 105.5,156.063974 L105.5,150.591119 C105.5,149.341315 106.490672,148.327698 107.713759,148.326087 L107.713759,148.326087 Z" id="Path" stroke="#FFFFFF" stroke-width="2"></path>
                <path d="M107.713759,167.326087 L115.283385,167.326087 C116.507588,167.326087 117.5,168.340176 117.5,169.591119 L117.5,175.061055 C117.5,176.311998 116.507588,177.326087 115.283385,177.326087 L107.713759,177.326087 C106.491133,177.326087 105.5,176.313304 105.5,175.063974 L105.5,169.591119 C105.5,168.341315 106.490672,167.327698 107.713759,167.326087 L107.713759,167.326087 Z" id="Path" stroke="#FFFFFF" stroke-width="2"></path>
                <path d="M197.410581,116.326087 L121.589419,116.326087 C120.989095,116.323391 120.503236,115.918655 120.5,115.418565 L120.5,115.233609 C120.501627,114.732961 120.988424,114.327442 121.589419,114.326087 L197.410581,114.326087 C198.011576,114.327442 198.498373,114.732961 198.5,115.233609 L198.5,115.418565 C198.496764,115.918655 198.010905,116.323391 197.410581,116.326087" id="Path" fill="#FFFFFF" fill-rule="nonzero"></path>
                <path d="M197.410581,136.326087 L121.589419,136.326087 C120.988424,136.324732 120.501627,135.919213 120.5,135.418565 L120.5,135.233609 C120.503236,134.733519 120.989095,134.328783 121.589419,134.326087 L197.410581,134.326087 C198.010905,134.328783 198.496764,134.733519 198.5,135.233609 L198.5,135.418565 C198.498373,135.919213 198.011576,136.324732 197.410581,136.326087" id="Path" fill="#FFFFFF" fill-rule="nonzero"></path>
                <path d="M197.410581,155.326087 L121.589419,155.326087 C120.987946,155.323384 120.501617,154.917655 120.5,154.41722 L120.5,154.232491 C120.503236,153.733017 120.989095,153.32878 121.589419,153.326087 L197.410581,153.326087 C198.010905,153.32878 198.496764,153.733017 198.5,154.232491 L198.5,154.41722 C198.498383,154.917655 198.012054,155.323384 197.410581,155.326087" id="Path" fill="#FFFFFF" fill-rule="nonzero"></path>
                <path d="M157.733533,175.326087 L121.266467,175.326087 C120.843159,175.326087 120.5,175.043436 120.5,174.694768 L120.5,173.95494 C120.501649,173.607236 120.844325,173.326087 121.266467,173.326087 L157.733533,173.326087 C158.155675,173.326087 158.498351,173.607236 158.5,173.95494 L158.5,174.694768 C158.5,175.043436 158.156841,175.326087 157.733533,175.326087" id="Path" fill="#FFFFFF" fill-rule="nonzero"></path>
                <path d="M187.422953,251.274479 C186.892518,251.307872 186.356155,251.326087 185.819793,251.326087 L91.5,251.326087 L91.5,224.326087 L186.682121,224.326087 C186.957711,224.326087 187.230337,224.326087 187.5,224.368588 C182.441598,224.884666 178.429251,230.136521 178.429251,236.511605 L178.429251,239.140569 C178.429251,245.473152 182.400111,250.7159 187.422953,251.283586" id="Path" fill="#D6DFF2" fill-rule="nonzero"></path>
                <path d="M187.422922,251.283509 C187.448522,251.286659 187.474399,251.286659 187.5,251.283509 C187.228224,251.31297 186.955076,251.327163 186.681785,251.326087 L84.39003,251.326087 C81.381013,251.326087 78.6773446,249.649726 76.8600762,247.016845 C76.4967379,246.490463 76.1736294,245.936122 75.8936333,245.358767 L75.8936333,245.358767 L75.7987677,245.164414 C75.7987677,245.164414 75.7987677,245.164414 75.7987677,245.164414 C75.2384677,243.951879 74.8549187,242.661675 74.660381,241.335045 L74.660381,241.335045 C74.5527014,240.610444 74.5,239.87848 74.5,239.145532 L74.5,236.515688 C74.4844205,234.058224 75.108664,231.640888 76.3086701,229.512893 C77.9302783,226.682622 80.5064712,224.729978 83.444339,224.383786 C83.758249,224.346231 84.0739876,224.326967 84.39003,224.326087 L186.681785,224.326087 C186.957488,224.326087 187.230226,224.326087 187.5,224.368602 C182.439515,224.884853 178.425516,230.138468 178.425516,236.515688 L178.425516,239.145532 C178.425516,245.480238 182.398012,250.724743 187.422922,251.292619" id="Path" fill="#DDE6F5" fill-rule="nonzero"></path>
                <path d="M64.1042841,245.252378 C64.2057497,246.980023 64.4661781,248.860859 64.5,250.582831 C64.5,250.945948 64.3173619,251.084954 63.9013529,251.110486 C62.548478,251.187081 60.9487035,251.303392 59.602593,251.326087 C59.1527621,251.326087 58.9261556,251.181407 58.9092446,250.784247 C58.7841037,248.560152 58.5710259,246.083577 58.5,243.870829 C58.5,243.394237 58.8010147,243.232537 59.3117249,243.377216 C60.6645998,243.763029 62.2812852,244.299194 63.651071,244.733233 C63.93518,244.787491 64.128398,245.008817 64.1042841,245.252378" id="Path" fill="#F3F7FC" fill-rule="nonzero"></path>
                <path d="M235.5,219.222383 L235.448338,219.51868 C234.649088,220.534976 227.364676,221.326087 218.5,221.326087 C209.635324,221.326087 202.347873,220.534976 201.548624,219.51868 L201.5,219.222383 C201.520922,219.17899 201.5486,219.139012 201.582052,219.103865 C202.524133,218.108309 209.738649,217.326087 218.5,217.326087 C227.261351,217.326087 234.472828,218.09942 235.417948,219.103865 C235.4514,219.139012 235.479078,219.17899 235.5,219.222383" id="Path" fill="#D2DAE8" fill-rule="nonzero"></path>
                <path d="M219.176331,222.326087 C217.666512,220.467641 216.378965,216.228344 216.509075,213.733404 C216.639185,211.238463 217.349369,208.83059 218.010762,206.440732 C218.672154,204.050873 219.298309,201.60397 219.265781,199.103025 C219.230543,196.490993 218.474279,193.854943 218.994719,191.296953 C219.38776,189.318414 220.501827,187.61609 221.16322,185.721617 C222.133624,182.908429 222.052305,179.810019 222.187836,176.801679 C222.323367,173.793339 222.740804,170.613866 224.5,168.326087" id="Path" stroke="#FFFFFF" stroke-width="0.89" stroke-linecap="round"></path>
                <path d="M197.5,190.326087 C197.768519,193.832039 200.32716,196.678546 202.098765,199.739826 C203.228395,201.690939 204.058642,203.7933 205.024691,205.829112 C207.339506,210.71748 212.740741,217.381512 216.5,221.326087" id="Path" stroke="#FFFFFF" stroke-width="0.89" stroke-linecap="round"></path>
                <path d="M220.5,221.326087 C221.043662,217.873842 222.851798,212.948006 225.298278,210.684142 C226.180966,209.86713 227.170554,209.112509 227.741705,208.066734 C228.42281,206.812993 228.416701,205.279982 229.146675,204.050009 C229.8064,202.935902 230.979245,202.219903 231.932181,201.331589 C233.376857,199.988719 234.375607,198.215061 235.902749,196.967262 C237.735319,195.463961 240.178745,194.887597 242.5,194.326087" id="Path" stroke="#FFFFFF" stroke-width="0.89" stroke-linecap="round"></path>
                <path d="M229.654012,251.797262 L229.49247,251.797262 C229.599148,251.868647 229.654012,251.943006 229.654012,252.017365 C229.654012,252.737162 224.661452,253.326087 218.501524,253.326087 C212.341596,253.326087 207.345988,252.731213 207.345988,252.017365 C207.359807,251.929113 207.413517,251.851585 207.49229,251.806185 L207.345988,251.806185 L201.5,219.326087 C202.301614,220.346295 209.607575,221.140451 218.501524,221.140451 C227.395473,221.140451 234.701434,220.346295 235.5,219.326087 L229.654012,251.797262 Z" id="Path" fill="#DDE6F5" fill-rule="nonzero"></path>
                <path d="M230.158718,252.579363 C223.192248,254.908328 215.804931,254.908328 208.838462,252.579363 L208.5,250.326087 C210.257179,250.934636 214.521795,251.365555 219.5,251.365555 C224.478205,251.365555 228.737179,250.937925 230.5,250.326087 L230.158718,252.579363 Z" id="Path" fill="#D2DAE8" fill-rule="nonzero"></path>
                <path d="M117.126382,28.0924631 L130.420949,62.4245088 C130.536386,62.7146513 130.525004,63.0370694 130.389369,63.319086 C130.253733,63.6011027 130.005261,63.818982 129.69996,63.9236112 L103.454729,73.250397 C103.151703,73.3609261 102.81497,73.3500279 102.520431,73.2201589 C102.225893,73.09029 101.99834,72.8523807 101.889065,72.5600589 L88.5794142,38.2280132 C88.4638327,37.9382433 88.4747933,37.6161448 88.6098297,37.3341935 C88.7448662,37.0522421 88.9926356,36.8341213 89.2973872,36.7289108 L95.8767951,34.3921595 L96.6581187,36.4140704 C96.9513695,37.1513736 97.8083086,37.5269039 98.582769,37.257496 L109.228679,33.4794112 C109.999912,33.1997812 110.393624,32.3789292 110.11257,31.6365839 L109.331247,29.6146731 L115.560718,27.402125 C115.863354,27.2914572 116.199754,27.3019519 116.494225,27.4312475 C116.788695,27.5605431 117.0165,27.7977791 117.126382,28.0895747" id="Path" fill="#87A1D3" fill-rule="nonzero" opacity="0.329915365"></path>
                <path d="M127.780038,60.5367391 L104.017178,69.2581897 C103.447413,69.4664284 102.81474,69.1796833 102.601872,68.6167335 L90.5688025,36.5144978 C90.4670597,36.243336 90.4785383,35.943253 90.6007048,35.680479 C90.7228713,35.417705 90.9456823,35.2138432 91.219962,35.113887 L114.985795,26.3953788 C115.259372,26.2937233 115.562624,26.3042737 115.828312,26.4246908 C116.094,26.5451079 116.300167,26.7654408 116.401101,27.036835 L128.431197,59.1449556 C128.53294,59.4161175 128.521462,59.7162005 128.399295,59.9789745 C128.277129,60.2417485 128.054318,60.4456103 127.780038,60.5455665" id="Path" fill="#D6DFF2" fill-rule="nonzero"></path>
                <path d="M120.355042,43.9874861 L108.811885,50.301526 C108.695069,50.3710036 108.562158,50.2880609 108.514617,50.1160173 L108.514617,50.09578 C108.493197,50.01171 108.495393,49.9185108 108.520718,49.8368368 C108.546043,49.7551628 108.592405,49.6917595 108.649531,49.6606779 L120.192688,43.346638 C120.310751,43.2830486 120.441476,43.3719274 120.485383,43.5456382 L120.485383,43.5658755 C120.506803,43.6499456 120.504607,43.7431448 120.479282,43.8248188 C120.453957,43.9064927 120.407595,43.9698961 120.350469,44.0009776" id="Path" fill="#87A1D3" fill-rule="nonzero" opacity="0.329915365"></path>
                <path d="M122.340485,46.9868142 L109.835399,53.3045484 C109.773653,53.3361113 109.705202,53.3328758 109.645216,53.295559 C109.58523,53.2582422 109.538663,53.189926 109.515835,53.1057504 L109.515835,53.0855337 C109.49263,53.001549 109.495009,52.9084445 109.522444,52.8268535 C109.54988,52.7452625 109.600106,52.6819235 109.661992,52.6508735 L122.167079,46.3466172 C122.29498,46.2830924 122.436599,46.3718809 122.484165,46.5454152 L122.484165,46.565632 C122.50737,46.6496166 122.504991,46.7427211 122.477556,46.8243121 C122.45012,46.9059031 122.399894,46.9692421 122.338008,47.0002921" id="Path" fill="#87A1D3" fill-rule="nonzero"></path>
                <path d="M122.340485,46.9864963 L109.835399,53.3045588 C109.773653,53.3361065 109.705202,53.3328726 109.645216,53.2955737 C109.58523,53.2582748 109.538663,53.1899915 109.515835,53.1058564 L109.515835,53.0856494 C109.49263,53.0017051 109.495009,52.9086454 109.522444,52.8270937 C109.54988,52.7455419 109.600106,52.6822334 109.661992,52.6511984 L122.167079,46.3466073 C122.29498,46.283113 122.436599,46.3718588 122.484165,46.5453097 L122.484165,46.5655167 C122.50737,46.6494609 122.504991,46.7425207 122.477556,46.8240724 C122.45012,46.9056242 122.399894,46.9689326 122.338008,46.9999677" id="Path" fill="#87A1D3" fill-rule="nonzero" opacity="0.329915365"></path>
                <path d="M123.352747,56.0002921 L111.808932,62.3045484 C111.751933,62.3361113 111.688744,62.3328758 111.633369,62.295559 C111.577994,62.2582422 111.535007,62.189926 111.513934,62.1057504 L111.513934,62.0855337 C111.47082,61.9115666 111.53108,61.7189406 111.648855,61.654243 L123.19267,55.3466172 C123.31074,55.2830924 123.441473,55.3718809 123.485382,55.5454152 L123.485382,55.565632 C123.506803,55.6496166 123.504608,55.7427211 123.479281,55.8243121 C123.453955,55.9059031 123.407589,55.9692421 123.35046,56.0002921" id="Path" fill="#87A1D3" fill-rule="nonzero" opacity="0.329915365"></path>
                <path d="M124.343665,59.0197477 L111.835482,65.3046032 C111.773721,65.3360858 111.705253,65.3328586 111.645252,65.2956367 C111.585251,65.2584148 111.538673,65.1902724 111.515839,65.106311 L111.515839,65.0861457 C111.492628,65.0023747 111.495008,64.9095071 111.52245,64.8281237 C111.549892,64.7467403 111.600131,64.6835625 111.662032,64.6525915 L124.16526,58.3475707 C124.227021,58.3160881 124.295489,58.3193154 124.355489,58.3565372 C124.41549,58.3937591 124.462069,58.4619015 124.484902,58.5458629 L124.484902,58.5693891 C124.531618,58.7429136 124.466324,58.9350494 124.338709,58.9995824" id="Path" fill="#87A1D3" fill-rule="nonzero"></path>
                <path d="M124.352724,58.9917753 L112.807118,65.3049331 C112.749816,65.3363575 112.686366,65.3326468 112.630932,65.2946294 C112.575498,65.2566119 112.532694,65.1874526 112.512074,65.1025883 L112.512074,65.0823538 C112.473097,64.9121688 112.531428,64.7268033 112.644729,64.6608021 L124.190336,58.3476444 C124.247344,58.3160538 124.310542,58.3192921 124.365926,58.3566417 C124.421309,58.3939912 124.464303,58.4623673 124.48538,58.5466168 L124.48538,58.5668512 C124.506804,58.6509095 124.504608,58.7440957 124.479278,58.8257583 C124.453947,58.9074208 124.407575,58.9708153 124.350437,59.0018926" id="Path" fill="#87A1D3" fill-rule="nonzero" opacity="0.329915365"></path>
                <path d="M100.571912,50.2569468 L100.820233,50.2569468 C102.426302,50.2569468 103.728278,51.5589231 103.728278,53.1649921 C103.728278,54.7710612 102.426302,56.0730374 100.820233,56.0730374 L100.571912,56.0730374 C98.9658433,56.0730374 97.6638671,54.7710612 97.6638671,53.1649921 C97.6638671,51.5589231 98.9658433,50.2569468 100.571912,50.2569468 Z" id="Rectangle" stroke="#87A1D3" stroke-width="1.24" opacity="0.329915365" transform="translate(100.696073, 53.164992) rotate(-20.340000) translate(-100.696073, -53.164992) "></path>
                <path d="M108.512959,68.1111095 L105.552403,69.2318617 C104.768039,69.5230416 103.900142,69.117163 103.603141,68.3202749 L102.591847,65.5355647 C102.307199,64.7332271 102.705946,63.8460383 103.487041,63.5438101 L106.447597,62.4199361 C107.232817,62.129083 108.101079,62.5365223 108.396859,63.3346447 L109.408153,66.1193549 C109.692801,66.9216925 109.294054,67.8088813 108.512959,68.1111095 Z" id="Path" stroke="#87A1D3" stroke-width="1.24" opacity="0.329915365"></path>
                <path d="M41.6568011,179.326087 C32.0364815,173.622368 28.2538791,161.18826 28.9359389,149.963941 C29.6179987,138.739621 33.8741711,128.100684 36.7066553,117.22159 C39.6751323,105.898923 41.0526805,94.2124551 40.7990141,82.5039514 C40.6709418,76.5420638 40.0007957,70.3550293 36.9568431,65.2517016 C33.9128906,60.1483738 27.9143384,56.3839191 22.1332113,57.6717589 C20.346155,58.0680172 18.5590988,59.0376495 17.835341,60.7157438 C16.8703306,62.9311884 18.1182915,65.5669071 19.92024,67.1519407 C25.4184164,71.9550727 34.3119998,69.4034088 39.6523197,64.4201593 C44.9926395,59.4369099 48.2748662,52.574435 53.2696885,47.2399565 C61.5795002,38.3661701 74.7143638,34.4035862 86.5,37.2224243" id="Path" stroke="#E6EEF9" stroke-width="1.79" stroke-linecap="round" stroke-dasharray="10.73"></path>
                <path d="M132.5,54.6184707 C143.823122,64.5251484 159.664634,68.4686414 174.685717,67.0782305 C189.7068,65.6878196 203.94365,59.3530596 216.35565,50.8427859 C219.311606,48.817101 222.28566,46.5397038 223.854127,43.3303718 C225.422593,40.1210397 225.114932,35.7340535 222.249465,33.5825125 C219.878667,31.8055434 216.428041,32.048266 213.82499,33.4686427 C211.221938,34.8890193 209.300567,37.2802864 207.614465,39.7045157 C204.62533,43.9866217 202.001165,49.3085394 203.693299,54.2409022 C204.969186,57.9566555 208.459024,60.5157308 212.108725,62.0319978 C215.758426,63.5482649 219.700706,64.2165012 223.407717,65.5679566 C233.388593,69.2087955 241.028835,77.4973226 246.385751,86.6218942 C251.477235,95.2909864 254.894682,105.200661 254.463354,115.221208 C253.79374,130.938245 244.020987,144.659563 234.637334,157.326087" id="Path" stroke="#E6EEF9" stroke-width="1.79" stroke-linecap="round" stroke-dasharray="10.73"></path>
                <path d="M0.641163037,218.1494 C1.29041375,215.468855 3.98809513,213.820599 6.66967169,214.466041 C9.35124826,215.111483 11.0033796,217.806718 10.3616897,220.489083 C9.71999981,223.171447 7.02697667,224.827303 4.34359084,224.189423 C3.0496752,223.88273 1.93142688,223.072862 1.23649708,221.939175 C0.541567279,220.805489 0.327305547,219.441542 0.641163037,218.1494 L0.641163037,218.1494 Z" id="Path" stroke="#F7FAFE" stroke-width="6.77"></path>
                <path d="M242.637015,37.1683183 C243.105296,35.2008397 244.712678,33.709272 246.709504,33.3892598 C248.706329,33.0692475 250.699267,33.9838263 251.75884,35.7064503 C252.818414,37.4290743 252.735911,39.6204243 251.54981,41.2584879 C250.363708,42.8965516 248.307644,43.6586662 246.340535,43.189393 C243.655708,42.5489013 241.997878,39.853649 242.637015,37.1683183 L242.637015,37.1683183 Z" id="Path" stroke="#F7FAFE" stroke-width="6.77"></path>
                <path d="M76.6362778,4.16695624 C77.2763319,1.48219635 79.9713509,-0.175878023 82.6566772,0.462986073 C85.3420035,1.10185017 87.0013857,3.79587709 86.363569,6.48116928 C85.7257523,9.16646146 83.0321159,10.8267805 80.3462581,10.1901537 C79.0550303,9.88409503 77.9384705,9.07729542 77.2425809,7.94751027 C76.5466912,6.81772512 76.3285714,5.45765627 76.6362778,4.16695624 Z" id="Path" stroke="#F3F7FC" stroke-width="6.77"></path>
                <path d="M266.636737,96.1675876 C267.105385,94.1999675 268.713352,92.7085539 270.710571,92.3890462 C272.707789,92.0695385 274.700761,92.9848868 275.759826,94.708109 C276.818891,96.4313311 276.73539,98.6229134 275.548272,100.260549 C274.361155,101.898185 272.304311,102.659223 270.337195,102.188662 C269.047945,101.881137 267.93371,101.073939 267.239705,99.9447117 C266.5457,98.8154846 266.328799,97.4567699 266.636737,96.1675876 L266.636737,96.1675876 Z" id="Path" stroke="#F3F7FC" stroke-width="6.77"></path>
                <path d="M252.5,170.263506 C252.509533,169.413799 253.204415,168.731783 254.05415,168.738178 L257.973949,168.772713 L258.008485,164.852908 C258.013112,164.30282 258.310855,163.796986 258.789558,163.525949 C259.268262,163.254912 259.855198,163.259849 260.329274,163.5389 C260.80335,163.817951 261.092543,164.328722 261.087916,164.87881 L261.05338,168.798615 L264.97318,168.833151 C265.823541,168.840304 266.507097,169.535457 266.5,170.38582 C266.492792,171.236182 265.797639,171.919739 264.947278,171.912587 L261.027479,171.878051 L260.992943,175.797856 C260.983457,176.648022 260.289041,177.330865 259.438837,177.326087 C258.590466,177.313451 257.910264,176.620414 257.913512,175.771954 L257.948047,171.852149 L254.028248,171.817613 C253.177415,171.8097 252.493658,171.114353 252.5,170.263506" id="Path" fill="#E6EEF9" fill-rule="nonzero"></path>
                <path d="M273.5,225.338557 C273.505943,224.853955 273.90238,224.465059 274.387424,224.46805 L276.627403,224.486858 L276.646227,222.248797 C276.630861,221.922808 276.797062,221.615026 277.078184,221.448865 C277.359307,221.282704 277.709319,221.285374 277.98787,221.455803 C278.266421,221.626233 278.427899,221.936514 278.407555,222.26223 L278.388731,224.502978 L280.628711,224.521785 C280.942861,224.524665 281.231611,224.69478 281.38619,224.968049 C281.540769,225.241318 281.537694,225.576226 281.378123,225.846616 C281.218552,226.117005 280.926727,226.281798 280.612576,226.278919 L278.372597,226.260111 L278.353774,228.500859 C278.323991,228.967977 277.933917,229.330337 277.46547,229.326087 C276.997024,229.321762 276.613659,228.952323 276.592446,228.484739 L276.611269,226.246678 L274.37129,226.225184 C274.138077,226.223056 273.915262,226.128446 273.751869,225.962169 C273.588475,225.795892 273.497888,225.57157 273.5,225.338557" id="Path" fill="#E6EEF9" fill-rule="nonzero"></path>
                <path d="M0.5,125.339335 C0.505943435,124.854639 0.902380388,124.465668 1.38742401,124.46866 L3.62740296,124.48747 L3.64622631,122.248975 C3.63086089,121.922924 3.79706137,121.615082 4.07818411,121.448889 C4.35930684,121.282696 4.70931815,121.285366 4.98786929,121.455828 C5.26642044,121.626291 5.42789883,121.936633 5.4075543,122.262412 L5.38873095,124.503594 L7.62870989,124.522405 C8.11434463,124.526857 8.50441758,124.923891 8.5,125.409204 C8.49550685,125.894517 8.09821032,126.284331 7.61257559,126.279879 L5.37259664,126.261068 L5.35377329,128.499563 C5.32459927,128.96673 4.93511696,129.329634 4.46674465,129.326087 C3.99837235,129.322488 3.61447929,128.953684 3.59244531,128.486127 L3.61126866,126.247632 L1.37128971,126.226133 C1.13807659,126.224005 0.91526244,126.129377 0.751868828,125.963068 C0.588475215,125.796758 0.49788801,125.572393 0.5,125.339335" id="Path" fill="#E6EEF9" fill-rule="nonzero"></path>
                <path d="M149.5,20.2686871 C149.504465,19.7799428 149.903463,19.3869379 150.392153,19.3899385 L152.646855,19.4088654 L152.665779,17.1565651 C152.695722,16.6864752 153.087889,16.3218101 153.558849,16.326087 C154.029809,16.3304396 154.415231,16.7022285 154.436559,17.1727881 L154.414931,19.4250885 L156.669633,19.4440153 C157.13966,19.4739622 157.504276,19.866182 157.5,20.337205 C157.495648,20.808228 157.123909,21.1937016 156.653412,21.2150318 L154.401413,21.1961049 L154.382489,23.4484053 C154.379854,23.80677 154.161184,24.1280981 153.828814,24.2620119 C153.496444,24.3959258 153.116123,24.3159347 152.865837,24.0594735 C152.700266,23.8930395 152.608669,23.6669422 152.61171,23.4321822 L152.630634,21.1798819 L150.378635,21.160955 C149.890582,21.1550223 149.498485,20.7568398 149.5,20.2686871" id="Path" fill="#E6EEF9" fill-rule="nonzero"></path>
            </g>
        </g>
    </g>
</svg>