<?xml version="1.0" encoding="UTF-8"?>
<svg width="28px" height="28px" viewBox="0 0 28 28" version="1.1" xmlns="http://www.w3.org/2000/svg" xmlns:xlink="http://www.w3.org/1999/xlink">
    <!-- Generator: sketchtool 63.1 (101010) - https://sketch.com -->
    <title></title>
    <desc>Created with sketchtool.</desc>
    <g id="Web" stroke="none" stroke-width="1" fill="none" fill-rule="evenodd">
        <g id="1.10--Scan" transform="translate(-1375.000000, -86.000000)">
            <g id="iconspace_Delete-Copy-2" transform="translate(1369.000000, 80.000000)">
                <circle id="Shape" cx="20" cy="20" r="20"></circle>
                <path d="M9.33931401,9.375 L30.660686,9.375 L29.4396301,31.3540063 C29.3844304,32.3475998 28.5626426,33.125 27.5675169,33.125 L12.4324831,33.125 C11.4373574,33.125 10.6155696,32.3475998 10.5603699,31.3540063 L9.33931401,9.375 Z" id="Shape" fill="#154E84" fill-rule="nonzero"></path>
                <path d="M10.660686,10.625 L11.8084454,31.2846688 C11.8268452,31.6158666 12.1007745,31.875 12.4324831,31.875 L27.5675169,31.875 C27.8992255,31.875 28.1731548,31.6158666 28.1915546,31.2846688 L29.339314,10.625 L10.660686,10.625 Z" id="Shape" fill="#FFFFFF" fill-rule="nonzero"></path>
                <path d="M24.3762171,16.2110136 L23.7512171,26.2110136 C23.7296855,26.5555193 23.9915078,26.8522513 24.3360136,26.8737829 C24.6805193,26.8953145 24.9772513,26.6334922 24.9987829,26.2889864 L25.6237829,16.2889864 C25.6453145,15.9444807 25.3834922,15.6477487 25.0389864,15.6262171 C24.6944807,15.6046855 24.3977487,15.8665078 24.3762171,16.2110136 Z" id="Shape" fill="#52ABE2" fill-rule="nonzero"></path>
                <path d="M19.375,16.25 L19.375,26.25 C19.375,26.595178 19.654822,26.875 20,26.875 C20.345178,26.875 20.625,26.595178 20.625,26.25 L20.625,16.25 C20.625,15.904822 20.345178,15.625 20,15.625 C19.654822,15.625 19.375,15.904822 19.375,16.25 Z" id="Shape" fill="#52ABE2" fill-rule="nonzero"></path>
                <path d="M16.2487829,26.2110136 L15.6237829,16.2110136 C15.6022513,15.8665078 15.3055193,15.6046855 14.9610136,15.6262171 C14.6165078,15.6477487 14.3546855,15.9444807 14.3762171,16.2889864 L15.0012171,26.2889864 C15.0227487,26.6334922 15.3194807,26.8953145 15.6639864,26.8737829 C16.0084922,26.8522513 16.2703145,26.5555193 16.2487829,26.2110136 Z" id="Shape" fill="#52ABE2" fill-rule="nonzero"></path>
                <path d="M8.14161841,9.375 L31.875,9.375 C32.5653559,9.375 33.125,9.93464406 33.125,10.625 L33.125,11.875 C33.125,12.5653559 32.5653559,13.125 31.875,13.125 L8.13055579,13.125 C7.44019985,13.125 6.88055579,12.5653559 6.88055579,11.875 L6.88055579,11.8639378 L6.89166736,10.6139378 C6.89773864,9.9279249 7.45557863,9.375 8.14161841,9.375 Z" id="Shape" fill="#154E84" fill-rule="nonzero"></path>
                <polygon id="Shape" fill="#FFC200" fill-rule="nonzero" points="8.13055579 11.875 31.875 11.875 31.875 10.625 8.14161841 10.625"></polygon>
                <path d="M15.690983,7.2204915 C15.796853,7.00875149 16.0132675,6.875 16.25,6.875 L23.75,6.875 C23.9867325,6.875 24.203147,7.00875149 24.309017,7.2204915 L25.559017,9.7204915 C25.7667986,10.1360547 25.4646138,10.625 25,10.625 L15,10.625 C14.5353862,10.625 14.2332014,10.1360547 14.440983,9.7204915 L15.690983,7.2204915 Z M16.0112712,9.375 L23.9887288,9.375 L23.3637288,8.125 L16.6362712,8.125 L16.0112712,9.375 Z" id="Shape" fill="#154E84" fill-rule="nonzero"></path>
            </g>
        </g>
    </g>
</svg>