<?xml version="1.0" encoding="UTF-8"?>
<svg width="28px" height="24px" viewBox="0 0 28 24" version="1.1" xmlns="http://www.w3.org/2000/svg" xmlns:xlink="http://www.w3.org/1999/xlink">
    <!-- Generator: sketchtool 63.1 (101010) - https://sketch.com -->
    <title></title>
    <desc>Created with sketchtool.</desc>
    <g id="Web" stroke="none" stroke-width="1" fill="none" fill-rule="evenodd">
        <g id="1.10--Scan" transform="translate(-1247.000000, -88.000000)">
            <g id="iconspace_Folder-Copy" transform="translate(1241.000000, 80.000000)">
                <circle id="Shape" cx="20" cy="20" r="20"></circle>
                <path d="M8.75,10 L31.25,10 C32.2855339,10 33.125,10.8394661 33.125,11.875 L33.125,26.875 C33.125,27.9105339 32.2855339,28.75 31.25,28.75 L8.75,28.75 C7.71446609,28.75 6.875,27.9105339 6.875,26.875 L6.875,11.875 C6.875,10.8394661 7.71446609,10 8.75,10 Z" id="Shape" fill="#154E84" fill-rule="nonzero"></path>
                <path d="M8.75,11.25 C8.40482203,11.25 8.125,11.529822 8.125,11.875 L8.125,26.875 C8.125,27.220178 8.40482203,27.5 8.75,27.5 L31.25,27.5 C31.595178,27.5 31.875,27.220178 31.875,26.875 L31.875,11.875 C31.875,11.529822 31.595178,11.25 31.25,11.25 L8.75,11.25 Z" id="Shape" fill="#52ABE2" fill-rule="nonzero"></path>
                <path d="M9.5,8.75 L13.2221483,8.75 C13.7771867,8.75 14.3072642,8.98065233 14.6855829,9.38678352 L18.1568243,13.1132165 C18.5351431,13.5193477 19.0652206,13.75 19.6202589,13.75 L32.5,13.75 L32.5,13.75 L32.5,29.25 C32.5,30.3545695 31.6045695,31.25 30.5,31.25 L9.5,31.25 C8.3954305,31.25 7.5,30.3545695 7.5,29.25 L7.5,10.75 C7.5,9.6454305 8.3954305,8.75 9.5,8.75 Z" id="Shape" fill="#FFC200"></path>
                <path d="M9.5,8.75 L13.2221483,8.75 C13.7771867,8.75 14.3072642,8.98065233 14.6855829,9.38678352 L18.1568243,13.1132165 C18.5351431,13.5193477 19.0652206,13.75 19.6202589,13.75 L32.5,13.75 L32.5,13.75 L32.5,26.75 C32.5,27.8545695 31.6045695,28.75 30.5,28.75 L9.5,28.75 C8.3954305,28.75 7.5,27.8545695 7.5,26.75 L7.5,10.75 C7.5,9.6454305 8.3954305,8.75 9.5,8.75 Z" id="Shape" fill="#FFFFFF"></path>
                <path d="M8.75,8.125 L13.5484954,8.125 C14.0688439,8.125 14.5657915,8.34123656 14.9204653,8.72198455 L18.8365885,12.9260052 C18.9548131,13.0529211 19.1204623,13.125 19.2939118,13.125 L32.5,13.125 C32.845178,13.125 33.125,13.404822 33.125,13.75 L33.125,30 C33.125,31.0355339 32.2855339,31.875 31.25,31.875 L8.75,31.875 C7.71446609,31.875 6.875,31.0355339 6.875,30 L6.875,10 C6.875,8.96446609 7.71446609,8.125 8.75,8.125 Z M31.875,14.375 L19.2939118,14.375 C18.7735634,14.375 18.2766157,14.1587634 17.9219419,13.7780155 L14.0058187,9.57399485 C13.8875941,9.44707885 13.7219449,9.375 13.5484954,9.375 L8.75,9.375 C8.40482203,9.375 8.125,9.65482203 8.125,10 L8.125,30 C8.125,30.345178 8.40482203,30.625 8.75,30.625 L31.25,30.625 C31.595178,30.625 31.875,30.345178 31.875,30 L31.875,14.375 Z" id="Shape" fill="#154E84" fill-rule="nonzero"></path>
                <path d="M16.6404574,20.7619857 C16.3709187,20.5463548 15.977611,20.5900556 15.76198,20.8595943 C15.546349,21.129133 15.5900499,21.5224408 15.8595886,21.7380717 L18.9845886,24.2380717 C19.2567417,24.4557942 19.6543939,24.4088514 19.8683682,24.1337416 L24.2433682,18.5087416 C24.4552869,18.2362746 24.4062029,17.8436024 24.1337359,17.6316836 C23.8612689,17.4197648 23.4685967,17.4688489 23.2566779,17.7413158 L19.2706831,22.8661663 L16.6404574,20.7619857 Z" id="Shape" fill="#52ABE2" fill-rule="nonzero"></path>
            </g>
        </g>
    </g>
</svg>